<svg xmlns="http://www.w3.org/2000/svg" width="32" height="32" fill="none"><g clip-path="url(#word_svg__a)"><rect width="26.4" height="26.4" y="5.6" fill="#C6CBDE" rx="5"/><rect width="26.4" height="26.4" x="4.8" y=".8" fill="#fff" stroke="#4D536E" rx="5"/><g clip-path="url(#word_svg__b)"><path fill="#41A5EE" d="M26 6H13.2c-.439 0-.8.361-.8.8v3.4l7.2 2.1 7.2-2.1V6.8c0-.439-.361-.8-.8-.8Z"/><path fill="#2B7CD3" d="M26.799 10.2h-14.4v4.2l7.2 2.1 7.2-2.1v-4.2Z"/><path fill="#185ABD" d="M26.799 14.4h-14.4v4.2l7.2 2.1 7.2-2.1v-4.2Z"/><path fill="#103F91" d="M26.799 18.6h-14.4V22c0 .44.362.8.8.8H26c.439 0 .8-.361.8-.8v-3.4Z"/><path fill="#000" fill-opacity=".098" d="M17.6 9h-5.2v11.4h5.2a.806.806 0 0 0 .799-.8V9.8a.806.806 0 0 0-.8-.8Z"/><path fill="#000" fill-opacity=".2" d="M17 9.6h-4.6V21H17a.806.806 0 0 0 .8-.8v-9.8a.806.806 0 0 0-.8-.8Zm0 0h-4.6v10.2H17a.806.806 0 0 0 .8-.8v-8.6a.806.806 0 0 0-.8-.8Zm-.6 0h-4v10.2h4a.805.805 0 0 0 .799-.8v-8.6a.806.806 0 0 0-.8-.8Z"/><path fill="#185ABD" d="M8.4 9.6h7.999c.439 0 .8.361.8.8v8a.803.803 0 0 1-.8.799h-8a.803.803 0 0 1-.799-.8v-8c0-.438.361-.799.8-.799Z"/><path fill="#fff" d="M14.77 17.4h-1.08l-1.26-4.14-1.32 4.14h-1.08l-1.2-6h1.08l.84 4.2 1.26-4.08h.9l1.2 4.08.84-4.2h1.02l-1.2 6Z"/></g></g><defs><clipPath id="word_svg__a"><path fill="#fff" d="M0 0h32v32H0z"/></clipPath><clipPath id="word_svg__b"><path fill="#fff" d="M7.6 4.4h19.2v19.2H7.6z"/></clipPath></defs></svg>