<svg width="229" height="229" fill="none" xmlns="http://www.w3.org/2000/svg">
  <g filter="url(#a)">
    <path d="M46.31 96.07S-16.18 197.4 7.78 221.35c23.95 23.96 125.28-38.53 125.28-38.53L46.31 96.07Z" fill="#70AEF9"/>
  </g>
  <path d="M47.34 97.1c-1.62 1.62-2.36 4.26-1.97 8.02.39 3.74 1.89 8.35 4.43 13.54 5.06 10.37 14.13 22.75 26.03 34.64 11.9 11.9 24.28 20.97 34.64 26.04 5.19 2.53 9.8 4.03 13.54 4.42 3.76.4 6.4-.35 8.02-1.97 1.62-1.62 2.36-4.27 1.97-8.02-.39-3.75-1.88-8.35-4.42-13.54-5.07-10.37-14.14-22.75-26.03-34.65-11.9-11.9-24.28-20.96-34.65-26.03-5.18-2.54-9.8-4.03-13.54-4.42-3.75-.4-6.4.35-8.02 1.97Z" fill="#70AEF9"/>
  <path d="M47.34 97.1c-1.62 1.62-2.36 4.26-1.97 8.02.39 3.74 1.89 8.35 4.43 13.54 5.06 10.37 14.13 22.75 26.03 34.64 11.9 11.9 24.28 20.97 34.64 26.04 5.19 2.53 9.8 4.03 13.54 4.42 3.76.4 6.4-.35 8.02-1.97 1.62-1.62 2.36-4.27 1.97-8.02-.39-3.75-1.88-8.35-4.42-13.54-5.07-10.37-14.14-22.75-26.03-34.65-11.9-11.9-24.28-20.96-34.65-26.03-5.18-2.54-9.8-4.03-13.54-4.42-3.75-.4-6.4.35-8.02 1.97Z" fill="url(#b)"/>
  <path d="M47.34 97.1c-1.62 1.62-2.36 4.26-1.97 8.02.39 3.74 1.89 8.35 4.43 13.54 5.06 10.37 14.13 22.75 26.03 34.64 11.9 11.9 24.28 20.97 34.64 26.04 5.19 2.53 9.8 4.03 13.54 4.42 3.76.4 6.4-.35 8.02-1.97 1.62-1.62 2.36-4.27 1.97-8.02-.39-3.75-1.88-8.35-4.42-13.54-5.07-10.37-14.14-22.75-26.03-34.65-11.9-11.9-24.28-20.96-34.65-26.03-5.18-2.54-9.8-4.03-13.54-4.42-3.75-.4-6.4.35-8.02 1.97Z" stroke="#A4BDF7" stroke-width="2.9"/>
  <g opacity=".8">
    <mask id="c" style="mask-type:alpha" maskUnits="userSpaceOnUse" x="2" y="96" width="132" height="131">
      <path d="M46.31 96.07S-16.18 197.4 7.78 221.35c23.95 23.96 125.28-38.53 125.28-38.53L46.31 96.07Z" fill="#FFB400"/>
    </mask>
    <g mask="url(#c)">
      <g filter="url(#d)">
        <path d="M105.34 203.35s-63.51-19.63-81.1-81.1" stroke="url(#e)" stroke-width="9.44" stroke-linecap="round"/>
      </g>
      <g filter="url(#f)">
        <path d="M83.27 225.42s-63.52-19.63-81.1-81.1" stroke="url(#g)" stroke-width="9.44" stroke-linecap="round"/>
      </g>
      <g filter="url(#h)">
        <path d="M43.84 126.65c-11.02 14.4-26.87 48.28-34.49 72.6" stroke="#fff" stroke-width="9.44" stroke-linecap="round"/>
      </g>
    </g>
  </g>
  <circle cx="140.89" cy="74.68" r="6.47" fill="#AB47BC"/>
  <circle cx="202.66" cy="174.09" r="6.47" fill="#B52555"/>
  <circle cx="56.18" cy="23.53" r="6.47" fill="#D2D755"/>
  <path d="m197.59 120.6-1.22-7.92c-.1-.73.23-1.45.9-1.72 4.86-2 15.42-2.84 17.15-1.54 1.62 1.2 2.4 4.87 2.6 8.48.06 1-.77 1.79-1.76 1.8a48.6 48.6 0 0 0-15.1 2.39c-1.12.38-2.39-.32-2.57-1.5Z" fill="#D2D755"/>
  <path d="m225.95 13.69-4.91 6.13c-.42.52-1.1.77-1.72.54-4.28-1.6-11.05-7.4-11.13-9.36-.08-1.82 2.1-4.84 4.58-7.46a1.76 1.76 0 0 1 2.53.02 35.64 35.64 0 0 0 9.86 7.09c1.13.54 1.57 2.06.79 3.04Z" fill="#B52555"/>
  <path d="m179.75 54.42 6.12 12.06c.3.57.87.95 1.5.9 6.35-.47 17.97-6.6 18.6-9.43.62-2.7-1.95-8.2-4.98-13.02a1.78 1.78 0 0 0-2.5-.49 46.7 46.7 0 0 1-17.27 7.18c-1.26.23-2.05 1.65-1.47 2.8Z" fill="#FF6C0E"/>
  <path d="m163.18 158.03-9.08-8.13c-.5-.44-.7-1.13-.46-1.75 2.3-5.73 11.1-14.98 13.85-14.93 2.62.04 6.85 3.55 10.35 7.35.68.74.57 1.88-.18 2.53a48.51 48.51 0 0 0-11.45 14.3c-.57 1.11-2.1 1.47-3.04.63Z" fill="#AB47BC"/>
  <path d="m56.5 63.76-7.73 3.19c-.62.25-1.33.15-1.77-.36-3.12-3.59-6.4-12.37-5.47-14.2.85-1.71 4.4-3.39 8.03-4.53.95-.3 1.93.3 2.2 1.25a37.17 37.17 0 0 0 5.51 11.62c.74 1.01.39 2.56-.77 3.03Z" fill="#B52555"/>
  <path d="M146 23.24a2.94 2.94 0 0 1 5.54-.73l4.2 8.8 9.66-1.26a2.94 2.94 0 0 1 2.41 5.05l-7.08 6.71 4.2 8.8a2.94 2.94 0 0 1-4.07 3.86l-8.57-4.66-7.07 6.7a2.94 2.94 0 0 1-4.92-2.67l1.78-9.59-8.56-4.66a2.94 2.94 0 0 1 1.02-5.5l9.67-1.26 1.78-9.6Zm49.18 111.88a1.76 1.76 0 0 1 2.62-2.08l6.98 4.62 6.56-5.2a1.76 1.76 0 0 1 2.8 1.85l-2.25 8.07 6.98 4.62c1.42.95.8 3.17-.9 3.24l-8.37.36-2.24 8.06a1.76 1.76 0 0 1-3.35.15l-2.93-7.85-8.36.36a1.76 1.76 0 0 1-1.18-3.15l6.56-5.2-2.92-7.85Z" fill="#FFB400"/>
  <path d="M112.11 77.54c1.81 13.9-41.16 33.89-43.47 35.71-2.3 1.83-.12 9.7.94 10.29 1.06.58 10.2-3.2 23.2-11.84 32.44-21.58 25.32-40.28 16.59-47.96-7.9-6.95-36.4-3.5-35.17-10.78 3.24-19.23 43.42-10.17 44.86-11 1.44-.85 2.33-8.83-.37-10.14-4.85-2.38-23.81-2.14-32.45-.33C76.6 33.5 65.53 43.02 70 58.54c4.92 17.12 40.31 5.1 42.12 19Z" fill="#FF6C0E"/>
  <mask id="i" style="mask-type:alpha" maskUnits="userSpaceOnUse" x="67" y="30" width="54" height="94">
    <path d="M112.11 77.54c1.8 13.9-41.16 33.9-43.47 35.72-2.3 1.83-.12 9.7.94 10.28 1.06.59 10.19-3.2 23.19-11.84 32.44-21.58 25.33-40.28 16.6-47.96-7.9-6.95-36.4-3.5-35.17-10.78 3.25-19.22 43.42-10.17 44.86-11.01 1.44-.84 2.33-8.82-.36-10.14-4.86-2.37-23.81-2.13-32.45-.32-9.65 2.02-20.71 11.53-16.26 27.06 4.92 17.11 40.31 5.1 42.12 18.99Z" fill="#FF6C0E"/>
  </mask>
  <g mask="url(#i)">
    <path d="M112.17 78.93c-1.6 9.37-45.8-8.53-37.45-27.5 36.82 8.03 39.7 14.4 37.45 27.5Z" fill="#000" fill-opacity=".3"/>
  </g>
  <path d="M99.42 137.9c-4.12-1.17-9.12.89-9.12.89 7.35 8.82 20.3 7.45 25 7.06 7.06-.6 14.12-7.36 11.47-16.48-2.3-7.93-3.53-19.12.88-21.76 0 0 1.47-.6 8.24 5.59 6.76 6.17 18.83 5.26 23.53 1.47 7.65-6.18 2.35-23.53 10-26.18 5.88 7.65 12.06 12.94 21.18 12.94 5.88 0 12.65-1.76 16.76-6.76 3.2-3.9 1.77-12.36 0-13.24-1.76-.88-9.7.59-9.7.59 1.4 6.1 2.8 14.3-5 16.76-10.3-5.59-10.6-17.35-28.83-12.94-8.98 2.17-10.3 13.82-10.88 21.18-.47 5.88-3.24 7.84-4.41 7.94-9.12-6.77-12.95-13.53-25-10.59-13.94 3.4-7.07 23.53-6.77 29.71.43 9.12-6.77 9.7-6.77 9.7s-5.88-1.17-10.59-5.88Z" fill="#FFE199"/>
  <mask id="j" style="mask-type:alpha" maskUnits="userSpaceOnUse" x="90" y="81" width="120" height="66">
    <path d="M99.42 137.9c-4.12-1.17-9.12.89-9.12.89 7.35 8.82 20.3 7.45 25 7.06 7.06-.6 14.12-7.36 11.47-16.48-2.3-7.93-3.53-19.12.88-21.76 0 0 1.47-.6 8.24 5.59 6.76 6.17 18.83 5.26 23.53 1.47 7.65-6.18 2.35-23.53 10-26.18 5.88 7.65 12.06 12.94 21.18 12.94 5.88 0 12.65-1.76 16.76-6.76 3.2-3.9 1.77-12.36 0-13.24-1.76-.88-9.7.59-9.7.59 1.4 6.1 2.8 14.3-5 16.76-10.3-5.59-10.6-17.35-28.83-12.94-8.98 2.17-10.3 13.82-10.88 21.18-.47 5.88-3.24 7.84-4.41 7.94-9.12-6.77-12.95-13.53-25-10.59-13.94 3.4-7.07 23.53-6.77 29.71.43 9.12-6.77 9.7-6.77 9.7s-5.88-1.17-10.59-5.88Z" fill="#3F02B9"/>
  </mask>
  <g mask="url(#j)" fill="#FFB400">
    <ellipse cx="101.1" cy="136.96" rx="13.8" ry="7.65" transform="rotate(10 101.1 136.96)"/>
    <ellipse cx="181.51" cy="93.31" rx="14.05" ry="6.46" transform="rotate(10 181.51 93.31)"/>
    <ellipse cx="138.91" cy="110.53" rx="11.77" ry="5.58" transform="rotate(10 138.91 110.53)"/>
  </g>
  <path d="M164.13 186.16c-19.42-15.89-46.18-14.71-48.24-15.6-2.06-.88 6.76-3.23 9.7-3.23 2.95 0 25.45 1.62 43.24 12.94 19.41 12.36 31.1 38.54 31.77 41.77.68 3.24-5.59 5-8.82 4.41-3.24-.59-7.5-23.8-27.65-40.3Z" fill="#B52555"/>
  <defs>
    <filter id="a" x="-14.49" y="91.72" width="147.55" height="135.11" filterUnits="userSpaceOnUse" color-interpolation-filters="sRGB">
      <feFlood flood-opacity="0" result="BackgroundImageFix"/>
      <feBlend in="SourceGraphic" in2="BackgroundImageFix" result="shape"/>
      <feColorMatrix in="SourceAlpha" values="0 0 0 0 0 0 0 0 0 0 0 0 0 0 0 0 0 0 127 0" result="hardAlpha"/>
      <feOffset dx="-16.8" dy="-4.35"/>
      <feGaussianBlur stdDeviation="8.71"/>
      <feComposite in2="hardAlpha" operator="arithmetic" k2="-1" k3="1"/>
      <feColorMatrix values="0 0 0 0 0 0 0 0 0 0 0 0 0 0 0 0 0 0 0.25 0"/>
      <feBlend in2="shape" result="effect1_innerShadow_20_2259"/>
    </filter>
    <filter id="d" x="19.52" y="117.53" width="90.54" height="93.45" filterUnits="userSpaceOnUse" color-interpolation-filters="sRGB">
      <feFlood flood-opacity="0" result="BackgroundImageFix"/>
      <feBlend in="SourceGraphic" in2="BackgroundImageFix" result="shape"/>
      <feColorMatrix in="SourceAlpha" values="0 0 0 0 0 0 0 0 0 0 0 0 0 0 0 0 0 0 127 0" result="hardAlpha"/>
      <feOffset dy="2.9"/>
      <feGaussianBlur stdDeviation="1.81"/>
      <feComposite in2="hardAlpha" operator="arithmetic" k2="-1" k3="1"/>
      <feColorMatrix values="0 0 0 0 0 0 0 0 0 0 0 0 0 0 0 0 0 0 0.25 0"/>
      <feBlend in2="shape" result="effect1_innerShadow_20_2259"/>
    </filter>
    <filter id="f" x="-2.55" y="139.6" width="90.54" height="93.45" filterUnits="userSpaceOnUse" color-interpolation-filters="sRGB">
      <feFlood flood-opacity="0" result="BackgroundImageFix"/>
      <feBlend in="SourceGraphic" in2="BackgroundImageFix" result="shape"/>
      <feColorMatrix in="SourceAlpha" values="0 0 0 0 0 0 0 0 0 0 0 0 0 0 0 0 0 0 127 0" result="hardAlpha"/>
      <feOffset dy="2.9"/>
      <feGaussianBlur stdDeviation="1.81"/>
      <feComposite in2="hardAlpha" operator="arithmetic" k2="-1" k3="1"/>
      <feColorMatrix values="0 0 0 0 0 0 0 0 0 0 0 0 0 0 0 0 0 0 0.25 0"/>
      <feBlend in2="shape" result="effect1_innerShadow_20_2259"/>
    </filter>
    <filter id="h" x="-8.44" y="108.87" width="70.06" height="108.16" filterUnits="userSpaceOnUse" color-interpolation-filters="sRGB">
      <feFlood flood-opacity="0" result="BackgroundImageFix"/>
      <feBlend in="SourceGraphic" in2="BackgroundImageFix" result="shape"/>
      <feGaussianBlur stdDeviation="6.53" result="effect1_foregroundBlur_20_2259"/>
    </filter>
    <radialGradient id="b" cx="0" cy="0" r="1" gradientUnits="userSpaceOnUse" gradientTransform="matrix(29.002 -29.002 84.506 84.506 73 156.13)">
      <stop stop-color="#096FED"/>
      <stop offset="1" stop-color="#096FED" stop-opacity="0"/>
    </radialGradient>
    <radialGradient id="e" cx="0" cy="0" r="1" gradientUnits="userSpaceOnUse" gradientTransform="rotate(-135 90.13 86) scale(105.319 935.371)">
      <stop stop-color="#096FED"/>
      <stop offset="1" stop-color="#096FED" stop-opacity="0"/>
    </radialGradient>
    <radialGradient id="g" cx="0" cy="0" r="1" gradientUnits="userSpaceOnUse" gradientTransform="rotate(-135 83.66 101.61) scale(105.319 935.371)">
      <stop stop-color="#096FED"/>
      <stop offset="1" stop-color="#096FED" stop-opacity="0"/>
    </radialGradient>
  </defs>
</svg>