<svg width="328" height="87" fill="none" xmlns="http://www.w3.org/2000/svg"><mask id="a" style="mask-type:luminance" maskUnits="userSpaceOnUse" x="251" y="10" width="67" height="67"><path d="M317.125 10.875h-65.25v65.25h65.25v-65.25Z" fill="#fff"/></mask><g mask="url(#a)"><mask id="b" style="mask-type:luminance" maskUnits="userSpaceOnUse" x="251" y="10" width="67" height="67"><path d="M284.5 76.125c18.018 0 32.625-14.607 32.625-32.625S302.518 10.875 284.5 10.875 251.875 25.482 251.875 43.5s14.607 32.625 32.625 32.625Z" fill="#fff"/></mask><g mask="url(#b)"><path d="M257.054 10.875v40.04h14.604L284.5 28.67h32.625V10.875h-60.071Z" fill="#DB4437"/><path d="M257.054 10.875v40.04h14.604L284.5 28.67h32.625V10.875h-60.071Z" fill="url(#c)"/></g><mask id="d" style="mask-type:luminance" maskUnits="userSpaceOnUse" x="251" y="10" width="67" height="67"><path d="M284.5 76.125c18.018 0 32.625-14.607 32.625-32.625S302.518 10.875 284.5 10.875 251.875 25.482 251.875 43.5s14.607 32.625 32.625 32.625Z" fill="#fff"/></mask><g mask="url(#d)"><path d="M272.01 50.785 257.243 25.46l-.215.37 14.659 25.137.323-.182Z" fill="#3E2723" fill-opacity=".15"/></g><mask id="e" style="mask-type:luminance" maskUnits="userSpaceOnUse" x="251" y="10" width="67" height="67"><path d="M284.5 76.125c18.018 0 32.625-14.607 32.625-32.625S302.518 10.875 284.5 10.875 251.875 25.482 251.875 43.5s14.607 32.625 32.625 32.625Z" fill="#fff"/></mask><g mask="url(#e)"><path d="M251.875 76.125h31.057l14.414-14.414V50.915h-25.688l-19.783-33.93v59.14Z" fill="#0F9D58"/><path d="M251.875 76.125h31.057l14.414-14.414V50.915h-25.688l-19.783-33.93v59.14Z" fill="url(#f)"/></g><mask id="g" style="mask-type:luminance" maskUnits="userSpaceOnUse" x="251" y="10" width="67" height="67"><path d="M284.5 76.125c18.018 0 32.625-14.607 32.625-32.625S302.518 10.875 284.5 10.875 251.875 25.482 251.875 43.5s14.607 32.625 32.625 32.625Z" fill="#fff"/></mask><g mask="url(#g)"><path d="m297.046 51.408-.308-.178-14.233 24.895h.427l14.125-24.706-.011-.011Z" fill="#263238" fill-opacity=".15"/></g><mask id="h" style="mask-type:luminance" maskUnits="userSpaceOnUse" x="251" y="10" width="67" height="67"><path d="M284.5 76.125c18.018 0 32.625-14.607 32.625-32.625S302.518 10.875 284.5 10.875 251.875 25.482 251.875 43.5s14.607 32.625 32.625 32.625Z" fill="#fff"/></mask><g mask="url(#h)"><mask id="i" style="mask-type:luminance" maskUnits="userSpaceOnUse" x="251" y="16" width="47" height="61"><path d="M251.875 76.125h31.057l14.414-14.414V50.915h-25.688l-19.783-33.93v59.14Z" fill="#fff"/></mask><g mask="url(#i)"><path d="m284.5 28.67 12.846 22.245-14.414 25.21h34.193V28.67H284.5Z" fill="#FFCD40"/><path d="m284.5 28.67 12.846 22.245-14.414 25.21h34.193V28.67H284.5Z" fill="url(#j)"/></g></g><mask id="k" style="mask-type:luminance" maskUnits="userSpaceOnUse" x="251" y="10" width="67" height="67"><path d="M284.5 76.125c18.018 0 32.625-14.607 32.625-32.625S302.518 10.875 284.5 10.875 251.875 25.482 251.875 43.5s14.607 32.625 32.625 32.625Z" fill="#fff"/></mask><g mask="url(#k)"><path d="m284.5 28.67 12.846 22.245-14.414 25.21h34.193V28.67H284.5Z" fill="#FFCD40"/><path d="m284.5 28.67 12.846 22.245-14.414 25.21h34.193V28.67H284.5Z" fill="url(#l)"/></g><mask id="m" style="mask-type:luminance" maskUnits="userSpaceOnUse" x="251" y="10" width="67" height="67"><path d="M284.5 76.125c18.018 0 32.625-14.607 32.625-32.625S302.518 10.875 284.5 10.875 251.875 25.482 251.875 43.5s14.607 32.625 32.625 32.625Z" fill="#fff"/></mask><g mask="url(#m)"><mask id="n" style="mask-type:luminance" maskUnits="userSpaceOnUse" x="282" y="28" width="36" height="49"><path d="m284.5 28.67 12.846 22.245-14.414 25.21h34.193V28.67H284.5Z" fill="#fff"/></mask><g mask="url(#n)"><path d="M257.054 10.875v40.04h14.604L284.5 28.67h32.625V10.875h-60.071Z" fill="#DB4437"/><path d="M257.054 10.875v40.04h14.604L284.5 28.67h32.625V10.875h-60.071Z" fill="url(#o)"/></g></g><mask id="p" style="mask-type:luminance" maskUnits="userSpaceOnUse" x="251" y="10" width="67" height="67"><path d="M284.5 76.125c18.018 0 32.625-14.607 32.625-32.625S302.518 10.875 284.5 10.875 251.875 25.482 251.875 43.5s14.607 32.625 32.625 32.625Z" fill="#fff"/></mask><g mask="url(#p)"><path d="M284.5 28.67v7.767l29.066-7.767H284.5Z" fill="url(#q)"/></g><mask id="r" style="mask-type:luminance" maskUnits="userSpaceOnUse" x="251" y="10" width="67" height="67"><path d="M284.5 76.125c18.018 0 32.625-14.607 32.625-32.625S302.518 10.875 284.5 10.875 251.875 25.482 251.875 43.5s14.607 32.625 32.625 32.625Z" fill="#fff"/></mask><g mask="url(#r)"><mask id="s" style="mask-type:luminance" maskUnits="userSpaceOnUse" x="257" y="10" width="61" height="41"><path d="M257.054 10.875v14.956l14.604 25.084L284.5 28.67h32.625V10.875h-60.071Z" fill="#fff"/></mask><g mask="url(#s)"><path d="M251.875 76.125h31.057l14.414-14.414V50.915h-25.688l-19.783-33.93v59.14Z" fill="#0F9D58"/><path d="M251.875 76.125h31.057l14.414-14.414V50.915h-25.688l-19.783-33.93v59.14Z" fill="url(#t)"/></g></g><mask id="u" style="mask-type:luminance" maskUnits="userSpaceOnUse" x="251" y="10" width="67" height="67"><path d="M284.5 76.125c18.018 0 32.625-14.607 32.625-32.625S302.518 10.875 284.5 10.875 251.875 25.482 251.875 43.5s14.607 32.625 32.625 32.625Z" fill="#fff"/></mask><g mask="url(#u)"><path d="m257.054 25.872 21.225 21.22-6.621 3.823-14.604-25.043Z" fill="url(#v)"/></g><mask id="w" style="mask-type:luminance" maskUnits="userSpaceOnUse" x="251" y="10" width="67" height="67"><path d="M284.5 76.125c18.018 0 32.625-14.607 32.625-32.625S302.518 10.875 284.5 10.875 251.875 25.482 251.875 43.5s14.607 32.625 32.625 32.625Z" fill="#fff"/></mask><g mask="url(#w)"><path d="m282.954 76.084 7.771-28.992 6.621 3.823-14.392 25.169Z" fill="url(#x)"/></g><mask id="y" style="mask-type:luminance" maskUnits="userSpaceOnUse" x="251" y="10" width="67" height="67"><path d="M284.5 76.125c18.018 0 32.625-14.607 32.625-32.625S302.518 10.875 284.5 10.875 251.875 25.482 251.875 43.5s14.607 32.625 32.625 32.625Z" fill="#fff"/></mask><g mask="url(#y)"><path d="M284.5 58.33c8.19 0 14.83-6.64 14.83-14.83 0-8.19-6.64-14.83-14.83-14.83-8.19 0-14.83 6.64-14.83 14.83 0 8.19 6.64 14.83 14.83 14.83Z" fill="#F1F1F1"/><path d="M284.5 55.364c6.552 0 11.864-5.312 11.864-11.864 0-6.552-5.312-11.864-11.864-11.864-6.552 0-11.864 5.312-11.864 11.864 0 6.552 5.312 11.864 11.864 11.864Z" fill="#4285F4"/></g><mask id="z" style="mask-type:luminance" maskUnits="userSpaceOnUse" x="251" y="10" width="67" height="67"><path d="M284.5 76.125c18.018 0 32.625-14.607 32.625-32.625S302.518 10.875 284.5 10.875 251.875 25.482 251.875 43.5s14.607 32.625 32.625 32.625Z" fill="#fff"/></mask><g mask="url(#z)"><path d="M284.5 28.3c-8.19 0-14.83 6.64-14.83 14.83v.37c0-8.19 6.64-14.83 14.83-14.83h32.625v-.37H284.5Z" fill="#3E2723" fill-opacity=".2"/><path d="M297.328 50.915c-2.566 4.427-7.345 7.415-12.828 7.415-5.487 0-10.266-2.988-12.831-7.415h-.015l-19.779-33.93v.37l19.783 33.93h.014c2.566 4.427 7.345 7.415 12.832 7.415 5.483 0 10.262-2.984 12.827-7.414h.019v-.371h-.022Z" fill="#fff" fill-opacity=".1"/><path opacity=".1" d="M284.871 28.67c-.063 0-.123.008-.186.011 8.105.1 14.645 6.692 14.645 14.819s-6.54 14.718-14.645 14.818c.063 0 .123.012.186.012 8.189 0 14.829-6.64 14.829-14.83 0-8.19-6.64-14.83-14.829-14.83Z" fill="#3E2723"/><path d="M297.476 51.408a14.77 14.77 0 0 0 1.297-11.882c.353 1.268.557 2.599.557 3.978 0 2.699-.731 5.22-1.991 7.4l.007.015-14.414 25.21h.43l14.121-24.706-.007-.015Z" fill="#fff" fill-opacity=".2"/></g><mask id="A" style="mask-type:luminance" maskUnits="userSpaceOnUse" x="251" y="10" width="67" height="67"><path d="M284.5 76.125c18.018 0 32.625-14.607 32.625-32.625S302.518 10.875 284.5 10.875 251.875 25.482 251.875 43.5s14.607 32.625 32.625 32.625Z" fill="#fff"/></mask><g mask="url(#A)"><path d="M284.5 11.246c17.955 0 32.521 14.507 32.621 32.44 0-.064.004-.123.004-.186 0-18.018-14.607-32.625-32.625-32.625S251.875 25.482 251.875 43.5c0 .063.004.122.004.185.1-17.932 14.666-32.44 32.621-32.44Z" fill="#fff" fill-opacity=".2"/><path d="M284.5 75.754c17.955 0 32.521-14.507 32.621-32.44 0 .063.004.123.004.186 0 18.018-14.607 32.625-32.625 32.625S251.875 61.518 251.875 43.5c0-.063.004-.123.004-.185.1 17.932 14.666 32.44 32.621 32.44Z" fill="#3E2723" fill-opacity=".15"/></g><path d="M284.5 76.125c18.018 0 32.625-14.607 32.625-32.625S302.518 10.875 284.5 10.875 251.875 25.482 251.875 43.5s14.607 32.625 32.625 32.625Z" fill="url(#B)"/></g><path d="M68.649 27.674H42.442v4.858h10.543V59.35h5.12V32.531H68.65v-4.858Z" fill="#12438C"/><path d="m69.587 38.642-.472-2.744H64.57v23.451h5.125V43.83a7.936 7.936 0 0 1 3.165-2.465 11.058 11.058 0 0 1 4.579-.957h.918V35.46h-.918c-3.13 0-5.763 1.069-7.851 3.182ZM86.32 26.886h-5.427v5.426h5.427v-5.426ZM86.167 35.898h-5.12v23.451h5.12V35.898ZM145.546 35.46c-2.814 0-5.385 1.092-7.656 3.248l-.483-2.81h-4.549v23.451h5.124V44.107c2.081-2.543 4.302-3.83 6.601-3.83 2.894 0 4.246 1.515 4.246 4.769v14.306h5.124V44.605c0-2.578-.752-4.763-2.237-6.496-1.514-1.757-3.587-2.649-6.17-2.649ZM164.504 30.302l-9.277 9.078v1.071h4.157v12.993c0 4.15 2.406 6.344 6.956 6.344a8.96 8.96 0 0 0 4.201-1.024l.306-.16v-4.157h-.996l-.111.05c-1.947.865-3.627.747-4.572.349-.44-.192-.664-.78-.664-1.757v-12.64h6.343v-4.551h-6.343v-5.596ZM179.273 26.886h-5.426v5.426h5.426v-5.426ZM179.119 35.898h-5.12v23.451h5.12V35.898ZM198.54 48.33a6.968 6.968 0 0 0-3.559-2.22l-3.874-1.016a17.509 17.509 0 0 1-3.205-1.142c-.954-.462-1.065-1.025-1.065-1.404 0-.622.349-1.139 1.065-1.58.793-.489 2.083-.732 3.834-.732 1.782 0 3.636.398 5.513 1.182l.105.044h.99V36.86l-.372-.138a20.743 20.743 0 0 0-7.286-1.262c-2.666 0-4.815.696-6.389 2.066-1.596 1.391-2.404 3.221-2.404 5.417 0 1.632.508 2.999 1.511 4.065a7.473 7.473 0 0 0 3.569 2.126l3.855 1.034c1.085.278 2.142.65 3.162 1.114 1.024.484 1.024.975 1.024 1.136 0 1.097-.439 2.555-4.287 2.555a14.494 14.494 0 0 1-7.496-2.02l-.135-.08h-.944v4.712l.293.163c2.465 1.352 5.23 2.04 8.215 2.04 3.024 0 5.354-.664 6.926-1.97 1.601-1.333 2.414-2.991 2.414-4.931.004-1.902-.489-3.437-1.46-4.557ZM119.798 35.46a11.46 11.46 0 0 0-4.122.776 10.392 10.392 0 0 0-3.57 2.3 11.297 11.297 0 0 0-2.489 3.832c-.623 1.529-.94 3.334-.94 5.367-.016 1.634.231 3.26.732 4.815a9.94 9.94 0 0 0 6.082 6.322c1.554.603 3.406.91 5.507.91.814 0 1.628-.045 2.437-.136.796-.089 1.547-.2 2.229-.332.62-.115 1.233-.261 1.838-.44a9.292 9.292 0 0 0 1.192-.438l-.707-4.232c-.834.308-1.691.549-2.563.719-1.228.25-2.48.37-3.733.36-2.322 0-4.12-.525-5.347-1.564-1.227-1.038-1.935-2.525-2.088-4.418l-.009-.104h15.943c.027-.27.047-.577.062-.914.014-.386.022-.713.022-1 0-3.915-.932-6.9-2.768-8.867-1.836-1.968-4.429-2.956-7.708-2.956Zm5.08 9.956h-10.59l.015-.108a9.121 9.121 0 0 1 .512-2.03 5.69 5.69 0 0 1 1.056-1.773 5.1 5.1 0 0 1 3.972-1.727 5.11 5.11 0 0 1 2.186.439 4.575 4.575 0 0 1 1.556 1.186c.435.523.763 1.126.965 1.775.221.695.331 1.42.328 2.15v.088Z" fill="#12438C"/><path d="M102.261 35.299c-7.51 0-13.386 5.35-13.386 12.182v.089c0 6.757 5.856 12.048 13.344 12.048 2.744 0 5.067-.546 7.101-1.672l-.057-.05c-.088-.081-.177-.162-.259-.25a11.89 11.89 0 0 1-2.207-3.394 8.845 8.845 0 0 1-4.279 1.065c-4.59 0-8.053-3.368-8.053-7.836v-.09c0-4.344 3.407-7.746 7.76-7.746 1.617-.021 3.208.4 4.603 1.218a13 13 0 0 1 2.605-3.911c-2.031-1.116-4.379-1.653-7.172-1.653ZM5.101 56.331 0 51.231l7.67-7.67-7.613-7.612 5.101-5.101L17.872 43.56l-12.77 12.77ZM12.934 64.166l-5.1-5.1 12.771-12.771 12.713 12.713-5.1 5.1-7.613-7.61-7.67 7.669ZM20.561 40.871 7.848 28.158l5.101-5.1 7.612 7.613L28.231 23l5.1 5.101-12.77 12.77Z" fill="#12438C"/><defs><linearGradient id="c" x1="259.785" y1="35.722" x2="279.249" y2="24.353" gradientUnits="userSpaceOnUse"><stop stop-color="#A52714" stop-opacity=".6"/><stop offset=".66" stop-color="#A52714" stop-opacity="0"/></linearGradient><linearGradient id="f" x1="290.013" y1="68.896" x2="268.387" y2="56.228" gradientUnits="userSpaceOnUse"><stop stop-color="#055524" stop-opacity=".4"/><stop offset=".33" stop-color="#055524" stop-opacity="0"/></linearGradient><linearGradient id="j" x1="294.087" y1="26.373" x2="299.533" y2="50.221" gradientUnits="userSpaceOnUse"><stop stop-color="#EA6100" stop-opacity=".3"/><stop offset=".66" stop-color="#EA6100" stop-opacity="0"/></linearGradient><linearGradient id="l" x1="294.087" y1="26.373" x2="299.533" y2="50.221" gradientUnits="userSpaceOnUse"><stop stop-color="#EA6100" stop-opacity=".3"/><stop offset=".66" stop-color="#EA6100" stop-opacity="0"/></linearGradient><linearGradient id="o" x1="259.785" y1="35.722" x2="279.249" y2="24.353" gradientUnits="userSpaceOnUse"><stop stop-color="#A52714" stop-opacity=".6"/><stop offset=".66" stop-color="#A52714" stop-opacity="0"/></linearGradient><linearGradient id="t" x1="290.013" y1="68.896" x2="268.387" y2="56.228" gradientUnits="userSpaceOnUse"><stop stop-color="#055524" stop-opacity=".4"/><stop offset=".33" stop-color="#055524" stop-opacity="0"/></linearGradient><radialGradient id="q" cx="0" cy="0" r="1" gradientUnits="userSpaceOnUse" gradientTransform="translate(283.084 28.651) scale(31.171)"><stop stop-color="#3E2723" stop-opacity=".2"/><stop offset="1" stop-color="#3E2723" stop-opacity="0"/></radialGradient><radialGradient id="v" cx="0" cy="0" r="1" gradientUnits="userSpaceOnUse" gradientTransform="translate(257.021 25.898) scale(28.9339)"><stop stop-color="#3E2723" stop-opacity=".2"/><stop offset="1" stop-color="#3E2723" stop-opacity="0"/></radialGradient><radialGradient id="x" cx="0" cy="0" r="1" gradientUnits="userSpaceOnUse" gradientTransform="translate(284.441 43.551) scale(32.5768)"><stop stop-color="#263238" stop-opacity=".2"/><stop offset="1" stop-color="#263238" stop-opacity="0"/></radialGradient><radialGradient id="B" cx="0" cy="0" r="1" gradientUnits="userSpaceOnUse" gradientTransform="translate(261.62 19.778) scale(65.5281)"><stop stop-color="#fff" stop-opacity=".1"/><stop offset="1" stop-color="#fff" stop-opacity="0"/></radialGradient></defs></svg>