<?xml version="1.0" encoding="UTF-8"?>
<svg width="49px" height="49px" viewBox="0 0 49 49" version="1.1" xmlns="http://www.w3.org/2000/svg" xmlns:xlink="http://www.w3.org/1999/xlink">
    <title>logo_circle</title>
    <defs>
        <linearGradient x1="22.7197266%" y1="12.0214844%" x2="73.6968994%" y2="91.4215088%" id="linearGradient-1">
            <stop stop-color="#7093FF" offset="0%"></stop>
            <stop stop-color="#3D5AFE" offset="100%"></stop>
        </linearGradient>
    </defs>
    <g id="Symbols" stroke="none" stroke-width="1" fill="none" fill-rule="evenodd">
        <g id="side_image" transform="translate(-50.000000, -40.000000)">
            <g id="logo_circle" transform="translate(50.000000, 40.000000)">
                <circle id="Oval" fill="url(#linearGradient-1)" cx="24.5" cy="24.5" r="24.5"></circle>
                <path d="M20.1609292,16 L22.8532525,20.1238599 C22.6929033,20.0995542 22.529799,20.0865912 22.3650416,20.0865912 C20.862388,20.0865912 19.5961254,21.0966263 19.235753,22.4609839 L19.2332734,22.4736093 L19.2332734,22.4736093 L19.2307938,22.48745 L19.2307938,24.0289688 L19.232929,24.0343701 L19.234651,24.0397713 L19.234651,33 L15,33 L15,16 L20.1609292,16 Z M34,18.0351937 L34,33 L29.765349,33 L29.765349,24.2644636 L34,18.0351937 Z M34,16 L34,16.0864201 L29.765349,22.311369 L26.3219744,27.3653254 C25.6458629,28.3580765 24.2771091,28.6248986 23.2648705,27.9621643 C23.0312346,27.8093087 22.8290073,27.6137832 22.6703112,27.3858502 L22.6703112,27.3858502 L20.6177315,24.4454058 C20.6067109,24.4308224 20.5962414,24.4156988 20.5863229,24.4011154 L20.5863229,24.4011154 C20.3648096,24.0689381 20.234767,23.677347 20.234767,23.2555088 C20.234767,22.1018003 21.1885966,21.1673828 22.3650416,21.1673828 C23.078623,21.1673828 23.706244,21.5136033 24.0925147,22.0413062 L24.0925147,22.0413062 L24.1007801,22.0353648 L24.5112961,22.6640711 L28.8396218,16 L34,16 Z" id="Combined-Shape" fill="#FFFFFF"></path>
            </g>
        </g>
    </g>
</svg>