<svg width="23" height="14" xmlns="http://www.w3.org/2000/svg">
  <path d="M15.92 7.08H22a1 1 0 0 1 1 1v4.19a1 1 0 0 1-1 1h-6.08v-6.2Zm2.96 4.52 2.35-1.35-2.35-1.34a.2.2 0 0 0-.3.17v2.35a.2.2 0 0 0 .3.17ZM7.08 7.08v6.19H1a1 1 0 0 1-1-1v-4.2a1 1 0 0 1 1-1h6.08Zm-2.5 4.5a.2.2 0 0 0 .3-.17V9.07a.2.2 0 0 0-.3-.18l-2.36 1.35 2.36 1.35Zm10.46-4.5v6.19H7.96v-6.2h7.08ZM9.99 9.6l1.51 1.89L13 9.61a.2.2 0 0 0-.15-.32h-2.7a.2.2 0 0 0-.16.32ZM14.25 0c.44 0 .79.4.79.88V6.2H7.96V.9c0-.5.35-.89.79-.89h5.5ZM10 3.66a.2.2 0 0 0 .16.32h2.7a.2.2 0 0 0 .16-.32l-1.51-1.9-1.5 1.9Z" fill="#D8DAE5" fill-rule="nonzero"/>
</svg>