<?xml version="1.0" encoding="utf-8"?>
<!-- Generator: Adobe Illustrator 16.0.0, SVG Export Plug-In . SVG Version: 6.00 Build 0)  -->
<!DOCTYPE svg PUBLIC "-//W3C//DTD SVG 1.1//EN" "http://www.w3.org/Graphics/SVG/1.1/DTD/svg11.dtd">
<svg version="1.1" id="组_12_1_" xmlns="http://www.w3.org/2000/svg" xmlns:xlink="http://www.w3.org/1999/xlink" x="0px" y="0px"
	 width="200px" height="177px" viewBox="0 0 200 177" enable-background="new 0 0 200 177" xml:space="preserve">
<g id="椭圆_11">
	<g>
		<path fill-rule="evenodd" clip-rule="evenodd" fill="#EC6863" d="M193.832,92.022c-0.881-50.622-48.3-88.037-95.814-85.858
			C50.013,8.365,8.437,50.255,14.978,103.47c4.784,38.922,38.338,66.485,85.903,66.485S194.66,139.555,193.832,92.022z"/>
	</g>
</g>
<g id="椭圆_11_副本">
	<g>
		<path fill-rule="evenodd" clip-rule="evenodd" fill="#823331" d="M193.59,87.858l-0.385-3.078c0,0-24.942-5.706-85.641-0.77
			c-54.281,4.415-91.667,23.856-91.667,23.856l0.513,3.463c0,0,36.407-20.947,92.051-25.011
			C171.139,81.743,193.59,87.858,193.59,87.858z M76.923,127.088c-29.072,9.042-34.286,23.967-34.286,23.967l1.594,1.319
			c0,0,4.487-13.211,34.23-23.472c34.343-11.848,93.078,14.108,93.078,14.108l1.867-1.851
			C173.406,141.16,119.609,113.813,76.923,127.088z"/>
	</g>
</g>
<g id="颜色填充_1">
	<g>
		<path fill-rule="evenodd" clip-rule="evenodd" fill="#823331" d="M72.564,100.813c-6.618-27.125-11.282-84.14-11.282-84.14
			l-2.821,1.187c0,0,3.59,48.579,12.051,82.696s22.821,68.748,22.821,68.748l2.051-0.514
			C95.385,168.791,78.146,123.687,72.564,100.813z"/>
	</g>
</g>
<g id="颜色填充_2">
	<g>
		<path fill-rule="evenodd" clip-rule="evenodd" fill="#823331" d="M120.897,8.979c0,0-6.862,24.517-24.103,42.967
			C69.231,81.445,19.711,65.99,19.711,65.99L18.276,69c0,0,51.175,14.333,80.405-15.131c19.75-19.906,24.176-44.414,24.176-44.414
			L120.897,8.979z"/>
	</g>
</g>
</svg>
