<?xml version="1.0" encoding="utf-8"?>
<!-- Generator: Adobe Illustrator 16.0.0, SVG Export Plug-In . SVG Version: 6.00 Build 0)  -->
<!DOCTYPE svg PUBLIC "-//W3C//DTD SVG 1.1//EN" "http://www.w3.org/Graphics/SVG/1.1/DTD/svg11.dtd">
<svg version="1.1" id="太阳伞1_1_" xmlns="http://www.w3.org/2000/svg" xmlns:xlink="http://www.w3.org/1999/xlink" x="0px"
	 y="0px" width="200px" height="178px" viewBox="0 0 200 178" enable-background="new 0 0 200 178" xml:space="preserve">
<g id="矩形_25">
	<g>
		
			<rect x="98.345" y="77.591" transform="matrix(1 -0.0086 0.0086 1 -1.089 0.8709)" fill-rule="evenodd" clip-rule="evenodd" fill="#A9602E" width="5.822" height="100.277"/>
	</g>
</g>
<g id="椭圆_2">
	<g>
		<path fill-rule="evenodd" clip-rule="evenodd" fill="#60A2DF" d="M100.592-0.344C46.718-0.455,2.718,42.006,0.419,95.311
			l199.948,0.414C198.289,42.41,154.466-0.232,100.592-0.344z"/>
	</g>
</g>
<g id="颜色填充_1">
	<g>
		<path fill-rule="evenodd" clip-rule="evenodd" fill="#FFF9E2" d="M47.464,95.331h33.877c0,0-0.879-43.929,19.746-94.427
			C101.087,0.904,51.087,28.039,47.464,95.331z M101.087,0.724c0,0,21.341,47.389,26.63,94.766
			c0.066,0.591,33.152-0.067,33.152-0.067S153.261,35.636,101.087,0.724z"/>
	</g>
</g>
</svg>
