<svg width="18" height="18" viewBox="0 0 18 18" fill="none" xmlns="http://www.w3.org/2000/svg">
<path d="M9.02037 18.0005C13.9795 18.0005 17.9997 13.9803 17.9997 9.02111C17.9997 4.06194 13.9795 0.041748 9.02037 0.041748C4.06121 0.041748 0.0410156 4.06194 0.0410156 9.02111C0.0410156 13.9803 4.06121 18.0005 9.02037 18.0005Z" fill="#F4B960"/>
<path d="M8.11061 16.2212C12.59 16.2212 16.2212 12.59 16.2212 8.11061C16.2212 3.63124 12.59 0 8.11061 0C3.63124 0 0 3.63124 0 8.11061C0 12.59 3.63124 16.2212 8.11061 16.2212Z" fill="#E66F32"/>
<path d="M9.22742 14.1107C13.1125 14.1107 16.2619 10.9613 16.2619 7.07623C16.2619 3.1912 13.1125 0.041748 9.22742 0.041748C5.34238 0.041748 2.19293 3.1912 2.19293 7.07623C2.19293 10.9613 5.34238 14.1107 9.22742 14.1107Z" fill="#E43C41"/>
<path d="M9.76568 14.0688C13.3307 14.0688 16.2207 11.1788 16.2207 7.61379C16.2207 4.04877 13.3307 1.15875 9.76568 1.15875C6.20066 1.15875 3.31064 4.04877 3.31064 7.61379C3.31064 11.1788 6.20066 14.0688 9.76568 14.0688Z" fill="#BDD041"/>
<path d="M9.31081 14.1105C12.6246 14.1105 15.311 11.4242 15.311 8.11034C15.311 4.79654 12.6246 2.11017 9.31081 2.11017C5.99701 2.11017 3.31064 4.79654 3.31064 8.11034C3.31064 11.4242 5.99701 14.1105 9.31081 14.1105Z" fill="#6DB54C"/>
<path d="M8.35849 12.1238C11.1237 12.1238 13.3653 9.8822 13.3653 7.117C13.3653 4.3518 11.1237 2.11017 8.35849 2.11017C5.59329 2.11017 3.35165 4.3518 3.35165 7.117C3.35165 9.8822 5.59329 12.1238 8.35849 12.1238Z" fill="#AEDAE6"/>
<path d="M9.14435 10.5101C11.4755 10.5101 13.3652 8.6204 13.3652 6.28928C13.3652 3.95816 11.4755 2.06842 9.14435 2.06842C6.81324 2.06842 4.92349 3.95816 4.92349 6.28928C4.92349 8.6204 6.81324 10.5101 9.14435 10.5101Z" fill="#56B8DE"/>
<path d="M9.68194 10.5519C11.7161 10.5519 13.3652 8.90283 13.3652 6.86864C13.3652 4.83446 11.7161 3.18542 9.68194 3.18542C7.64775 3.18542 5.99872 4.83446 5.99872 6.86864C5.99872 8.90283 7.64775 10.5519 9.68194 10.5519Z" fill="#00B1D5"/>
<path d="M9.14492 10.5106C10.8817 10.5106 12.2897 9.1026 12.2897 7.36581C12.2897 5.62902 10.8817 4.22107 9.14492 4.22107C7.40813 4.22107 6.00018 5.62902 6.00018 7.36581C6.00018 9.1026 7.40813 10.5106 9.14492 10.5106Z" fill="url(#paint0_radial_1831_69081)"/>
<path d="M9.14492 10.5106C10.8817 10.5106 12.2897 9.1026 12.2897 7.36581C12.2897 5.62902 10.8817 4.22107 9.14492 4.22107C7.40813 4.22107 6.00018 5.62902 6.00018 7.36581C6.00018 9.1026 7.40813 10.5106 9.14492 10.5106Z" fill="#221F1F"/>
<path d="M10.9697 6.48298C11.1943 5.98245 11.1229 5.46297 10.8103 5.3227C10.4977 5.18243 10.0622 5.47447 9.83759 5.975C9.613 6.47553 9.68437 6.995 9.99699 7.13527C10.3096 7.27555 10.7451 6.98351 10.9697 6.48298Z" fill="white"/>
<defs>
<radialGradient id="paint0_radial_1831_69081" cx="0" cy="0" r="1" gradientUnits="userSpaceOnUse" gradientTransform="translate(9.14992 7.40735) scale(3.17011)">
<stop stop-color="#797979"/>
<stop offset="1" stop-color="#4C4C4C"/>
</radialGradient>
</defs>
</svg>
