<svg width="179" height="190" fill="none" xmlns="http://www.w3.org/2000/svg"><g filter="url(#a)"><path d="M22.804 67.704c0-6.388 5.179-11.567 11.567-11.567h17.582L68.702 72.96v75.246c0 6.388-5.18 11.567-11.567 11.567H34.37c-6.389 0-11.567-5.179-11.567-11.567V67.704Z" fill="#5B5D7B" fill-opacity=".5"/></g><path d="M21.37 25.954a8.535 8.535 0 0 1 4.586-7.567l4.6-2.401a8.535 8.535 0 0 1 5.81-.764L94.04 28.099l25.817 23.722v105.556a11.568 11.568 0 0 1-10.405 11.509l-76.131 7.682-5.632-1.513a8.536 8.536 0 0 1-6.32-8.243V25.954Z" fill="#70AEF9"/><path d="M21.37 25.954a8.535 8.535 0 0 1 4.586-7.567l4.6-2.401a8.535 8.535 0 0 1 5.81-.764L94.04 28.099l25.817 23.722v105.556a11.568 11.568 0 0 1-10.405 11.509l-76.131 7.682-5.632-1.513a8.536 8.536 0 0 1-6.32-8.243V25.954Z" fill="url(#b)" fill-opacity=".5"/><path d="M26.099 23.499c0-5.007 4.492-8.817 9.432-8l62.452 10.332 26.707 24.354v110.013a8.108 8.108 0 0 1-7.31 8.069l-82.374 8.151c-4.77.472-8.907-3.276-8.907-8.069V23.499Z" fill="#86BAFA"/><path d="M26.099 23.499c0-5.007 4.492-8.817 9.432-8l62.452 10.332 26.707 24.354v110.013a8.108 8.108 0 0 1-7.31 8.069l-82.374 8.151c-4.77.472-8.907-3.276-8.907-8.069V23.499Z" fill="url(#c)" fill-opacity=".5"/><path d="M26.099 23.499c0-5.007 4.492-8.817 9.432-8l62.452 10.332 26.707 24.354v110.013a8.108 8.108 0 0 1-7.31 8.069l-82.374 8.151c-4.77.472-8.907-3.276-8.907-8.069V23.499Z" stroke="url(#d)" stroke-width=".854"/><g filter="url(#e)"><path d="M49.611 46.109c.002-6.387 5.18-11.564 11.567-11.564h39.72l.012 118.937c0 6.389-5.178 11.568-11.567 11.568H61.147c-6.39 0-11.57-5.181-11.567-11.571l.031-107.37Z" fill="#5B5D7B" fill-opacity=".5"/></g><path d="M53.116 13.186c0-3.3 1.903-6.305 4.886-7.716l4.79-2.266a8.535 8.535 0 0 1 5.636-.586l57.265 13.696 25.593 36.704-4.99 113.007a8.535 8.535 0 0 1-6.88 7.998l-71.547 14.074a8.54 8.54 0 0 1-4.618-.373l-4.57-1.697a8.535 8.535 0 0 1-5.565-8.002V13.185Z" fill="#70AEF9"/><path d="M53.116 13.186c0-3.3 1.903-6.305 4.886-7.716l4.79-2.266a8.535 8.535 0 0 1 5.636-.586l57.265 13.696 25.593 36.704-4.99 113.007a8.535 8.535 0 0 1-6.88 7.998l-71.547 14.074a8.54 8.54 0 0 1-4.618-.373l-4.57-1.697a8.535 8.535 0 0 1-5.565-8.002V13.185Z" fill="url(#f)" fill-opacity=".5"/><path d="M58.039 10.633c.002-5.185 4.803-9.036 9.865-7.912l62.699 13.916 25.617 35.32.023 113.34a8.108 8.108 0 0 1-6.695 7.986l-82.054 14.522c-4.967.879-9.523-2.943-9.521-7.987l.066-169.185Z" fill="#86BAFA"/><path d="M58.039 10.633c.002-5.185 4.803-9.036 9.865-7.912l62.699 13.916 25.617 35.32.023 113.34a8.108 8.108 0 0 1-6.695 7.986l-82.054 14.522c-4.967.879-9.523-2.943-9.521-7.987l.066-169.185Z" fill="url(#g)" fill-opacity=".5"/><path d="M58.039 10.633c.002-5.185 4.803-9.036 9.865-7.912l62.699 13.916 25.617 35.32.023 113.34a8.108 8.108 0 0 1-6.695 7.986l-82.054 14.522c-4.967.879-9.523-2.943-9.521-7.987l.066-169.185Z" stroke="url(#h)" stroke-width=".854"/><g filter="url(#i)"><path d="m130.854 16.313 25.817 35.505-18.541-2.765a8.535 8.535 0 0 1-7.276-8.442V16.313Z" fill="#DEEBFF"/></g><g opacity=".5" filter="url(#j)"><path fill-rule="evenodd" clip-rule="evenodd" d="M107.863 58.21a5.122 5.122 0 0 1 5.126 5.118l.015 18.043 15.534.351a5.127 5.127 0 0 1 5.008 5.236 5.117 5.117 0 0 1-5.232 5.005l-15.301-.346.014 16.812a5.121 5.121 0 0 1-10.243.008l-.014-17.05-16.97-.384a5.126 5.126 0 0 1-5.007-5.236 5.117 5.117 0 0 1 5.232-5.004l16.736.377-.015-17.803a5.122 5.122 0 0 1 5.117-5.126Zm20.272 88.891a5.123 5.123 0 0 0 4.455-5.712 5.117 5.117 0 0 0-5.709-4.453l-39.616 4.907a5.124 5.124 0 0 0-4.456 5.712 5.118 5.118 0 0 0 5.71 4.453l39.616-4.907Z" fill="#5B5D7B"/></g><path fill-rule="evenodd" clip-rule="evenodd" d="M110.731 56.291a5.12 5.12 0 0 1 5.126 5.117l.015 18.044 15.534.35a5.125 5.125 0 0 1 5.008 5.236 5.117 5.117 0 0 1-5.232 5.005l-15.301-.346.014 16.812a5.121 5.121 0 0 1-10.243.009l-.014-17.052-16.969-.383a5.126 5.126 0 0 1-5.008-5.236 5.117 5.117 0 0 1 5.232-5.004l16.737.377-.015-17.803a5.12 5.12 0 0 1 5.116-5.126Zm20.272 88.89a5.125 5.125 0 0 0 4.456-5.712 5.119 5.119 0 0 0-5.71-4.453l-39.616 4.907a5.124 5.124 0 0 0-4.456 5.712 5.118 5.118 0 0 0 5.71 4.453l39.616-4.907Z" fill="#fff"/><defs><linearGradient id="b" x1="30.13" y1="-25.995" x2="23.156" y2="207.28" gradientUnits="userSpaceOnUse"><stop stop-color="#fff" stop-opacity="0"/><stop offset=".408" stop-color="#fff"/><stop offset="1" stop-color="#fff" stop-opacity="0"/></linearGradient><linearGradient id="c" x1="-1.166" y1="90.806" x2="72.968" y2="120.599" gradientUnits="userSpaceOnUse"><stop stop-color="#fff"/><stop offset="1" stop-color="#fff" stop-opacity="0"/></linearGradient><linearGradient id="d" x1="123.375" y1="31.142" x2="103.905" y2="126.473" gradientUnits="userSpaceOnUse"><stop stop-color="#F2F2F2"/><stop offset="1" stop-color="#fff" stop-opacity="0"/></linearGradient><linearGradient id="f" x1="60.029" y1="-49.782" x2="48.725" y2="221.436" gradientUnits="userSpaceOnUse"><stop stop-color="#fff" stop-opacity="0"/><stop offset=".408" stop-color="#fff"/><stop offset="1" stop-color="#fff" stop-opacity="0"/></linearGradient><linearGradient id="g" x1="67.72" y1="139.621" x2="165.602" y2="86.556" gradientUnits="userSpaceOnUse"><stop stop-color="#fff"/><stop offset="1" stop-color="#fff" stop-opacity="0"/></linearGradient><linearGradient id="h" x1="139.226" y1="14.046" x2="107.057" y2="123.785" gradientUnits="userSpaceOnUse"><stop stop-color="#F2F2F2"/><stop offset="1" stop-color="#fff" stop-opacity="0"/></linearGradient><filter id="a" x="5.733" y="39.066" width="80.039" height="137.778" filterUnits="userSpaceOnUse" color-interpolation-filters="sRGB"><feFlood flood-opacity="0" result="BackgroundImageFix"/><feBlend in="SourceGraphic" in2="BackgroundImageFix" result="shape"/><feGaussianBlur stdDeviation="8.535" result="effect1_foregroundBlur_5_2123"/></filter><filter id="e" x="32.508" y="17.474" width="85.472" height="164.647" filterUnits="userSpaceOnUse" color-interpolation-filters="sRGB"><feFlood flood-opacity="0" result="BackgroundImageFix"/><feBlend in="SourceGraphic" in2="BackgroundImageFix" result="shape"/><feGaussianBlur stdDeviation="8.535" result="effect1_foregroundBlur_5_2123"/></filter><filter id="i" x="119.286" y="16.313" width="37.385" height="47.073" filterUnits="userSpaceOnUse" color-interpolation-filters="sRGB"><feFlood flood-opacity="0" result="BackgroundImageFix"/><feColorMatrix in="SourceAlpha" values="0 0 0 0 0 0 0 0 0 0 0 0 0 0 0 0 0 0 127 0" result="hardAlpha"/><feOffset dx="-5.784" dy="5.784"/><feGaussianBlur stdDeviation="2.892"/><feComposite in2="hardAlpha" operator="out"/><feColorMatrix values="0 0 0 0 0 0 0 0 0 0 0 0 0 0 0 0 0 0 0.1 0"/><feBlend in2="BackgroundImageFix" result="effect1_dropShadow_5_2123"/><feBlend in="SourceGraphic" in2="effect1_dropShadow_5_2123" result="shape"/></filter><filter id="j" x="77.378" y="54.797" width="59.583" height="100.664" filterUnits="userSpaceOnUse" color-interpolation-filters="sRGB"><feFlood flood-opacity="0" result="BackgroundImageFix"/><feBlend in="SourceGraphic" in2="BackgroundImageFix" result="shape"/><feGaussianBlur stdDeviation="1.707" result="effect1_foregroundBlur_5_2123"/></filter></defs></svg>