<svg width="149" height="158" fill="none" xmlns="http://www.w3.org/2000/svg">
  <path fill-rule="evenodd" clip-rule="evenodd" d="M76.1 17.53a66.5 66.5 0 0 1 64.29 68.65 66.5 66.5 0 1 1-64.3-68.65Z" fill="url(#a)"/>
  <path fill-rule="evenodd" clip-rule="evenodd" d="M89.46 71.55c.19-.5 15.66-10.46 29.3-12.32l.43-.06-3.4 18.21s-1.66 1.94-3.75 3.63c1.84-.62 3.19-.75 3.19-.75l-2.92 15.62s-10.72 12.47-10.45-.94c.12-5.77 2.6-9.29 5.4-11.43-1.38.15-2.56-.5-3.19-2.59-5.28 2.95-16.4 9.13-16.38 8.46.03-.85 1.77-17.83 1.77-17.83Zm-10-12.06 35.3-36.67s8.22 3.95 7.35 14.3l-31.7 30.44s-15.8 5.96-10.95-8.07ZM95.6 115.4l6.94.59c-.16 11.16 8.7.73 8.7.73l2.36-13.01s-.55.06-1.4.27l-21.6-.67-.28 1.08c-8.54-16.83-22.92-40.64-34.2-36.38L40.87 81.9c-.67-1.64-1-3.44-.42-5.11C42.1 72.04 57 51.04 30.93 43.4l4.05 17.35L20.13 91.9l20.14 38.92a31.17 31.17 0 0 0 3.71 2.89c9.12 4.7 35.9-8.58 53.67-13.64 0 0-.74-1.78-2.05-4.67Z" fill="#fff"/>
  <path fill-rule="evenodd" clip-rule="evenodd" d="m87.14 118.01 23.67 2 .96-12.75-21.6-.67-3.03 11.42Z" fill="#DC7E74"/>
  <path fill-rule="evenodd" clip-rule="evenodd" d="M55.69 71.3 39.2 86.28l-12.38 27.06c3.67 8.62 9.26 18.75 16.72 23.65 9.12 4.7 35.9-8.58 53.67-13.64 0 0-24.36-58.56-41.53-52.07Z" fill="#EFA494"/>
  <path fill-rule="evenodd" clip-rule="evenodd" d="m30.5 46.68 4.05 17.35L19.7 95.19l8.3 20.96 16.04-25.57s-5.66-5.78-4.02-10.52c1.65-4.74 16.55-25.74-9.52-33.38Z" fill="#EFA494"/>
  <path fill-rule="evenodd" clip-rule="evenodd" d="M89.03 74.83c.2-.5 15.98-10.67 29.73-12.38 0 0-11.48 19.79-12.43 20.27-.96.48-19.1 10.8-19.07 9.94.03-.85 1.77-17.83 1.77-17.83Z" fill="#DC7E74"/>
  <path fill-rule="evenodd" clip-rule="evenodd" d="M96.1 88.31c.53-.4 18.7-4.77 18.7-4.77s-8.9 20.44-10.27 19.16c-1.36-1.3-11.68-.78-8.43-14.39Z" fill="#DC7E74"/>
  <path fill-rule="evenodd" clip-rule="evenodd" d="m79.03 62.77 35.3-36.66s8.22 3.94 7.35 14.3l-31.7 30.43s-15.8 5.96-10.95-8.07Z" fill="#EFA494"/>
  <path fill-rule="evenodd" clip-rule="evenodd" d="m48.75 7.47 55.22 1.8c1.7.05 3.06 1.5 3 3.2l-3.87 118.5a3.11 3.11 0 0 1-3.2 3l-55.22-1.8a3.11 3.11 0 0 1-3-3.2l3.87-118.5a3.11 3.11 0 0 1 3.2-3Z" fill="url(#b)"/>
  <path fill-rule="evenodd" clip-rule="evenodd" d="m47 11.26 58.48 1.9-3.81 116.7-58.48-1.9 3.8-116.7Z" fill="#fff"/>
  <path fill-rule="evenodd" clip-rule="evenodd" d="m99.98 115.26-53.93-1.93L49.2 15.1c9.59.07 41 1.03 53.83 1.08l-3.06 99.08Z" fill="url(#c)"/>
  <path fill-rule="evenodd" clip-rule="evenodd" d="m72.2 9.79 6.7.21c.3.01.53.26.52.55a.53.53 0 0 1-.55.52l-6.7-.22a.53.53 0 0 1 .03-1.07Z" fill="#554D5E"/>
  <path fill-rule="evenodd" clip-rule="evenodd" d="M118.77 62.45s-15.28 1.48-15.6 17.12c-.3 15.63 12.2 1.1 12.2 1.1l3.4-18.22Z" fill="#EFA494"/>
  <path fill-rule="evenodd" clip-rule="evenodd" d="M114.8 83.54s-13.1 1.27-13.37 14.68c-.27 13.41 10.45.94 10.45.94l2.92-15.62Z" fill="#EFA494"/>
  <path fill-rule="evenodd" clip-rule="evenodd" d="m43.53 117.4 58.48 1.9-.34 10.56-58.48-1.9.34-10.56Z" fill="url(#d)"/>
  <path fill-rule="evenodd" clip-rule="evenodd" d="M113.17 106.99s-10.9 1.12-11.06 12.28c-.17 11.16 8.7.73 8.7.73l2.36-13.01Z" fill="#EFA494"/>
  <path fill-rule="evenodd" clip-rule="evenodd" d="m76.58 54.12.17.1 9.72 7.3c.39.3.6.75.6 1.23v.18l-1.35 11.6c-.05.48-.33.9-.74 1.14l-.16.09-11.13 4.88c-.43.2-.91.17-1.32-.06l-.16-.1-9.73-7.32c-.38-.28-.6-.74-.6-1.22v-.18l1.35-11.6c.05-.48.33-.9.74-1.14l.16-.08 11.14-4.89c.42-.18.91-.16 1.31.07Zm7.2 11.07-7.95 3.5-.94 8.1 3.18-1.4.52-4.46c.06-.52.39-.97.86-1.19l4.02-1.85.31-2.7ZM65.9 63.11l-.3 2.7 3.48 2.73c.35.27.55.67.58 1.1l-.01.25-.52 4.47 2.78 2.09.94-8.1-6.95-5.24Zm9.75-5.9-7.93 3.47 6.92 5.22 7.94-3.5-6.93-5.2Z" fill="#fff"/>
  <path fill-rule="evenodd" clip-rule="evenodd" d="M77.23 41.56a21.6 21.6 0 0 0-1 0L76 46.59l.95-.02H77l.23-5Zm12.35 11.18 4.48-2.36c.2.28.39.55.57.84l-4.45 2.33-.6-.81Z" fill="url(#e)"/>
  <defs>
    <linearGradient id="a" x1="14.74" y1="10.9" x2=".84" y2="143.21" gradientUnits="userSpaceOnUse">
      <stop stop-color="#F2F6FF"/>
      <stop offset="1" stop-color="#E0E9FF"/>
    </linearGradient>
    <linearGradient id="b" x1="86.32" y1="-55.96" x2="-26.18" y2="-8.22" gradientUnits="userSpaceOnUse">
      <stop stop-color="#3A495F"/>
      <stop offset="1" stop-color="#1B2331"/>
    </linearGradient>
    <linearGradient id="c" x1="49.69" y1="10.57" x2="38.97" y2="112.58" gradientUnits="userSpaceOnUse">
      <stop stop-color="#7093FF"/>
      <stop offset="1" stop-color="#3D5AFE"/>
    </linearGradient>
    <linearGradient id="d" x1="59.72" y1="99.76" x2="51.34" y2="130.32" gradientUnits="userSpaceOnUse">
      <stop stop-color="#94ADD6"/>
      <stop offset="1" stop-color="#5E7193"/>
    </linearGradient>
    <linearGradient id="e" x1="76" y1="41.56" x2="76" y2="53.55" gradientUnits="userSpaceOnUse">
      <stop stop-color="#F6FAFF"/>
      <stop offset="1" stop-color="#CBDBF6"/>
    </linearGradient>
  </defs>
</svg>