<svg width="269" height="119" fill="none" xmlns="http://www.w3.org/2000/svg">
  <path fill="#F5F5F5" d="M0 0h269v119H0z"/>
  <path d="M130.023 6.502c3.732-3.202 9.925-3.318 13.832-.26a8.447 8.447 0 0 1 1.831 1.96 14.033 14.033 0 0 1 4.86-.842c6.697 0 12.127 4.451 12.127 9.941 0 5.49-5.429 9.94-12.127 9.94a14.308 14.308 0 0 1-2.365-.2c-1.556 2.275-4.488 3.686-7.669 3.69a10.074 10.074 0 0 1-3.833-.731c-2.174 4.178-8.069 6.12-13.166 4.339-2.534-.886-4.512-2.587-5.47-4.704-.63.11-1.273.166-1.917.165-5.201-.055-9.363-3.556-9.296-7.82.042-2.703 1.808-5.192 4.654-6.56a7.373 7.373 0 0 1-.89-3.539c-.01-4.897 4.824-8.873 10.798-8.881 3.382-.005 6.571 1.287 8.621 3.491" fill="#139CD8"/>
  <path d="M114.919 19.604c-.024.037-.014.082.023.11.111.054.201.11.311.164a3.942 3.942 0 0 0 1.672.31c1.138 0 1.85-.494 1.85-1.297v-.02c0-.747-.803-1.005-1.562-1.205l-.083-.028c-.559-.145-1.047-.274-1.047-.584v-.019c0-.255.291-.458.735-.458a3.673 3.673 0 0 1 1.449.31c.046.027.11.018.143-.02v-.018c.024-.055.225-.475.225-.513.013-.04-.004-.084-.044-.11a3.735 3.735 0 0 0-1.649-.364h-.11c-1.047 0-1.783.512-1.783 1.26v.02c0 .787.803 1.042 1.562 1.206l.11.036c.559.145 1.027.255 1.027.567v.02c0 .293-.311.512-.802.512a3.123 3.123 0 0 1-1.472-.348c-.091-.036-.134-.074-.177-.09-.047-.027-.111-.019-.144.019v.019l-.234.52ZM131.639 19.604c-.024.037-.015.082.023.11.11.054.2.11.311.164a3.939 3.939 0 0 0 1.672.31c1.137 0 1.85-.494 1.85-1.297v-.02c0-.747-.803-1.005-1.562-1.205l-.081-.028c-.558-.145-1.046-.274-1.046-.584v-.019c0-.255.29-.458.736-.458a3.672 3.672 0 0 1 1.448.31c.046.027.11.018.143-.02v-.018c.024-.055.225-.475.225-.513.013-.04-.004-.084-.044-.11a3.739 3.739 0 0 0-1.649-.364h-.11c-1.047 0-1.783.512-1.783 1.26v.02c0 .787.803 1.042 1.562 1.206l.11.036c.559.145 1.027.255 1.027.567v.02c0 .293-.311.512-.802.512a3.124 3.124 0 0 1-1.472-.348c-.09-.036-.134-.074-.177-.09-.047-.027-.111-.019-.144.019v.019l-.237.52ZM144.044 17.191a1.881 1.881 0 0 0-.425-.677 2.32 2.32 0 0 0-.736-.457 3.285 3.285 0 0 0-2.05 0c-.281.11-.531.266-.736.457a1.627 1.627 0 0 0-.425.677 2.726 2.726 0 0 0 0 1.68c.087.247.231.477.425.678.205.192.455.348.736.458a3.285 3.285 0 0 0 2.05 0c.285-.104.537-.26.736-.458.202-.196.347-.428.425-.677a2.58 2.58 0 0 0 .133-.842 2.528 2.528 0 0 0-.133-.841m-.96.841c.023.371-.085.74-.311 1.061-.206.255-.566.395-.937.365-.368.02-.722-.119-.936-.365a1.955 1.955 0 0 1 0-2.119c.205-.255.566-.395.936-.365.368-.019.722.119.937.365.228.321.336.69.311 1.061M151.87 19.349c-.011-.04-.059-.063-.107-.055a3.05 3.05 0 0 1-.445.11c-.169.021-.34.033-.512.035-.404.02-.8-.1-1.093-.329-.301-.302-.445-.689-.401-1.077a1.485 1.485 0 0 1 .357-1.023c.255-.267.658-.412 1.071-.384.339-.004.677.033 1.003.11.048.008.096-.016.11-.055.091-.183.158-.329.245-.529.013-.038-.014-.078-.061-.09a4.058 4.058 0 0 0-.645-.129 7.753 7.753 0 0 0-.713-.036 3.23 3.23 0 0 0-1.07.165c-.298.103-.564.26-.779.458a1.968 1.968 0 0 0-.468.677c-.11.271-.163.556-.158.841-.03.564.192 1.117.626 1.555.497.413 1.19.626 1.896.584.465.004.927-.064 1.362-.2.036-.02.053-.056.043-.09l-.261-.538ZM156.753 17.046a1.585 1.585 0 0 0-.425-.622 1.713 1.713 0 0 0-.625-.384 2.893 2.893 0 0 0-.937-.145 3.14 3.14 0 0 0-1.07.164 2.099 2.099 0 0 0-.736.458c-.2.206-.351.442-.445.694a2.581 2.581 0 0 0-.133.841c-.008.286.045.57.157.842.084.255.245.487.468.677.231.187.503.336.803.439.376.118.779.168 1.181.145.56.027 1.12-.06 1.628-.255.044-.02.067-.035.024-.129l-.224-.493c-.01-.032-.05-.052-.089-.044h-.025a3.632 3.632 0 0 1-1.338.2 1.876 1.876 0 0 1-1.114-.31 1.116 1.116 0 0 1-.378-.877h3.234c.049.002.089-.03.091-.069.067-.019.177-.548-.043-1.132m-3.211.548c.03-.221.121-.434.267-.622.196-.255.546-.403.913-.384.366-.012.712.134.913.384.137.189.214.403.224.622h-2.317ZM130.869 17.046a1.585 1.585 0 0 0-.425-.622 1.713 1.713 0 0 0-.625-.384 2.893 2.893 0 0 0-.937-.145 3.144 3.144 0 0 0-1.07.164 2.099 2.099 0 0 0-.736.458c-.2.206-.351.442-.444.694a2.556 2.556 0 0 0-.134.841c-.008.286.045.57.157.842.083.255.244.488.468.677.231.187.504.336.803.439.376.118.779.168 1.18.145a4.02 4.02 0 0 0 1.629-.255c.044-.02.067-.035.024-.129l-.251-.488c-.01-.032-.05-.052-.089-.044h-.025a3.628 3.628 0 0 1-1.338.2 1.869 1.869 0 0 1-1.113-.31 1.11 1.11 0 0 1-.378-.877h3.234c.048.002.088-.029.09-.068.067-.02.177-.548-.043-1.132m-3.211.548c.03-.222.122-.434.267-.622.196-.256.546-.403.914-.384.365-.012.711.133.913.384.137.188.214.402.224.622h-2.318ZM121.953 17.466c-.134 0-.292-.02-.512-.02a4.014 4.014 0 0 0-.803.09c-.24.052-.466.138-.669.256a1.22 1.22 0 0 0-.468.438 1.141 1.141 0 0 0-.177.604 1.04 1.04 0 0 0 .157.603c.096.167.242.311.425.42.201.114.428.195.668.238.277.054.562.08.847.074a5.74 5.74 0 0 0 .98-.074c.311-.036.712-.11.826-.13.076-.012.151-.03.224-.054.048-.01.077-.049.067-.088v-2.429c.045-.432-.142-.86-.512-1.17a2.617 2.617 0 0 0-1.495-.365 4.672 4.672 0 0 0-.87.074c-.352.05-.691.15-1.003.294-.041.026-.051.073-.023.11l.224.512c.01.032.049.052.089.044h.025a.076.076 0 0 0 .043-.02 4.03 4.03 0 0 1 1.395-.274 1.57 1.57 0 0 1 .802.165c.178.11.268.274.268.639v.11l-.512-.036m-1.271 1.864a.557.557 0 0 1-.177-.165c-.2-.284-.126-.644.177-.858.275-.152.608-.218.937-.184.291.001.581.02.869.055v1.207a6.992 6.992 0 0 1-.869.09 1.719 1.719 0 0 1-.937-.145ZM148.037 16.095c.019-.033.003-.072-.037-.088a2.365 2.365 0 0 0-.535-.074 1.938 1.938 0 0 0-.826.11 1.425 1.425 0 0 0-.535.329v-.33c-.003-.039-.042-.07-.091-.073h-.869c-.049.003-.087.034-.09.074v3.964c.003.04.041.071.09.074h.846c.049-.003.087-.034.09-.074v-1.974a1.988 1.988 0 0 1 .111-.694.815.815 0 0 1 .291-.383.983.983 0 0 1 .401-.2 1.98 1.98 0 0 1 .425-.055c.121.001.24.013.358.035.054.005.103-.027.11-.07.067-.13.224-.494.268-.568" fill="#fff"/>
  <path d="m140.054 14.269-.312-.055a3.014 3.014 0 0 0-.444-.036 2.03 2.03 0 0 0-1.362.403 2.136 2.136 0 0 0-.645 1.207l-.043.183h-.736c-.053.002-.099.032-.111.075l-.11.548c-.008.042.026.082.077.09h.749l-.736 3.306a2.89 2.89 0 0 1-.201.659 1.174 1.174 0 0 1-.223.383.57.57 0 0 1-.292.184c-.122.03-.25.043-.377.036-.067 0-.178-.02-.268-.02a.681.681 0 0 1-.177-.054c-.043-.011-.089.003-.111.035-.023.055-.224.494-.244.53-.024.04-.005.088.044.109a2.21 2.21 0 0 0 .759.11c.273.004.546-.033.803-.11.231-.075.438-.194.602-.348.184-.171.328-.37.424-.584.124-.293.222-.592.292-.897l.735-3.38h1.057c.053-.001.099-.032.111-.074l.11-.548c.008-.042-.026-.082-.077-.09h-1.06c.03-.207.09-.409.177-.604a.663.663 0 0 1 .224-.274.964.964 0 0 1 .268-.145c.117-.022.237-.034.358-.036.09 0 .2.02.267.02a.516.516 0 0 1 .157.035c.111.02.111 0 .134-.036l.244-.548c.024-.036-.043-.055-.066-.074M125.618 20.007c-.003.04-.042.071-.09.074h-.846c-.049-.003-.087-.034-.09-.074v-5.659c.003-.04.041-.07.09-.074h.826c.048.003.087.035.09.075v5.663l.02-.005Z" fill="#fff"/>
  <rect x="63.5" y="38.444" width="142" height="76.056" rx="2.5" fill="#fff" stroke="#D9D9D9" stroke-linejoin="round"/>
  <rect x="71.406" y="51.66" width="126.604" height="12.216" rx="2.5" stroke="#D9D9D9" stroke-linejoin="round"/>
  <rect x="71.406" y="76.972" width="126.604" height="12.216" rx="2.5" stroke="#D9D9D9" stroke-linejoin="round"/>
  <mask id="a" fill="#fff">
    <rect x="70.906" y="94.84" width="127.604" height="13.216" rx="3"/>
  </mask>
  <rect x="70.906" y="94.84" width="127.604" height="13.216" rx="3" fill="#0065CC" stroke="#0065CC" stroke-width="10" stroke-linejoin="round" mask="url(#a)"/>
  <path d="M125.676 103.312v-3.636h.549v3.164h1.647v.472h-2.196Zm3.928.055c-.255 0-.478-.059-.669-.176a1.178 1.178 0 0 1-.444-.492 1.631 1.631 0 0 1-.158-.738c0-.283.053-.531.158-.742.105-.212.253-.377.444-.494.191-.117.414-.176.669-.176.256 0 .479.059.67.176.19.117.338.282.444.494.105.211.158.459.158.742 0 .282-.053.528-.158.738a1.191 1.191 0 0 1-.444.492 1.256 1.256 0 0 1-.67.176Zm.002-.446a.634.634 0 0 0 .412-.131.778.778 0 0 0 .242-.35c.053-.145.079-.306.079-.481 0-.174-.026-.334-.079-.479a.79.79 0 0 0-.242-.354.63.63 0 0 0-.412-.133.638.638 0 0 0-.415.133.802.802 0 0 0-.244.354 1.411 1.411 0 0 0-.078.479c0 .175.026.336.078.481a.79.79 0 0 0 .244.35c.11.088.248.131.415.131Zm3.006 1.471a1.64 1.64 0 0 1-.56-.086 1.086 1.086 0 0 1-.38-.225.965.965 0 0 1-.22-.307l.457-.189c.032.053.074.108.127.166a.66.66 0 0 0 .221.15.88.88 0 0 0 .36.063.806.806 0 0 0 .499-.148c.131-.097.197-.252.197-.465v-.536h-.034a1.227 1.227 0 0 1-.138.193.748.748 0 0 1-.245.185.914.914 0 0 1-.407.078c-.215 0-.409-.05-.582-.151a1.07 1.07 0 0 1-.409-.449 1.634 1.634 0 0 1-.149-.733c0-.29.049-.539.148-.746a1.066 1.066 0 0 1 .996-.643c.169 0 .306.029.41.085a.75.75 0 0 1 .243.196c.059.074.105.14.137.197h.039v-.442h.52v2.787c0 .235-.054.427-.163.577a.955.955 0 0 1-.442.334 1.71 1.71 0 0 1-.625.109Zm-.006-1.561a.675.675 0 0 0 .387-.107.657.657 0 0 0 .242-.309 1.26 1.26 0 0 0 .083-.484 1.34 1.34 0 0 0-.081-.485.726.726 0 0 0-.24-.327.633.633 0 0 0-.391-.119.63.63 0 0 0-.399.125.744.744 0 0 0-.242.333 1.337 1.337 0 0 0-.079.473c0 .178.027.335.081.47.055.135.135.24.242.316a.67.67 0 0 0 .397.114Zm3.863-3.155v3.636h-.549v-3.636h.549Zm1.287 2.017v1.619h-.531v-2.727h.51v.444h.033a.774.774 0 0 1 .295-.348.916.916 0 0 1 .51-.132c.186 0 .348.039.488.117.14.077.248.192.325.345.077.153.115.341.115.566v1.735h-.531v-1.671c0-.197-.051-.352-.154-.463a.544.544 0 0 0-.424-.169.67.67 0 0 0-.329.08.565.565 0 0 0-.225.234.77.77 0 0 0-.082.37Z" fill="#fff"/>
  <path d="M73.366 46.028h.55v2.391c0 .255-.059.48-.178.677-.12.195-.288.349-.505.462-.216.11-.47.166-.761.166-.29 0-.544-.055-.76-.166a1.255 1.255 0 0 1-.505-.462 1.276 1.276 0 0 1-.179-.677v-2.391h.549v2.347c0 .164.036.31.108.438a.786.786 0 0 0 .31.302.988.988 0 0 0 .477.109.992.992 0 0 0 .477-.109.76.76 0 0 0 .31-.302.876.876 0 0 0 .107-.438v-2.347Zm3.35 1.575-.482.085a.569.569 0 0 0-.096-.176.474.474 0 0 0-.174-.137.63.63 0 0 0-.275-.053.662.662 0 0 0-.376.101c-.1.066-.151.152-.151.258 0 .09.034.164.101.22a.82.82 0 0 0 .327.137l.433.099c.251.058.438.147.561.268a.63.63 0 0 1 .185.47.715.715 0 0 1-.142.437.93.93 0 0 1-.393.299c-.166.072-.36.108-.58.108-.306 0-.555-.065-.748-.195a.826.826 0 0 1-.355-.56l.513-.078a.491.491 0 0 0 .197.304c.1.067.23.101.39.101a.72.72 0 0 0 .416-.108c.105-.074.157-.163.157-.268a.279.279 0 0 0-.096-.215.628.628 0 0 0-.29-.132l-.461-.1c-.255-.059-.443-.151-.565-.278a.67.67 0 0 1-.18-.48c0-.162.044-.303.134-.424a.885.885 0 0 1 .373-.282 1.36 1.36 0 0 1 .545-.103c.295 0 .527.064.696.192.17.127.281.296.336.51Zm1.812 2.116c-.269 0-.5-.057-.694-.172a1.168 1.168 0 0 1-.448-.488 1.653 1.653 0 0 1-.156-.74c0-.28.052-.526.156-.74.106-.213.252-.379.44-.498.19-.12.411-.18.665-.18.154 0 .303.026.447.077.145.05.274.13.389.24.115.108.205.25.272.424.066.172.1.383.1.63v.188H77.53v-.398h1.648a.783.783 0 0 0-.085-.37.644.644 0 0 0-.599-.352c-.149 0-.28.036-.39.11a.738.738 0 0 0-.256.284.82.82 0 0 0-.089.378v.31c0 .183.032.338.096.466a.693.693 0 0 0 .272.293c.116.066.251.1.406.1.101 0 .193-.015.276-.043a.57.57 0 0 0 .353-.346l.502.09a.911.911 0 0 1-.216.389 1.05 1.05 0 0 1-.39.258c-.154.06-.331.09-.53.09Zm1.76-.055v-2.727h.512v.433h.029a.66.66 0 0 1 .263-.346.752.752 0 0 1 .43-.128 2.344 2.344 0 0 1 .225.012v.508a.957.957 0 0 0-.114-.02 1.082 1.082 0 0 0-.163-.012.692.692 0 0 0-.336.08.593.593 0 0 0-.316.535v1.665h-.53Zm2.449-1.62v1.62h-.53v-2.727h.509v.444h.033a.78.78 0 0 1 .295-.348.918.918 0 0 1 .51-.132c.186 0 .348.04.488.117.14.077.248.192.325.345.077.153.115.341.115.566v1.735h-.53v-1.67c0-.199-.052-.353-.155-.464a.547.547 0 0 0-.424-.169.664.664 0 0 0-.329.08.575.575 0 0 0-.225.234.773.773 0 0 0-.082.37Zm3.251 1.68c-.173 0-.329-.032-.469-.095a.79.79 0 0 1-.332-.283.81.81 0 0 1-.12-.453c0-.154.03-.28.088-.38.06-.099.14-.178.24-.236.1-.058.213-.102.337-.131.125-.03.251-.052.38-.068l.398-.046a.585.585 0 0 0 .222-.062c.046-.028.07-.075.07-.138v-.013a.48.48 0 0 0-.132-.36c-.087-.086-.216-.128-.387-.128-.179 0-.32.04-.423.119a.636.636 0 0 0-.211.26l-.499-.113a.96.96 0 0 1 .26-.401c.114-.103.246-.178.395-.224a1.547 1.547 0 0 1 .817-.032c.123.025.238.071.344.139a.766.766 0 0 1 .265.29.999.999 0 0 1 .103.484v1.811h-.519v-.373h-.02a.754.754 0 0 1-.155.203.82.82 0 0 1-.265.165 1.026 1.026 0 0 1-.387.065Zm.115-.426a.763.763 0 0 0 .377-.087.61.61 0 0 0 .24-.227.59.59 0 0 0 .083-.304v-.351a.276.276 0 0 1-.11.053 1.73 1.73 0 0 1-.183.04 24.866 24.866 0 0 1-.364.052 1.313 1.313 0 0 0-.282.066.483.483 0 0 0-.203.133.333.333 0 0 0-.074.227c0 .132.048.231.145.299.097.066.221.1.371.1Zm1.938.366v-2.727h.51v.444h.033a.704.704 0 0 1 .28-.352.82.82 0 0 1 .463-.128c.182 0 .335.043.458.128a.75.75 0 0 1 .275.352h.028a.768.768 0 0 1 .311-.348.948.948 0 0 1 .508-.132c.247 0 .449.078.605.233.158.155.236.389.236.701v1.829h-.53v-1.78c0-.184-.05-.318-.151-.4a.549.549 0 0 0-.36-.125.515.515 0 0 0-.404.16.581.581 0 0 0-.144.407v1.738h-.529v-1.813a.476.476 0 0 0-.138-.357.494.494 0 0 0-.36-.135c-.101 0-.194.027-.28.08a.587.587 0 0 0-.204.219.669.669 0 0 0-.076.325v1.681h-.53Zm5.594.055c-.268 0-.5-.057-.694-.172a1.168 1.168 0 0 1-.447-.488 1.653 1.653 0 0 1-.156-.74c0-.28.052-.526.156-.74.105-.213.252-.379.44-.498.19-.12.41-.18.664-.18.154 0 .303.026.448.077.144.05.274.13.388.24.115.108.206.25.272.424.066.172.1.383.1.63v.188h-2.168v-.398h1.647a.784.784 0 0 0-.085-.37.645.645 0 0 0-.598-.352c-.15 0-.28.036-.39.11a.739.739 0 0 0-.257.284.82.82 0 0 0-.088.378v.31c0 .183.032.338.096.466a.693.693 0 0 0 .271.293c.116.066.252.1.407.1.1 0 .192-.015.275-.043a.57.57 0 0 0 .353-.346l.503.09a.91.91 0 0 1-.217.389 1.05 1.05 0 0 1-.389.258c-.155.06-.332.09-.53.09ZM71.028 75.2v-3.636h1.296c.283 0 .517.051.703.154.186.103.325.244.418.423.092.177.138.377.138.6 0 .224-.047.425-.14.603a1.015 1.015 0 0 1-.42.423c-.185.103-.419.155-.7.155h-.892v-.466h.842c.178 0 .323-.03.435-.092a.58.58 0 0 0 .245-.256.834.834 0 0 0 .078-.367.822.822 0 0 0-.078-.366.56.56 0 0 0-.247-.25.922.922 0 0 0-.44-.09h-.69V75.2h-.548Zm3.925.06c-.173 0-.33-.032-.469-.096a.79.79 0 0 1-.332-.282.81.81 0 0 1-.12-.453c0-.154.029-.28.088-.38.06-.099.14-.178.24-.236.1-.058.213-.102.337-.131.124-.03.251-.052.38-.068l.398-.046a.585.585 0 0 0 .222-.062c.046-.028.07-.075.07-.138v-.013a.48.48 0 0 0-.132-.36c-.087-.086-.216-.128-.387-.128-.18 0-.32.04-.423.119a.636.636 0 0 0-.211.26l-.5-.113a.96.96 0 0 1 .26-.401c.115-.103.247-.178.396-.224a1.547 1.547 0 0 1 .817-.032c.123.025.238.071.344.139a.765.765 0 0 1 .265.29.998.998 0 0 1 .103.484V75.2h-.519v-.373h-.021a.752.752 0 0 1-.154.203.82.82 0 0 1-.265.165 1.026 1.026 0 0 1-.387.065Zm.115-.426a.762.762 0 0 0 .377-.087.608.608 0 0 0 .323-.53v-.352a.276.276 0 0 1-.11.053 1.723 1.723 0 0 1-.183.04 24.202 24.202 0 0 1-.364.052 1.313 1.313 0 0 0-.282.066.484.484 0 0 0-.203.133.333.333 0 0 0-.074.227c0 .132.048.231.145.299.097.066.221.1.371.1Zm3.982-1.695-.482.085a.569.569 0 0 0-.096-.176.474.474 0 0 0-.173-.137.63.63 0 0 0-.276-.053.662.662 0 0 0-.376.101c-.1.066-.151.152-.151.258 0 .09.034.164.101.22a.819.819 0 0 0 .327.137l.433.099c.251.058.438.147.561.268a.63.63 0 0 1 .185.47.715.715 0 0 1-.142.437.93.93 0 0 1-.393.299c-.166.072-.36.108-.58.108-.306 0-.555-.065-.748-.195a.825.825 0 0 1-.355-.56l.513-.078a.491.491 0 0 0 .197.304.68.68 0 0 0 .39.101.72.72 0 0 0 .416-.108c.105-.074.157-.163.157-.268a.279.279 0 0 0-.096-.215.629.629 0 0 0-.29-.132l-.461-.1c-.255-.059-.443-.151-.565-.278a.67.67 0 0 1-.18-.48c0-.162.044-.303.134-.423a.885.885 0 0 1 .373-.283 1.36 1.36 0 0 1 .545-.103c.295 0 .527.064.696.192.17.127.281.296.336.51Zm2.68 0-.48.085a.57.57 0 0 0-.097-.176.474.474 0 0 0-.174-.137.63.63 0 0 0-.275-.053.662.662 0 0 0-.376.101c-.101.066-.151.152-.151.258 0 .09.033.164.1.22a.82.82 0 0 0 .328.137l.433.099c.25.058.438.147.56.268a.63.63 0 0 1 .186.47.715.715 0 0 1-.143.437.93.93 0 0 1-.392.299c-.167.072-.36.108-.58.108-.306 0-.555-.065-.748-.195a.826.826 0 0 1-.355-.56l.513-.078a.49.49 0 0 0 .197.304.68.68 0 0 0 .389.101.72.72 0 0 0 .417-.108c.104-.074.156-.163.156-.268a.278.278 0 0 0-.096-.215.628.628 0 0 0-.289-.132l-.462-.1c-.254-.059-.442-.151-.564-.278a.67.67 0 0 1-.181-.48c0-.162.045-.303.135-.423a.884.884 0 0 1 .372-.283 1.36 1.36 0 0 1 .546-.103c.294 0 .526.064.696.192.169.127.28.296.335.51Zm1.228 2.061-.802-2.727h.549l.534 2.003h.027l.536-2.003h.548l.533 1.994h.027l.53-1.994h.55l-.801 2.727h-.542l-.554-1.97h-.04l-.555 1.97h-.54Zm4.601.055c-.256 0-.479-.059-.67-.176a1.186 1.186 0 0 1-.443-.492 1.633 1.633 0 0 1-.158-.738c0-.283.052-.53.158-.742.105-.212.253-.377.444-.494.19-.117.413-.176.669-.176.256 0 .479.059.67.176.19.117.338.282.443.494.106.212.158.459.158.742 0 .281-.052.528-.158.738-.105.211-.253.375-.444.492-.19.117-.413.176-.669.176Zm.002-.446a.636.636 0 0 0 .412-.131.77.77 0 0 0 .241-.35c.053-.145.08-.306.08-.481 0-.174-.027-.334-.08-.48a.781.781 0 0 0-.241-.353.63.63 0 0 0-.412-.133.64.64 0 0 0-.416.133.794.794 0 0 0-.243.354 1.416 1.416 0 0 0-.078.479c0 .175.026.336.078.481a.783.783 0 0 0 .243.35c.11.088.249.131.416.131Zm1.862.391v-2.727h.513v.433h.028a.66.66 0 0 1 .263-.346.752.752 0 0 1 .43-.128 2.34 2.34 0 0 1 .225.012v.508a.958.958 0 0 0-.113-.02 1.083 1.083 0 0 0-.164-.012.693.693 0 0 0-.335.08.593.593 0 0 0-.316.534V75.2h-.531Zm2.842.053c-.22 0-.416-.056-.59-.168a1.15 1.15 0 0 1-.404-.485 1.802 1.802 0 0 1-.146-.758c0-.295.05-.547.148-.757a1.062 1.062 0 0 1 .996-.648c.169 0 .305.029.408.085a.73.73 0 0 1 .241.196c.059.074.103.14.135.197h.032v-1.351h.531V75.2h-.518v-.424h-.044a1.407 1.407 0 0 1-.139.199.77.77 0 0 1-.245.195.858.858 0 0 1-.405.083Zm.117-.453a.62.62 0 0 0 .387-.12.748.748 0 0 0 .242-.34c.056-.144.083-.312.083-.504 0-.189-.027-.355-.081-.497a.731.731 0 0 0-.24-.332.631.631 0 0 0-.39-.119.631.631 0 0 0-.4.124.76.76 0 0 0-.242.34c-.053.143-.08.304-.08.484 0 .183.028.347.082.492a.783.783 0 0 0 .242.346c.107.084.24.126.397.126Z" fill="#636363"/>
</svg>