<svg width="80" height="82" fill="none" xmlns="http://www.w3.org/2000/svg">
  <path fill-rule="evenodd" clip-rule="evenodd" d="M20.55 11.37C24.36 6.25 29.7.05 35.75 0h.13c1.36.01 2.76.34 4.19 1.06 6.39 3.23 10.35 12.99 12.51 19.8l.13.41c.42 1.34.81 2.7 1.18 4.07 2.45 9.1 3.77 18.62 4.18 28 .04.88.1 1.8.16 2.75.27 3.88.56 8.22-.6 11.6-2.27 6.58-9.76 4.51-14.64 3.17l-.18-.05a905.8 905.8 0 0 1-14.72-4.14 304.3 304.3 0 0 1-5.26-1.6c-2.74-.84-5.48-1.72-8.2-2.65-1.17-.4-2.38-.82-3.58-1.29-3.34-1.32-6.64-3.04-8.89-5.9C-2 49.93.62 43.92 3.6 38.77l2.72-4.75c1.56-2.74 3.13-5.49 4.74-8.22a163.28 163.28 0 0 1 9.5-14.43Zm34.29-1.63c.07-.77.15-1.53.28-2.3l.02-.11c.17-.96.4-2.32 1.36-2.32.18 0 .37.05.6.15 1.09.48 1.78 1.5 2.44 2.5l.43.63.03.04c1.04 1.47 2.35 3.32.57 4.83a8.67 8.67 0 0 1-2.61 1.36c-1.45.53-3.1.63-3.32-1.34-.09-.85.01-1.75.11-2.62l.09-.82Zm5.4 4.9c-.67.23-1 1.08-.63 1.73.12.22.26.4.42.5.51.3 1.28-.11 1.7-.42.3-.22 1.09-.85 1.14-1.24.04-.36-.4-.8-1.32-.8-.36 0-.8.06-1.3.23ZM5.95 63.9a55.36 55.36 0 0 0 1.2-.24 8.03 8.03 0 0 1 1.74-.26c.2 0 .4.01.6.05 1.38.25 1.1 1.54.88 2.61l-.02.08-.03.17c-.21.98-.42 1.99-.76 2.92-.26.73-.66 1.56-1.42 1.8-.51.17-1.09-.14-1.55-.4l-.11-.06c-1.5-.8-3.35-1.9-4-3.64a2.93 2.93 0 0 1-.07-.25c-.1-.37-.12-.77.02-1.12.34-.83 1.4-1.19 2.16-1.38.45-.11.91-.2 1.37-.28Z" fill="url(#a)"/>
  <mask id="b" style="mask-type:alpha" maskUnits="userSpaceOnUse" x="11" y="11" width="43" height="55">
    <path fill-rule="evenodd" clip-rule="evenodd" d="m20.55 11.37-1.69 2.32a163.31 163.31 0 0 0-7.8 12.11v35.33c1.2.47 2.4.9 3.56 1.29 2.73.93 5.46 1.8 8.21 2.66l1.18-38.85 29.88-.89a102.08 102.08 0 0 0-1.3-4.47l-15.16-9.5H20.55Z" fill="#fff"/>
  </mask>
  <g mask="url(#b)">
    <path fill-rule="evenodd" clip-rule="evenodd" d="m20.55 11.37-1.69 2.32a163.31 163.31 0 0 0-7.8 12.11v35.33c1.2.47 2.4.9 3.56 1.29 2.73.93 5.46 1.8 8.21 2.66l1.18-38.85 29.88-.89a102.08 102.08 0 0 0-1.3-4.47l-15.16-9.5H20.55Z" fill="url(#c)"/>
  </g>
  <mask id="d" style="mask-type:alpha" maskUnits="userSpaceOnUse" x="13" y="14" width="37" height="53">
    <path fill-rule="evenodd" clip-rule="evenodd" d="M14.86 14.02c-.9 0-1.64.77-1.64 1.73v50.59h23.05V22.3l13.23-.34-11.72-7.04c-1-.6-2.11-.91-3.26-.91H14.86Z" fill="#fff"/>
  </mask>
  <g mask="url(#d)">
    <path fill-rule="evenodd" clip-rule="evenodd" d="M14.86 14.02c-.9 0-1.64.77-1.64 1.73v50.59h23.05V22.3l13.23-.34-11.72-7.04c-1-.6-2.11-.91-3.26-.91H14.86Z" fill="url(#e)"/>
  </g>
  <mask id="f" style="mask-type:alpha" maskUnits="userSpaceOnUse" x="18" y="21" width="55" height="43">
    <path fill-rule="evenodd" clip-rule="evenodd" d="m71.52 21.66-32.02.44-19.25.27c-.61.01-1.1.53-1.1 1.17l-.37 38.7c-.01.73.6 1.29 1.29 1.17l32.81-5.71c.12-.02.86 0 1.73.04 1.46.05 3.31.1 3.42-.09l3.05-7.22 11.42-27c.43-.78-.1-1.77-.96-1.77h-.02Z" fill="#fff"/>
  </mask>
  <g mask="url(#f)">
    <path fill-rule="evenodd" clip-rule="evenodd" d="m71.52 21.66-32.02.44-19.25.27c-.61.01-1.1.53-1.1 1.17l-.37 38.7c-.01.73.6 1.29 1.29 1.17l32.81-5.71c.12-.02.86 0 1.73.04 1.46.05 3.31.1 3.42-.09l3.05-7.22 11.42-27c.43-.78-.1-1.77-.96-1.77h-.02Z" fill="url(#g)"/>
  </g>
  <mask id="h" style="mask-type:alpha" maskUnits="userSpaceOnUse" x="20" y="34" width="55" height="28">
    <path fill-rule="evenodd" clip-rule="evenodd" d="m72.14 34.76-36.12.56-5.65.09a2.4 2.4 0 0 0-2.23 1.75l-7.2 24.21 36.15-2.34a2.31 2.31 0 0 0 1.67-.9l5.96-7.53L74 38.88c1.3-1.63.2-4.12-1.81-4.12h-.05Z" fill="#fff"/>
  </mask>
  <g mask="url(#h)">
    <path fill-rule="evenodd" clip-rule="evenodd" d="m72.14 34.76-36.12.56-5.65.09a2.4 2.4 0 0 0-2.23 1.75l-7.2 24.21 36.15-2.34a2.31 2.31 0 0 0 1.67-.9l5.96-7.53L74 38.88c1.3-1.63.2-4.12-1.81-4.12h-.05Z" fill="url(#i)"/>
  </g>
  <mask id="j" style="mask-type:alpha" maskUnits="userSpaceOnUse" x="18" y="22" width="44" height="42">
    <path fill-rule="evenodd" clip-rule="evenodd" d="M20.25 22.37c-.61.01-1.1.53-1.1 1.17l-.37 38.7c-.01.73.6 1.29 1.29 1.17l32.81-5.71c.12-.02.86 0 1.73.04 1.46.05 3.31.1 3.42-.09l3.05-7.22c-1-.12-2.14-.22-3.42-.3C29.06 48.34 35.87 29.3 39.5 22.1l-19.25.27Z" fill="#fff"/>
  </mask>
  <g mask="url(#j)">
    <path fill-rule="evenodd" clip-rule="evenodd" d="M20.25 22.37c-.61.01-1.1.53-1.1 1.17l-.37 38.7c-.01.73.6 1.29 1.29 1.17l32.81-5.71c.12-.02.86 0 1.73.04 1.46.05 3.31.1 3.42-.09l3.05-7.22c-1-.12-2.14-.22-3.42-.3C29.06 48.34 35.87 29.3 39.5 22.1l-19.25.27Z" fill="url(#k)"/>
  </g>
  <mask id="l" style="mask-type:alpha" maskUnits="userSpaceOnUse" x="20" y="35" width="45" height="27">
    <path fill-rule="evenodd" clip-rule="evenodd" d="M30.37 35.4a2.4 2.4 0 0 0-2.23 1.77l-7.2 24.2 36.15-2.34a2.31 2.31 0 0 0 1.67-.9l5.96-7.53c-.58-.02-1.2-.03-1.85-.02-20.89.2-25.81-9.3-26.85-15.26l-5.65.09Z" fill="#fff"/>
  </mask>
  <g mask="url(#l)">
    <path fill-rule="evenodd" clip-rule="evenodd" d="M30.37 35.4a2.4 2.4 0 0 0-2.23 1.77l-7.2 24.2 36.15-2.34a2.31 2.31 0 0 0 1.67-.9l5.96-7.53c-.58-.02-1.2-.03-1.85-.02-20.89.2-25.81-9.3-26.85-15.26l-5.65.09Z" fill="url(#m)"/>
  </g>
  <mask id="n" style="mask-type:alpha" maskUnits="userSpaceOnUse" x="13" y="43" width="68" height="24">
    <path fill-rule="evenodd" clip-rule="evenodd" d="m78.98 43.16-18.23.02a2.4 2.4 0 0 0-1.96 1.02l-2.46 3.44a3.64 3.64 0 0 1-3.06 1.54l-16.21-.49c-.31 0-.61.03-.9.12-.38.1-.73.28-1.05.53l-21.89 17H36.5l2.58-.08 4.56-.12 9.63-.25 4.56-.11 5.43-.14.04-.05 16.47-20.68c.16-.2.24-.43.24-.66v-.03c0-.55-.41-1.06-1-1.06h-.02Z" fill="#fff"/>
  </mask>
  <g mask="url(#n)">
    <path fill-rule="evenodd" clip-rule="evenodd" d="m78.98 43.16-18.23.02a2.4 2.4 0 0 0-1.96 1.02l-2.46 3.44a3.64 3.64 0 0 1-3.06 1.54l-16.21-.49c-.31 0-.61.03-.9.12-.38.1-.73.28-1.05.53l-21.89 17H36.5l2.58-.08 4.56-.12 9.63-.25 4.56-.11 5.43-.14.04-.05 16.47-20.68c.16-.2.24-.43.24-.66v-.03c0-.55-.41-1.06-1-1.06h-.02Z" fill="url(#o)"/>
  </g>
  <mask id="p" style="mask-type:alpha" maskUnits="userSpaceOnUse" x="13" y="48" width="51" height="19">
    <path fill-rule="evenodd" clip-rule="evenodd" d="m35.11 49.34-21.89 17H36.5l2.58-.08 4.56-.12 9.63-.25 4.56-.1 5.43-.15.04-.05c-18.95-4.4-25.3-11.34-27.13-16.78-.38.1-.73.28-1.05.53Z" fill="#fff"/>
  </mask>
  <g mask="url(#p)">
    <path fill-rule="evenodd" clip-rule="evenodd" d="m35.11 49.34-21.89 17H36.5l2.58-.08 4.56-.12 9.63-.25 4.56-.1 5.43-.15.04-.05c-18.95-4.4-25.3-11.34-27.13-16.78-.38.1-.73.28-1.05.53Z" fill="url(#q)"/>
  </g>
  <defs>
    <linearGradient id="a" x1="0" y1="0" x2="0" y2="72.26" gradientUnits="userSpaceOnUse">
      <stop stop-color="#F6FAFF"/>
      <stop offset="1" stop-color="#CBDBF6"/>
    </linearGradient>
    <linearGradient id="c" x1="46.82" y1="110.98" x2="134.7" y2="46.46" gradientUnits="userSpaceOnUse">
      <stop stop-opacity=".01"/>
      <stop offset="1" stop-opacity=".2"/>
    </linearGradient>
    <linearGradient id="e" x1="21.97" y1="-39.24" x2="-34.9" y2="20.61" gradientUnits="userSpaceOnUse">
      <stop stop-color="#94ADD6"/>
      <stop offset="1" stop-color="#5E7193"/>
    </linearGradient>
    <linearGradient id="g" x1="19.56" y1="21.66" x2="19.56" y2="62.21" gradientUnits="userSpaceOnUse">
      <stop stop-color="#CBDAEE"/>
      <stop offset="1" stop-color="#B4CAED"/>
    </linearGradient>
    <linearGradient id="i" x1="56.44" y1="91.32" x2="98.58" y2="9.14" gradientUnits="userSpaceOnUse">
      <stop stop-color="#fff"/>
      <stop offset="1" stop-color="#B1CCF9"/>
    </linearGradient>
    <linearGradient id="k" x1="54.1" y1="98.75" x2="124.85" y2="32.08" gradientUnits="userSpaceOnUse">
      <stop stop-opacity=".01"/>
      <stop offset="1" stop-opacity=".27"/>
    </linearGradient>
    <linearGradient id="m" x1="38.19" y1="10.61" x2="17.97" y2="59.59" gradientUnits="userSpaceOnUse">
      <stop stop-color="#fff"/>
      <stop offset="1" stop-color="#B1CCF9"/>
    </linearGradient>
    <linearGradient id="o" x1="29.32" y1="19.56" x2="18.35" y2="67.51" gradientUnits="userSpaceOnUse">
      <stop stop-color="#94ADD6"/>
      <stop offset="1" stop-color="#5E7193"/>
    </linearGradient>
    <linearGradient id="q" x1="44.02" y1="72.73" x2="50.05" y2="45.99" gradientUnits="userSpaceOnUse">
      <stop stop-opacity=".01"/>
      <stop offset="1" stop-opacity=".27"/>
    </linearGradient>
  </defs>
</svg>