<?xml version="1.0" standalone="no"?><!DOCTYPE svg PUBLIC "-//W3C//DTD SVG 1.1//EN" "http://www.w3.org/Graphics/SVG/1.1/DTD/svg11.dtd"><svg t="1645412175847" class="icon" viewBox="0 0 1024 1024" version="1.1" xmlns="http://www.w3.org/2000/svg" p-id="3787" xmlns:xlink="http://www.w3.org/1999/xlink" width="200" height="200"><defs><style type="text/css"></style></defs><path d="M851.712 642.048l33.2288 57.9584a39.1168 39.1168 0 0 0 53.3504 14.4896 39.0656 39.0656 0 0 0 14.4896-53.3504l-76.7488-134.0416a39.1168 39.1168 0 0 0-53.4016-14.4896l-134.0416 76.7488a39.1168 39.1168 0 0 0 38.8608 67.8912l43.6736-24.9856a289.4336 289.4336 0 0 1-537.1904-26.7264 39.0656 39.0656 0 1 0-74.0352 25.2416 367.616 367.616 0 0 0 347.9552 248.7808 367.616 367.616 0 0 0 343.8592-237.5168zM167.5776 381.1328l-33.28-57.9584a39.1168 39.1168 0 0 0-53.2992-14.4896 39.0656 39.0656 0 0 0-14.4896 53.3504L143.2576 496.128a39.1168 39.1168 0 0 0 53.4016 14.4896l134.0416-76.7488a39.1168 39.1168 0 0 0-38.912-67.8912l-43.6224 24.9856a289.4336 289.4336 0 0 1 537.1904 26.7264 39.0656 39.0656 0 1 0 74.0352-25.2416 367.616 367.616 0 0 0-347.9552-248.7808 367.616 367.616 0 0 0-343.8592 237.568z" p-id="3788"></path></svg>