<svg width="28" height="28" viewBox="0 0 28 28" fill="none" xmlns="http://www.w3.org/2000/svg">
<path d="M4.10023 4.10023C-1.36674 9.5672 -1.36674 18.4328 4.10023 23.8998C9.5672 29.3667 18.4328 29.3667 23.8998 23.8998C29.3667 18.4328 29.3667 9.5672 23.8998 4.10023C18.4328 -1.36674 9.5672 -1.36674 4.10023 4.10023ZM22.2203 22.2203C17.6815 26.7592 10.3185 26.7592 5.77965 22.2203C1.24079 17.6815 1.24079 10.3185 5.77965 5.77965C10.3185 1.24078 17.6815 1.24078 22.2203 5.77965C26.7592 10.3185 26.7592 17.6815 22.2203 22.2203Z" fill="white"/>
<path d="M11.8847 20.3644L10.4704 18.9502L15.4205 14.0001L10.4704 9.05003L11.8847 7.63578L18.2303 13.9813L18.228 13.9836L18.2468 14.0023L11.8847 20.3644Z" fill="white"/>
</svg>
