<svg width="53" height="20" viewBox="0 0 53 20" fill="none" xmlns="http://www.w3.org/2000/svg">
<g clip-path="url(#clip0_87_566)">
<path d="M4.19269 0.0108643H-0.00361633V12.2284C-0.00138287 14.2042 0.784424 16.0985 2.18144 17.4958C3.57846 18.893 5.47261 19.6791 7.44845 19.6817H8.42277V15.4854H7.44845C6.58497 15.4854 5.75686 15.1423 5.14629 14.5318C4.53571 13.9212 4.19269 13.0931 4.19269 12.2296V8.40107H8.42398V4.20476H4.19269V0.0108643Z" fill="white"/>
<path d="M52.2163 15.4793C51.9925 15.4793 51.7778 15.3904 51.6195 15.2321C51.4612 15.0738 51.3722 14.8591 51.3722 14.6352V0.0108643H47.1759V16.0292C47.1759 17.9585 48.6688 19.5924 50.5933 19.6781C50.6475 19.6781 51.3168 19.6781 51.3722 19.6781H53.0242V15.4793H52.2163Z" fill="white"/>
<path d="M18.2021 3.53192C15.8049 3.53192 13.8229 4.3105 12.2561 5.86763C10.6893 7.42477 9.90594 9.38064 9.90594 11.7352C9.90594 14.1324 10.6785 16.1092 12.2236 17.6655C13.7686 19.2219 15.751 20 18.1707 20C20.1467 20 21.8715 19.49 23.345 18.4698C24.1177 17.9451 24.7858 17.281 25.3153 16.5115C25.8796 15.6638 26.233 14.6935 26.3463 13.6815V13.6815H21.9728L21.951 13.802C21.8683 14.2214 21.6923 14.6169 21.4362 14.9591C21.1802 15.3014 20.8505 15.5818 20.4715 15.7796L20.4534 15.788C19.8109 16.1037 19.1022 16.2608 18.3866 16.2463C17.1004 16.2463 16.0911 15.9151 15.3587 15.2527C14.6392 14.6202 14.1984 13.7292 14.1324 12.7735H26.4319C26.5573 9.91321 25.821 7.65749 24.2228 6.0063C22.6247 4.35511 20.6178 3.53032 18.2021 3.53192ZM14.2904 9.93612C14.5002 9.03254 14.9367 8.32271 15.5999 7.80661C16.2631 7.29052 17.0887 7.03287 18.0767 7.03368C18.8839 7.03012 19.6721 7.27838 20.3316 7.74391C21.0149 8.2182 21.4723 8.94894 21.7038 9.93612H14.2904Z" fill="white"/>
<path d="M44.1746 14.6111V13.4234V4.20478H39.8541V5.64575C39.4329 5.07821 38.8227 4.58422 38.0236 4.16378C37.185 3.73328 36.2531 3.51625 35.3105 3.53192C33.2292 3.53192 31.4731 4.34184 30.0422 5.96168C28.6113 7.58152 27.8962 9.51649 27.897 11.7666C27.897 14.0175 28.6121 15.9524 30.0422 17.5715C31.4723 19.1905 33.2284 20 35.3105 20C36.253 20.0161 37.1849 19.7995 38.0236 19.3694C38.8235 18.9481 39.4337 18.4537 39.8541 17.8862L40.2737 17.4533C40.533 18.0778 40.9639 18.6161 41.5163 19.006C42.0688 19.3958 42.7204 19.6213 43.3956 19.6564C43.4499 19.6564 44.1191 19.6564 44.1746 19.6564H45.712V15.4576H45.0211C44.9099 15.458 44.7996 15.4363 44.6968 15.3939C44.5939 15.3514 44.5005 15.2891 44.4218 15.2104C44.3432 15.1318 44.2808 15.0383 44.2384 14.9355C44.196 14.8326 44.1743 14.7224 44.1746 14.6111ZM39.1101 14.8523C38.3866 15.6514 37.4243 16.0509 36.2233 16.0509C35.0223 16.0509 34.06 15.6514 33.3365 14.8523C32.613 14.0532 32.2513 13.0227 32.2513 11.7605C32.2513 10.4984 32.613 9.46785 33.3365 8.66879C34.06 7.86972 35.0223 7.47019 36.2233 7.47019C37.4243 7.47019 38.3874 7.87132 39.1125 8.67361C39.836 9.47268 40.1978 10.5033 40.1978 11.7654C40.1978 13.0275 39.836 14.0585 39.1125 14.8583L39.1101 14.8523Z" fill="white"/>
</g>
<defs>
<clipPath id="clip0_87_566">
<rect width="53" height="20" fill="white"/>
</clipPath>
</defs>
</svg>
