<svg width="36" height="28" viewBox="0 0 36 28" fill="none" xmlns="http://www.w3.org/2000/svg">
<path d="M16.1999 15.332C17.9779 15.332 19.4193 13.8896 19.4193 12.1104C19.4193 10.3311 17.9779 8.88867 16.1999 8.88867C14.4219 8.88867 12.9805 10.3311 12.9805 12.1104C12.9805 13.8896 14.4219 15.332 16.1999 15.332Z" fill="white"/>
<path d="M35.6068 15.3982H26.3497C27.8401 14.3857 28.9667 12.9217 29.5641 11.221C30.1615 9.52042 30.1982 7.67291 29.6688 5.94988C29.1394 4.22686 28.0717 2.71915 26.6227 1.64823C25.1737 0.577299 23.4197 -0.000395645 21.6184 2.03297e-07H6.36133V5.98191H17.9481C19.1861 5.98327 20.3731 6.47604 21.2485 7.3521C22.124 8.22816 22.6164 9.41596 22.6178 10.6549C22.6178 10.6549 22.629 14.4021 22.6315 16.8032C22.6336 18.8445 22.6315 22.0303 22.6315 22.0303H35.5828L32.168 18.7246L35.6068 15.3982Z" fill="white"/>
<path d="M6.35996 17.3527V5.98242H0.392578V17.5877C0.392578 18.9552 0.661722 20.3092 1.18465 21.5726C1.70758 22.836 2.47407 23.9839 3.44032 24.9508C4.40657 25.9177 5.55366 26.6848 6.81613 27.2081C8.0786 27.7314 9.43172 28.0007 10.7982 28.0007H17.729C19.0302 28.0007 20.2781 27.4834 21.1982 26.5627C22.1183 25.6419 22.6352 24.3931 22.6352 23.091V22.0308H11.0331C9.79352 22.0304 8.6049 21.5373 7.72857 20.66C6.85224 19.7827 6.35996 18.5931 6.35996 17.3527Z" fill="white"/>
</svg>
