<svg width="117" height="28" viewBox="0 0 117 28" fill="none" xmlns="http://www.w3.org/2000/svg">
<g clip-path="url(#clip0_98_3326)">
<path d="M5.86548 0.0151978H-0.00518799V17.1197C-0.00206336 19.8859 1.09729 22.5379 3.05172 24.4941C5.00616 26.4502 7.6561 27.5508 10.4203 27.5543H11.7834V21.6795H10.4203C9.21229 21.6795 8.05376 21.1993 7.19956 20.3445C6.34536 19.4897 5.86548 18.3303 5.86548 17.1214V11.7615H11.7851V5.88666H5.86548V0.0151978Z" fill="black"/>
<path d="M73.051 21.671C72.7378 21.671 72.4375 21.5466 72.216 21.3249C71.9945 21.1033 71.8701 20.8027 71.8701 20.4893V0.0151978H65.9995V22.4409C65.9995 25.1419 68.0879 27.4294 70.7803 27.5493C70.8563 27.5493 71.7925 27.5493 71.8701 27.5493H74.1813V21.671H73.051Z" fill="black"/>
<path d="M25.4648 4.94464C22.1111 4.94464 19.3383 6.03464 17.1464 8.21463C14.9544 10.3946 13.8585 13.1328 13.8585 16.4293C13.8585 19.7854 14.9392 22.5528 17.1008 24.7317C19.2624 26.9106 22.0358 28 25.421 28C28.1854 28 30.5983 27.2859 32.6598 25.8577C33.7407 25.123 34.6755 24.1933 35.4163 23.1161C36.2057 21.9293 36.7002 20.5708 36.8586 19.154H30.74L30.7096 19.3228C30.5938 19.9099 30.3477 20.4635 29.9894 20.9427C29.6312 21.4219 29.1699 21.8145 28.6397 22.0914L28.6144 22.1032C27.7156 22.5451 26.7241 22.7651 25.7229 22.7447C23.9235 22.7447 22.5115 22.281 21.4869 21.3537C20.4803 20.4682 19.8637 19.2208 19.7713 17.8828H36.9784C37.1539 13.8784 36.1237 10.7204 33.8879 8.40877C31.6521 6.09711 28.8444 4.94239 25.4648 4.94464ZM19.9923 13.9105C20.2858 12.6455 20.8965 11.6517 21.8243 10.9292C22.7522 10.2067 23.9072 9.84597 25.2894 9.8471C26.4187 9.84212 27.5214 10.1897 28.444 10.8414C29.4 11.5054 30.0399 12.5285 30.3638 13.9105H19.9923Z" fill="black"/>
<path d="M61.8006 20.4556V18.7927V5.88665H55.7562V7.90402C55.1668 7.10945 54.3132 6.41786 53.1953 5.82926C52.022 5.22656 50.7183 4.92272 49.3996 4.94465C46.4879 4.94465 44.0311 6.07854 42.0293 8.34632C40.0274 10.6141 39.027 13.323 39.0281 16.4732C39.0281 19.6244 40.0285 22.3334 42.0293 24.6C44.03 26.8667 46.4868 28 49.3996 28C50.7182 28.0225 52.0219 27.7193 53.1953 27.1171C54.3144 26.5274 55.168 25.8352 55.7562 25.0406L56.3432 24.4346C56.706 25.3089 57.3087 26.0625 58.0816 26.6083C58.8545 27.1541 59.7661 27.4698 60.7108 27.5189C60.7867 27.5189 61.723 27.5189 61.8006 27.5189H63.9515V21.6407H62.9848C62.8292 21.6411 62.675 21.6108 62.5311 21.5514C62.3872 21.492 62.2565 21.4047 62.1464 21.2945C62.0364 21.1844 61.9492 21.0536 61.8898 20.9096C61.8305 20.7656 61.8001 20.6113 61.8006 20.4556ZM54.7153 20.7932C53.7031 21.9119 52.3569 22.4712 50.6767 22.4712C48.9965 22.4712 47.6503 21.9119 46.6381 20.7932C45.6259 19.6745 45.1198 18.2317 45.1198 16.4647C45.1198 14.6978 45.6259 13.255 46.6381 12.1363C47.6503 11.0176 48.9965 10.4582 50.6767 10.4582C52.3569 10.4582 53.7042 11.0198 54.7187 12.143C55.7309 13.2617 56.2369 14.7045 56.2369 16.4715C56.2369 18.2384 55.7309 19.6818 54.7187 20.8016L54.7153 20.7932Z" fill="black"/>
<path d="M97.9018 15.0889C99.6515 15.0889 101.07 13.6694 101.07 11.9185C101.07 10.1675 99.6515 8.74811 97.9018 8.74811C96.1521 8.74811 94.7336 10.1675 94.7336 11.9185C94.7336 13.6694 96.1521 15.0889 97.9018 15.0889Z" fill="#005149"/>
<path d="M116.998 15.153H107.889C109.355 14.1567 110.464 12.7159 111.052 11.0424C111.64 9.36881 111.676 7.55072 111.155 5.85514C110.634 4.15955 109.583 2.67585 108.157 1.62198C106.731 0.568106 105.005 -0.000389345 103.233 2.00059e-07H88.2186V5.88665H99.6208C100.839 5.88799 102.007 6.37291 102.869 7.23502C103.73 8.09713 104.215 9.26602 104.216 10.4852L104.23 16.5356V21.6795H116.975L113.614 18.4264L116.998 15.153Z" fill="#005149"/>
<path d="M88.2185 17.0758V5.88666H82.3462V17.3071C82.3462 18.6528 82.611 19.9853 83.1257 21.2286C83.6403 22.4718 84.3945 23.6014 85.3454 24.553C86.2963 25.5045 87.4251 26.2593 88.6675 26.7743C89.9098 27.2893 91.2414 27.5543 92.5861 27.5543H99.4065C100.687 27.5543 101.915 27.0453 102.821 26.1392C103.726 25.2331 104.235 24.0042 104.235 22.7228V21.6795H92.8172C91.5974 21.679 90.4277 21.1938 89.5654 20.3305C88.703 19.4672 88.2185 18.2965 88.2185 17.0758Z" fill="#005149"/>
</g>
<defs>
<clipPath id="clip0_98_3326">
<rect width="117" height="28" fill="#005149"/>
</clipPath>
</defs>
</svg>
