<svg width="20" height="20" viewBox="0 0 20 20" fill="none" xmlns="http://www.w3.org/2000/svg">
<path fill-rule="evenodd" clip-rule="evenodd" d="M4.5458 2.5H15.4542C16.5833 2.5 17.4981 3.4701 17.5 4.66953V15.3305C17.5 16.5299 16.5833 17.5 15.4542 17.5H4.5458C3.41477 17.5 2.5 16.5279 2.5 15.3305V4.66953C2.5 3.4701 3.41669 2.5 4.5458 2.5ZM9.3655 11.6896V10.7582H8.68789V7H8.43327H7.50513H7.49281L5 10.9684L5.05749 11.6896H7.50513V13H8.68789V11.6896H9.3655ZM7.50513 8.55846L7.41478 8.71017L6.17454 10.7582H7.50513V8.55846ZM11.3614 9.74888V7H10.1294V13H11.3614V11.2698L12.0032 10.5775L13.5421 13H15L12.8191 9.65509L14.9425 7H13.4312L11.9076 8.99863L11.3614 9.74888Z" fill="#484E59"/>
</svg>
