<svg width="20" height="20" viewBox="0 0 20 20" fill="none" xmlns="http://www.w3.org/2000/svg">
<path d="M10.4231 2.303C11.2308 1.71549 12.1077 1.96231 12.1077 3.21935V16.659C12.1077 18.0335 11.3231 18.3742 10.4231 17.5753L5.46153 14.0273H3.23457C2.57692 14.0273 2 13.4637 2 12.2889V7.58965C2 6.41485 2.57692 5.85091 3.15389 5.85091H5.35769L10.4231 2.303ZM14.4962 14.0744C14.2769 14.0744 14.0462 13.9569 13.9308 13.8512C13.5962 13.5105 13.5962 12.9348 13.9308 12.5941C15.2808 11.1021 15.2808 8.82303 13.9308 7.33103C13.5962 6.99034 13.5962 6.41469 13.9308 6.074C14.2654 5.7333 14.7154 5.7333 15.05 6.074C17.0692 8.1299 17.0692 11.5603 15.05 13.628C14.8308 13.9569 14.7154 14.0744 14.4962 14.0744ZM16.7346 15.4372C16.4 15.0965 16.4 14.5208 16.7346 14.1801C18.8692 11.7835 18.8692 8.11815 16.7346 5.72156C16.4 5.38086 16.4 4.80521 16.7346 4.46452C17.0692 4.12383 17.5192 4.12383 17.8538 4.46452C19.2154 5.94477 20 7.77746 20 9.83336C20 11.8893 19.2154 13.8394 17.8654 15.214C17.75 15.3314 17.5308 15.4372 17.3 15.4372C17.0808 15.6721 16.85 15.5547 16.7346 15.4372Z" fill="#484E59"/>
</svg>
