<?xml version="1.0" encoding="UTF-8"?>
<svg width="12px" height="12px" viewBox="0 0 12 12" version="1.1" xmlns="http://www.w3.org/2000/svg" xmlns:xlink="http://www.w3.org/1999/xlink">
    <!-- Generator: Sketch 47.1 (45422) - http://www.bohemiancoding.com/sketch -->
    <title>x</title>
    <desc>Created with Sketch.</desc>
    <defs></defs>
    <g id="Notifications-+-Empty-states" stroke="none" stroke-width="1" fill="none" fill-rule="evenodd">
        <g id="01_success" transform="translate(-837.000000, -60.000000)" fill="#313131">
            <g id="Group" transform="translate(416.000000, 45.000000)">
                <path d="M428.617444,20.9998163 L432.66465,25.046486 C433.111783,25.4933395 433.111783,26.2180064 432.66465,26.6648599 C432.217516,27.1117134 431.492901,27.1117134 431.045768,26.6648599 L427,22.6181902 L422.952795,26.6648599 C422.507099,27.1117134 421.781046,27.1117134 421.33535,26.6648599 C420.888217,26.2180064 420.888217,25.4933395 421.33535,25.046486 L425.381118,20.9998163 L421.33535,16.9546164 C420.888217,16.507763 420.888217,15.783096 421.33535,15.3362425 C421.781046,14.8879192 422.507099,14.8879192 422.952795,15.3362425 L427,19.3814424 L431.045768,15.3362425 C431.492901,14.8879192 432.217516,14.8879192 432.66465,15.3362425 C433.111783,15.783096 433.111783,16.507763 432.66465,16.9546164 L428.617444,20.9998163 L428.617444,20.9998163 Z" id="x"></path>
            </g>
        </g>
    </g>
</svg>