<?xml version="1.0" encoding="utf-8"?>
<!-- Generator: Adobe Illustrator 16.0.0, SVG Export Plug-In . SVG Version: 6.00 Build 0)  -->
<!DOCTYPE svg PUBLIC "-//W3C//DTD SVG 1.1//EN" "http://www.w3.org/Graphics/SVG/1.1/DTD/svg11.dtd">
<svg version="1.1" id="大本钟_1_" xmlns="http://www.w3.org/2000/svg" xmlns:xlink="http://www.w3.org/1999/xlink" x="0px"
	 y="0px" width="200px" height="190px" viewBox="0 0 200 190" enable-background="new 0 0 200 190" xml:space="preserve">
<g id="形状_8">
	<g>
		<polygon fill-rule="evenodd" clip-rule="evenodd" fill="#4E617F" points="100.731,10.837 99.272,10.837 96.353,36.707 
			102.191,36.707 		"/>
	</g>
</g>
<g id="矩形_5">
	<g>
		<rect x="80.12" y="103.969" fill-rule="evenodd" clip-rule="evenodd" fill="#4E617F" width="38.679" height="83.213"/>
	</g>
</g>
<g id="形状_7">
	<g>
		<polygon fill-rule="evenodd" clip-rule="evenodd" fill="#4E617F" points="106.393,47.055 93.986,47.055 87.417,61.099 
			112.23,61.099 		"/>
	</g>
</g>
<g id="圆角矩形_5">
	<g>
		<path fill-rule="evenodd" clip-rule="evenodd" fill="#4E617F" d="M122.447,72.925H76.471c-0.403,0-0.73,0.331-0.73,0.739v36.219
			c0,0.408,0.327,0.738,0.73,0.738h45.976c0.403,0,0.73-0.33,0.73-0.738V73.664C123.178,73.256,122.851,72.925,122.447,72.925z"/>
	</g>
</g>
<g id="圆角矩形_6">
	<g>
		<path fill-rule="evenodd" clip-rule="evenodd" fill="#4E617F" d="M112.96,60.359H85.958c-0.403,0-0.729,0.331-0.729,0.739v14.044
			c0,0.408,0.327,0.739,0.729,0.739h27.002c0.403,0,0.729-0.331,0.729-0.739V61.099C113.689,60.69,113.363,60.359,112.96,60.359z"/>
	</g>
</g>
<g id="圆角矩形_4">
	<g>
		<path fill-rule="evenodd" clip-rule="evenodd" fill="#4E617F" d="M105.109,35.968c0-0.408-0.326-0.739-0.729-0.739H94.164
			c-0.403,0-0.73,0.331-0.73,0.739l-1.459,11.826c0,0.408,0.327,0.739,0.729,0.739h12.406c0.404,0,0.73-0.331,0.73-0.739
			L105.109,35.968z"/>
	</g>
</g>
<g id="椭圆_3">
	<g>
		<ellipse fill-rule="evenodd" clip-rule="evenodd" fill="#4E617F" cx="100.001" cy="9.358" rx="3.649" ry="3.696"/>
	</g>
</g>
<g id="形状_9">
	<g>
		<polygon fill-rule="evenodd" clip-rule="evenodd" fill="#4E617F" points="100.001,-0.251 99.272,7.141 100.731,7.141 		"/>
	</g>
</g>
<g id="圆角矩形_7">
	<g>
		<path fill-rule="evenodd" clip-rule="evenodd" fill="#FDAF37" d="M107.098,61.371H91.82c-0.383,0-0.694,0.383-0.694,0.855v0.856
			c0,0.473,0.311,0.855,0.694,0.855h15.277c0.384,0,0.695-0.383,0.695-0.855v-0.856C107.793,61.754,107.481,61.371,107.098,61.371z"
			/>
	</g>
</g>
<g id="圆角矩形_7_副本">
	<g>
		<path fill-rule="evenodd" clip-rule="evenodd" fill="#88CDCC" d="M110.623,112.723H88.295c-0.561,0-1.015,0.369-1.015,0.825v0.825
			c0,0.456,0.455,0.825,1.015,0.825h22.328c0.561,0,1.016-0.369,1.016-0.825v-0.825
			C111.639,113.092,111.184,112.723,110.623,112.723z"/>
	</g>
</g>
<g id="圆角矩形_7_副本_2">
	<g>
		<path fill-rule="evenodd" clip-rule="evenodd" fill="#88CDCC" d="M110.623,122.626H88.295c-0.561,0-1.015,0.369-1.015,0.825v0.825
			c0,0.456,0.455,0.825,1.015,0.825h22.328c0.561,0,1.016-0.369,1.016-0.825v-0.825
			C111.639,122.995,111.184,122.626,110.623,122.626z"/>
	</g>
</g>
<g id="圆角矩形_7_副本_3">
	<g>
		<path fill-rule="evenodd" clip-rule="evenodd" fill="#88CDCC" d="M110.623,142.433H88.295c-0.561,0-1.015,0.369-1.015,0.825v0.825
			c0,0.456,0.455,0.825,1.015,0.825h22.328c0.561,0,1.016-0.369,1.016-0.825v-0.825
			C111.639,142.802,111.184,142.433,110.623,142.433z"/>
	</g>
</g>
<g id="圆角矩形_7_副本_4">
	<g>
		<path fill-rule="evenodd" clip-rule="evenodd" fill="#88CDCC" d="M110.623,161.414H88.295c-0.561,0-1.015,0.37-1.015,0.825v0.825
			c0,0.456,0.455,0.826,1.015,0.826h22.328c0.561,0,1.016-0.37,1.016-0.826v-0.825C111.639,161.784,111.184,161.414,110.623,161.414
			z"/>
	</g>
</g>
<g id="圆角矩形_7_副本_5">
	<g>
		<path fill-rule="evenodd" clip-rule="evenodd" fill="#88CDCC" d="M110.623,132.529H88.295c-0.561,0-1.015,0.369-1.015,0.825v0.825
			c0,0.456,0.455,0.825,1.015,0.825h22.328c0.561,0,1.016-0.369,1.016-0.825v-0.825
			C111.639,132.898,111.184,132.529,110.623,132.529z"/>
	</g>
</g>
<g id="圆角矩形_7_副本_6">
	<g>
		<path fill-rule="evenodd" clip-rule="evenodd" fill="#88CDCC" d="M110.623,152.336H88.295c-0.561,0-1.015,0.37-1.015,0.825v0.825
			c0,0.456,0.455,0.826,1.015,0.826h22.328c0.561,0,1.016-0.37,1.016-0.826v-0.825C111.639,152.706,111.184,152.336,110.623,152.336
			z"/>
	</g>
</g>
<g id="圆角矩形_7_副本_7">
	<g>
		<path fill-rule="evenodd" clip-rule="evenodd" fill="#88CDCC" d="M110.623,171.317H88.295c-0.561,0-1.015,0.37-1.015,0.826v0.825
			c0,0.455,0.455,0.825,1.015,0.825h22.328c0.561,0,1.016-0.37,1.016-0.825v-0.825C111.639,171.688,111.184,171.317,110.623,171.317
			z"/>
	</g>
</g>
<g id="圆角矩形_7_副本_8">
	<g>
		<path fill-rule="evenodd" clip-rule="evenodd" fill="#88CDCC" d="M110.623,181.222H88.295c-0.561,0-1.015,0.369-1.015,0.825v0.825
			c0,0.456,0.455,0.825,1.015,0.825h22.328c0.561,0,1.016-0.369,1.016-0.825v-0.825
			C111.639,181.591,111.184,181.222,110.623,181.222z"/>
	</g>
</g>
<g id="椭圆_4">
	<g>
		<ellipse fill-rule="evenodd" clip-rule="evenodd" fill="#FDAF37" cx="99.459" cy="91.54" rx="13.461" ry="13.479"/>
	</g>
</g>
<g id="圆角矩形_8">
	<g>
		<path fill-rule="evenodd" clip-rule="evenodd" fill="#FEFEF8" d="M97.731,84.479h-1.003c-0.554,0-1.003,0.366-1.003,0.818v9.831
			c0,0.453,0.449,0.819,1.003,0.819h1.003c0.554,0,1.003-0.366,1.003-0.819v-9.831C98.734,84.846,98.285,84.479,97.731,84.479z"/>
	</g>
</g>
<g id="圆角矩形_8_副本">
	<g>
		<path fill-rule="evenodd" clip-rule="evenodd" fill="#FEFEF8" d="M106.236,87.287l-0.705-0.745
			c-0.39-0.411-1.034-0.435-1.439-0.052l-8.813,8.322c-0.406,0.383-0.419,1.027-0.03,1.438l0.705,0.745
			c0.389,0.411,1.033,0.435,1.439,0.051l8.813-8.322C106.611,88.342,106.625,87.698,106.236,87.287z"/>
	</g>
</g>
<g id="_x32__1_">
	<g id="矩形_22">
		<g>
			<rect x="118.049" y="142.249" fill-rule="evenodd" clip-rule="evenodd" fill="#F96335" width="75.641" height="44.933"/>
		</g>
	</g>
	<g id="组_6_1_">
		<g id="矩形_23">
			<g>
				<rect x="123.077" y="145.067" fill-rule="evenodd" clip-rule="evenodd" fill="#FFFFFF" width="14.103" height="11.555"/>
			</g>
		</g>
		<g id="矩形_23_副本_4">
			<g>
				<rect x="123.077" y="159.189" fill-rule="evenodd" clip-rule="evenodd" fill="#FFFFFF" width="14.103" height="11.554"/>
			</g>
		</g>
		<g id="矩形_23_副本">
			<g>
				<rect x="141.025" y="145.067" fill-rule="evenodd" clip-rule="evenodd" fill="#FFFFFF" width="14.104" height="11.555"/>
			</g>
		</g>
		<g id="矩形_23_副本_2">
			<g>
				<rect x="158.975" y="145.067" fill-rule="evenodd" clip-rule="evenodd" fill="#FFFFFF" width="14.103" height="11.555"/>
			</g>
		</g>
		<g id="矩形_23_副本_3">
			<g>
				<rect x="176.923" y="145.067" fill-rule="evenodd" clip-rule="evenodd" fill="#FFFFFF" width="14.103" height="11.555"/>
			</g>
		</g>
		<g id="矩形_23_副本_5">
			<g>
				<rect x="141.025" y="159.189" fill-rule="evenodd" clip-rule="evenodd" fill="#FFFFFF" width="14.104" height="11.554"/>
			</g>
		</g>
		<g id="矩形_23_副本_6">
			<g>
				<rect x="158.975" y="159.189" fill-rule="evenodd" clip-rule="evenodd" fill="#FFFFFF" width="14.103" height="11.554"/>
			</g>
		</g>
		<g id="矩形_23_副本_7">
			<g>
				<rect x="176.923" y="159.189" fill-rule="evenodd" clip-rule="evenodd" fill="#FFFFFF" width="14.103" height="11.554"/>
			</g>
		</g>
		<g id="矩形_23_副本_8">
			<g>
				<rect x="123.077" y="173.311" fill-rule="evenodd" clip-rule="evenodd" fill="#FFFFFF" width="14.103" height="11.555"/>
			</g>
		</g>
		<g id="矩形_23_副本_9">
			<g>
				<rect x="141.025" y="173.311" fill-rule="evenodd" clip-rule="evenodd" fill="#FFFFFF" width="14.104" height="11.555"/>
			</g>
		</g>
		<g id="矩形_23_副本_10">
			<g>
				<rect x="158.975" y="173.311" fill-rule="evenodd" clip-rule="evenodd" fill="#FFFFFF" width="14.103" height="11.555"/>
			</g>
		</g>
		<g id="矩形_23_副本_11">
			<g>
				<rect x="176.923" y="173.311" fill-rule="evenodd" clip-rule="evenodd" fill="#FFFFFF" width="14.103" height="11.555"/>
			</g>
		</g>
	</g>
</g>
<g id="_x31__1_">
	<g id="矩形_23_1_">
		<g>
			<rect x="10.356" y="160.223" fill-rule="evenodd" clip-rule="evenodd" fill="#F96335" width="70.513" height="26.959"/>
		</g>
	</g>
	<g id="组_7_1_">
		<g id="矩形_24">
			<g>
				<rect x="15.385" y="164.324" fill-rule="evenodd" clip-rule="evenodd" fill="#FDAF37" width="7.692" height="7.703"/>
			</g>
		</g>
		<g id="矩形_24_副本">
			<g>
				<rect x="28.205" y="164.324" fill-rule="evenodd" clip-rule="evenodd" fill="#FDAF37" width="7.692" height="7.703"/>
			</g>
		</g>
		<g id="矩形_24_副本_2">
			<g>
				<rect x="42.308" y="164.324" fill-rule="evenodd" clip-rule="evenodd" fill="#FDAF37" width="7.692" height="7.703"/>
			</g>
		</g>
		<g id="矩形_24_副本_3">
			<g>
				<rect x="55.128" y="164.324" fill-rule="evenodd" clip-rule="evenodd" fill="#FDAF37" width="7.692" height="7.703"/>
			</g>
		</g>
		<g id="矩形_24_副本_4">
			<g>
				<rect x="67.949" y="164.324" fill-rule="evenodd" clip-rule="evenodd" fill="#FDAF37" width="7.692" height="7.703"/>
			</g>
		</g>
		<g id="矩形_24_副本_5">
			<g>
				<rect x="15.385" y="175.878" fill-rule="evenodd" clip-rule="evenodd" fill="#FDAF37" width="7.692" height="7.703"/>
			</g>
		</g>
		<g id="矩形_24_副本_6">
			<g>
				<rect x="28.205" y="175.878" fill-rule="evenodd" clip-rule="evenodd" fill="#FDAF37" width="7.692" height="7.703"/>
			</g>
		</g>
		<g id="矩形_24_副本_7">
			<g>
				<rect x="42.308" y="175.878" fill-rule="evenodd" clip-rule="evenodd" fill="#FDAF37" width="7.692" height="7.703"/>
			</g>
		</g>
		<g id="矩形_24_副本_8">
			<g>
				<rect x="55.128" y="175.878" fill-rule="evenodd" clip-rule="evenodd" fill="#FDAF37" width="7.692" height="7.703"/>
			</g>
		</g>
		<g id="矩形_24_副本_9">
			<g>
				<rect x="67.949" y="175.878" fill-rule="evenodd" clip-rule="evenodd" fill="#FDAF37" width="7.692" height="7.703"/>
			</g>
		</g>
	</g>
</g>
</svg>
