<svg xmlns="http://www.w3.org/2000/svg" width="32" height="32" fill="none"><g clip-path="url(#slack_svg__a)"><rect width="26.4" height="26.4" y="5.6" fill="#C6CBDE" rx="5"/><rect width="26.4" height="26.4" x="4.8" y=".8" fill="#fff" stroke="#4D536E" rx="5"/><g clip-path="url(#slack_svg__b)"><path fill="#36C5F0" d="M15.593 5.012c-.478 0-.937.19-1.275.527a1.795 1.795 0 0 0 1.275 3.068h1.802V6.81a1.792 1.792 0 0 0-1.112-1.662 1.803 1.803 0 0 0-.69-.136Zm0 4.79h-4.79a1.795 1.795 0 1 0 0 3.595h4.802a1.806 1.806 0 0 0 1.661-1.115 1.792 1.792 0 0 0-.983-2.346 1.807 1.807 0 0 0-.69-.134Z"/><path fill="#2EB67D" d="M27 11.6c0-.478-.19-.935-.528-1.272a1.805 1.805 0 0 0-3.077 1.271v1.798h1.803a1.797 1.797 0 0 0 1.668-1.108c.09-.219.136-.453.134-.69Zm-4.802 0V6.797c0-.477-.19-.934-.528-1.271a1.805 1.805 0 0 0-3.077 1.27V11.6a1.8 1.8 0 0 0 .53 1.27 1.81 1.81 0 0 0 1.272.528 1.788 1.788 0 0 0 1.67-1.107c.09-.22.135-.454.133-.69Z"/><path fill="#ECB22E" d="M20.395 23c.478 0 .937-.19 1.275-.527a1.795 1.795 0 0 0-1.275-3.068h-1.802v1.797a1.8 1.8 0 0 0 .53 1.27 1.81 1.81 0 0 0 1.272.528Zm0-4.802h4.803a1.795 1.795 0 1 0 0-3.595h-4.803c-.478 0-.936.19-1.274.527a1.795 1.795 0 0 0 1.274 3.068Z"/><path fill="#E01E5A" d="M9 16.4a1.8 1.8 0 0 0 .53 1.27 1.81 1.81 0 0 0 1.272.528 1.81 1.81 0 0 0 1.274-.528 1.8 1.8 0 0 0 .529-1.27v-1.797h-1.803a1.804 1.804 0 0 0-1.666 1.11A1.79 1.79 0 0 0 9 16.4Zm4.802 0v4.802c0 .477.19.934.528 1.271a1.805 1.805 0 0 0 3.077-1.27V16.4a1.8 1.8 0 0 0-.53-1.27 1.81 1.81 0 0 0-1.962-.392 1.799 1.799 0 0 0-1.113 1.662Z"/></g></g><defs><clipPath id="slack_svg__a"><path fill="#fff" d="M0 0h32v32H0z"/></clipPath><clipPath id="slack_svg__b"><path fill="#fff" d="M9 5h18v18H9z"/></clipPath></defs></svg>