<?xml version="1.0" encoding="UTF-8"?>
<svg width="12px" height="12px" viewBox="0 0 12 12" version="1.1" xmlns="http://www.w3.org/2000/svg" xmlns:xlink="http://www.w3.org/1999/xlink">
    <!-- Generator: Sketch 46.1 (44463) - http://www.bohemiancoding.com/sketch -->
    <title>x</title>
    <desc>Created with Sketch.</desc>
    <defs></defs>
    <g id="Onboarding" stroke="none" stroke-width="1" fill="none" fill-rule="evenodd">
        <g id="03_Overly_on_recording_tab_opt2" transform="translate(-984.000000, -60.000000)" fill="#FFFFFF">
            <path d="M991.617444,65.9998163 L995.66465,70.046486 C996.111783,70.4933395 996.111783,71.2180064 995.66465,71.6648599 C995.217516,72.1117134 994.492901,72.1117134 994.045768,71.6648599 L990,67.6181902 L985.952795,71.6648599 C985.507099,72.1117134 984.781046,72.1117134 984.33535,71.6648599 C983.888217,71.2180064 983.888217,70.4933395 984.33535,70.046486 L988.381118,65.9998163 L984.33535,61.9546164 C983.888217,61.507763 983.888217,60.783096 984.33535,60.3362425 C984.781046,59.8879192 985.507099,59.8879192 985.952795,60.3362425 L990,64.3814424 L994.045768,60.3362425 C994.492901,59.8879192 995.217516,59.8879192 995.66465,60.3362425 C996.111783,60.783096 996.111783,61.507763 995.66465,61.9546164 L991.617444,65.9998163 L991.617444,65.9998163 Z" id="x"></path>
        </g>
    </g>
</svg>