<?xml version="1.0" encoding="UTF-8"?>
<svg width="17px" height="18px" viewBox="0 0 17 18" version="1.1" xmlns="http://www.w3.org/2000/svg" xmlns:xlink="http://www.w3.org/1999/xlink">
    <!-- Generator: Sketch 46.2 (44496) - http://www.bohemiancoding.com/sketch -->
    <title>Group</title>
    <desc>Created with Sketch.</desc>
    <defs></defs>
    <g id="Onboarding" stroke="none" stroke-width="1" fill="none" fill-rule="evenodd">
        <g id="03_Overly_on_recording_tab_opt2" transform="translate(-311.000000, -78.000000)" fill="#FFFFFF">
            <g id="Group-2" transform="translate(294.000000, 62.000000)">
                <g id="Group" transform="translate(17.000000, 16.000000)">
                    <path d="M10.0755049,10.790025 C9.88043688,11.0391728 9.63264775,11.2188126 9.36195221,11.3283855 C8.66603379,11.6142438 7.83903982,11.388576 7.37018569,10.790025 L5.31224512,8.16269939 C4.71322443,7.39773935 4.83248318,6.27983549 5.57857753,5.66581762 C6.31503666,5.05962639 7.42363397,5.18429344 8.0144738,5.93881798 L8.72293621,6.84316661 L13.9215689,0.655828166 C14.5565854,-0.15478723 15.7709885,-0.224667868 16.4921766,0.506004079 C17.1151945,1.13735235 17.1719151,2.17997146 16.6237976,2.87970958 L10.0755049,10.790025 Z M13.3476562,16.15954 L13.3476562,8.65763864 L17,4.23529412 L17,16.15954 C17,17.1399619 16.182377,17.9347826 15.1738281,17.9347826 C14.1652793,17.9347826 13.3476562,17.1399619 13.3476562,16.15954 Z M3.21786056,0.663272019 L6.47460938,4.44329772 C5.68185813,4.39130904 4.93254792,4.6136635 4.37597167,5.18759606 C3.81654994,5.76433376 3.61072675,6.5667921 3.61072675,7.3473703 L3.61072675,16.2202293 C3.61072675,17.1900613 2.789331,18 1.80536338,18 C0.821585456,18 0,17.1900613 0,16.2202293 L0,1.77654036 C0,1.04963392 0.4700736,0.377147282 1.15697292,0.117016883 C1.88351928,-0.158448306 2.72976558,0.0639061472 3.21786056,0.663272019 Z" id="Combined-Shape"></path>
                </g>
            </g>
        </g>
    </g>
</svg>