<?xml version="1.0"?>
<svg xmlns="http://www.w3.org/2000/svg" viewBox="0 0 60 60" fill="#f29a00"><g id="_44-Add_more_text" data-name="44-Add more text"><path d="M52,60H18a1,1,0,0,1,0-2H52a4,4,0,0,0,4-4V6a4,4,0,0,0-4-4H28a1,1,0,0,1,0-2H52a6.006,6.006,0,0,1,6,6V54A6.006,6.006,0,0,1,52,60Z"/><path d="M13,30a1,1,0,0,1-1-1V16a1,1,0,0,1,2,0V29A1,1,0,0,1,13,30Z"/><path d="M25,17H13a1,1,0,0,1-.707-1.707l15-15A1,1,0,0,1,29,1V13A3.888,3.888,0,0,1,25,17Zm-9.586-2H25a1.882,1.882,0,0,0,2-2V3.414Z"/><path d="M48,32H33a1,1,0,0,1,0-2H48a1,1,0,0,1,0,2Z"/><path d="M48,38H37a1,1,0,0,1,0-2H48a1,1,0,0,1,0,2Z"/><path d="M48,44H37a1,1,0,0,1,0-2H48a1,1,0,0,1,0,2Z"/><path d="M48,50H36a1,1,0,0,1,0-2H48a1,1,0,0,1,0,2Z"/><circle cx="48" cy="25" r="1"/><circle cx="44" cy="25" r="1"/><path d="M39,21a3,3,0,1,1,3-3A3,3,0,0,1,39,21Zm0-4a1,1,0,1,0,1,1A1,1,0,0,0,39,17Z"/><path d="M41,19a1,1,0,0,1-1-1c0-4.781-2.7-4.992-3.013-5a1.007,1.007,0,0,1-.98-1.014A.994.994,0,0,1,37,11c.05,0,5,.08,5,7A1,1,0,0,1,41,19Z"/><path d="M47,21a3,3,0,1,1,3-3A3,3,0,0,1,47,21Zm0-4a1,1,0,1,0,1,1A1,1,0,0,0,47,17Z"/><path d="M49,19a1,1,0,0,1-1-1c0-4.781-2.7-4.992-3.013-5a1.007,1.007,0,0,1-.98-1.014A.994.994,0,0,1,45,11c.05,0,5,.08,5,7A1,1,0,0,1,49,19Z"/><path d="M18,60A16,16,0,1,1,34,44,16.019,16.019,0,0,1,18,60Zm0-30A14,14,0,1,0,32,44,14.015,14.015,0,0,0,18,30Z"/><path d="M18,53a3,3,0,0,1-3-3V47H12a3,3,0,0,1,0-6h3V38a3,3,0,0,1,6,0v3h3a3,3,0,0,1,0,6H21v3A3,3,0,0,1,18,53ZM12,43a1,1,0,0,0,0,2h4a1,1,0,0,1,1,1v4a1,1,0,0,0,2,0V46a1,1,0,0,1,1-1h4a1,1,0,0,0,0-2H20a1,1,0,0,1-1-1V38a1,1,0,0,0-2,0v4a1,1,0,0,1-1,1Z"/></g></svg>
