<svg id="Layer_1" enable-background="new 0 0 512 512" viewBox="0 0 512 512" xmlns="http://www.w3.org/2000/svg"><g clip-rule="evenodd" fill-rule="evenodd"><ellipse cx="256" cy="256" fill="#ff0000" rx="256" ry="256" transform="matrix(.707 -.707 .707 .707 -106.039 256)"/><path d="m256 512c-17.84 0-35.257-1.84-52.077-5.33l-98.71-98.71c-2.002-1.979-3.824-4.137-5.442-6.45-5.488-7.559-8.736-16.83-8.736-26.889v-65.517c0-7.314 5.929-13.241 13.242-13.242 3.689 0 7.021 1.512 9.42 3.948l204.532 204.526c-19.93 4.996-40.773 7.664-62.229 7.664zm250.67-308.077-98.709-98.709c-1.982-2.005-4.144-3.831-6.461-5.451-7.558-5.483-16.824-8.729-26.879-8.729h-65.517c-7.313 0-13.241 5.929-13.241 13.242 0 3.687 1.511 7.018 3.945 9.416l204.53 204.536c4.994-19.928 7.662-40.772 7.662-62.228 0-17.84-1.841-35.257-5.33-52.077zm-16.588 155.663-168.239-168.24c-4.927-4.957-10.411-9.357-16.349-13.101-6.014-3.894-12.513-7.099-19.401-9.495l-73.767-73.758c-2.399-2.441-5.735-3.957-9.429-3.957h-65.517c-25.555 0-46.345 20.79-46.345 46.345v65.517c0 3.693 1.516 7.03 3.956 9.429l73.76 73.769c2.38 6.84 5.559 13.297 9.417 19.277 3.761 5.984 8.185 11.51 13.175 16.469l168.242 168.242c58.009-25.771 104.727-72.49 130.497-130.497z" fill="#b11313"/><path d="m420.965 137.379v65.517c0 7.313-5.929 13.241-13.241 13.241-7.313 0-13.242-5.929-13.242-13.241l.001-65.517c0-10.952-8.91-19.862-19.862-19.862h-65.517c-7.313 0-13.241-5.929-13.241-13.242s5.929-13.241 13.241-13.241h65.517c25.554.001 46.344 20.791 46.344 46.345zm0 171.724v65.517c0 25.555-20.79 46.345-46.345 46.345h-65.517c-7.313 0-13.241-5.928-13.241-13.241 0-7.314 5.929-13.241 13.241-13.241h65.517c10.952 0 19.862-8.91 19.862-19.862v-65.517c0-7.314 5.928-13.241 13.241-13.241 7.314-.001 13.242 5.927 13.242 13.24zm-204.827 98.621c0 7.314-5.929 13.241-13.242 13.241h-65.517c-25.555 0-46.345-20.79-46.345-46.345v-65.517c0-7.314 5.929-13.241 13.242-13.241s13.241 5.928 13.241 13.241v65.517c0 10.952 8.91 19.862 19.862 19.862h65.517c7.313.001 13.242 5.928 13.242 13.242zm-125.104-204.827v-65.517c0-25.555 20.79-46.345 46.345-46.345h65.517c7.313 0 13.242 5.929 13.242 13.241 0 7.313-5.929 13.242-13.242 13.242h-65.517c-10.952 0-19.862 8.91-19.862 19.862v65.517c0 7.313-5.929 13.241-13.241 13.241-7.313 0-13.242-5.929-13.242-13.241zm164.966 118.942c36.304 0 65.84-29.536 65.84-65.839s-29.536-65.84-65.84-65.84c-36.303 0-65.839 29.535-65.839 65.84 0 36.304 29.536 65.839 65.839 65.839zm92.322-65.839c0-50.907-41.416-92.322-92.322-92.322s-92.322 41.416-92.322 92.322 41.416 92.322 92.322 92.322 92.322-41.414 92.322-92.322z" fill="#fff"/></g></svg>