<svg id="Layer_1" viewBox="0 0 512 512" xmlns="http://www.w3.org/2000/svg"><path d="m192.628 288.549h121.904v141.414h-121.904z" fill="#f9d7aa"/><g><path d="m264.422 356.222c23.221 0 39.48-10.397 50.11-21.166v-46.507h-121.904v20.629s23.622 47.044 71.794 47.044z" fill="#e8ac6b"/></g><g fill="#f9d7aa"><path d="m260.291 43.431c-.59-.012-2.868-.028-2.874-.028s-2.284.017-2.875.028c-128.378 1.199-107.274 82.792-107.274 155.111 0 72.855 75.427 145.711 110.131 145.711h.036c34.704 0 110.131-72.855 110.131-145.711-.001-72.319 21.103-153.912-107.275-155.111z"/><path d="m359.412 201.956 8.705-27.848s15.316-4.252 23.394 12.223-13.06 50.326-31.295 53.17c-5.056-12.887-.804-37.545-.804-37.545z"/><path d="m155.717 201.956-8.705-27.848s-15.316-4.252-23.394 12.223 13.06 50.326 31.295 53.17c5.056-12.887.804-37.545.804-37.545z"/></g><path d="m446.542 448.597c-2.298-57.248-46.351-70.47-72.802-73.23-7.264-.758-28.65-.727-43.381-.602l.014-.034c-8.553.072-14.872.177-14.872.177l-60.129 52.809-60.818-52.809s-5.729-.098-13.601-.171l.013.034c-14.171-.13-35.326-.174-42.706.596-26.451 2.76-70.505 15.982-72.802 73.23-1.977 14.277 0 34.671 0 34.671s64.385 18.531 186.075 19.189c.906.014 8.029.014 8.934 0 121.69-.657 186.074-19.189 186.074-19.189s1.977-20.394.001-34.671z" fill="#fc6121"/><path d="m134.15 175.852c7.61-1.684 15.016-1.72 22.792 11.588.518-20.567-3.092-36.294 4.762-41.133 5.434 6.049 5.434 13.308 5.434 13.308 9.678-15.727 26.535-27.825 27.785-55.651 8.509 15.727 39.312 60.49 121.904 52.021-6.933-8.469-9.633-18.147-9.633-18.147s14.388 13.274 36.574 15.727c-1.21-4.839 0-16.937 0-16.937s14.858 10.771 17.597 50.812c3.999-12.794 8.223-15.257 13.974-12.512 2.908-10.475 22.939-94.475-13.424-129.559-38.423-37.071-145.176-64.643-189.938 0-24.195 2.944-49.039 22.112-37.827 130.483z" fill="#240703"/></svg>