<?xml version="1.0" encoding="iso-8859-1"?>
<!-- Generator: Adobe Illustrator 19.0.0, SVG Export Plug-In . SVG Version: 6.00 Build 0)  -->
<svg version="1.1" id="Capa_1" xmlns="http://www.w3.org/2000/svg" xmlns:xlink="http://www.w3.org/1999/xlink"
	 viewBox="0 0 512 512" style="enable-background:new 0 0 512 512;" xml:space="preserve"><defs><style>.cls-1{fill:#f29a00;}</style></defs>
<g>
	<g>
		<path class="cls-1" d="M185.233,326.767c-3.328-3.337-8.738-3.337-12.066,0l-156.1,156.1v-90.334c0-4.71-3.823-8.533-8.533-8.533
			C3.823,384,0,387.823,0,392.533v110.933c0,1.109,0.23,2.219,0.657,3.26c0.87,2.091,2.526,3.746,4.617,4.617
			c1.05,0.435,2.15,0.657,3.26,0.657h102.4c4.71,0,8.533-3.823,8.533-8.533s-3.823-8.533-8.533-8.533H29.133l156.1-156.1
			C188.57,335.497,188.57,330.104,185.233,326.767z"/>
	</g>
</g>
<g>
	<g>
		<path class="cls-1" d="M511.343,5.274c-0.87-2.082-2.526-3.746-4.617-4.617C505.685,0.222,504.576,0,503.467,0h-102.4
			c-4.71,0-8.533,3.823-8.533,8.533s3.823,8.533,8.533,8.533h81.801l-156.1,156.1c-3.336,3.337-3.336,8.73,0,12.066
			c1.664,1.664,3.849,2.5,6.033,2.5c2.185,0,4.369-0.836,6.033-2.5l156.1-156.1v90.334c0,4.71,3.823,8.533,8.533,8.533
			s8.533-3.823,8.533-8.533V8.533C512,7.424,511.77,6.315,511.343,5.274z"/>
	</g>
</g>
<g>
	<g>
		<path class="cls-1" d="M256,187.733c-37.641,0-68.267,30.626-68.267,68.267c0,37.641,30.626,68.267,68.267,68.267
			c37.641,0,68.267-30.626,68.267-68.267C324.267,218.36,293.641,187.733,256,187.733z"/>
	</g>
</g>
<g>
	<g>
		<path class="cls-1" d="M185.233,173.167l-156.1-156.1h90.334c4.71,0,8.533-3.823,8.533-8.533S124.177,0,119.467,0H8.533
			c-1.109,0-2.219,0.23-3.26,0.657C3.191,1.519,1.527,3.183,0.657,5.274C0.23,6.315,0,7.424,0,8.533v102.4
			c0,4.71,3.823,8.533,8.533,8.533c4.71,0,8.533-3.823,8.533-8.533V29.133l156.1,156.1c1.664,1.664,3.849,2.5,6.033,2.5
			c2.185,0,4.369-0.836,6.033-2.5C188.57,181.897,188.57,176.504,185.233,173.167z"/>
	</g>
</g>
<g>
	<g>
		<path class="cls-1" d="M503.467,392.533c-4.71,0-8.533,3.823-8.533,8.533v81.8l-156.1-156.1c-3.328-3.337-8.738-3.337-12.066,0
			c-3.337,3.336-3.337,8.73,0,12.066l156.1,156.1h-90.334c-4.71,0-8.533,3.823-8.533,8.533s3.823,8.533,8.533,8.533h110.933
			c1.109,0,2.219-0.23,3.26-0.657c2.091-0.862,3.746-2.526,4.617-4.617c0.427-1.041,0.657-2.15,0.657-3.26v-102.4
			C512,396.356,508.177,392.533,503.467,392.533z"/>
	</g>
</g>
<g>
</g>
<g>
</g>
<g>
</g>
<g>
</g>
<g>
</g>
<g>
</g>
<g>
</g>
<g>
</g>
<g>
</g>
<g>
</g>
<g>
</g>
<g>
</g>
<g>
</g>
<g>
</g>
<g>
</g>
</svg>
