<?xml version="1.0" encoding="iso-8859-1"?>
<!-- Generator: Adobe Illustrator 19.0.0, SVG Export Plug-In . SVG Version: 6.00 Build 0)  -->
<svg version="1.1" id="Capa_1" xmlns="http://www.w3.org/2000/svg" xmlns:xlink="http://www.w3.org/1999/xlink" x="0px" y="0px"
	 viewBox="0 0 512 512" style="enable-background:new 0 0 512 512;" xml:space="preserve">
<g>
	<g>
		<path d="M468.501,145.227c-0.544-1.301-1.323-2.464-2.304-3.445L327.541,3.125C325.547,1.12,322.837,0,320,0H96
			C66.592,0,42.667,23.925,42.667,53.333v405.333C42.667,500.853,77.557,512,96,512h320c29.408,0,53.333-23.925,53.333-53.333
			V149.333C469.333,147.915,469.045,146.517,468.501,145.227z M448,458.667c0,17.643-14.357,32-32,32H96.064
			c-5.355-0.064-32.064-1.888-32.064-32V53.333c0-17.643,14.357-32,32-32h219.584l117.333,117.333h-70.251
			c-17.643,0-32-14.357-32-32v-32C330.667,68.779,325.899,64,320,64s-10.667,4.779-10.667,10.667v32
			c0,29.408,23.925,53.333,53.333,53.333H448V458.667z"/>
	</g>
</g>
<g>
	<g>
		<path d="M362.667,213.333h-64c-5.899,0-10.667,4.779-10.667,10.667s4.768,10.667,10.667,10.667h64
			c11.765,0,21.333,9.568,21.333,21.333v149.333c0,11.765-9.568,21.333-21.333,21.333H149.333c-11.765,0-21.333-9.568-21.333-21.333
			V256c0-11.765,9.568-21.333,21.333-21.333H224c3.563,0,21.333,1.024,21.333,21.333v102.251l-24.459-24.459
			c-4.171-4.171-10.912-4.171-15.083,0s-4.171,10.912,0,15.083l42.656,42.656c0.981,0.992,2.165,1.771,3.477,2.315
			c1.301,0.533,2.688,0.821,4.075,0.821c1.387,0,2.773-0.288,4.075-0.821c1.312-0.544,2.485-1.323,3.477-2.315l42.656-42.656
			c4.171-4.171,4.171-10.912,0-15.083c-4.171-4.171-10.912-4.171-15.083,0l-24.459,24.459V256c0-31.307-25.525-42.667-42.667-42.667
			h-74.667c-23.531,0-42.667,19.136-42.667,42.667v149.333c0,23.531,19.136,42.667,42.667,42.667h213.333
			c23.531,0,42.667-19.136,42.667-42.667V256C405.333,232.469,386.197,213.333,362.667,213.333z"/>
	</g>
</g>
<g>
</g>
<g>
</g>
<g>
</g>
<g>
</g>
<g>
</g>
<g>
</g>
<g>
</g>
<g>
</g>
<g>
</g>
<g>
</g>
<g>
</g>
<g>
</g>
<g>
</g>
<g>
</g>
<g>
</g>
</svg>
