<svg id="Layer_1" viewBox="0 0 48 48" xmlns="http://www.w3.org/2000/svg" data-name="Layer 1" fill="#f29a00"><path d="m45.659 32.944a23.39 23.39 0 0 0 1.592-5.907l-3.671-1.179a10.7 10.7 0 0 0 0-3.308l3.639-1.63a23.227 23.227 0 0 0 -1.591-5.9l-3.742.628a7.845 7.845 0 0 0 -1.721-2.811l2.409-3.118a23.5 23.5 0 0 0 -4.348-4.3l-2.888 2.475a9.274 9.274 0 0 0 -2.876-1.666l.457-3.86a23.394 23.394 0 0 0 -5.906-1.592l-1.313 3.785a8.389 8.389 0 0 0 -3.449-.015l-1.351-3.736a23.281 23.281 0 0 0 -5.9 1.592l.7 3.954a8.093 8.093 0 0 0 -2.9 1.692l-3.11-2.592a23.535 23.535 0 0 0 -4.304 4.344l2.659 3a9.057 9.057 0 0 0 -1.709 2.978l-3.993-.67a23.436 23.436 0 0 0 -1.592 5.906l3.779 1.143a8.6 8.6 0 0 0 .023 3.413l-3.767 1.562a23.279 23.279 0 0 0 1.591 5.9l3.881-.873a7.2 7.2 0 0 0 1.707 2.962l-2.534 3.216a23.535 23.535 0 0 0 4.348 4.3l3.028-2.637a11.178 11.178 0 0 0 3.012 1.729l-.736 3.955a23.436 23.436 0 0 0 5.906 1.592l1.383-3.676a7.938 7.938 0 0 0 3.52.024l1.215 3.614a23.279 23.279 0 0 0 5.9-1.591l-.707-3.778a9.059 9.059 0 0 0 3.036-1.769l2.976 2.5a23.535 23.535 0 0 0 4.3-4.348l-2.39-3.122a5.992 5.992 0 0 0 1.5-2.682zm-18.874-7.879.456-.448 8.8 8.96-2.707 2.659-8.8-8.96.456-.448-.8-.811-5.038 4.864a3.758 3.758 0 0 1 -5.431 4.673l2.393-2.31a.554.554 0 0 0 .014-.784l-.54-.56a.555.555 0 0 0 -.784-.014l-2.389 2.314a3.758 3.758 0 0 1 4.862-5.263l5.494-5.3-6.835-6.96-.1.1-1.116-.063-1.7-3.041.829-.813 3.01 1.758.014 1.146-.074.072 6.835 6.964 4.266-4.12a4.584 4.584 0 0 1 6.3-6.08l-3.289 3.175a.554.554 0 0 0 -.014.784l1.109 1.141a.554.554 0 0 0 .784.014l3.289-3.175a4.583 4.583 0 0 1 -6.3 6.082l-3.779 3.649z"/><path d="m24.75 23.933-1.116-1.136-.863.833 1.123 1.143-.469.461.769.783 1.81-1.747-.784-.799z"/></svg>