<svg id="Layer_1" viewBox="0 0 48 48" xmlns="http://www.w3.org/2000/svg" data-name="Layer 1"><path d="m45.659 32.944a23.39 23.39 0 0 0 1.592-5.907l-3.671-1.179a10.7 10.7 0 0 0 0-3.308l3.639-1.63a23.227 23.227 0 0 0 -1.591-5.9l-3.742.628a7.845 7.845 0 0 0 -1.721-2.811l2.409-3.118a23.5 23.5 0 0 0 -4.348-4.3l-2.888 2.475a9.274 9.274 0 0 0 -2.876-1.666l.457-3.86a23.394 23.394 0 0 0 -5.906-1.592l-1.313 3.785a8.389 8.389 0 0 0 -3.449-.015l-1.351-3.736a23.281 23.281 0 0 0 -5.9 1.592l.7 3.954a8.093 8.093 0 0 0 -2.9 1.692l-3.11-2.592a23.535 23.535 0 0 0 -4.304 4.344l2.659 3a9.057 9.057 0 0 0 -1.709 2.978l-3.993-.67a23.436 23.436 0 0 0 -1.592 5.906l3.779 1.143a8.6 8.6 0 0 0 .023 3.413l-3.767 1.562a23.279 23.279 0 0 0 1.591 5.9l3.881-.873a7.2 7.2 0 0 0 1.707 2.962l-2.534 3.216a23.535 23.535 0 0 0 4.348 4.3l3.028-2.637a11.178 11.178 0 0 0 3.012 1.729l-.736 3.955a23.436 23.436 0 0 0 5.906 1.592l1.383-3.676a7.938 7.938 0 0 0 3.52.024l1.215 3.614a23.279 23.279 0 0 0 5.9-1.591l-.707-3.778a9.059 9.059 0 0 0 3.036-1.769l2.976 2.5a23.535 23.535 0 0 0 4.3-4.348l-2.39-3.122a5.992 5.992 0 0 0 1.5-2.682z" fill="#524f52"/><path d="m36.079 14.544-3.289 3.175a.554.554 0 0 1 -.784-.014l-1.106-1.149a.554.554 0 0 1 .014-.784l3.286-3.172a4.584 4.584 0 0 0 -6.3 6.083l-10.623 10.251a3.758 3.758 0 0 0 -4.862 5.266l2.393-2.311a.555.555 0 0 1 .784.014l.54.56a.554.554 0 0 1 -.014.784l-2.393 2.31a3.758 3.758 0 0 0 5.431-4.673l10.622-10.258a4.583 4.583 0 0 0 6.3-6.082z" fill="#fad36b"/><path d="m25.22 23.471-.47.462-7.959-8.103.074-.072-.014-1.146-3.01-1.758-.829.813 1.705 3.041 1.116.063.103-.101 7.958 8.103-.469.461 1.583 1.613 1.795-1.763z" fill="#c9e5ee"/><path d="m28.39 24.147h3.795v12.56h-3.795z" fill="#fb7552" transform="matrix(.713 -.701 .701 .713 -12.641 29.944)"/></svg>