<svg width="16" height="16" viewBox="0 0 16 16" fill="none" xmlns="http://www.w3.org/2000/svg">
<path d="M6.40011 0.277322C6.50423 0.395934 6.56802 0.541094 6.58323 0.694045C6.59845 0.846995 6.56438 1.00071 6.48544 1.13532C5.86875 2.1968 5.54669 3.38662 5.5489 4.59532C5.5489 8.61632 9.04549 11.8723 13.3549 11.8723C13.917 11.8723 14.4642 11.8173 14.9901 11.7123C15.1513 11.6796 15.3192 11.6921 15.4729 11.7483C15.6266 11.8045 15.7592 11.9019 15.8541 12.0283C15.9544 12.1598 16.0055 12.3186 15.9995 12.4801C15.9935 12.6416 15.9308 12.7967 15.8211 12.9213C14.9845 13.8848 13.929 14.661 12.7318 15.1935C11.5345 15.726 10.2256 16.0013 8.90042 15.9993C3.983 15.9993 0 12.2853 0 7.70932C0 4.26532 2.25497 1.31132 5.46569 0.0593219C5.62563 -0.00404621 5.80318 -0.0170522 5.97168 0.0222576C6.14017 0.0615674 6.29051 0.151071 6.40011 0.277322V0.277322Z" fill="gray"/>
</svg>
