<?xml version="1.0" encoding="iso-8859-1"?>
<!-- Generator: Adobe Illustrator 19.0.0, SVG Export Plug-In . SVG Version: 6.00 Build 0)  -->
<svg version="1.1" id="Capa_1" xmlns="http://www.w3.org/2000/svg" xmlns:xlink="http://www.w3.org/1999/xlink" x="0px" y="0px"
	 viewBox="0 0 512 512" style="enable-background:new 0 0 512 512;" xml:space="preserve" fill="#f29a00">
<g>
	<g>
		<g>
			<path d="M289.862,209.455l-39.68-104.727l-39.68,104.727H104.727l85.993,66.793l-39.447,118.691l99.142-72.727l98.676,72.727
				l-39.447-119.04l85.993-66.444H289.862z M287.651,283.695l16.524,49.687l-40.262-29.44l-13.731-10.124l-13.731,10.124
				l-40.262,29.44l16.524-49.687l5.236-16.058l-13.033-10.124l-32.349-24.785h53.993l6.167-15.476l17.455-47.36l17.455,47.36
				l6.167,15.476h53.993l-32.349,25.251l-13.033,9.658L287.651,283.695z"/>
			<path d="M256,0C114.615,0,0,114.615,0,256s114.615,256,256,256s256-114.615,256-256S397.385,0,256,0z M256,488.727
				C127.468,488.727,23.273,384.532,23.273,256S127.468,23.273,256,23.273S488.727,127.468,488.727,256S384.532,488.727,256,488.727
				z"/>
		</g>
	</g>
</g>
<g>
</g>
<g>
</g>
<g>
</g>
<g>
</g>
<g>
</g>
<g>
</g>
<g>
</g>
<g>
</g>
<g>
</g>
<g>
</g>
<g>
</g>
<g>
</g>
<g>
</g>
<g>
</g>
<g>
</g>
</svg>
