<svg id="Layer_1" data-name="Layer 1" xmlns="http://www.w3.org/2000/svg" viewBox="0 0 48 48"><defs><style>.cls-1{fill:#fff;}.cls-2{fill:#1d2a35;}.cls-3{fill:#black;}.cls-4{fill:#f29a00;}</style></defs><title>48x48</title><ellipse class="cls-1" cx="23.95" cy="24.06" rx="22.03" ry="22.06"/><path class="cls-2" d="M17.3,34a.17.17,0,0,1-.13-.05.18.18,0,0,1,0-.25l.5-.51a.18.18,0,0,1,.25.25l-.49.51A.18.18,0,0,1,17.3,34Z"/><path class="cls-2" d="M18.74,32.55a.21.21,0,0,1-.13,0,.18.18,0,0,1,0-.25l.94-1a.18.18,0,0,1,.25,0,.19.19,0,0,1,0,.26l-.94,1A.16.16,0,0,1,18.74,32.55Zm1.88-1.94a.17.17,0,0,1-.13-.05.18.18,0,0,1,0-.25l.94-1a.18.18,0,0,1,.25,0,.18.18,0,0,1,0,.25l-.94,1A.24.24,0,0,1,20.62,30.61Zm1.88-1.93a.21.21,0,0,1-.13-.05.18.18,0,0,1,0-.25l.94-1a.18.18,0,0,1,.25,0,.18.18,0,0,1,0,.25l-.94,1A.19.19,0,0,1,22.5,28.68Zm1.88-1.94a.13.13,0,0,1-.12,0,.18.18,0,0,1,0-.25l.94-1a.18.18,0,0,1,.26.25l-.94,1A.17.17,0,0,1,24.38,26.74Zm1.88-1.93a.18.18,0,0,1-.12,0,.18.18,0,0,1,0-.25l.94-1a.19.19,0,0,1,.26,0,.17.17,0,0,1,0,.25l-.94,1A.18.18,0,0,1,26.26,24.81Zm1.88-1.94a.15.15,0,0,1-.12-.05.18.18,0,0,1,0-.25l.95-1a.18.18,0,0,1,.25.25l-.94,1A.15.15,0,0,1,28.14,22.87Z"/><path class="cls-2" d="M30,20.94a.18.18,0,0,1-.12-.05.18.18,0,0,1,0-.25l.49-.51a.19.19,0,0,1,.25,0,.19.19,0,0,1,0,.26l-.5.51A.19.19,0,0,1,30,20.94Z"/><path class="cls-3" d="M40.91,15a6.57,6.57,0,0,1-1.66-1.1l-21,20.79a2.85,2.85,0,0,0,2.63-.22,17,17,0,0,0,2.93-2.61c.89,1,1.54,1.61,2.12,2.32a2.4,2.4,0,0,0,2.09.88c2.59-.06,5.19,0,7.79,0,.27,0,.54,0,1.09-.11L28.9,27C32.71,23.19,37.09,18.85,40.91,15Z"/><path class="cls-4" d="M24,1.06A22.9,22.9,0,0,0,9.72,6l-.05,0L9,6.6l-.35.3-.33.3-.61.59,0,0A23,23,0,0,0,8,40.66v-.08A23,23,0,1,0,24,1.06Zm0,44.23A21.1,21.1,0,0,1,9.51,39.56l20.12-20c-2.7-1.15-4,1.29-5.76,2.55-.74-.76-1.44-1.42-2.06-2.14a2.19,2.19,0,0,0-1.89-.78c-2.64,0-5.27,0-7.91,0a7.08,7.08,0,0,0-.79.09l-.17.31L19,27.37,8.15,38.16,8,38V17.16A3.07,3.07,0,0,1,9.43,14.6L22.27,6.3a3.55,3.55,0,0,1,3.86,0L39,14.6a3.07,3.07,0,0,1,1.47,2.56v20.2A21.13,21.13,0,0,1,24,45.29Z"/></svg>