<svg xmlns="http://www.w3.org/2000/svg" viewBox="-1 0 50 50"><defs><style>.a{isolation:isolate;}.b{fill:#05a2d8;}.c{fill:#923b95;}.d{fill:#f8a266;}.e{fill:#ef516f;}.f{fill:#f99c5b;}</style></defs><title>logo</title><g class="a"><path class="b" d="M15.965,25.853a1.521,1.521,0,0,1,.449-1.08l12.4-12.409a13.6,13.6,0,0,1,19.229,0l.8.8a13.584,13.584,0,0,1,3.422,13.48,1.529,1.529,0,1,1-2.932-.868,10.541,10.541,0,0,0-2.653-10.451l-.8-.8a10.534,10.534,0,0,0-14.9,0L18.577,26.935a1.53,1.53,0,0,1-2.612-1.082Z" transform="translate(-5.076 -6.203)"/><path class="c" d="M5.076,41.735a13.649,13.649,0,0,1,.564-3.868,1.528,1.528,0,1,1,2.93.869,10.536,10.536,0,0,0,2.655,10.45l.793.8a10.534,10.534,0,0,0,14.9,0l12.408-12.41a1.529,1.529,0,0,1,2.163,2.163L29.08,52.144a13.6,13.6,0,0,1-19.225,0l-.795-.8A13.606,13.606,0,0,1,5.076,41.735Z" transform="translate(-5.076 -6.203)"/><path class="d" d="M33.16,53.793a1.533,1.533,0,0,1,1.962-1.468,10.544,10.544,0,0,0,10.452-2.652l.8-.8a10.471,10.471,0,0,0,3.089-7.449h0a10.468,10.468,0,0,0-3.085-7.45L33.962,21.568a1.529,1.529,0,0,1,2.163-2.161l12.41,12.408a13.5,13.5,0,0,1,3.981,9.611h0a13.51,13.51,0,0,1-3.983,9.611l-.8.8a13.591,13.591,0,0,1-13.48,3.423A1.527,1.527,0,0,1,33.16,53.793Z" transform="translate(-5.076 -6.203)"/><path class="e" d="M5.4,23.079A13.555,13.555,0,0,1,9.37,13.468l.8-.795A13.581,13.581,0,0,1,23.647,9.252a1.529,1.529,0,0,1-.867,2.933,10.532,10.532,0,0,0-10.452,2.653l-.793.8a10.547,10.547,0,0,0,0,14.9L23.94,42.941A1.529,1.529,0,1,1,21.777,45.1L9.37,32.694A13.558,13.558,0,0,1,5.4,23.079Z" transform="translate(-5.076 -6.203)"/><path class="e" d="M25.341,46.2a2.977,2.977,0,1,1,0-4.208A2.98,2.98,0,0,1,25.341,46.2Z" transform="translate(-5.076 -6.203)"/><path class="d" d="M36.5,22.007a2.976,2.976,0,1,1,0-4.207A2.977,2.977,0,0,1,36.5,22.007Z" transform="translate(-5.076 -6.203)"/><path class="c" d="M42.93,40.247a2.976,2.976,0,1,1,0-4.207A2.979,2.979,0,0,1,42.93,40.247Z" transform="translate(-5.076 -6.203)"/><path class="b" d="M19.567,27.959a2.976,2.976,0,1,1,0-4.207A2.979,2.979,0,0,1,19.567,27.959Z" transform="translate(-5.076 -6.203)"/></g></svg>