<svg xmlns="http://www.w3.org/2000/svg" viewBox="0 0 385.499 66.399"><defs><style>.a{isolation:isolate;}.b{fill:#05a2d8;}.c{fill:#923b95;}.d{fill:#f8a266;}.e{fill:#ef516f;}.f{fill:#f99c5b;}</style></defs><title>logo</title><g class="a" fill="red"><path d="M79.6,56.117V13.933H65.343V8.9H99.9v5.038H85.644V56.117Z" transform="translate(-5.076 -6.203)"/><path d="M117.244,56.98a17.191,17.191,0,0,1-6.585-1.258,15.633,15.633,0,0,1-5.327-3.6A16.662,16.662,0,0,1,101.77,46.4a21.366,21.366,0,0,1-1.3-7.7,21.153,21.153,0,0,1,1.331-7.741,18.131,18.131,0,0,1,3.527-5.8,15.341,15.341,0,0,1,5-3.632,14.093,14.093,0,0,1,5.831-1.261,14.626,14.626,0,0,1,5.94,1.152,11.574,11.574,0,0,1,4.39,3.312,15.184,15.184,0,0,1,2.7,5.182,22.805,22.805,0,0,1,.937,6.765c0,.625-.011,1.238-.035,1.835a9.078,9.078,0,0,1-.183,1.551H106.305a13.645,13.645,0,0,0,3.491,8.889,10.793,10.793,0,0,0,8.171,3.277,13.762,13.762,0,0,0,4.643-.758,20.613,20.613,0,0,0,4.066-1.98l2.089,3.89a30.064,30.064,0,0,1-5.112,2.519A17.774,17.774,0,0,1,117.244,56.98ZM106.23,35.816h18.72q0-5.327-2.269-8.1a7.774,7.774,0,0,0-6.37-2.773,9.084,9.084,0,0,0-3.566.719,9.358,9.358,0,0,0-3.058,2.125,11.634,11.634,0,0,0-2.265,3.421A15.36,15.36,0,0,0,106.23,35.816Z" transform="translate(-5.076 -6.203)"/><path d="M147.911,56.98a18.88,18.88,0,0,1-7.128-1.367,22.127,22.127,0,0,1-5.9-3.456l2.952-3.957a23.745,23.745,0,0,0,4.714,3.023,12.839,12.839,0,0,0,5.581,1.152,7.457,7.457,0,0,0,5.183-1.585,5.066,5.066,0,0,0,1.726-3.886,4.02,4.02,0,0,0-.718-2.379,7.25,7.25,0,0,0-1.836-1.761,13.441,13.441,0,0,0-2.558-1.332c-.961-.383-1.918-.77-2.879-1.152-1.249-.434-2.5-.922-3.741-1.477a14.7,14.7,0,0,1-3.347-2.015,10.2,10.2,0,0,1-2.414-2.773,7.343,7.343,0,0,1-.937-3.812,9.444,9.444,0,0,1,.828-3.925,9.062,9.062,0,0,1,2.378-3.167,11.322,11.322,0,0,1,3.777-2.09,16.9,16.9,0,0,1,11.123.4,18.929,18.929,0,0,1,4.788,2.808l-2.808,3.741a18.777,18.777,0,0,0-3.745-2.23,10.292,10.292,0,0,0-4.246-.863q-3.309,0-4.858,1.512a4.765,4.765,0,0,0-1.547,3.526,3.555,3.555,0,0,0,.645,2.125,6.174,6.174,0,0,0,1.73,1.582,13.815,13.815,0,0,0,2.484,1.222q1.4.544,2.913,1.117,1.875.721,3.781,1.512a14.582,14.582,0,0,1,3.417,1.98,9.748,9.748,0,0,1,2.484,2.917,8.37,8.37,0,0,1,.973,4.175,9.9,9.9,0,0,1-.828,4.031,9.592,9.592,0,0,1-2.449,3.312,11.642,11.642,0,0,1-4.031,2.265A16.953,16.953,0,0,1,147.911,56.98Z" transform="translate(-5.076 -6.203)"/><path d="M178.5,56.98a11.449,11.449,0,0,1-4.714-.863,8.049,8.049,0,0,1-3.093-2.375A9.256,9.256,0,0,1,169,50.071a20.922,20.922,0,0,1-.5-4.753V25.954h-5.183V21.49l5.472-.359.718-9.792h4.968v9.792H183.9v4.823h-9.432V45.392a8.934,8.934,0,0,0,1.188,5q1.188,1.764,4.214,1.762a7.871,7.871,0,0,0,2.015-.286,15.409,15.409,0,0,0,1.941-.648l1.152,4.46a30.056,30.056,0,0,1-3.128.9A14.791,14.791,0,0,1,178.5,56.98Z" transform="translate(-5.076 -6.203)"/><path d="M192.9,56.117V8.676h11.951a34.711,34.711,0,0,1,7.233.687,14.144,14.144,0,0,1,5.4,2.265,10.5,10.5,0,0,1,3.386,4.105,14.5,14.5,0,0,1,1.188,6.191q0,6.983-4.464,10.4t-12.455,3.421h-8.924V56.117Zm3.312-23.18h8.135q7.27,0,10.8-2.593t3.527-8.42q0-5.976-3.633-8.206t-10.978-2.234h-7.846Z" transform="translate(-5.076 -6.203)"/><path d="M232.064,56.117V21.564H234.8l.289,6.405h.215a16.878,16.878,0,0,1,4.21-5.253,8.631,8.631,0,0,1,5.581-2.015,10.364,10.364,0,0,1,1.8.141,6.252,6.252,0,0,1,1.656.578l-.722,2.878a7.282,7.282,0,0,0-1.512-.469,10.659,10.659,0,0,0-1.656-.105A8.067,8.067,0,0,0,239.8,25.7q-2.554,1.98-4.57,6.874V56.117Z" transform="translate(-5.076 -6.203)"/><path d="M266.761,56.98a14.629,14.629,0,0,1-10.834-4.749,17.147,17.147,0,0,1-3.382-5.652,21.68,21.68,0,0,1-1.262-7.666,22.293,22.293,0,0,1,1.262-7.741,17.016,17.016,0,0,1,3.382-5.722A14.629,14.629,0,0,1,266.761,20.7a14.869,14.869,0,0,1,5.94,1.223,14.516,14.516,0,0,1,4.968,3.526,17.016,17.016,0,0,1,3.382,5.722,22.293,22.293,0,0,1,1.262,7.741,21.68,21.68,0,0,1-1.262,7.666,17.147,17.147,0,0,1-3.382,5.652,14.516,14.516,0,0,1-4.968,3.526A14.869,14.869,0,0,1,266.761,56.98Zm0-2.808a10.867,10.867,0,0,0,4.858-1.113,11.407,11.407,0,0,0,3.89-3.133,15.439,15.439,0,0,0,2.555-4.823,19.466,19.466,0,0,0,.937-6.19,19.729,19.729,0,0,0-.937-6.265,15.905,15.905,0,0,0-2.555-4.858,11.244,11.244,0,0,0-3.89-3.168,10.87,10.87,0,0,0-4.858-1.117,10.672,10.672,0,0,0-4.824,1.117,11.363,11.363,0,0,0-3.85,3.168,15.819,15.819,0,0,0-2.555,4.858,19.7,19.7,0,0,0-.937,6.265,19.438,19.438,0,0,0,.937,6.19,15.357,15.357,0,0,0,2.555,4.823,11.529,11.529,0,0,0,3.85,3.133A10.669,10.669,0,0,0,266.761,54.172Z" transform="translate(-5.076 -6.203)"/><path d="M288.14,72.6a12.094,12.094,0,0,1-2.449-.254,9.753,9.753,0,0,1-2.015-.609l.793-2.593q.644.216,1.617.468a7.856,7.856,0,0,0,1.98.25q2.876,0,3.745-2.12a14.631,14.631,0,0,0,.863-5.437V21.564h3.238V62.522q0,5.113-1.871,7.6T288.14,72.6Zm6.19-59.388a2.883,2.883,0,0,1-2.015-.793,2.607,2.607,0,0,1-.867-2.015,2.673,2.673,0,0,1,.867-2.125,2.96,2.96,0,0,1,2.015-.753,3.061,3.061,0,0,1,2.086.753,2.67,2.67,0,0,1,.863,2.125,2.6,2.6,0,0,1-.863,2.015A2.978,2.978,0,0,1,294.33,13.214Z" transform="translate(-5.076 -6.203)"/><path d="M322.259,56.98a15.905,15.905,0,0,1-6.226-1.223,14.378,14.378,0,0,1-5.073-3.565,17.16,17.16,0,0,1-3.421-5.687,21.427,21.427,0,0,1-1.262-7.592,21.761,21.761,0,0,1,1.262-7.632,17.5,17.5,0,0,1,3.382-5.721,15.14,15.14,0,0,1,4.823-3.6,13.057,13.057,0,0,1,5.582-1.258,12.039,12.039,0,0,1,9.717,4.175q3.526,4.171,3.526,11.8v1.3a5.9,5.9,0,0,1-.144,1.3H309.519a20.023,20.023,0,0,0,1.008,6.011,14.174,14.174,0,0,0,2.628,4.753,11.947,11.947,0,0,0,4.066,3.093,12.351,12.351,0,0,0,5.327,1.117,14.726,14.726,0,0,0,5.073-.828,16.5,16.5,0,0,0,4.214-2.269l1.3,2.449a43.5,43.5,0,0,1-4.573,2.3A15.908,15.908,0,0,1,322.259,56.98Zm-12.74-20.3h22.027q0-6.69-2.734-9.967a9.164,9.164,0,0,0-7.416-3.277,10.342,10.342,0,0,0-4.246.9,11.276,11.276,0,0,0-3.636,2.629,14.143,14.143,0,0,0-2.663,4.175A18.421,18.421,0,0,0,309.519,36.679Z" transform="translate(-5.076 -6.203)"/><path d="M356.741,56.98a15.579,15.579,0,0,1-6.229-1.223,14.516,14.516,0,0,1-4.968-3.526,16.2,16.2,0,0,1-3.308-5.652,22.844,22.844,0,0,1-1.191-7.666,21.757,21.757,0,0,1,1.3-7.741A17.117,17.117,0,0,1,345.8,25.45a14.834,14.834,0,0,1,5-3.526,15.013,15.013,0,0,1,6.01-1.223,12.4,12.4,0,0,1,5.976,1.293,21.041,21.041,0,0,1,4.175,2.952l-1.871,2.231a15.8,15.8,0,0,0-3.671-2.625,9.739,9.739,0,0,0-4.538-1.047,11.039,11.039,0,0,0-4.929,1.117,11.971,11.971,0,0,0-3.96,3.168,15.52,15.52,0,0,0-2.664,4.858,19.058,19.058,0,0,0-.972,6.265,20.122,20.122,0,0,0,.9,6.19,14.745,14.745,0,0,0,2.519,4.823,11.192,11.192,0,0,0,3.96,3.133,11.81,11.81,0,0,0,5.144,1.113,11.332,11.332,0,0,0,5.077-1.152,17.55,17.55,0,0,0,4.14-2.8l1.656,2.231a21.558,21.558,0,0,1-4.968,3.237A13.9,13.9,0,0,1,356.741,56.98Z" transform="translate(-5.076 -6.203)"/><path d="M384.959,56.98a10.076,10.076,0,0,1-4.175-.754A6.7,6.7,0,0,1,378.12,54.1a8.261,8.261,0,0,1-1.4-3.311,21.217,21.217,0,0,1-.4-4.246V24.3h-5.4V21.849l5.472-.285.43-10.006h2.737V21.564h10.006V24.3H379.561V46.829a16.126,16.126,0,0,0,.25,2.988,6.123,6.123,0,0,0,.9,2.3,4.322,4.322,0,0,0,1.761,1.512,6.759,6.759,0,0,0,2.917.539,8.3,8.3,0,0,0,2.195-.324,13.456,13.456,0,0,0,2.125-.754l.863,2.589a24.3,24.3,0,0,1-3.023.938A11.557,11.557,0,0,1,384.959,56.98Z" transform="translate(-5.076 -6.203)"/><path class="b" d="M15.965,25.853a1.521,1.521,0,0,1,.449-1.08l12.4-12.409a13.6,13.6,0,0,1,19.229,0l.8.8a13.584,13.584,0,0,1,3.422,13.48,1.529,1.529,0,1,1-2.932-.868,10.541,10.541,0,0,0-2.653-10.451l-.8-.8a10.534,10.534,0,0,0-14.9,0L18.577,26.935a1.53,1.53,0,0,1-2.612-1.082Z" transform="translate(-5.076 -6.203)"/><path class="c" d="M5.076,41.735a13.649,13.649,0,0,1,.564-3.868,1.528,1.528,0,1,1,2.93.869,10.536,10.536,0,0,0,2.655,10.45l.793.8a10.534,10.534,0,0,0,14.9,0l12.408-12.41a1.529,1.529,0,0,1,2.163,2.163L29.08,52.144a13.6,13.6,0,0,1-19.225,0l-.795-.8A13.606,13.606,0,0,1,5.076,41.735Z" transform="translate(-5.076 -6.203)"/><path class="d" d="M33.16,53.793a1.533,1.533,0,0,1,1.962-1.468,10.544,10.544,0,0,0,10.452-2.652l.8-.8a10.471,10.471,0,0,0,3.089-7.449h0a10.468,10.468,0,0,0-3.085-7.45L33.962,21.568a1.529,1.529,0,0,1,2.163-2.161l12.41,12.408a13.5,13.5,0,0,1,3.981,9.611h0a13.51,13.51,0,0,1-3.983,9.611l-.8.8a13.591,13.591,0,0,1-13.48,3.423A1.527,1.527,0,0,1,33.16,53.793Z" transform="translate(-5.076 -6.203)"/><path class="e" d="M5.4,23.079A13.555,13.555,0,0,1,9.37,13.468l.8-.795A13.581,13.581,0,0,1,23.647,9.252a1.529,1.529,0,0,1-.867,2.933,10.532,10.532,0,0,0-10.452,2.653l-.793.8a10.547,10.547,0,0,0,0,14.9L23.94,42.941A1.529,1.529,0,1,1,21.777,45.1L9.37,32.694A13.558,13.558,0,0,1,5.4,23.079Z" transform="translate(-5.076 -6.203)"/><path class="e" d="M25.341,46.2a2.977,2.977,0,1,1,0-4.208A2.98,2.98,0,0,1,25.341,46.2Z" transform="translate(-5.076 -6.203)"/><path class="d" d="M36.5,22.007a2.976,2.976,0,1,1,0-4.207A2.977,2.977,0,0,1,36.5,22.007Z" transform="translate(-5.076 -6.203)"/><path class="c" d="M42.93,40.247a2.976,2.976,0,1,1,0-4.207A2.979,2.979,0,0,1,42.93,40.247Z" transform="translate(-5.076 -6.203)"/><path class="b" d="M19.567,27.959a2.976,2.976,0,1,1,0-4.207A2.979,2.979,0,0,1,19.567,27.959Z" transform="translate(-5.076 -6.203)"/><path class="f" d="M294.372,6.2a3.784,3.784,0,1,0,3.784,3.784A3.784,3.784,0,0,0,294.372,6.2Z" transform="translate(-5.076 -6.203)"/></g></svg>