<svg width="18" height="18" viewBox="0 0 18 18" fill="none" xmlns="http://www.w3.org/2000/svg">
<path fill-rule="evenodd" clip-rule="evenodd" d="M10.5058 4.45608H6.86194L5.37654 9.04858H9.02256L7.49424 13.5439H11.1381L12.6309 9.03596L8.98487 9.03596L10.5058 4.45608ZM7.48996 13.5502C6.30342 13.5653 3.53904 13.5865 1.95556 13.5501C0.371121 13.5138 -0.208119 11.5494 0.0650349 10.731C0.950283 8.07855 2.8108 2.50996 3.17091 1.45505C3.53101 0.400138 4.49128 0.0454703 4.9264 0H11.9934L10.51 4.44985C11.6966 4.43469 14.461 4.41352 16.0444 4.44987C17.6289 4.48625 18.2081 6.45057 17.935 7.26903C17.0497 9.92146 15.1892 15.4901 14.8291 16.545C14.469 17.5999 13.5087 17.9545 13.0736 18L6.00662 18L7.48996 13.5502Z" fill="#64E3A7"/>
</svg>
