<svg width="18" height="14" viewBox="0 0 18 14" fill="none" xmlns="http://www.w3.org/2000/svg">
<path d="M2.25 0H15C15.3978 0 15.7794 0.158035 16.0607 0.43934C16.342 0.720644 16.5 1.10218 16.5 1.5V3H13.5V1.5H3.75V10.5H10.5V12H2.25C1.85218 12 1.47064 11.842 1.18934 11.5607C0.908035 11.2794 0.75 10.8978 0.75 10.5V1.5C0.75 1.10218 0.908035 0.720644 1.18934 0.43934C1.47064 0.158035 1.85218 0 2.25 0ZM12.75 4.5H17.25C17.4489 4.5 17.6397 4.57902 17.7803 4.71967C17.921 4.86032 18 5.05109 18 5.25V12.75C18 12.9489 17.921 13.1397 17.7803 13.2803C17.6397 13.421 17.4489 13.5 17.25 13.5H12.75C12.5511 13.5 12.3603 13.421 12.2197 13.2803C12.079 13.1397 12 12.9489 12 12.75V5.25C12 5.05109 12.079 4.86032 12.2197 4.71967C12.3603 4.57902 12.5511 4.5 12.75 4.5ZM13.5 6V11.25H16.5V6H13.5Z" fill="#1B2331"/>
</svg>
