<svg width="96" height="110" xmlns="http://www.w3.org/2000/svg" xmlns:xlink="http://www.w3.org/1999/xlink">
  <defs>
    <linearGradient x1="50%" y1="0%" x2="50%" y2="100%" id="a">
      <stop stop-color="#F6FAFF" offset="0%"/>
      <stop stop-color="#CBDBF6" offset="100%"/>
    </linearGradient>
    <linearGradient x1="73.516%" y1="0%" x2="25.566%" y2="100%" id="d">
      <stop stop-color="#3A495F" offset="0%"/>
      <stop stop-color="#1B2331" offset="100%"/>
    </linearGradient>
    <linearGradient x1="98.121%" y1="19.502%" x2="0%" y2="80.498%" id="e">
      <stop stop-color="#3A495F" offset="0%"/>
      <stop stop-color="#1B2331" offset="100%"/>
    </linearGradient>
    <linearGradient x1="71.678%" y1="0%" x2="27.476%" y2="100%" id="f">
      <stop stop-color="#3A495F" offset="0%"/>
      <stop stop-color="#1B2331" offset="100%"/>
    </linearGradient>
    <linearGradient x1="98.121%" y1="19.503%" x2="0%" y2="80.497%" id="g">
      <stop stop-color="#3A495F" offset="0%"/>
      <stop stop-color="#1B2331" offset="100%"/>
    </linearGradient>
    <linearGradient x1="0%" y1="20.417%" x2="99.215%" y2="79.583%" id="h">
      <stop stop-color="#7093FF" offset="0%"/>
      <stop stop-color="#3D5AFE" offset="100%"/>
    </linearGradient>
    <linearGradient x1="98.121%" y1="27.023%" x2="0%" y2="72.977%" id="i">
      <stop stop-color="#3A495F" offset="0%"/>
      <stop stop-color="#1B2331" offset="100%"/>
    </linearGradient>
    <linearGradient x1="98.121%" y1="26.547%" x2="0%" y2="73.453%" id="k">
      <stop stop-color="#3A495F" offset="0%"/>
      <stop stop-color="#1B2331" offset="100%"/>
    </linearGradient>
    <linearGradient x1="98.109%" y1="0%" x2=".012%" y2="100%" id="l">
      <stop stop-color="#3A495F" offset="0%"/>
      <stop stop-color="#1B2331" offset="100%"/>
    </linearGradient>
    <linearGradient x1="98.11%" y1="0%" x2=".011%" y2="100%" id="m">
      <stop stop-color="#3A495F" offset="0%"/>
      <stop stop-color="#1B2331" offset="100%"/>
    </linearGradient>
    <linearGradient x1="0%" y1="27.456%" x2="99.215%" y2="72.544%" id="n">
      <stop stop-color="#7093FF" offset="0%"/>
      <stop stop-color="#3D5AFE" offset="100%"/>
    </linearGradient>
    <circle id="b" cx="47.986" cy="47.863" r="47.5"/>
    <path id="j" d="M.172.003h25.682v25.686H.172z"/>
  </defs>
  <g fill="none" fill-rule="evenodd">
    <g transform="translate(0 14)">
      <circle fill="url(#a)" cx="47.986" cy="47.863" r="47.5"/>
      <mask id="c" fill="#fff">
        <use xlink:href="#b"/>
      </mask>
      <use fill="url(#a)" xlink:href="#b"/>
      <g mask="url(#c)">
        <path d="M26.538 31.184c32.875 0 59.688 26.816 59.688 59.695 0 32.88-26.813 59.696-59.688 59.696S-33.15 123.76-33.15 90.88c0-32.88 26.813-59.695 59.688-59.695Zm0 34.156c-14.065 0-25.536 11.473-25.536 25.54 0 14.066 11.471 25.539 25.536 25.539 14.064 0 25.536-11.473 25.536-25.54 0-14.066-11.472-25.539-25.536-25.539Zm0 21.206a4.342 4.342 0 0 1 4.333 4.333 4.342 4.342 0 0 1-4.333 4.334 4.342 4.342 0 0 1-4.333-4.334 4.341 4.341 0 0 1 4.333-4.333Z" fill-opacity=".508" fill="#FFF"/>
        <path d="m89.657 96.733-.032.003a4.316 4.316 0 0 1-4.645-3.933 4.316 4.316 0 0 1 3.932-4.645l.032-.003a4.316 4.316 0 0 1 4.645 3.932 4.316 4.316 0 0 1-3.932 4.646" fill="#ED9C9C"/>
        <path d="M83.176 99.787a2.353 2.353 0 0 1-.977-3.17l3.24-6.124a2.35 2.35 0 0 1 3.169-.977h.001c1.14.604 1.58 2.03.976 3.171l-3.239 6.124a2.351 2.351 0 0 1-3.17.976" fill="#FF8787"/>
        <path d="M95.864 104.15a2.199 2.199 0 0 1-2.367-2.004l-.316-3.803a2.2 2.2 0 0 1 2.003-2.367 2.2 2.2 0 0 1 2.368 2.004l.316 3.803a2.2 2.2 0 0 1-2.004 2.367M90.405 81.122c-2.662.823-4.166 3.675-3.343 6.337l1.282 4.143c.824 2.662 3.674 4.166 6.335 3.343h.001c2.662-.824 4.166-3.675 3.343-6.337l-1.282-4.144a5.08 5.08 0 0 0-6.336-3.342" fill="#FAB9B9"/>
        <path d="m99.745 99.927-13.536 1.125-.655-7.876c-.309-3.722 2.484-7.022 6.206-7.331 3.722-.31 7.021 2.483 7.33 6.206l.655 7.876Z" fill="#FAB9B9"/>
        <path d="m93.658 92.148.302-.094c3.379-1.045 5.288-4.666 4.243-8.045v-.001c-1.045-3.38-4.665-5.29-8.044-4.244l-.302.093c-3.38 1.046-5.289 4.666-4.244 8.045v.002c1.046 3.38 4.666 5.289 8.045 4.244" fill="#FFF"/>
        <path d="m50.982 31.1 1.674-.012a2.782 2.782 0 0 1 2.797 2.754A2.782 2.782 0 0 1 52.7 36.64l-1.675.013a2.782 2.782 0 0 1-2.797-2.753 2.783 2.783 0 0 1 2.754-2.798" fill="#EFA494"/>
        <path d="M90.2 39.973c.9.385 1.322 1.436.937 2.337l-1.686 3.942a1.785 1.785 0 0 1-2.337.937 1.785 1.785 0 0 1-.936-2.337l1.686-3.942a1.785 1.785 0 0 1 2.336-.937" fill="url(#d)" transform="translate(-36 -14)"/>
        <path d="m109.357 39.494 2.224-.017a3.936 3.936 0 0 1 3.954 3.894 3.935 3.935 0 0 1-3.892 3.954l-2.225.018a3.935 3.935 0 0 1-3.954-3.894 3.936 3.936 0 0 1 3.893-3.955" fill="url(#e)" transform="translate(-36 -14)"/>
        <path d="M65.779 30.333c3.974.594 6.738 4.331 6.144 8.305l-1.86 12.447c-.595 3.974-4.331 6.739-8.305 6.144-3.974-.595-6.738-4.331-6.144-8.305l1.861-12.447c.594-3.973 4.33-6.738 8.304-6.144" fill="#DC7E74"/>
        <path d="m59.167 43.542 9.072 1.357c2.853.427 4.837 3.11 4.41 5.963l-1.678 11.226c-.426 2.853-3.109 4.838-5.962 4.412l-9.072-1.357c-2.853-.427-4.838-3.11-4.411-5.963l1.678-11.227c.427-2.853 3.11-4.838 5.963-4.41" fill="#FFF"/>
        <path d="m74.335 30.918 1.675-.013a2.783 2.783 0 0 1 2.797 2.753 2.783 2.783 0 0 1-2.753 2.798l-1.675.013a2.784 2.784 0 0 1-2.797-2.754 2.783 2.783 0 0 1 2.753-2.797" fill="#DC7E74"/>
        <path d="M86.675 39.922a2.169 2.169 0 0 1 2.854 1.102l2.753 6.22a2.169 2.169 0 0 1-1.103 2.854 2.168 2.168 0 0 1-2.854-1.102l-2.753-6.22a2.17 2.17 0 0 1 1.103-2.854" fill="url(#f)" transform="translate(-36 -14)"/>
        <path d="m91.37 29.328 3.87-.03c3.752-.03 6.846 3.016 6.876 6.77.029 3.754-3.017 6.848-6.77 6.878l-3.869.03c-3.752.03-6.846-3.017-6.875-6.77v-.001c-.03-3.754 3.015-6.848 6.768-6.877" fill="url(#g)" transform="translate(-36 -14)"/>
        <path d="m59.043 22.393 9.015-.07c3.752-.03 6.846 3.016 6.876 6.77.03 3.754-3.017 6.848-6.77 6.877l-9.015.071c-3.752.03-6.846-3.017-6.876-6.77v-.001c-.029-3.754 3.017-6.848 6.77-6.877M59.104 86.462v60.881c0 4.98-4.073 9.053-9.052 9.053h-.001c-4.978 0-9.052-4.073-9.052-9.053V86.462c0-4.979 4.074-9.053 9.052-9.053 4.98 0 9.053 4.074 9.053 9.053" fill="#2F3D48"/>
        <path d="m76.199 85.255 12.398 59.607c1.014 4.874-2.144 9.692-7.018 10.706h-.001c-4.875 1.015-9.692-2.144-10.706-7.018L58.474 88.944c-1.014-4.875 2.144-9.693 7.018-10.707h.001c4.874-1.014 9.692 2.144 10.706 7.018" fill="#2F3D48"/>
        <path d="M55.476 72.4h6.41c7.686 0 13.974 6.288 13.974 13.976 0 7.687-6.288 13.976-13.975 13.976h-6.41c-7.685 0-13.974-6.289-13.974-13.976 0-7.688 6.289-13.977 13.975-13.977" fill="#2F3D48"/>
        <path d="m58.113 23.655 10.944-.107c3.753-.036 6.847 3.734 6.876 8.38v.002c.03 4.645-3.016 8.475-6.77 8.511l-10.943.107c-3.753.036-6.846-3.734-6.876-8.38v-.002c-.03-4.645 3.016-8.475 6.77-8.511" fill="#EFA494"/>
        <path d="M64.063 50.5c3.677-1.138 7.615.94 8.752 4.617l2.265 7.324 7.099-3.861c2.642-1.438 5.828-.982 7.971.9a10.936 10.936 0 0 1 3.036.03l12.371 1.85c.98.147 1.91.42 2.778.8a7.005 7.005 0 0 1 6.45 1.938l11.26 11.484a6.935 6.935 0 0 1 1.428 2.129 6.938 6.938 0 0 1 1.77 2.907l4.753 15.366c1.137 3.677-.94 7.616-4.617 8.754l-.23.066c-3.61.984-7.41-1.083-8.523-4.684l-4.552-14.718a7.164 7.164 0 0 1-.02-.02l-2.535-2.585-1.565 10.471c-1.39 9.303-10.055 15.809-19.343 14.598l-.325-.046c-9.41-1.407-15.957-10.258-14.55-19.67l1.825-12.214-4.821 2.625c-.57.31-1.164.531-1.768.67l-.021.006-.23.067c-3.61.983-7.41-1.084-8.523-4.684l-4.753-15.366c-1.137-3.678.94-7.616 4.618-8.754Z" fill="url(#h)" transform="translate(-36 -14)"/>
        <path d="m65.952 23.58 3.163-.032c3.775-.036 6.887 3.751 6.917 8.417v.002c.03 4.666-3.034 8.513-6.81 8.55l-3.162.03c-3.775.037-6.888-3.75-6.917-8.417-.03-4.668 3.034-8.515 6.809-8.55" fill="#DC7E74"/>
        <path d="M106.794 31.96c2.682-.021 4.951 1.884 5.487 4.416a.919.919 0 0 1 .186-.007l.112.013a.978.978 0 0 1 .789 1.13l-.132.213a.978.978 0 0 1 1.28.147l.076.096a.977.977 0 0 1-.242 1.356l-1.558 1.084c.346.49.438 1.142.187 1.73l-1.686 3.943a1.784 1.784 0 0 1-2.336.937 1.785 1.785 0 0 1-.937-2.337l.847-1.978a5.514 5.514 0 0 1-1.986.385l-3.154.025a5.547 5.547 0 0 1-3.937-1.599 3.353 3.353 0 0 1-2.127.782l-1.916.015a3.387 3.387 0 0 1-3.404-3.351v-.001a3.387 3.387 0 0 1 3.35-3.404l1.916-.015c.293-.003.578.033.85.102.776-2.113 2.805-3.64 5.18-3.658l3.155-.024Z" fill="url(#i)" transform="translate(-36 -14)"/>
        <path d="m31.802 49.157.32-.099c3.575-1.106 5.596-4.936 4.49-8.512-1.107-3.577-4.937-5.597-8.512-4.491l-.32.1c-3.574 1.105-5.594 4.935-4.489 8.51v.002c1.106 3.576 4.936 5.596 8.511 4.49" fill="#FFF"/>
        <path d="M31.036 46.116h.001c2.661-.824 4.165-3.675 3.342-6.337l-1.281-4.144c-.824-2.661-3.675-4.166-6.336-3.342h-.001c-2.661.824-4.165 3.675-3.342 6.337l1.282 4.143c.823 2.662 3.674 4.166 6.335 3.343" fill="#DC7E74"/>
        <path d="m20.308 28.93 13.184-3.271 1.902 7.67c.9 3.626-1.33 7.329-4.956 8.228-3.625.9-7.328-1.331-8.227-4.956l-1.903-7.671Z" fill="#DC7E74"/>
        <path d="m31.074 30.982.031-.008a4.315 4.315 0 0 1 5.213 3.141 4.315 4.315 0 0 1-3.14 5.213l-.032.008a4.315 4.315 0 0 1-5.212-3.14v-.001a4.315 4.315 0 0 1 3.14-5.213" fill="#EFA494"/>
        <path d="M29.147 17.891h.001a2.351 2.351 0 0 1 2.841 1.711l1.668 6.724a2.353 2.353 0 0 1-1.71 2.842h-.003a2.352 2.352 0 0 1-2.84-1.712l-1.669-6.724a2.352 2.352 0 0 1 1.712-2.84" fill="#DC7E74"/>
        <path d="M36.984 26.932h.002a2.352 2.352 0 0 1 1.47 2.974l-2.221 6.562a2.353 2.353 0 0 1-2.974 1.47h-.001a2.353 2.353 0 0 1-1.47-2.974l2.22-6.562a2.352 2.352 0 0 1 2.974-1.47M26.299 23.087c1.253-.311 2.532.459 2.842 1.711l.845 3.408a2.353 2.353 0 0 1-1.711 2.841h-.001a2.352 2.352 0 0 1-2.842-1.712l-.845-3.407a2.352 2.352 0 0 1 1.712-2.841" fill="#EFA494"/>
        <path d="M23.103 24.232c1.253-.311 2.532.459 2.842 1.712l.845 3.407a2.353 2.353 0 0 1-1.711 2.842h-.001a2.353 2.353 0 0 1-2.842-1.712l-.845-3.408a2.352 2.352 0 0 1 1.712-2.841" fill="#EFA494"/>
        <path d="M19.992 26.522a1.803 1.803 0 0 1 2.33 1.019l.98 2.504a1.803 1.803 0 0 1-1.019 2.33 1.802 1.802 0 0 1-2.329-1.019l-.98-2.504a1.802 1.802 0 0 1 1.018-2.33" fill="#EFA494"/>
        <path d="m56.752 31.28.014.802a.83.83 0 0 1-.817.832.816.816 0 0 1-.826-.81l-.014-.804a.83.83 0 0 1 .817-.832.816.816 0 0 1 .826.812Z" fill="#2F3D48"/>
        <path d="M60.707 52.865c5.273 1.606 8.246 7.182 6.64 12.456-1.605 5.275-7.18 8.248-12.454 6.642-5.273-1.606-8.246-7.182-6.64-12.456 1.605-5.274 7.18-8.248 12.454-6.642Zm.987 6.852-1.568 2.369-.433.653-.264 3.648h1.783l.482-6.67Zm-5.755-.987h-2.173l-.554 7.657h1.783l.27-3.76v-.002l.054-.748.002-.007c.201-.668.77-1.157 1.402-1.157.07 0 .138.006.205.018l-.99-2Zm5.827 0h-2.173l-2.056 3.233-.155-.302a.795.795 0 0 0-.697-.424c-.495 0-.93.453-.97 1.013-.015.204.026.394.107.553l.013.024.76 1.426c.06.11.138.205.23.28.404.321.99.192 1.309-.29l1.627-2.451 2.002-3.02.003-.042Z" fill="#FFF"/>
        <path d="m68.082 31.28.015.802a.83.83 0 0 1-.817.832.816.816 0 0 1-.827-.81l-.014-.804a.83.83 0 0 1 .817-.832.816.816 0 0 1 .826.812Z" fill="#2F3D48"/>
        <path d="M37.57 45.276a.508.508 0 0 1 .97-.299l3.38 10.929a.508.508 0 0 1-.97.298l-3.38-10.928ZM72.763 64.671a.508.508 0 0 1 .724-.712l6.949 7.087c.059.06.1.131.123.206l3.813 12.328a.508.508 0 0 1-.97.299l-3.777-12.21-6.862-6.998Z" fill="#FFF"/>
      </g>
    </g>
    <path d="M15.712 11.91h13.08c.782 0 1.422.388 1.759 1.066l.83 1.67c.337.677.977 1.064 1.758 1.064h8.895c1.172 0 2.052.956 1.958 2.128l-1.108 13.863c-.094 1.173-1.126 2.13-2.298 2.13H13.96c-1.172 0-2.052-.957-1.958-2.13l1.411-17.661c.094-1.173 1.126-2.13 2.299-2.13" fill="url(#k)" transform="translate(0 .2)"/>
    <path d="M26.813 25.686c7.073 0 12.841-5.77 12.841-12.843C39.654 5.77 33.886 0 26.814 0 19.74 0 13.971 5.77 13.971 12.843c0 7.074 5.768 12.843 12.841 12.843" fill="url(#l)" transform="translate(0 .2)"/>
    <path d="M26.813 18.537a5.504 5.504 0 0 0 5.494-5.494 5.505 5.505 0 0 0-5.494-5.495 5.505 5.505 0 0 0-5.494 5.495 5.505 5.505 0 0 0 5.494 5.494" fill="#FFF"/>
    <path d="M26.813 13.775a.934.934 0 0 0 .932-.932.934.934 0 0 0-.932-.933.935.935 0 0 0-.932.933c0 .514.419.932.932.932" fill="url(#m)" transform="translate(0 .2)"/>
    <path d="M11.584 11.765H24.84c.792 0 1.51.392 1.974 1.079l1.144 1.693c.463.685 1.182 1.077 1.974 1.077h9.013c1.188 0 2.252.97 2.37 2.158l1.383 14.047c.117 1.189-.756 2.157-1.944 2.157h-26.98c-1.188 0-2.253-.968-2.37-2.157L9.64 13.922c-.117-1.188.756-2.157 1.944-2.157" fill="url(#n)" transform="translate(0 .2)"/>
    <path d="m29.024 23.72-2.48 1.433-2.481 1.432a.733.733 0 0 1-.75 0 .734.734 0 0 1-.376-.65v-5.73c0-.276.137-.512.376-.65a.736.736 0 0 1 .75 0l2.48 1.433 2.481 1.432a.734.734 0 0 1 .375.65.734.734 0 0 1-.375.65" fill="#FFF"/>
  </g>
</svg>