<?xml version="1.0" encoding="utf-8"?>
<!-- Generator: Adobe Illustrator 16.0.0, SVG Export Plug-In . SVG Version: 6.00 Build 0)  -->
<!DOCTYPE svg PUBLIC "-//W3C//DTD SVG 1.1//EN" "http://www.w3.org/Graphics/SVG/1.1/DTD/svg11.dtd">
<svg version="1.1" id="Sun_1_" xmlns="http://www.w3.org/2000/svg" xmlns:xlink="http://www.w3.org/1999/xlink" x="0px" y="0px"
	 width="200px" height="200px" viewBox="0 0 200 200" enable-background="new 0 0 200 200" xml:space="preserve">
<g id="Sun">
	<g>
		<path fill-rule="evenodd" clip-rule="evenodd" fill="#FFBA00" d="M174.936,33.881l-8.816-8.815l-26.447,26.447l8.815,8.816
			L174.936,33.881z M37.5,93.75H0v12.5h37.5V93.75z M60.329,51.513L33.881,25.065l-8.816,8.815l26.447,26.448L60.329,51.513z
			 M106.25,0h-12.5v37.5h12.5V0z M100,50c-27.614,0-50,22.386-50,50.001C50,127.614,72.386,150,100,150s50-22.386,50-49.999
			C150,72.386,127.614,50,100,50z M25.065,166.119l8.816,8.816l26.447-26.447l-8.816-8.816L25.065,166.119z M139.672,148.488
			l26.447,26.447l8.816-8.816l-26.448-26.447L139.672,148.488z M162.5,93.75v12.5H200v-12.5H162.5z M93.75,200h12.5v-37.5h-12.5V200
			z"/>
	</g>
</g>
</svg>
