<?xml version="1.0" encoding="UTF-8"?>
<svg width="18px" height="18px" viewBox="0 0 18 18" version="1.1" xmlns="http://www.w3.org/2000/svg" xmlns:xlink="http://www.w3.org/1999/xlink">
    <!-- Generator: Sketch 60 (88103) - https://sketch.com -->
    <title>icon_viewOnAS</title>
    <desc>Created with Sketch.</desc>
    <g id="页面-1" stroke="none" stroke-width="1" fill="none" fill-rule="evenodd">
        <g id="video-shot-download-mp4-download-loading_reduce备份-2" transform="translate(-1068.000000, -347.000000)" fill="#FFFFFF">
            <g id="编组-5" transform="translate(1068.000000, 347.000000)">
                <path d="M17.5,16 C17.7761424,16 18,16.2238576 18,16.5 L18,17.5 C18,17.7761424 17.7761424,18 17.5,18 L0.5,18 C0.223857625,18 3.38176876e-17,17.7761424 0,17.5 L0,16.5 C-3.38176876e-17,16.2238576 0.223857625,16 0.5,16 L17.5,16 Z M16.5,0 C17.3284271,0 18,0.671572875 18,1.5 L18,1.5 L18,11.5 C18,12.3284271 17.3284271,13 16.5,13 L16.5,13 L1.5,13 C0.671572875,13 0,12.3284271 0,11.5 L0,11.5 L0,1.5 C0,0.671572875 0.671572875,0 1.5,0 L1.5,0 Z M16,2 L2,2 L2,11 L16,11 L16,2 Z M7.42590332,3.49206543 L12.0239258,6.24603271 L7.42590332,9 L7.42590332,3.49206543 Z" id="icon_viewOnAS"></path>
            </g>
        </g>
    </g>
</svg>