<svg fill="none" viewBox="0 0 250 176" xmlns="http://www.w3.org/2000/svg">
  <mask id="a" x="0" y="4" width="250" height="172" style="mask-type:luminance" maskUnits="userSpaceOnUse">
    <path d="M.5 4.96h249v170.27H.5V4.96z" clip-rule="evenodd" fill="#fff" fill-rule="evenodd"/>
  </mask>
  <g mask="url(#a)">
    <path d="M244.51 86.73h-29.78c-4.84 0-8.76-3.38-8.76-7.55v-3c0-4.16 3.92-7.54 8.76-7.54h12.77c4.2 0 7.6-3.37 7.6-7.54v-3.38c0-4.17-3.4-7.55-7.6-7.55h-19.26l-2.06-1.7a7.54 7.54 0 0 0 4.74-6.98V38.8c0-4.17-3.4-7.54-7.6-7.54h-53.58c-4.2 0-7.6-3.38-7.6-7.55v-.3c0-4.17 3.4-7.55 7.6-7.55h25.06a5.47 5.47 0 0 0 5.5-5.45 5.47 5.47 0 0 0-5.5-5.46H91.62a5.47 5.47 0 0 0-5.19 7.24c-23.7 1.52-44.17 9.36-58.03 24.59A66.66 66.66 0 0 0 9.31 52.7c-24.24 29.65 3.22 78.64 61.96 104 53.66 23.15 103.72 25.44 134.7 2.17-30.85 15.25-75.84 11.31-123.31-9.18C23.92 124.34-3.54 75.35 20.7 45.71a64.36 64.36 0 0 1 4.1-4.55c-21.74 29.8 5.78 77.34 63.34 102.18 58.74 25.35 111.38 26.9 141.52-4.15 8.91-9.18 12.4-21.56 10.9-34.91h1.35c4.2 0 7.6-3.38 7.6-7.55v-2.91a7.55 7.55 0 0 0-5-7.1z" clip-rule="evenodd" fill="url(#b)" fill-rule="evenodd"/>
  </g>
  <path d="M236.77 130.89c0 12.35-10.08 22.36-22.51 22.36s-22.51-10.01-22.51-22.36 10.08-22.36 22.51-22.36 22.51 10.01 22.51 22.36z" clip-rule="evenodd" fill="url(#c)" fill-rule="evenodd"/>
  <mask id="d" x="48" y="0" width="87" height="67" style="mask-type:luminance" maskUnits="userSpaceOnUse">
    <path d="M48.48.62h85.57v66.02H48.48V.62z" clip-rule="evenodd" fill="#fff" fill-rule="evenodd"/>
  </mask>
  <g mask="url(#d)">
    <path d="M81.63 53.53c44.4-52.9 85.58-64.07 85.58-64.07S99.63 35.5 90.63 55.48l-9-1.95z" clip-rule="evenodd" fill="url(#e)" fill-rule="evenodd"/>
  </g>
  <path d="M111.6 110.48c-13.25 1.93-15.69 17.35-19.83 23.91-8.98 14.23-80 72.52-15.12-65.45 0 0 14.4-28.54-8.53-1.44-22.94 27.09-95.1 148.72 54.2 92.89 7.8-2.92 22.58 1.5 25.79-21.08 4.06-28.64-24.97-30.5-36.51-28.83z" clip-rule="evenodd" fill="url(#f)" fill-rule="evenodd"/>
  <path d="M100.63 154.42a170.63 170.63 0 0 1-18.64-9.41 90 90 0 0 1-10.01 7.8 171.2 171.2 0 0 0 17.26 8.6 274.68 274.68 0 0 0 13.9 5.57 341.97 341.97 0 0 0 15.93-5.39 265.79 265.79 0 0 1-18.44-7.17z" clip-rule="evenodd" fill="url(#g)" fill-rule="evenodd"/>
  <path d="M48.65 147.41c.34-4.05 1.05-8.8 2.17-14.37a103.23 103.23 0 0 1-13.78-13.36c-1.75 4.86-3.3 9.78-4.54 14.63 4.7 4.6 10.1 9 16.15 13.1z" clip-rule="evenodd" fill="url(#h)" fill-rule="evenodd"/>
  <path d="M111.6 110.48c-13.25 1.93-15.69 17.35-19.83 23.91a35.42 35.42 0 0 1-3.68 4.62 170.75 170.75 0 0 0 18.02 9.06 278.76 278.76 0 0 0 27.4 10.22c6.37-1.47 12.64-5.19 14.6-18.98 4.06-28.64-24.97-30.5-36.51-28.83z" clip-rule="evenodd" fill="url(#i)" fill-rule="evenodd"/>
  <path d="M53.65 121.83c4.3-12.12 10.61-27.27 19.45-46.07 0 0 14.41-28.54-8.53-1.45-5.7 6.73-14.43 19.29-22.05 33.51a98.68 98.68 0 0 0 11.13 14.01z" clip-rule="evenodd" fill="url(#j)" fill-rule="evenodd"/>
  <path d="M68 67.5a82.99 82.99 0 0 0-3.84 4.95 37.88 37.88 0 0 0 6.67 8.88c1.76-3.93 3.66-8.05 5.7-12.4 0 0 14.4-28.53-8.53-1.44z" clip-rule="evenodd" fill="#000" fill-opacity=".28" fill-rule="evenodd"/>
  <path d="M126.14 40.25c0 20.84-17.01 37.74-38 37.74-20.98 0-38-16.9-38-37.74 0-20.84 17.02-37.74 38-37.74 20.99 0 38 16.9 38 37.74z" clip-rule="evenodd" fill="url(#k)" fill-rule="evenodd"/>
  <path d="M112.48 15.3c7.27 7.22 9.61 16.6 5.23 20.96-4.38 4.35-13.83 2.03-21.1-5.2-7.28-7.22-9.62-16.6-5.23-20.95 4.38-4.36 13.83-2.03 21.1 5.19z" clip-rule="evenodd" fill="url(#l)" fill-rule="evenodd"/>
  <path d="M92.9 49.57c-23.22-9.4-39.3-23.01-36.26-30.43 0 0 .55-.86 1.18-1.57 2.07 4.82 8.66 10.95 19.3 16.28 13.05 6.54 28.69 9.94 33.3 7.34-6.05-.1-15.16-2.73-24.61-7.47-15.02-7.52-25.21-17.5-22.78-22.29.32-.62.83-1.3 1.53-1.7-3.57-.06-6.07.93-6.97 2.7-.61 1.21-.63 2.7-.07 4.36-4.52.53-8.12 2.02-9.12 4.47-3.05 7.4 9.23 20.92 32.45 30.32 20.19 8.18 43 10.59 49.54 6.18-9.01.56-22.87-2.27-37.5-8.2z" clip-rule="evenodd" fill="#fff" fill-rule="evenodd"/>
  <path d="M88.37 62.2c15.9 5.38 30.22 5.64 31.97.56.22-.67.36-1.5.15-2.27 2.54 2.48 3.58 4.95 2.93 6.83-1.75 5.08-13.16 6.51-29.07 1.12-13.83-4.69-27.22-13.4-28.58-18.5 4.31 4.23 12.58 8.86 22.6 12.25z" clip-rule="evenodd" fill="#fff" fill-rule="evenodd"/>
  <path d="M196.88 145.1s20.69 4.57 33.1-18.91c0 0-12.42 33.29-33.1 18.91z" clip-rule="evenodd" fill="url(#m)" fill-rule="evenodd"/>
  <path d="M205.39 140.14c5.83 5.8 13.36 7.71 10.56 10.49s-9.79.33-15.62-5.46c-5.83-5.8-8.3-12.74-5.5-15.52s4.73 4.7 10.56 10.49z" clip-rule="evenodd" fill="#000" fill-opacity=".28" fill-rule="evenodd"/>
  <path d="M210.18 144.03a29.8 29.8 0 0 1-9.56 1.42 29.64 29.64 0 0 0 3.54 2.94c3.75.77 7.13.02 10.13-1.6-1.12-.8-2.56-1.7-4.11-2.76z" clip-rule="evenodd" fill="url(#n)" fill-rule="evenodd"/>
  <path d="M61.75 42.76a14.3 14.3 0 0 0-11.2-7.96c-.26 1.78-.4 3.6-.4 5.45a37.37 37.37 0 0 0 6.23 20.7 14.16 14.16 0 0 0 5.37-18.19z" clip-rule="evenodd" fill="#000" fill-opacity=".28" fill-rule="evenodd"/>
  <path d="M62.77 44.6c0 7.84-6.4 14.2-14.3 14.2-7.89 0-14.28-6.36-14.28-14.2s6.4-14.19 14.29-14.19a14.3 14.3 0 0 1 12.89 8.06 14.05 14.05 0 0 1 1.4 6.13z" clip-rule="evenodd" fill="url(#o)" fill-rule="evenodd"/>
  <path d="M177.48 23.18c0 6.69-5.46 12.1-12.19 12.1-6.73 0-12.18-5.41-12.18-12.1s5.45-12.1 12.18-12.1c6.73 0 12.19 5.42 12.19 12.1z" clip-rule="evenodd" fill="url(#p)" fill-rule="evenodd"/>
  <path d="M245.85 104.13c-3.43-3.41-12.22-.65-22.52 6.3 1.38.6 2.68 1.33 3.89 2.18 5-2.63 8.94-3.38 10.7-1.63 3.62 3.59-3.41 16.4-15.7 28.6-12.3 12.22-25.2 19.2-28.82 15.61-1.88-1.87-.88-6.24 2.25-11.72a22.23 22.23 0 0 1-2.09-3.79c-7.51 10.66-10.6 19.86-7.05 23.38 5.2 5.17 22.7-3.83 39.1-20.1s25.44-33.66 20.24-38.83z" clip-rule="evenodd" fill="url(#q)" fill-rule="evenodd"/>
  <path d="M56.07 35.8c2.93 2.9 3.7 6.87 1.7 8.85-2 1.98-5.98 1.22-8.92-1.7-2.93-2.9-3.7-6.87-1.7-8.85 2-1.98 5.98-1.22 8.92 1.7z" clip-rule="evenodd" fill="url(#r)" fill-rule="evenodd"/>
  <path d="M42.87 49.95c3.38 3.36 8.11 4.1 6.12 6.08-2 1.98-6.35.86-9.73-2.5-3.38-3.36-4.5-7.68-2.51-9.66s2.74 2.72 6.12 6.08z" clip-rule="evenodd" fill="#000" fill-opacity=".28" fill-rule="evenodd"/>
  <path d="M171.96 15.43c2.12 2.1 2.67 4.97 1.23 6.4-1.44 1.43-4.32.88-6.45-1.22-2.12-2.11-2.67-4.98-1.23-6.4 1.44-1.44 4.33-.9 6.45 1.22z" clip-rule="evenodd" fill="#fff" fill-rule="evenodd"/>
  <path d="M74.43 123.35s-2.44 7.66-11.28 11.93c0 0-.7-5.84 11.28-11.93z" clip-rule="evenodd" fill="url(#s)" fill-rule="evenodd"/>
  <path d="M82.72 135.76c.9.57 1.8 1.14 2.72 1.7 5.35-4.2 6.96-9.25 6.96-9.25-5.38 2.74-8.2 5.42-9.68 7.55z" clip-rule="evenodd" fill="url(#t)" fill-rule="evenodd"/>
  <path d="M161.08 27.53c3.17 3.14 7.83 3.61 5.73 5.7-2.1 2.07-6.36 1.21-9.52-1.93-3.17-3.14-4.03-7.38-1.94-9.46 2.1-2.08 2.57 2.55 5.73 5.7z" clip-rule="evenodd" fill="url(#u)" fill-rule="evenodd"/>
  <path d="M66.14 88.52c0 .82-.67 1.49-1.5 1.49a1.49 1.49 0 1 1 0-2.98c.83 0 1.5.67 1.5 1.49zm-9.02 20.92a2.32 2.32 0 0 0-2.33-2.31 2.32 2.32 0 0 0-2.33 2.31 2.32 2.32 0 0 0 2.33 2.31 2.32 2.32 0 0 0 2.33-2.31zm116.7 9.34a1.33 1.33 0 0 1-2.66 0 1.33 1.33 0 0 1 2.66 0zm-34.3 24.08a2.73 2.73 0 0 1-2.74 2.72c-1.5 0-2.73-1.22-2.73-2.72s1.22-2.72 2.73-2.72a2.73 2.73 0 0 1 2.74 2.72zM23.92 58.01a1.01 1.01 0 0 1-1.02 1 1 1 0 1 1 0-2 1 1 0 0 1 1.02 1zm78.66 22.4a1.25 1.25 0 0 1-2.5 0c0-.7.55-1.25 1.25-1.25s1.25.56 1.25 1.24zm137.74 10.06c0 1.6-1.31 2.9-2.93 2.9a2.91 2.91 0 1 1 0-5.8c1.62 0 2.93 1.3 2.93 2.9zm-112.2 78.03a2.85 2.85 0 0 1-2.85 2.83c-1.58 0-2.86-1.26-2.86-2.83s1.28-2.84 2.86-2.84a2.85 2.85 0 0 1 2.85 2.84zm80.08-72.76a2.37 2.37 0 0 1-2.38 2.36 2.37 2.37 0 0 1-2.38-2.36 2.37 2.37 0 0 1 2.38-2.36 2.37 2.37 0 0 1 2.38 2.36zm-67.18-56.05h-3.42a1.85 1.85 0 0 0-.14-.3l.87-.86a.53.53 0 0 0 0-.75.54.54 0 0 0-.76 0l-.88.87a1.82 1.82 0 0 0-.28-.12v-2.61c0-.3-.24-.53-.54-.53s-.53.24-.53.53v2.61c-.1.03-.2.07-.29.12l-.87-.87a.54.54 0 0 0-.76 0 .53.53 0 0 0 0 .75l.86.86a1.76 1.76 0 0 0-.13.3h-3.42a.53.53 0 0 0-.54.53c0 .29.24.53.54.53h3.4c.02.11.07.22.12.33l-.83.82a.53.53 0 0 0 0 .75.53.53 0 0 0 .76 0l.81-.8.35.14v2.61c0 .3.24.53.53.53s.54-.23.54-.53V42c.12-.04.23-.09.34-.15l.82.81a.53.53 0 0 0 .76 0 .53.53 0 0 0 0-.75l-.83-.82c.05-.1.1-.22.12-.33h3.4a.53.53 0 0 0 .53-.53.53.53 0 0 0-.53-.53z" clip-rule="evenodd" fill="#fff" fill-rule="evenodd"/>
  <path d="M193.4 155.19c-1.88-1.87-.88-6.24 2.25-11.72a22.23 22.23 0 0 1-2.09-3.79c-5.99 8.5-9.16 16.07-8.41 20.57 5.97-.26 13.51-3.03 21.12-7.91-6.02 3.59-10.87 4.84-12.87 2.85z" clip-rule="evenodd" fill="url(#v)" fill-rule="evenodd"/>
  <path d="M225.89 115.05c-.2-2.02-1.44-3.9-4.2-5.45 0 0 .63 1.13.75 3.24a16 16 0 0 0-.48-.22c-4.75-2.04-9.58-1.47-10.77 1.28-1.2 2.74 1.7 6.62 6.46 8.66.56.24 1.12.44 1.68.61-2.02 3.32-5.26 7.15-10.35 11.42 0 0 8.04-5 13.05-10.87 3.04.3 5.57-.55 6.4-2.44.8-1.86-.27-4.25-2.54-6.23z" clip-rule="evenodd" fill="url(#w)" fill-rule="evenodd"/>
  <path d="M225.89 115.05a14.71 14.71 0 0 0-3.45-2.21c.13 2.33-.38 5.85-3.11 10.33.92.28 1.83.46 2.7.55 2.42-2.84 4.13-5.89 3.86-8.67z" clip-rule="evenodd" fill="#fff" fill-rule="evenodd"/>
  <path d="M109.31 156.14s-9.09 1.19-23.18 9.53c0 0 8.03 1.73 23.18-9.53z" clip-rule="evenodd" fill="url(#x)" fill-rule="evenodd"/>
  <path d="M110.99 169.72c3.25-.94 7.64-2.81 13.1-6.47-.84-.26-1.67-.54-2.5-.82a82.27 82.27 0 0 0-14.02 6.13c1.14.4 2.28.78 3.42 1.16z" clip-rule="evenodd" fill="url(#y)" fill-rule="evenodd"/>
  <path d="m166.68 154.47-1.4-1.39a1.96 1.96 0 0 0 0-1.94l1.4-1.39a.53.53 0 0 0 0-.75.54.54 0 0 0-.76 0l-1.4 1.4a2 2 0 0 0-1.95 0l-1.4-1.4a.54.54 0 0 0-.75 0 .53.53 0 0 0 0 .75l1.4 1.4a1.95 1.95 0 0 0 0 1.93l-1.4 1.39a.53.53 0 0 0 .38.9.54.54 0 0 0 .37-.15l1.4-1.39a1.99 1.99 0 0 0 1.95 0l1.4 1.4a.54.54 0 0 0 .76 0 .53.53 0 0 0 0-.76zm25.59-71.32-1.4-1.4a1.95 1.95 0 0 0 0-1.93l1.4-1.4a.53.53 0 0 0 0-.74.54.54 0 0 0-.76 0l-1.4 1.39a1.99 1.99 0 0 0-1.95 0l-1.4-1.4a.54.54 0 0 0-.75 0 .53.53 0 0 0 0 .76l1.4 1.39a1.96 1.96 0 0 0 0 1.94l-1.4 1.39a.53.53 0 0 0 0 .75.53.53 0 0 0 .75 0l1.4-1.4a2 2 0 0 0 1.95 0l1.4 1.4a.53.53 0 0 0 .76-.75zM97.41 99.89l-1.4-1.39a1.95 1.95 0 0 0 0-1.94l1.4-1.39a.53.53 0 0 0 0-.75.54.54 0 0 0-.76 0l-1.4 1.4a1.99 1.99 0 0 0-1.95 0l-1.4-1.4a.54.54 0 0 0-.75 0 .53.53 0 0 0 0 .75l1.4 1.4a1.95 1.95 0 0 0 0 1.93l-1.4 1.4a.53.53 0 0 0 0 .74.53.53 0 0 0 .75 0l1.4-1.39a1.99 1.99 0 0 0 1.95 0l1.4 1.4a.53.53 0 0 0 .76-.76zM6.92 84.08l-1.84-1.84a1.37 1.37 0 0 0 0-1.05l1.84-1.83a.53.53 0 0 0 0-.75.54.54 0 0 0-.76 0l-1.84 1.83a1.4 1.4 0 0 0-1.06 0L1.4 78.6a.54.54 0 0 0-.75 0 .53.53 0 0 0 0 .75l1.84 1.83a1.37 1.37 0 0 0 0 1.05L.66 84.09a.53.53 0 0 0 0 .75.54.54 0 0 0 .75 0L3.26 83a1.4 1.4 0 0 0 1.06 0l1.84 1.83a.54.54 0 0 0 .76 0 .53.53 0 0 0 0-.75z" clip-rule="evenodd" fill="#fff" fill-rule="evenodd"/>
  <path d="M150.83 158.95 93.4 139.39a6.82 6.82 0 0 1-4.07-8.93L134.26 8.73a7.25 7.25 0 0 1 9.02-4.47l57.43 19.56a6.82 6.82 0 0 1 4.07 8.93l-44.93 121.73a7.25 7.25 0 0 1-9.02 4.47z" clip-rule="evenodd" fill="#fff" fill-rule="evenodd"/>
  <path d="m122.63 52.77 15.64-43.12a7.08 7.08 0 0 1 8.94-4.28l54.93 19.07c3.62 1.26 4.67 6.87 3.36 10.5l-41.44 114.13c-1.3 3.62-7.8 8.95-11.43 7.7l-54.9-20.75a4.9 4.9 0 0 1-2.99-6.33l27.9-76.9-.01-.01z" clip-rule="evenodd" fill="url(#z)" fill-rule="evenodd"/>
  <path d="m120.75 52.79 16.24-44a7.23 7.23 0 0 1 9-4.47l54.7 18.64a6.8 6.8 0 0 1 4.06 8.9l-44.5 120.56a7.23 7.23 0 0 1-9 4.47L94.7 137.62a4.87 4.87 0 0 1-2.91-6.38l28.96-78.46z" clip-rule="evenodd" fill="#1D3458" fill-rule="evenodd"/>
  <path d="m122.38 53.95 16.36-44.31a4.96 4.96 0 0 1 6.13-3.13l55.05 18.74c2.43.84 3.64 3.58 2.7 6.14l-44.33 120.08a4.96 4.96 0 0 1-6.12 3.14l-55.05-18.75c-2.44-.84-3.65-3.58-2.7-6.14l27.96-75.77z" clip-rule="evenodd" fill="url(#A)" fill-rule="evenodd"/>
  <path d="M202.64 31.31a4.66 4.66 0 0 0-2.73-6.06L144.86 6.51c-2.44-.84-5.19.57-6.13 3.13l-16.36 44.31-12.18 32.87a4.66 4.66 0 0 0 2.73 6.06l55.05 18.75c2.44.83 5.18-.57 6.13-3.13l28.54-77.19z" clip-rule="evenodd" fill="#fff" fill-rule="evenodd"/>
  <path d="M117.7 120.56a.82.82 0 0 1-.33-.98.85.85 0 0 1 1.05-.52l30.66 10.44c.42.15.64.61.48 1.05a.85.85 0 0 1-1.05.52l-30.66-10.45a.98.98 0 0 1-.15-.06z" clip-rule="evenodd" fill="#8796A5" fill-rule="evenodd"/>
  <path d="M123.67 127.76a.81.81 0 0 1-.33-.98.85.85 0 0 1 1.05-.52l15.47 5.27a.8.8 0 0 1 .48 1.04.85.85 0 0 1-1.06.52l-15.46-5.27a1 1 0 0 1-.15-.06z" clip-rule="evenodd" fill="#99A6B3" fill-rule="evenodd"/>
  <path d="M130.1 53.75c-7.37 14.77-2.04 31.28 11.9 36.89 13.94 5.6 31.2-1.81 38.56-16.57 7.36-14.77 2.03-31.28-11.9-36.9-.95-.37-1.93-.7-2.9-.96-13.35-3.59-28.8 3.8-35.66 17.54z" clip-rule="evenodd" fill="url(#B)" fill-rule="evenodd"/>
  <path d="m150.06 123.9-27.7-9.44a4.8 4.8 0 0 1-2.87-6.3 5.1 5.1 0 0 1 6.36-3.14l27.7 9.45a4.8 4.8 0 0 1 2.87 6.28 5.1 5.1 0 0 1-6.36 3.15z" clip-rule="evenodd" fill="url(#C)" fill-rule="evenodd"/>
  <path d="M153.38 18.99a.8.8 0 0 1-.33-.98.85.85 0 0 1 1.05-.53l9.15 3.13a.8.8 0 0 1 .48 1.04.85.85 0 0 1-1.05.53l-9.15-3.13-.15-.06z" clip-rule="evenodd" fill="url(#D)" fill-rule="evenodd"/>
  <path d="M152.4 22.21a.8.8 0 0 1-.33-.98.85.85 0 0 1 1.05-.52l5.11 1.74a.8.8 0 0 1 .48 1.05.85.85 0 0 1-1.05.52l-5.11-1.75a.98.98 0 0 1-.15-.06zm31.1 6.85a.8.8 0 0 1-.33-.98.85.85 0 0 1 1.05-.52l10.06 3.43a.8.8 0 0 1 .48 1.04.85.85 0 0 1-1.05.52l-10.06-3.42-.15-.07z" clip-rule="evenodd" fill="#ABB6C1" fill-rule="evenodd"/>
  <path d="m147.52 21.57-3.28-1.12a1.49 1.49 0 0 1-.89-1.94l1.22-3.29c.3-.8 1.17-1.24 1.97-.98l3.28 1.12c.78.27 1.18 1.14.89 1.95l-1.22 3.29c-.3.8-1.18 1.24-1.97.97z" clip-rule="evenodd" fill="#48C892" fill-rule="evenodd"/>
  <path d="M139.39 95.84c-.32.52-.98.7-1.5.41-.51-.3-.66-.96-.35-1.49.3-.52.98-.7 1.5-.41.51.3.66.97.35 1.49z" clip-rule="evenodd" fill="url(#E)" fill-rule="evenodd"/>
  <path d="M143.59 97.3c-.32.52-.98.7-1.5.4s-.66-.96-.35-1.48c.3-.53.98-.71 1.5-.42.51.3.66.97.35 1.5zm4.21 1.46c-.32.52-.98.71-1.5.42s-.66-.97-.35-1.5c.3-.52.98-.7 1.5-.4.51.29.66.96.35 1.48z" clip-rule="evenodd" fill="#DFE3E7" fill-rule="evenodd"/>
  <path d="M193.43 35.6a.84.84 0 0 1-1.13.32.82.82 0 0 1-.27-1.14.83.83 0 0 1 1.14-.31c.38.23.5.73.26 1.14z" clip-rule="evenodd" fill="#ABB6C1" fill-rule="evenodd"/>
  <path d="M129.22 112.22a.8.8 0 0 1-.33-.98.85.85 0 0 1 1.05-.52l16.4 5.59a.8.8 0 0 1 .48 1.04.85.85 0 0 1-1.05.52l-16.4-5.59a.98.98 0 0 1-.15-.06z" clip-rule="evenodd" fill="#fff" fill-rule="evenodd"/>
  <path d="M105.62 129.88a1.23 1.23 0 0 0-1.67.46 1.2 1.2 0 0 0 .4 1.67c.57.33 1.32.12 1.66-.46a1.2 1.2 0 0 0-.39-1.67zm-2.13 3.56a2.83 2.83 0 0 1-.93-3.92 2.9 2.9 0 0 1 3.92-1.08c1.35.78 1.75 2.54.93 3.91s-2.58 1.87-3.92 1.1zm20.22 4.62a2.27 2.27 0 0 1-3.07.85 2.21 2.21 0 0 1-.72-3.07 2.27 2.27 0 0 1 3.07-.85 2.21 2.21 0 0 1 .72 3.07z" clip-rule="evenodd" fill="#8796A5" fill-rule="evenodd"/>
  <path d="M123.76 134.01c.12.5-.19 1-.69 1.15s-1-.16-1.12-.65a.97.97 0 0 1 .7-1.15.89.89 0 0 1 1.11.65z" clip-rule="evenodd" fill="#8796A5" fill-rule="evenodd"/>
  <path d="m139.18 144.99-2.9-.95c-.52-.17-.66-.86-.24-1.25l2.26-2.15c.42-.41 1.12-.21 1.23.36l.64 3.1a.78.78 0 0 1-1 .9l.01-.01z" clip-rule="evenodd" fill="url(#F)" fill-rule="evenodd"/>
  <path d="M137.31 147.28a.63.63 0 0 1-.84.23c-.29-.17-.38-.54-.2-.84s.55-.4.84-.23.38.54.2.84z" clip-rule="evenodd" fill="#fff" fill-rule="evenodd"/>
  <path d="m149.73 75.9-2.65-3.77 9.1-6.68 6.6 9.38-3.63 2.67-3.95-5.61-5.47 4.01z" fill="url(#G)"/>
  <path d="m145.66 70.14-2.64-3.76 5.45-4-3.94-5.6 3.62-2.67 6.6 9.37-9.1 6.67.01-.01z" fill="url(#H)"/>
  <path d="m156.7 62.08-6.6-9.39 3.63-2.66 3.96 5.61 5.46-4.01 2.65 3.76-9.1 6.68v.01z" fill="url(#I)"/>
  <defs>
    <linearGradient id="b" x1="120.32" x2="-34.3" y1="-78.57" y2="151.88" gradientUnits="userSpaceOnUse">
      <stop stop-color="#3A495F" offset="0"/>
      <stop stop-color="#1B2331" offset="1"/>
    </linearGradient>
    <linearGradient id="c" x1="192.41" x2="192.41" y1="108.54" y2="151.95" gradientUnits="userSpaceOnUse">
      <stop stop-color="#CBDAEE" offset="0"/>
      <stop stop-color="#B4CAED" offset="1"/>
    </linearGradient>
    <linearGradient id="e" x1="81.63" x2="81.63" y1="-10.54" y2="55.48" gradientUnits="userSpaceOnUse">
      <stop stop-color="#F2F6FF" offset="0"/>
      <stop stop-color="#E0E9FF" offset="1"/>
    </linearGradient>
    <linearGradient id="f" x1="30.46" x2="30.46" y1="55.82" y2="174.88" gradientUnits="userSpaceOnUse">
      <stop stop-color="#F2F6FF" offset="0"/>
      <stop stop-color="#E0E9FF" offset="1"/>
    </linearGradient>
    <linearGradient id="g" x1="72.67" x2="72.67" y1="145" y2="166.34" gradientUnits="userSpaceOnUse">
      <stop stop-color="#CBDAEE" offset="0"/>
      <stop stop-color="#B4CAED" offset="1"/>
    </linearGradient>
    <linearGradient id="h" x1="31.35" x2="34.13" y1="120.26" y2="148.02" gradientUnits="userSpaceOnUse">
      <stop stop-color="#CBDAEE" offset="0"/>
      <stop stop-color="#B4CAED" offset="1"/>
    </linearGradient>
    <linearGradient id="i" x1="88.96" x2="88.96" y1="110.04" y2="156.88" gradientUnits="userSpaceOnUse">
      <stop stop-color="#CBDAEE" offset="0"/>
      <stop stop-color="#B4CAED" offset="1"/>
    </linearGradient>
    <linearGradient id="j" x1="43.03" x2="43.03" y1="62.64" y2="120.11" gradientUnits="userSpaceOnUse">
      <stop stop-color="#CBDAEE" offset="0"/>
      <stop stop-color="#B4CAED" offset="1"/>
    </linearGradient>
    <linearGradient id="k" x1="50.15" x2="50.15" y1="2.51" y2="77.99" gradientUnits="userSpaceOnUse">
      <stop stop-color="#A5BBFF" offset="0"/>
      <stop stop-color="#93A2FC" offset="1"/>
    </linearGradient>
    <linearGradient id="l" x1="52.94" x2="61.76" y1="-23.37" y2="61.38" gradientUnits="userSpaceOnUse">
      <stop stop-color="#fff" offset="0"/>
      <stop stop-color="#fff" stop-opacity=".01" offset="1"/>
    </linearGradient>
    <linearGradient id="m" x1="196.88" x2="196.88" y1="126.18" y2="148.7" gradientUnits="userSpaceOnUse">
      <stop stop-color="#F2F6FF" offset="0"/>
      <stop stop-color="#E0E9FF" offset="1"/>
    </linearGradient>
    <linearGradient id="n" x1="200.82" x2="200.82" y1="144.03" y2="148.56" gradientUnits="userSpaceOnUse">
      <stop stop-color="#CBDAEE" offset="0"/>
      <stop stop-color="#B4CAED" offset="1"/>
    </linearGradient>
    <linearGradient id="o" x1="34.19" x2="34.19" y1="30.41" y2="58.79" gradientUnits="userSpaceOnUse">
      <stop stop-color="#94ADD6" offset="0"/>
      <stop stop-color="#5E7193" offset="1"/>
    </linearGradient>
    <linearGradient id="p" x1="153.11" x2="153.11" y1="11.08" y2="35.28" gradientUnits="userSpaceOnUse">
      <stop stop-color="#F2F6FF" offset="0"/>
      <stop stop-color="#E0E9FF" offset="1"/>
    </linearGradient>
    <linearGradient id="q" x1="185.04" x2="185.04" y1="102.67" y2="164.52" gradientUnits="userSpaceOnUse">
      <stop stop-color="#AAC0FF" offset="0"/>
      <stop stop-color="#93ADFF" offset="1"/>
    </linearGradient>
    <linearGradient id="r" x1="46.23" x2="46.23" y1="33" y2="45.38" gradientUnits="userSpaceOnUse">
      <stop stop-color="#CBDAEE" offset="0"/>
      <stop stop-color="#B4CAED" offset="1"/>
    </linearGradient>
    <linearGradient id="s" x1="63.14" x2="63.14" y1="123.35" y2="135.28" gradientUnits="userSpaceOnUse">
      <stop stop-color="#F2F6FF" offset="0"/>
      <stop stop-color="#E0E9FF" offset="1"/>
    </linearGradient>
    <linearGradient id="t" x1="82.86" x2="82.86" y1="128.21" y2="137.18" gradientUnits="userSpaceOnUse">
      <stop stop-color="#CBDAEE" offset="0"/>
      <stop stop-color="#B4CAED" offset="1"/>
    </linearGradient>
    <linearGradient id="u" x1="154.4" x2="154.4" y1="21.32" y2="33.98" gradientUnits="userSpaceOnUse">
      <stop stop-color="#CBDAEE" offset="0"/>
      <stop stop-color="#B4CAED" offset="1"/>
    </linearGradient>
    <linearGradient id="v" x1="185.04" x2="185.04" y1="139.68" y2="160.25" gradientUnits="userSpaceOnUse">
      <stop stop-color="#7798FF" offset="0"/>
      <stop stop-color="#5D6ECD" offset="1"/>
    </linearGradient>
    <linearGradient id="w" x1="208.98" x2="208.98" y1="109.6" y2="134.6" gradientUnits="userSpaceOnUse">
      <stop stop-color="#F2F6FF" offset="0"/>
      <stop stop-color="#E0E9FF" offset="1"/>
    </linearGradient>
    <linearGradient id="x" x1="86.13" x2="86.13" y1="156.14" y2="165.76" gradientUnits="userSpaceOnUse">
      <stop stop-color="#F2F6FF" offset="0"/>
      <stop stop-color="#E0E9FF" offset="1"/>
    </linearGradient>
    <linearGradient id="y" x1="107.81" x2="107.81" y1="162.44" y2="169.51" gradientUnits="userSpaceOnUse">
      <stop stop-color="#CBDAEE" offset="0"/>
      <stop stop-color="#B4CAED" offset="1"/>
    </linearGradient>
    <linearGradient id="z" x1="119.08" x2="187.11" y1="71.14" y2="96.22" gradientUnits="userSpaceOnUse">
      <stop stop-color="#CBDBF6" offset="0"/>
      <stop stop-color="#6488BC" offset="1"/>
    </linearGradient>
    <linearGradient id="A" x1="226.5" x2="72.61" y1="78.07" y2="81.25" gradientUnits="userSpaceOnUse">
      <stop stop-color="#3A495F" offset="0"/>
      <stop stop-color="#1B2331" offset="1"/>
    </linearGradient>
    <linearGradient id="B" x1="126.99" x2="167.81" y1="26.45" y2="94.55" gradientUnits="userSpaceOnUse">
      <stop stop-color="#7093FF" offset="0"/>
      <stop stop-color="#3D5AFE" offset="1"/>
    </linearGradient>
    <linearGradient id="C" x1="154.5" x2="130.67" y1="101.41" y2="124.82" gradientUnits="userSpaceOnUse">
      <stop stop-color="#94ADD6" offset="0"/>
      <stop stop-color="#5E7193" offset="1"/>
    </linearGradient>
    <linearGradient id="D" x1="162.6" x2="157.6" y1="19.44" y2="23.95" gradientUnits="userSpaceOnUse">
      <stop stop-color="#3A495F" offset="0"/>
      <stop stop-color="#1B2331" offset="1"/>
    </linearGradient>
    <linearGradient id="E" x1="142.5" x2="138.88" y1="95.73" y2="97.44" gradientUnits="userSpaceOnUse">
      <stop stop-color="#94ADD6" offset="0"/>
      <stop stop-color="#5E7193" offset="1"/>
    </linearGradient>
    <linearGradient id="F" x1="139.04" x2="140.6" y1="141.3" y2="147.38" gradientUnits="userSpaceOnUse">
      <stop stop-color="#7093FF" offset="0"/>
      <stop stop-color="#3D5AFE" offset="1"/>
    </linearGradient>
    <linearGradient id="G" x1="140.81" x2="139.94" y1="62.26" y2="80.51" gradientUnits="userSpaceOnUse">
      <stop stop-color="#fff" offset="0"/>
      <stop stop-color="#fff" stop-opacity=".01" offset="1"/>
    </linearGradient>
    <linearGradient id="H" x1="139.81" x2="140.88" y1="51.48" y2="76.83" gradientUnits="userSpaceOnUse">
      <stop stop-color="#fff" offset="0"/>
      <stop stop-color="#fff" stop-opacity=".01" offset="1"/>
    </linearGradient>
    <linearGradient id="I" x1="143.13" x2="142.26" y1="47.51" y2="65.75" gradientUnits="userSpaceOnUse">
      <stop stop-color="#fff" offset="0"/>
      <stop stop-color="#fff" stop-opacity=".01" offset="1"/>
    </linearGradient>
  </defs>
</svg>