<svg clip-rule="evenodd" fill-rule="evenodd" stroke-linejoin="round" stroke-miterlimit="2" viewBox="0 0 48 48" xmlns="http://www.w3.org/2000/svg" xmlns:serif="http://www.serif.com/" fill="#f29a00"><g transform="translate(-391 -235)"><path d="m405.626 274c.445-1.724 2.012-3 3.874-3s3.429 1.276 3.874 3h21.626c.14 0 .278.029.406.086.119.053.228.13.318.224.086.09.155.197.202.312.043.106.068.219.073.333.005.109-.008.219-.039.325-.027.093-.068.182-.121.264-.116.179-.29.318-.49.393-.109.041-.226.062-.343.063h-.006-21.626c-.445 1.724-2.012 3-3.874 3s-3.429-1.276-3.874-3h-10.626c-.117 0-.234-.02-.344-.061-.202-.074-.378-.214-.495-.395-.053-.082-.094-.171-.121-.264-.031-.106-.044-.216-.039-.325.005-.114.03-.227.073-.333.047-.115.116-.222.202-.312.09-.094.199-.171.318-.224.128-.057.266-.086.406-.086zm3.874-1c1.104 0 2 .896 2 2s-.896 2-2 2-2-.896-2-2 .896-2 2-2zm12.126-15c.445-1.724 2.012-3 3.874-3s3.429 1.276 3.874 3h5.626c.14 0 .278.029.406.086.119.053.228.13.318.224.086.09.155.197.202.312.043.106.068.219.073.333.005.109-.008.219-.039.325-.027.093-.068.182-.121.264-.116.179-.29.318-.49.393-.109.041-.226.062-.343.063h-.006-5.626c-.445 1.724-2.012 3-3.874 3s-3.429-1.276-3.874-3h-26.626c-.14 0-.278-.029-.406-.086-.119-.053-.228-.13-.318-.224-.086-.09-.155-.197-.202-.312-.043-.106-.068-.219-.073-.333-.005-.109.008-.219.039-.325.027-.093.068-.182.121-.264.117-.181.293-.321.495-.395.11-.041.227-.061.344-.061zm3.874-1c1.104 0 2 .896 2 2s-.896 2-2 2-2-.896-2-2 .896-2 2-2zm-26.374-15c.445-1.724 2.012-3 3.874-3s3.429 1.276 3.874 3h28.126c.14 0 .278.029.406.086.119.053.228.13.318.224.086.09.155.197.202.312.043.106.068.219.073.333.005.109-.008.219-.039.325-.027.093-.068.182-.121.264-.116.179-.29.318-.49.393-.109.041-.226.062-.343.063h-.006-28.126c-.445 1.724-2.012 3-3.874 3s-3.429-1.276-3.874-3h-4.126c-.117 0-.234-.02-.344-.061-.202-.074-.378-.214-.495-.395-.053-.082-.094-.171-.121-.264-.031-.106-.044-.216-.039-.325.005-.114.03-.227.073-.333.047-.115.116-.222.202-.312.09-.094.199-.171.318-.224.128-.057.266-.086.406-.086zm3.874-1c1.104 0 2 .896 2 2s-.896 2-2 2-2-.896-2-2 .896-2 2-2z"/></g></svg>