<svg id="Layer_1" enable-background="new 0 0 512 512" viewBox="0 0 512 512" xmlns="http://www.w3.org/2000/svg" fill="#f29a00"><path d="m256 0c-141.159 0-256 114.841-256 256s114.841 256 256 256 256-114.842 256-256-114.841-256-256-256zm0 488c-127.925 0-232-104.075-232-232s104.075-232 232-232 232 104.075 232 232-104.075 232-232 232zm83.667-232c0-46.134-37.533-83.667-83.667-83.667s-83.667 37.533-83.667 83.667 37.533 83.667 83.667 83.667 83.667-37.532 83.667-83.667zm-83.667 59.667c-32.9 0-59.667-26.767-59.667-59.667 0-32.901 26.767-59.667 59.667-59.667s59.667 26.767 59.667 59.667-26.767 59.667-59.667 59.667zm-149.5-107.792v-59.375c0-23.159 18.841-42 42-42h59.375c6.627 0 12 5.373 12 12s-5.373 12-12 12h-59.375c-9.925 0-18 8.075-18 18v59.375c0 6.627-5.373 12-12 12s-12-5.373-12-12zm113.375 185.625c0 6.628-5.373 12-12 12h-59.375c-23.159 0-42-18.841-42-42v-59.375c0-6.628 5.373-12 12-12s12 5.372 12 12v59.375c0 9.925 8.075 18 18 18h59.375c6.627 0 12 5.372 12 12zm185.625-89.375v59.375c0 23.159-18.841 42-42 42h-59.375c-6.627 0-12-5.372-12-12s5.373-12 12-12h59.375c9.925 0 18-8.075 18-18v-59.375c0-6.628 5.373-12 12-12s12 5.372 12 12zm0-155.625v59.375c0 6.627-5.373 12-12 12s-12-5.373-12-12v-59.375c0-9.925-8.075-18-18-18h-59.375c-6.627 0-12-5.373-12-12s5.373-12 12-12h59.375c23.159 0 42 18.841 42 42z"/></svg>