<svg viewBox="14 10 226 226" xmlns="http://www.w3.org/2000/svg" fill="black"><path d="m128 226.833a98.833 98.833 0 1 1 98.833-98.833 98.945 98.945 0 0 1 -98.833 98.833zm0-192.666a93.833 93.833 0 1 0 93.833 93.833 93.939 93.939 0 0 0 -93.833-93.833z" /><path d="m128 206.268a78.268 78.268 0 1 1 78.268-78.268 78.357 78.357 0 0 1 -78.268 78.268zm0-151.536a73.268 73.268 0 1 0 73.268 73.268 73.351 73.351 0 0 0 -73.268-73.268z" /><g><path d="m156.238 140.318h10.489a2.5 2.5 0 0 0 0-5h-10.489v-10.037a15.5 15.5 0 0 0 12.989-15.268 2.5 2.5 0 0 0 -5 0 10.5 10.5 0 0 1 -8.127 10.21 28.188 28.188 0 0 0 -9.375-18.333 14.886 14.886 0 0 1 14.854-14.39 2.5 2.5 0 0 0 0-5 19.906 19.906 0 0 0 -19.5 16.04 28.139 28.139 0 0 0 -28.16 0 19.906 19.906 0 0 0 -19.5-16.04 2.5 2.5 0 1 0 0 5 14.886 14.886 0 0 1 14.854 14.39 28.188 28.188 0 0 0 -9.373 18.333 10.5 10.5 0 0 1 -8.127-10.21 2.5 2.5 0 0 0 -5 0 15.5 15.5 0 0 0 12.989 15.268v10.037h-10.489a2.5 2.5 0 0 0 0 5h10.489v4.944a28.194 28.194 0 0 0 .416 4.8 15.5 15.5 0 0 0 -13.4 15.332 2.5 2.5 0 0 0 5 0 10.5 10.5 0 0 1 9.7-10.449 28.24 28.24 0 0 0 53.058 0 10.5 10.5 0 0 1 9.7 10.449 2.5 2.5 0 0 0 5 0 15.5 15.5 0 0 0 -13.4-15.332 28.194 28.194 0 0 0 .416-4.8zm-28.238-40.554a23.245 23.245 0 0 1 19.984 11.4 2.473 2.473 0 0 0 -.194.964 19.79 19.79 0 1 1 -39.58 0 2.473 2.473 0 0 0 -.194-.964 23.245 23.245 0 0 1 19.984-11.4zm-23.238 45.5v-22.264c0-.678.035-1.349.093-2.013a24.847 24.847 0 0 0 20.645 15.8v31.576a23.271 23.271 0 0 1 -20.738-23.101zm25.738 23.1v-31.576a24.847 24.847 0 0 0 20.645-15.8c.058.664.093 1.335.093 2.013v22.261a23.271 23.271 0 0 1 -20.738 23.102z"/><path d="m128 67.149a2.5 2.5 0 0 1 -2.5-2.5v-43.666a2.5 2.5 0 0 1 5 0v43.666a2.5 2.5 0 0 1 -2.5 2.5z"/><path d="m128 237.517a2.5 2.5 0 0 1 -2.5-2.5v-43.666a2.5 2.5 0 0 1 5 0v43.666a2.5 2.5 0 0 1 -2.5 2.5z"/><path d="m235.017 130.5h-43.666a2.5 2.5 0 0 1 0-5h43.666a2.5 2.5 0 0 1 0 5z"/><path d="m64.649 130.5h-43.666a2.5 2.5 0 0 1 0-5h43.666a2.5 2.5 0 0 1 0 5z"/></g></svg>