<svg id="Layer_1" enable-background="new 0 0 64 64" viewBox="0 0 64 64" xmlns="http://www.w3.org/2000/svg"><g><path d="m36.945 12.75c.624-.34 1.055-.993 1.055-1.75 0-1.1-.9-2-2-2h-1s4-2 4-6c0-3-3.134-3-7-3s-7 0-7 3c0 4 4 6 4 6h-1c-1.1 0-2 .9-2 2 0 .803.482 1.495 1.17 1.812-5.6 2.036-8.17 7.626-8.17 13.188v10c0 2.206 1.794 4 4 4h18c2.206 0 4-1.794 4-4v-10c0-6.928-2.883-11.541-8.055-13.25z" fill="#ffb655"/><g><g><g><path d="m57 34c-1.105 0-2 .896-2 2v9l-5 5c-.829.829-2.172.829-3 0-.829-.829-.829-2.171 0-3l2.414-2.586c.781-.781.781-2.047 0-2.828-.78-.781-2.048-.781-2.828 0l-6 6c-.375.375-.586.884-.586 1.414v15h9v-7.172l9.414-9.414c.375-.375.586-.884.586-1.414v-10c0-1.104-.896-2-2-2z" fill="#0aa0ecf2"/></g><g><path d="m7 34c1.104 0 2 .896 2 2v9l5 5c.829.829 2.172.829 3 0 .829-.829.829-2.171 0-3l-2.414-2.586c-.781-.781-.781-2.047 0-2.828.78-.781 2.048-.781 2.828 0l6 6c.375.375.586.884.586 1.414v15h-9v-7.172l-9.414-9.414c-.375-.375-.586-.884-.586-1.414v-10c0-1.104.895-2 2-2z" fill="#0aa0ecf2"/></g></g><path d="m33 26h-2c-.551 0-1-.448-1-1s.449-1 1-1h3c.552 0 1-.447 1-1s-.448-1-1-1h-1c0-.553-.448-1-1-1s-1 .447-1 1c-1.654 0-3 1.346-3 3s1.346 3 3 3h2c.551 0 1 .448 1 1s-.449 1-1 1h-3c-.552 0-1 .447-1 1s.448 1 1 1h1c0 .553.448 1 1 1s1-.447 1-1c1.654 0 3-1.346 3-3s-1.346-3-3-3z" fill="#00969b"/></g><g><path d="m36 9h-1s4-2 4-6c0-3-3.134-3-7-3s-7 0-7 3c0 4 4 6 4 6h-1c-1.1 0-2 .9-2 2s.9 2 2 2h8c1.1 0 2-.9 2-2s-.9-2-2-2z" fill="#ffb655"/></g><g><path d="m38 11c0 1.1-.9 2-2 2h-8c-1.1 0-2-.9-2-2 0-1.1.9-2 2-2h8c1.1 0 2 .9 2 2z" fill="#00969b"/></g></g></svg>