<svg id="Capa_1" enable-background="new 0 0 612 612" viewBox="0 0 612 612" xmlns="http://www.w3.org/2000/svg" fill="#f29a00"><g><g><g><path d="m306.021 612c-168.727 0-306.007-137.274-306.018-306.006 0-168.725 137.269-305.994 305.994-305.994s306 137.269 306 305.994-137.257 306.006-305.976 306.006zm-.024-583.614c-153.068 0-277.608 124.541-277.608 277.608.012 153.08 124.552 277.614 277.62 277.614h.012c153.067 0 277.598-124.54 277.598-277.614-.002-153.068-124.542-277.608-277.622-277.608z"/><g><path d="m306.009 446.346-105.13-90.591c-5.938-5.115-6.603-14.074-1.487-20.012 5.121-5.938 14.08-6.599 20.012-1.488l86.605 74.627 86.594-74.627c5.934-5.108 14.902-4.45 20.013 1.488 5.114 5.938 4.45 14.896-1.487 20.012z"/><path d="m306.009 441.804c-7.84 0-14.193-6.353-14.193-14.191v-243.224c0-7.84 6.353-14.193 14.193-14.193s14.192 6.353 14.192 14.193v243.222c0 7.84-6.352 14.193-14.192 14.193z"/></g></g></g></g></svg>