<?xml version="1.0" encoding="iso-8859-1"?>
<!-- Generator: Adobe Illustrator 19.0.0, SVG Export Plug-In . SVG Version: 6.00 Build 0)  -->
<svg version="1.1" id="Capa_1" xmlns="http://www.w3.org/2000/svg" xmlns:xlink="http://www.w3.org/1999/xlink" x="0px" y="0px"
	 viewBox="0 0 490.667 490.667" style="enable-background:new 0 0 490.667 490.667;" xml:space="preserve">
<path style="fill:#49AAEE;" d="M448,138.667V448c0,23.573-19.093,42.667-42.667,42.667h-320c0,0-42.667,0-42.667-42.667V42.667
	C42.667,19.093,61.76,0,85.333,0h224v96c0,23.573,19.093,42.667,42.667,42.667H448z"/>
<path style="fill:#3398D6;" d="M448,138.667h-96c-23.573,0-42.667-19.093-42.667-42.667V0L448,138.667z"/>
<path style="fill:#FFFFFF;" d="M352,213.333c17.707,0,32,14.293,32,32v149.333c0,17.707-14.293,32-32,32H138.667
	c-17.707,0-32-14.293-32-32V245.333c0-17.707,14.293-32,32-32H352z"/>
<path style="fill:#49AAEE;" d="M195.125,338.208l42.656,42.656c0.981,0.992,2.165,1.771,3.477,2.315
	c2.603,1.077,5.547,1.077,8.149,0c1.312-0.544,2.485-1.323,3.477-2.315l42.656-42.656c4.171-4.171,4.171-10.912,0-15.083
	s-10.912-4.171-15.083,0L256,347.584V213.333h-21.333v134.251l-24.459-24.459c-2.08-2.08-4.811-3.125-7.541-3.125
	c-2.731,0-5.461,1.045-7.541,3.125C190.955,327.296,190.955,334.037,195.125,338.208L195.125,338.208z"/>
<g>
</g>
<g>
</g>
<g>
</g>
<g>
</g>
<g>
</g>
<g>
</g>
<g>
</g>
<g>
</g>
<g>
</g>
<g>
</g>
<g>
</g>
<g>
</g>
<g>
</g>
<g>
</g>
<g>
</g>
</svg>
