<?xml version="1.0" encoding="iso-8859-1"?>
<!-- Generator: Adobe Illustrator 19.0.0, SVG Export Plug-In . SVG Version: 6.00 Build 0)  -->
<svg version="1.1" id="Capa_1" xmlns="http://www.w3.org/2000/svg" xmlns:xlink="http://www.w3.org/1999/xlink"
	 viewBox="0 0 60 60" style="enable-background:new 0 0 60 60;" xml:space="preserve" fill="#0aa0ecf2">
<g>
	<path d="M0,0.5v59h60v-59H0z M58,57.5H2v-55h56V57.5z"/>
	<path d="M6.658,47.439C6.771,47.48,6.887,47.5,7,47.5c0.408,0,0.792-0.252,0.939-0.658L12.064,35.5h13.873l4.124,11.342
		C30.208,47.248,30.592,47.5,31,47.5c0.113,0,0.229-0.02,0.342-0.061c0.519-0.188,0.787-0.762,0.598-1.281l-12-33
		c-0.005-0.014-0.017-0.023-0.022-0.036c-0.027-0.066-0.07-0.122-0.111-0.181c-0.034-0.049-0.062-0.101-0.104-0.143
		c-0.042-0.042-0.094-0.07-0.143-0.104c-0.059-0.041-0.115-0.083-0.181-0.11c-0.014-0.006-0.023-0.017-0.037-0.023
		c-0.044-0.016-0.089-0.01-0.133-0.02c-0.07-0.015-0.137-0.031-0.21-0.031c-0.07,0-0.134,0.016-0.201,0.03
		c-0.047,0.01-0.093,0.004-0.139,0.021c-0.015,0.005-0.024,0.017-0.038,0.023c-0.064,0.026-0.118,0.068-0.175,0.107
		c-0.051,0.035-0.105,0.064-0.148,0.107c-0.041,0.041-0.069,0.092-0.102,0.141c-0.042,0.06-0.084,0.116-0.112,0.183
		c-0.006,0.013-0.017,0.022-0.022,0.036l-12,33C5.871,46.678,6.14,47.251,6.658,47.439z M12.791,33.5L19,16.425L25.209,33.5H12.791z
		"/>
	<path d="M35.644,47.435C35.761,47.479,35.882,47.5,36,47.5c0.402,0,0.782-0.245,0.935-0.644l2.802-7.356h8.526l2.802,7.356
		C51.218,47.255,51.598,47.5,52,47.5c0.118,0,0.239-0.021,0.356-0.065c0.516-0.196,0.774-0.774,0.578-1.291l-8-21
		c-0.004-0.009-0.012-0.015-0.016-0.024c-0.029-0.07-0.076-0.128-0.12-0.19c-0.032-0.045-0.056-0.095-0.094-0.133
		c-0.041-0.041-0.096-0.067-0.144-0.101c-0.059-0.041-0.114-0.087-0.181-0.114c-0.009-0.004-0.015-0.011-0.024-0.015
		c-0.047-0.018-0.095-0.013-0.143-0.024c-0.071-0.016-0.14-0.036-0.214-0.036c-0.075,0-0.145,0.02-0.217,0.036
		c-0.046,0.01-0.093,0.006-0.139,0.023c-0.009,0.003-0.014,0.011-0.023,0.014c-0.07,0.029-0.129,0.076-0.191,0.121
		c-0.045,0.032-0.096,0.056-0.134,0.094c-0.04,0.04-0.065,0.092-0.098,0.139c-0.042,0.06-0.089,0.117-0.117,0.185
		c-0.004,0.009-0.012,0.015-0.016,0.025l-8,21C34.869,46.66,35.128,47.238,35.644,47.435z M40.499,37.5L44,28.31l3.501,9.19H40.499z
		"/>
	<path d="M43.292,21.206c0.092,0.093,0.203,0.166,0.326,0.217C43.74,21.474,43.87,21.5,44,21.5s0.26-0.026,0.382-0.077
		c0.123-0.051,0.234-0.124,0.326-0.217l4.999-4.999c0.391-0.391,0.391-1.023,0-1.414s-1.023-0.391-1.414,0L45,18.086V10.5
		c0-0.553-0.447-1-1-1s-1,0.447-1,1v7.586l-3.293-3.293c-0.391-0.391-1.023-0.391-1.414,0s-0.391,1.023,0,1.414L43.292,21.206z"/>
</g>
<g>
</g>
<g>
</g>
<g>
</g>
<g>
</g>
<g>
</g>
<g>
</g>
<g>
</g>
<g>
</g>
<g>
</g>
<g>
</g>
<g>
</g>
<g>
</g>
<g>
</g>
<g>
</g>
<g>
</g>
</svg>
