<svg width="12" height="12" viewBox="0 0 12 12" fill="none" xmlns="http://www.w3.org/2000/svg">
<rect x="0.5" y="0.5" width="9.5" height="8.88235" rx="1.5" stroke="black"/>
<path d="M11.9778 9.3123C11.9115 9.46219 11.7437 9.56126 11.5563 9.56126H9.58499L10.4327 11.0823C10.6109 11.4021 10.452 11.7849 10.0776 11.9374C9.70308 12.0899 9.25493 11.954 9.07658 11.6341L8.20225 10.063L6.79416 11.4787C6.70703 11.5664 6.5807 11.6143 6.45096 11.6143C6.39875 11.6143 6.34624 11.6065 6.29549 11.5907C6.11792 11.5356 6 11.3912 6 11.2148V5.32639C6 5.175 6.10384 5.03717 6.2651 4.97493C6.42712 4.91317 6.61637 4.9374 6.74854 5.03717L11.8383 8.88705C11.9966 8.99309 12.0285 9.16152 11.9778 9.3123Z" fill="black"/>
</svg>
