<svg id="Layer_2" data-name="Layer 2" xmlns="http://www.w3.org/2000/svg" viewBox="0 0 64 64"><path d="M60.78,53.31c1.66-7.05-5.56-13.47-12.36-11.1L21.79,15.58c2.35-6.79-3.95-13.91-11-12.4a1,1,0,0,0-.79.88,1,1,0,0,0,.28.81l4,4L13.1,13.1,8.83,14.24l-4-4A1.1,1.1,0,0,0,4.06,10a1,1,0,0,0-.88.79c-1.55,7,5.7,13.41,12.42,11L42.21,48.42c-2.36,6.79,4,13.91,11,12.4a1,1,0,0,0,.79-.88,1,1,0,0,0-.28-.81l-4-4L50.9,50.9l4.27-1.14,4,4a1.29,1.29,0,0,0,.71.3h0A1,1,0,0,0,60.78,53.31Zm-5.57-5.63-5.38,1.44a1,1,0,0,0-.71.71l-1.44,5.38a1,1,0,0,0,.26,1L50.73,59a7.68,7.68,0,0,1-6.46-10.44.89.89,0,0,0,0-.58.78.78,0,0,0-.25-.51L16.57,20a.89.89,0,0,0-.53-.26.9.9,0,0,0-.56,0A7.67,7.67,0,0,1,5,13.27l2.78,2.79a1,1,0,0,0,.71.29,1.15,1.15,0,0,0,.26,0l5.38-1.44a1,1,0,0,0,.71-.71l1.44-5.38a1,1,0,0,0-.26-1L13.27,5a7.68,7.68,0,0,1,6.46,10.44.89.89,0,0,0,0,.58.78.78,0,0,0,.25.51L47.43,44.05a.83.83,0,0,0,.51.25.89.89,0,0,0,.58,0A7.67,7.67,0,0,1,59,50.73l-2.78-2.79A1,1,0,0,0,55.21,47.68Z"/><path d="M35.18,25a1,1,0,0,0,.71-.3l7.86-7.86h0A1.08,1.08,0,0,0,44,15.78c-2.6-7.1,6.33-12.84,11.71-7.5s-.4,14.31-7.5,11.71a1.1,1.1,0,0,0-1.08.25h0l-7.86,7.86a1,1,0,0,0,1.41,1.41l7.46-7.45c9,2.57,15.59-8.52,9-15.21s-17.75,0-15.19,9l-7.47,7.47A1,1,0,0,0,35.18,25Z"/><path d="M28.11,39.28l-7.86,7.86h0A1.08,1.08,0,0,0,20,48.22c2.6,7.1-6.33,12.84-11.71,7.5s.4-14.31,7.5-11.71a1.08,1.08,0,0,0,1.07-.25h0l7.86-7.86a1,1,0,0,0-1.41-1.41L15.84,42c-9-2.56-15.56,8.5-9,15.19s17.79,0,15.19-9l7.47-7.47A1,1,0,0,0,28.11,39.28Z"/><path d="M13.92,46.51l-3.21.86a1,1,0,0,0-.71.71l-.86,3.21a1,1,0,0,0,.26,1l2.35,2.35a1,1,0,0,0,1,.26L15.92,54a1,1,0,0,0,.71-.71l.86-3.21a1,1,0,0,0-.26-1l-2.35-2.35A1,1,0,0,0,13.92,46.51Zm.93,5.71-2.1.56-1.53-1.53.56-2.1,2.1-.56,1.53,1.53Z"/><path d="M49.65,18.19a1.07,1.07,0,0,0,.25,0l3.88-1a1,1,0,0,0,.71-.71l1-3.88a1,1,0,0,0-.26-1L52.43,8.73a1,1,0,0,0-1-.26l-3.88,1a1,1,0,0,0-.71.71l-1,3.88a1,1,0,0,0,.26,1l2.84,2.84A1,1,0,0,0,49.65,18.19Zm-1-6.9,2.77-.74,2,2-.74,2.77-2.77.74-2-2Z"/></svg>