<svg width="19" height="20" viewBox="0 0 19 20" fill="none" xmlns="http://www.w3.org/2000/svg">
<path d="M11 12.2767V4.27668M11 12.2767L16.504 15.4217C16.6561 15.5085 16.8283 15.5539 17.0034 15.5533C17.1785 15.5528 17.3504 15.5062 17.5019 15.4183C17.6533 15.3304 17.7791 15.2043 17.8665 15.0526C17.9539 14.9008 17.9999 14.7288 18 14.5537V1.99968C17.9999 1.82456 17.9539 1.65253 17.8665 1.50079C17.7791 1.34905 17.6533 1.22293 17.5019 1.13505C17.3504 1.04716 17.1785 1.0006 17.0034 1.00001C16.8283 0.999414 16.6561 1.04482 16.504 1.13168L11 4.27668M11 12.2767H8M11 4.27668H5C3.93913 4.27668 2.92172 4.6981 2.17157 5.44825C1.42143 6.1984 1 7.21581 1 8.27668V8.27668C1 9.33754 1.42143 10.355 2.17157 11.1051C2.92172 11.8552 3.93913 12.2767 5 12.2767M5 12.2767V16.7767C5 17.1745 5.15804 17.556 5.43934 17.8373C5.72064 18.1186 6.10218 18.2767 6.5 18.2767C6.89782 18.2767 7.27936 18.1186 7.56066 17.8373C7.84196 17.556 8 17.1745 8 16.7767V12.2767M5 12.2767H8" stroke="#9D9D9D" stroke-width="2" stroke-linecap="round" stroke-linejoin="round"/>
</svg>
