<svg viewBox="0 0 448 448" xmlns="http://www.w3.org/2000/svg"><path d="m106.667969 149.332031h-106.667969v-106.664062h21.332031v85.332031h85.335938zm0 0"/><path d="m224 448c-123.464844 0-224-100.535156-224-224h21.332031c0 111.734375 90.933594 202.667969 202.667969 202.667969s202.667969-90.933594 202.667969-202.667969-90.933594-202.667969-202.667969-202.667969c-55.199219 0-106.933594 21.867188-145.332031 61.46875l-60.269531 63.199219-15.464844-14.667969 60.265625-63.332031c42.667969-43.867188 99.734375-68 160.800781-68 123.464844 0 224 100.535156 224 224s-100.535156 224-224 224zm0 0"/><path d="m224 298.667969c-41.199219 0-74.667969-33.46875-74.667969-74.667969s33.46875-74.667969 74.667969-74.667969 74.667969 33.46875 74.667969 74.667969-33.46875 74.667969-74.667969 74.667969zm0-128c-29.464844 0-53.332031 23.867187-53.332031 53.332031s23.867187 53.332031 53.332031 53.332031 53.332031-23.867187 53.332031-53.332031-23.867187-53.332031-53.332031-53.332031zm0 0"/></svg>