<svg id="Layer_1" enable-background="new 0 0 66 66" viewBox="0 0 66 66" xmlns="http://www.w3.org/2000/svg"><g><g><g><path d="m45.9435 29.2653-7.206-4.3412c-.0085-.0051-.0191-.0053-.0278-.0005l-7.3587 4.077c-.021.0116-.0459-.0071-.0405-.0305l1.9019-8.1948c.0022-.0097-.0008-.0198-.0081-.0265l-6.1514-5.7387c-.0176-.0164-.0074-.0458.0165-.0479l8.3814-.7235c.0099-.0009.0186-.0069.0228-.0159l3.5569-7.6237c.0102-.0218.0413-.0212.0507.0009l3.2781 7.7476c.0039.0091.0123.0155.0222.0167l8.3497 1.027c.0238.0029.0329.0327.0148.0485l-6.3555 5.5118c-.0075.0065-.0109.0165-.0091.0262l1.6035 8.2584c.0047.0237-.0208.0415-.0414.0291z"/></g></g><path d="m59.462 25.4955 1.3401 6.9c0 .02-.02.04-.04.03l-6.01-3.63h-.03l-6.1399 3.41c-.02.01-.04-.01-.04-.03l1.5901-6.84c0-.01 0-.02-.01-.03l-3.5-3.27-.0601-.32 1.76-1.52 3.6799-.32c.01-.01.02-.01.02-.02l2.97-6.37c.01-.0099.03-.0099.04.01l2.74 6.47s.01.01.02.01l6.97.86c.02 0 .03.03.02.04l-5.3101 4.6c-.01.01-.01.02-.01.02z"/><path d="m27.4521 25.4755c-.01.0099-.01.02-.01.02l1.34 6.9c.01.02-.02.04-.03.03l-6.02-3.63c-.01 0-.02 0-.02 0l-6.1499 3.41c-.02.01-.04-.01-.03-.03l1.5801-6.84c.01-.01 0-.02 0-.03l-5.1401-4.79c-.0199-.01-.01-.04.01-.04l7-.6c.01-.01.02-.01.02-.02l2.97-6.37c.01-.0099.04-.0099.05.01l2.73 6.47c.01 0 .01.01.02.01l4.23.52 1.01.94-.28 1.2z"/><g><path d="m40.3888 46.7729h-8.4805v2.0381h9.0595c1.8343 0 3.3832-1.2432 3.8418-2.9349l10.904-4.6163c2.9859-1.2534 6.4099.2446 7.5003 3.2814l-26.0676 13.8083c-2.1808 1.1516-4.7285 1.3859-7.0825.6318l-12.3308-3.9642h-3.1998v-17.426h5.6939c1.0588 0 2.1054.2258 3.07.6624l6.9806 3.1591c.4382.1936.907.2955 1.386.2955h8.725c1.3986 0 2.5324 1.1338 2.5324 2.5324 0 1.3986-1.1338 2.5324-2.5323 2.5324z"/><g><path d="m11.476 34.9822h-10.262v23.673h10.262c.5605 0 1.0191-.4586 1.0191-1.0191v-21.6348c0-.5707-.4586-1.0191-1.0191-1.0191zm-4.117 19.8923c-.8051 0-1.4573-.6522-1.4573-1.4573 0-.8152.6522-1.4675 1.4573-1.4675.8152 0 1.4675.6522 1.4675 1.4675-.0001.805-.6523 1.4573-1.4675 1.4573z"/></g></g></g></svg>