<svg id="Layer_1" data-name="Layer 1" xmlns="http://www.w3.org/2000/svg" viewBox="0 0 96 96"><defs><style>.cls-1{fill:#fff;}.cls-2{fill:#dd3a3a;}.cls-3{fill:black;}.cls-4{fill:#dd3a3a;}.cls-5{fill:#dd3a3a;}</style></defs><title>with_record</title><ellipse class="cls-1" cx="47.98" cy="48.06" rx="45" ry="45.06"/><path class="cls-2" d="M34.4,68.42a.37.37,0,0,1-.27-.62l1-1a.36.36,0,1,1,.52.5l-1,1A.4.4,0,0,1,34.4,68.42Z"/><path class="cls-2" d="M37.33,65.4a.39.39,0,0,1-.25-.1.37.37,0,0,1,0-.52l1.92-2a.36.36,0,1,1,.52.5l-1.92,2A.38.38,0,0,1,37.33,65.4Zm3.85-4a.36.36,0,0,1-.26-.11.37.37,0,0,1,0-.51l1.93-2a.37.37,0,0,1,.51,0,.37.37,0,0,1,0,.52l-1.92,2A.38.38,0,0,1,41.18,61.45Zm3.84-4a.35.35,0,0,1-.25-.1.35.35,0,0,1,0-.51l1.92-2a.36.36,0,1,1,.52.51l-1.92,2A.34.34,0,0,1,45,57.49Zm3.85-4a.4.4,0,0,1-.26-.1.37.37,0,0,1,0-.52l1.93-2a.35.35,0,0,1,.51,0,.36.36,0,0,1,0,.51l-1.92,2A.4.4,0,0,1,48.87,53.54Zm3.84-3.95a.36.36,0,0,1-.25-.11.35.35,0,0,1,0-.51l1.92-2a.36.36,0,0,1,.51,0,.35.35,0,0,1,0,.51l-1.92,2A.38.38,0,0,1,52.71,49.59Zm3.84-4a.35.35,0,0,1-.25-.1.36.36,0,0,1,0-.51l1.92-2a.37.37,0,0,1,.52,0,.37.37,0,0,1,0,.52l-1.92,2A.36.36,0,0,1,56.55,45.63Z"/><path class="cls-2" d="M60.4,41.68a.42.42,0,0,1-.26-.1.37.37,0,0,1,0-.52l1-1a.37.37,0,0,1,.52,0,.37.37,0,0,1,0,.52l-1,1A.38.38,0,0,1,60.4,41.68Z"/><path class="cls-3" d="M82.65,29.59a13.2,13.2,0,0,1-3.39-2.26L36.41,69.82a5.85,5.85,0,0,0,5.39-.46,34.16,34.16,0,0,0,6-5.33c1.82,2,3.16,3.29,4.34,4.74a4.86,4.86,0,0,0,4.26,1.8c5.3-.12,10.61,0,15.92,0,.56,0,1.12-.11,2.24-.23-2.45-2.41-2.94-2.9-16.43-16.24C65.89,46.27,74.84,37.4,82.65,29.59Z"/><path class="cls-4" d="M48,1.06A46.73,46.73,0,0,0,18.91,11.17l-.1.08c-.46.37-.91.74-1.36,1.13l-.71.61-.67.62q-.64.59-1.26,1.2l-.05,0A46.91,46.91,0,0,0,15.32,82V81.8A47,47,0,1,0,48,1.06Zm0,90.37a43.08,43.08,0,0,1-29.49-11.7L59.6,38.8c-5.53-2.34-8.22,2.64-11.78,5.21-1.51-1.56-2.93-2.9-4.2-4.37A4.53,4.53,0,0,0,39.74,38c-5.38.1-10.76,0-16.14.06a12.7,12.7,0,0,0-1.63.18c-.12.21-.24.42-.35.63L37.8,54.82,15.7,76.87l-.38-.42V34a6.3,6.3,0,0,1,3-5.24L44.56,11.77a7.26,7.26,0,0,1,7.88,0l26.24,17a6.3,6.3,0,0,1,3,5.24V75.23A43.19,43.19,0,0,1,48,91.43Z"/><ellipse class="cls-5" cx="48.13" cy="25.06" rx="7.36" ry="7.37"/><path class="cls-2" d="M48.13,33.12a8.07,8.07,0,1,1,8-8.06A8.06,8.06,0,0,1,48.13,33.12Zm0-14.74a6.68,6.68,0,1,0,6.67,6.68A6.68,6.68,0,0,0,48.13,18.38Z"/></svg>