<?xml version="1.0" encoding="iso-8859-1"?>
<!-- Generator: Adobe Illustrator 19.0.0, SVG Export Plug-In . SVG Version: 6.00 Build 0)  -->
<svg version="1.1" id="Layer_1" xmlns="http://www.w3.org/2000/svg" xmlns:xlink="http://www.w3.org/1999/xlink"
	 viewBox="85 90 338 338" xml:space="preserve">

<path style="fill:black;" d="M381.2,226.2c-3.4-15.4-9.4-29.8-17.6-42.6l19.6-28.8L372,143.6l-7.8-7.8L353,124.6l-28.8,19.6
	c-12.8-8.2-27.2-14.4-42.6-17.6l-6.4-34.2h-15.8h-11h-15.8l-6.4,34.2c-15.4,3.4-29.8,9.4-42.6,17.6l-28.8-19.6l-11,11.4l-7.8,7.8
	L124.8,155l19.6,28.8c-8.2,12.8-14.4,27.2-17.6,42.6l-34.2,6.4v15.8v11v15.8l34.2,6.4c3.4,15.4,9.4,29.8,17.6,42.6l-19.6,28.8
	l11.2,11.2l7.8,7.8l11.2,11.2l28.8-19.6c12.8,8.2,27.2,14.4,42.6,17.6l6.4,34.2h15.8h11h15.8l6.4-34.2c15.4-3.4,29.8-9.4,42.6-17.6
	l28.8,19.6l11.2-11.2l7.8-7.8l11.2-11.2l-19.6-28.8c8.2-12.8,14.4-27.2,17.6-42.6l34.2-6.4v-15.8v-11v-15.8L381.2,226.2z M254,300.6
	c-25.8,0-46.6-20.8-46.6-46.6s20.8-46.6,46.6-46.6s46.6,20.8,46.6,46.6S279.8,300.6,254,300.6z"/>
<path style="fill:#ffffff;" d="M254,158c-53,0-96,43-96,96s43,96,96,96s96-43,96-96S307,158,254,158z M254,309.6
	c-30.8,0-55.6-25-55.6-55.6s25-55.6,55.6-55.6s55.6,25,55.6,55.6S284.8,309.6,254,309.6z"/>
<g>
</g>
<g>
</g>
<g>
</g>
<g>
</g>
<g>
</g>
<g>
</g>
<g>
</g>
<g>
</g>
<g>
</g>
<g>
</g>
<g>
</g>
<g>
</g>
<g>
</g>
<g>
</g>
<g>
</g>
</svg>
