<svg xmlns="http://www.w3.org/2000/svg" width="32" height="32" fill="none"><g clip-path="url(#teams_svg__a)"><rect width="26.4" height="26.4" y="5.6" fill="#C6CBDE" rx="5"/><rect width="26.4" height="26.4" x="4.8" y=".8" fill="#fff" stroke="#4D536E" rx="5"/><path fill="#7B83EB" d="M18.2 10.4a2.8 2.8 0 1 0 0-5.6 2.8 2.8 0 0 0 0 5.6Z"/><path fill="#000" fill-opacity=".098" d="M18 8.2h-2.536l.012.055.001.004.012.052a2.815 2.815 0 0 0 3.308 2.023V8.999a.805.805 0 0 0-.797-.8Z"/><path fill="#000" fill-opacity=".2" d="M17.4 8.8h-1.731c.462.975 1.45 1.6 2.53 1.6v-.8a.807.807 0 0 0-.8-.8Z"/><path fill="#5059C9" d="M24.498 10.6a2.1 2.1 0 1 0 0-4.2 2.1 2.1 0 0 0 0 4.2Zm1.801.6h-4.716a.385.385 0 0 0-.383.383v4.866a3.081 3.081 0 0 0 2.38 3.05c.203.043.409.064.616.064a3.018 3.018 0 0 0 3.004-3v-4.464a.907.907 0 0 0-.901-.9Z"/><path fill="#7B83EB" d="M22.999 12.1v5.7c0 2.631-2.165 4.796-4.797 4.796a4.801 4.801 0 0 1-4.155-2.4 4.385 4.385 0 0 1-.498-1.2 4.97 4.97 0 0 1-.15-1.2v-5.698c0-.494.406-.9.899-.9h7.801c.493 0 .9.406.9.9Z"/><path fill="#000" fill-opacity=".2" d="M17.4 8.8h-1.731c.462.975 1.45 1.6 2.53 1.6v-.8a.807.807 0 0 0-.8-.8Z"/><path fill="#000" fill-opacity=".098" d="M18.799 11.2v7.6a.793.793 0 0 1-.624.774.558.558 0 0 1-.175.026h-4.254a4.996 4.996 0 0 1-.198-.6 4.97 4.97 0 0 1-.15-1.2v-5.7c0-.494.406-.9.899-.9h4.5Z"/><path fill="#000" fill-opacity=".2" d="M18.2 11.2v8.2a.585.585 0 0 1-.024.175.794.794 0 0 1-.774.623h-3.355a4.385 4.385 0 0 1-.498-1.2 4.97 4.97 0 0 1-.15-1.2v-5.699c0-.494.406-.9.899-.9h3.901Zm0 0v7a.805.805 0 0 1-.798.798h-3.853a4.97 4.97 0 0 1-.15-1.2v-5.7c0-.494.406-.9.899-.9h3.901Zm-3.9 0h-.001a.903.903 0 0 0-.9.899v5.7c.002.405.052.808.15 1.2h3.252a.805.805 0 0 0 .798-.797V11.2h-3.3Z"/><path fill="#4B53BC" d="M8.8 8.8h7.999c.439 0 .8.361.8.8v7.999c0 .439-.362.8-.8.8h-8a.803.803 0 0 1-.799-.8v-8c0-.438.361-.8.8-.8Z"/><path fill="#fff" d="M15.187 11.784h-1.793v4.812h-1.178v-4.812h-1.804v-1.182h4.775v1.182Z"/></g><defs><clipPath id="teams_svg__a"><path fill="#fff" d="M0 0h32v32H0z"/></clipPath></defs></svg>