<svg xmlns="http://www.w3.org/2000/svg" width="61" height="63" fill="none"><rect width="40.49" height="46.038" x="1" y="15.962" fill="url(#onboarding-popup-with-reminder_svg__a)" stroke="#0E101A" rx="6"/><rect width="40.49" height="46.038" x="7.941" y="9.057" fill="#F9FAFF" stroke="#0E101A" rx="6"/><path stroke="#000" stroke-linecap="round" d="M17.196 27.472h21.98m-21.98 9.208h21.98m-21.98 9.207h21.98"/><path fill="#15C39A" fill-rule="evenodd" stroke="#1F243C" d="M60 12.51c0 6.356-5.18 11.509-11.569 11.509-6.389 0-11.568-5.153-11.568-11.51C36.863 6.153 42.043 1 48.43 1 54.821 1 60 6.153 60 12.51Z" clip-rule="evenodd"/><path fill="#fff" fill-rule="evenodd" d="M49.944 14.994c.068.377.424.635.809.635h1.212l.703-.098c-1.124 1.641-3.076 2.396-5.21 2.063-1.738-.271-3.23-1.44-3.86-3.074-1.43-3.708 1.292-7.247 4.839-7.247 1.848 0 3.47 1.104 4.4 2.404a.79.79 0 0 0 1.09.21.769.769 0 0 0 .234-1.025 6.799 6.799 0 0 0-6.194-3.1c-3.382.225-6.12 2.979-6.314 6.346-.226 3.918 2.898 7.117 6.784 7.117a6.74 6.74 0 0 0 5.113-2.315l-.147.821v.742c0 .382.259.737.637.805a.784.784 0 0 0 .93-.767v-4.442h-4.256c-.48 0-.86.43-.77.925Z" clip-rule="evenodd"/><defs><linearGradient id="onboarding-popup-with-reminder_svg__a" x1="1" x2="44.713" y1="15.962" y2="64.525" gradientUnits="userSpaceOnUse"><stop stop-color="#9F9AE9"/><stop offset="1" stop-color="#4A6EE0"/></linearGradient></defs></svg>