<svg width="19" height="20" viewBox="0 0 19 20" fill="none" xmlns="http://www.w3.org/2000/svg">
<g clip-path="url(#clip0_3025_25637)">
<path d="M8.72281 3.19697C8.7006 3.19846 8.67819 3.19922 8.6556 3.19922C8.62734 3.19922 8.59934 3.19803 8.57167 3.19571C8.54038 3.19869 8.50866 3.20022 8.47659 3.20022C8.45588 3.20022 8.43532 3.19958 8.41493 3.19833C8.37644 3.20288 8.33728 3.20522 8.29757 3.20522C8.28489 3.20522 8.27227 3.20498 8.25971 3.20451C8.21424 3.21091 8.16778 3.21422 8.12056 3.21422C8.11755 3.21422 8.11455 3.2142 8.11155 3.21418C8.06002 3.22294 8.00715 3.22772 7.95325 3.22818C7.90389 3.23745 7.85324 3.24306 7.8016 3.24471C7.7548 3.25463 7.70678 3.26124 7.6578 3.26428C7.60735 3.27654 7.5554 3.28493 7.50227 3.28912C7.45451 3.3016 7.40535 3.31061 7.35507 3.31585C7.30807 3.32935 7.25964 3.33947 7.21008 3.34591C7.16154 3.36115 7.11141 3.37276 7.05999 3.3804C7.01517 3.39538 6.96892 3.40724 6.92152 3.41572C6.87434 3.43306 6.82549 3.44691 6.77528 3.45696C6.73046 3.47443 6.68407 3.48873 6.63637 3.49958C6.58994 3.51905 6.54173 3.53508 6.49205 3.54736C6.44827 3.56668 6.40284 3.58292 6.35603 3.5958C6.31137 3.6169 6.26489 3.63476 6.2169 3.64907C6.17368 3.67057 6.12868 3.68901 6.08219 3.70409C6.03857 3.72713 5.99304 3.74701 5.9459 3.76342C5.90297 3.78723 5.85811 3.80795 5.8116 3.82527C5.77079 3.84902 5.72815 3.86994 5.68394 3.88777C5.64234 3.91348 5.59871 3.9362 5.55336 3.95563C5.5138 3.98124 5.47232 4.00411 5.42918 4.02396C5.38757 4.05249 5.3437 4.07793 5.29789 4.09995C5.25955 4.12715 5.21921 4.15168 5.17714 4.1733C5.1369 4.20347 5.09432 4.23066 5.04972 4.25454C5.01257 4.28335 4.97333 4.30958 4.93227 4.33296C4.89436 4.36401 4.85413 4.39231 4.81188 4.41755C4.77622 4.44793 4.7384 4.47583 4.69869 4.50098C4.66144 4.53447 4.62165 4.56518 4.57967 4.59278C4.54617 4.62392 4.51053 4.65276 4.473 4.67907C4.43736 4.71424 4.39909 4.74673 4.35852 4.77621C4.32448 4.81093 4.28794 4.84316 4.24919 4.8726C4.21584 4.90811 4.17994 4.94116 4.14178 4.97147C4.10926 5.00756 4.07414 5.04126 4.03674 5.07226C4.00682 5.10694 3.97456 5.13952 3.94022 5.16976C3.90771 5.20975 3.87218 5.24715 3.83398 5.28163C3.80552 5.31756 3.77466 5.35149 3.74162 5.38315C3.71168 5.42335 3.67879 5.46121 3.64329 5.4964C3.61559 5.53494 3.58522 5.57141 3.55246 5.60554C3.52502 5.64584 3.49472 5.68401 3.46185 5.71977C3.43532 5.76057 3.40591 5.79929 3.3739 5.83566C3.34882 5.8761 3.32095 5.91461 3.29055 5.95091C3.26496 5.99461 3.23615 6.03619 3.20447 6.07531C3.18121 6.11659 3.15513 6.15605 3.12647 6.19341C3.10356 6.23669 3.07758 6.27808 3.04882 6.31728C3.02719 6.36035 3.00256 6.40164 2.97519 6.44086C2.95374 6.48639 2.92897 6.53003 2.9012 6.57146C2.88097 6.61647 2.85753 6.65971 2.83117 6.70088C2.81286 6.74409 2.79161 6.78574 2.76768 6.82557C2.74865 6.87447 2.72589 6.92149 2.69977 6.96629C2.68357 7.00961 2.66446 7.05149 2.64268 7.0917C2.62605 7.14083 2.60572 7.18824 2.58202 7.23359C2.56702 7.28035 2.54869 7.3256 2.5273 7.36906C2.51376 7.41499 2.49702 7.45953 2.47734 7.50243C2.46422 7.55216 2.44738 7.60036 2.42714 7.64673C2.41539 7.69481 2.40018 7.74153 2.38179 7.78659C2.37086 7.83639 2.35625 7.88479 2.33824 7.9315C2.32863 7.98009 2.31551 8.02741 2.29917 8.07318C2.29068 8.12273 2.27856 8.17104 2.2631 8.21781C2.25553 8.26925 2.24407 8.31942 2.22902 8.368C2.22287 8.4165 2.21326 8.46392 2.20045 8.50999C2.19532 8.56262 2.18613 8.61406 2.1732 8.66397C2.16916 8.71482 2.16134 8.7646 2.15001 8.81302C2.14719 8.86465 2.14047 8.91524 2.13015 8.96449C2.12851 9.01643 2.12293 9.06737 2.11371 9.11703C2.11326 9.16925 2.10883 9.22051 2.10071 9.27053C2.10078 9.27542 2.10082 9.28031 2.10082 9.28522C2.10082 9.33083 2.09778 9.37573 2.0919 9.41972C2.09254 9.43447 2.09286 9.44931 2.09286 9.46422C2.09286 9.50404 2.09055 9.54331 2.08605 9.58192C2.08727 9.60219 2.08789 9.62263 2.08789 9.64322C2.08789 9.67355 2.08654 9.70357 2.08391 9.73322C2.08654 9.76287 2.08789 9.79288 2.08789 9.82322C2.08789 9.84783 2.087 9.87223 2.08527 9.89639C2.08897 9.93149 2.09087 9.96713 2.09087 10.0032C2.09087 10.0179 2.09056 10.0325 2.08994 10.047C2.0958 10.0909 2.09883 10.1357 2.09883 10.1812C2.09883 10.1864 2.09879 10.1916 2.09871 10.1968C2.10713 10.2487 2.11158 10.3018 2.11175 10.356C2.12068 10.4057 2.12597 10.4566 2.12732 10.5086C2.13735 10.5578 2.14378 10.6084 2.14632 10.66C2.15746 10.7089 2.16503 10.7591 2.16876 10.8104C2.18088 10.8585 2.18955 10.9079 2.19448 10.9584C2.20776 11.0062 2.2176 11.0554 2.22372 11.1058C2.23865 11.155 2.24992 11.2058 2.25719 11.2579C2.27167 11.3027 2.28308 11.3489 2.29119 11.3962C2.30814 11.4437 2.32162 11.4928 2.33133 11.5433C2.34928 11.5906 2.36376 11.6397 2.37444 11.6903C2.39232 11.735 2.40708 11.7813 2.41846 11.8289C2.43769 11.8737 2.45377 11.9201 2.46641 11.968C2.48715 12.0133 2.50464 12.0603 2.51856 12.1089C2.53932 12.1519 2.55712 12.1966 2.57167 12.2428C2.59426 12.2867 2.61372 12.3324 2.62976 12.3797C2.65279 12.4223 2.67285 12.4667 2.68963 12.5127C2.71417 12.5555 2.73565 12.6003 2.75376 12.6469C2.77854 12.6881 2.80045 12.7313 2.81919 12.7762C2.84582 12.8183 2.8694 12.8625 2.88963 12.9085C2.91564 12.948 2.93895 12.9894 2.95928 13.0326C2.98756 13.0731 3.01292 13.1158 3.03506 13.1605C3.06328 13.1994 3.08877 13.2404 3.11126 13.2833C3.14017 13.3212 3.16644 13.3612 3.1898 13.4031C3.22117 13.4423 3.24967 13.4838 3.27497 13.5275C3.30493 13.5637 3.33239 13.602 3.3571 13.6422C3.3883 13.6778 3.41701 13.7158 3.44296 13.7557C3.47775 13.7935 3.50966 13.8341 3.53835 13.877C3.56986 13.9104 3.59911 13.9459 3.62584 13.9835C3.66105 14.0187 3.69366 14.0566 3.72334 14.0968C3.75636 14.1287 3.7872 14.1628 3.8156 14.199C3.8536 14.2336 3.88892 14.2711 3.92122 14.3112C3.95543 14.3416 3.98755 14.3743 4.01733 14.4091C4.05464 14.4403 4.08965 14.4742 4.12206 14.5105C4.16124 14.5418 4.19801 14.5761 4.23205 14.613C4.26831 14.641 4.3026 14.6715 4.33466 14.7042C4.37523 14.7337 4.41349 14.7662 4.44914 14.8014C4.48894 14.8293 4.52662 14.86 4.56188 14.8933C4.60126 14.9197 4.63867 14.9489 4.67383 14.9805C4.715 15.0065 4.75413 15.0356 4.79093 15.0672C4.8326 15.0924 4.87229 15.1205 4.9097 15.1514C4.95343 15.1765 4.99509 15.2049 5.03434 15.2361C5.07478 15.2585 5.11351 15.2836 5.15028 15.3111C5.19473 15.334 5.23725 15.3601 5.27752 15.3891C5.32062 15.4103 5.36197 15.4345 5.4013 15.4615C5.44446 15.4813 5.48596 15.5042 5.52554 15.5298C5.57257 15.55 5.61773 15.5737 5.66071 15.6005C5.70564 15.6189 5.74894 15.6405 5.79031 15.665C5.83588 15.6824 5.87984 15.7031 5.92192 15.7267C5.96789 15.743 6.01232 15.7626 6.05492 15.7852C6.10231 15.8007 6.14813 15.8197 6.1921 15.8419C6.23831 15.8559 6.28309 15.8733 6.32619 15.8936C6.37483 15.907 6.42198 15.924 6.46733 15.9444C6.51706 15.9569 6.56531 15.9733 6.61174 15.9931C6.65798 16.0038 6.70298 16.0179 6.7465 16.0349C6.79787 16.0453 6.8478 16.0597 6.89598 16.0777C6.94373 16.0865 6.99028 16.0987 7.03539 16.1141C7.08403 16.1217 7.1315 16.1329 7.17754 16.1473C7.22984 16.154 7.28087 16.1648 7.33031 16.1794C7.38021 16.1849 7.42899 16.1942 7.47638 16.2069C7.52697 16.2112 7.57648 16.2194 7.62463 16.2311C7.67609 16.2342 7.72649 16.2413 7.77555 16.252C7.8268 16.2539 7.87705 16.2598 7.92603 16.2693C7.97799 16.2701 8.02899 16.2748 8.07873 16.2833C8.08021 16.2832 8.08169 16.2832 8.08318 16.2832C8.08469 16.2832 8.08621 16.2832 8.08773 16.2832C8.1369 16.2832 8.18523 16.2868 8.23248 16.2937C8.2432 16.2934 8.25396 16.2932 8.26476 16.2932C8.30628 16.2932 8.3472 16.2958 8.38738 16.3007C8.40572 16.2997 8.42419 16.2992 8.44278 16.2992C8.4766 16.2992 8.51003 16.3009 8.54299 16.3042C8.56866 16.3022 8.5946 16.3012 8.62079 16.3012C8.64943 16.3012 8.67779 16.3024 8.70582 16.3048C8.73385 16.3024 8.76221 16.3012 8.79086 16.3012C8.8195 16.3012 8.84786 16.3024 8.87589 16.3048C8.90391 16.3024 8.93227 16.3012 8.96091 16.3012C8.98972 16.3012 9.01825 16.3025 9.04644 16.3049C9.07463 16.3025 9.10315 16.3012 9.13196 16.3012C9.16061 16.3012 9.18897 16.3024 9.217 16.3048C9.24503 16.3024 9.27339 16.3012 9.30203 16.3012C9.33068 16.3012 9.35904 16.3024 9.38706 16.3048C9.41509 16.3024 9.44345 16.3012 9.47209 16.3012C9.50073 16.3012 9.52909 16.3024 9.55712 16.3048C9.58515 16.3024 9.6135 16.3012 9.64215 16.3012C9.67079 16.3012 9.69915 16.3024 9.72718 16.3048C9.75521 16.3024 9.78357 16.3012 9.81221 16.3012C9.84103 16.3012 9.86955 16.3025 9.89774 16.3049C9.92593 16.3025 9.95445 16.3012 9.98327 16.3012C10.0119 16.3012 10.0403 16.3024 10.0683 16.3048C10.0963 16.3024 10.1247 16.3012 10.1533 16.3012C10.182 16.3012 10.2103 16.3024 10.2384 16.3048C10.2664 16.3024 10.2947 16.3012 10.3234 16.3012C10.352 16.3012 10.3804 16.3024 10.4084 16.3048C10.4364 16.3024 10.4648 16.3012 10.4934 16.3012C10.5221 16.3012 10.5504 16.3024 10.5785 16.3048C10.6065 16.3024 10.6349 16.3012 10.6635 16.3012C10.6921 16.3012 10.7205 16.3024 10.7485 16.3048C10.7766 16.3024 10.8049 16.3012 10.8336 16.3012C10.8624 16.3012 10.8909 16.3024 10.9191 16.3049C10.9473 16.3024 10.9758 16.3012 11.0046 16.3012C11.0333 16.3012 11.0616 16.3024 11.0897 16.3048C11.1177 16.3024 11.146 16.3012 11.1747 16.3012C11.2033 16.3012 11.2317 16.3024 11.2597 16.3048C11.2877 16.3024 11.3161 16.3012 11.3447 16.3012C11.3734 16.3012 11.4017 16.3024 11.4298 16.3048C11.4578 16.3024 11.4862 16.3012 11.5148 16.3012C11.5434 16.3012 11.5718 16.3024 11.5998 16.3048C11.6279 16.3024 11.6562 16.3012 11.6849 16.3012C11.7137 16.3012 11.7422 16.3025 11.7704 16.3049C11.7986 16.3025 11.8271 16.3012 11.8559 16.3012C11.8846 16.3012 11.9129 16.3024 11.9409 16.3048C11.969 16.3024 11.9973 16.3012 12.026 16.3012C12.0546 16.3012 12.083 16.3024 12.111 16.3048C12.139 16.3024 12.1674 16.3012 12.196 16.3012C12.2247 16.3012 12.253 16.3024 12.2811 16.3048C12.3091 16.3024 12.3375 16.3012 12.3661 16.3012C12.3947 16.3012 12.4231 16.3024 12.4511 16.3048C12.4792 16.3024 12.5075 16.3012 12.5362 16.3012C12.5648 16.3012 12.5932 16.3024 12.6212 16.3048C12.6492 16.3024 12.6776 16.3012 12.7062 16.3012C12.735 16.3012 12.7636 16.3025 12.7917 16.3049C12.8199 16.3025 12.8485 16.3012 12.8773 16.3012C12.9059 16.3012 12.9343 16.3024 12.9623 16.3048C12.9903 16.3024 13.0187 16.3012 13.0473 16.3012C13.076 16.3012 13.1043 16.3024 13.1324 16.3048C13.1604 16.3024 13.1888 16.3012 13.2174 16.3012C13.246 16.3012 13.2744 16.3024 13.3024 16.3048C13.3305 16.3024 13.3588 16.3012 13.3875 16.3012C13.4161 16.3012 13.4445 16.3024 13.4725 16.3048C13.5005 16.3024 13.5289 16.3012 13.5575 16.3012C13.5863 16.3012 13.6149 16.3024 13.643 16.3049C13.6712 16.3024 13.6998 16.3012 13.7286 16.3012C13.7572 16.3012 13.7856 16.3024 13.8136 16.3048C13.8416 16.3024 13.87 16.3012 13.8986 16.3012C13.9273 16.3012 13.9556 16.3024 13.9837 16.3048C14.0117 16.3024 14.04 16.3012 14.0687 16.3012C14.0973 16.3012 14.1257 16.3024 14.1537 16.3048C14.1817 16.3024 14.2101 16.3012 14.2387 16.3012C14.2674 16.3012 14.2958 16.3024 14.3238 16.3048C14.3518 16.3024 14.3802 16.3012 14.4088 16.3012C14.4376 16.3012 14.4662 16.3025 14.4943 16.3049C14.5225 16.3025 14.5511 16.3012 14.5799 16.3012C14.6085 16.3012 14.6369 16.3024 14.6649 16.3048C14.6929 16.3024 14.7213 16.3012 14.7499 16.3012C14.7786 16.3012 14.8069 16.3024 14.835 16.3048C14.863 16.3024 14.8913 16.3012 14.92 16.3012C14.9486 16.3012 14.977 16.3024 15.005 16.3048C15.033 16.3024 15.0614 16.3012 15.09 16.3012C15.1187 16.3012 15.147 16.3024 15.1751 16.3048C15.2031 16.3024 15.2315 16.3012 15.2601 16.3012C15.2887 16.3012 15.3171 16.3024 15.3451 16.3048C15.3732 16.3024 15.4015 16.3012 15.4302 16.3012C15.459 16.3012 15.4875 16.3025 15.5157 16.3049C15.5439 16.3025 15.5724 16.3012 15.6012 16.3012C15.6299 16.3012 15.6582 16.3024 15.6863 16.3048C15.7143 16.3024 15.7426 16.3012 15.7713 16.3012C15.7999 16.3012 15.8283 16.3024 15.8563 16.3048C15.8843 16.3024 15.9127 16.3012 15.9413 16.3012C15.97 16.3012 15.9984 16.3024 16.0264 16.3048C16.0544 16.3024 16.0828 16.3012 16.1114 16.3012C16.6607 16.3012 17.1059 16.7489 17.1059 17.3012C17.1059 17.8535 16.6607 18.3012 16.1114 18.3012C16.0828 18.3012 16.0544 18.3 16.0264 18.2976C15.9984 18.3 15.97 18.3012 15.9413 18.3012C15.9127 18.3012 15.8843 18.3 15.8563 18.2976C15.8283 18.3 15.7999 18.3012 15.7713 18.3012C15.7426 18.3012 15.7143 18.3 15.6863 18.2976C15.6582 18.3 15.6299 18.3012 15.6012 18.3012C15.5724 18.3012 15.5439 18.3 15.5157 18.2976C15.4875 18.3 15.459 18.3012 15.4302 18.3012C15.4015 18.3012 15.3732 18.3 15.3451 18.2976C15.3171 18.3 15.2887 18.3012 15.2601 18.3012C15.2315 18.3012 15.2031 18.3 15.1751 18.2976C15.147 18.3 15.1187 18.3012 15.09 18.3012C15.0614 18.3012 15.033 18.3 15.005 18.2976C14.977 18.3 14.9486 18.3012 14.92 18.3012C14.8913 18.3012 14.863 18.3 14.835 18.2976C14.8069 18.3 14.7786 18.3012 14.7499 18.3012C14.7213 18.3012 14.6929 18.3 14.6649 18.2976C14.6369 18.3 14.6085 18.3012 14.5799 18.3012C14.5511 18.3012 14.5225 18.3 14.4943 18.2976C14.4662 18.3 14.4376 18.3012 14.4088 18.3012C14.3802 18.3012 14.3518 18.3 14.3238 18.2976C14.2958 18.3 14.2674 18.3012 14.2387 18.3012C14.2101 18.3012 14.1817 18.3 14.1537 18.2976C14.1257 18.3 14.0973 18.3012 14.0687 18.3012C14.04 18.3012 14.0117 18.3 13.9837 18.2976C13.9556 18.3 13.9273 18.3012 13.8986 18.3012C13.87 18.3012 13.8416 18.3 13.8136 18.2976C13.7856 18.3 13.7572 18.3012 13.7286 18.3012C13.6998 18.3012 13.6712 18.3 13.643 18.2976C13.6149 18.3 13.5863 18.3012 13.5575 18.3012C13.5289 18.3012 13.5005 18.3 13.4725 18.2976C13.4445 18.3 13.4161 18.3012 13.3875 18.3012C13.3588 18.3012 13.3305 18.3 13.3024 18.2976C13.2744 18.3 13.246 18.3012 13.2174 18.3012C13.1888 18.3012 13.1604 18.3 13.1324 18.2976C13.1043 18.3 13.076 18.3012 13.0473 18.3012C13.0187 18.3012 12.9903 18.3 12.9623 18.2976C12.9343 18.3 12.9059 18.3012 12.8773 18.3012C12.8485 18.3012 12.8199 18.3 12.7917 18.2976C12.7636 18.3 12.735 18.3012 12.7062 18.3012C12.6776 18.3012 12.6492 18.3 12.6212 18.2976C12.5932 18.3 12.5648 18.3012 12.5362 18.3012C12.5075 18.3012 12.4792 18.3 12.4511 18.2976C12.4231 18.3 12.3947 18.3012 12.3661 18.3012C12.3375 18.3012 12.3091 18.3 12.2811 18.2976C12.253 18.3 12.2247 18.3012 12.196 18.3012C12.1674 18.3012 12.139 18.3 12.111 18.2976C12.083 18.3 12.0546 18.3012 12.026 18.3012C11.9973 18.3012 11.969 18.3 11.9409 18.2976C11.9129 18.3 11.8846 18.3012 11.8559 18.3012C11.8271 18.3012 11.7986 18.3 11.7704 18.2976C11.7422 18.3 11.7137 18.3012 11.6849 18.3012C11.6562 18.3012 11.6279 18.3 11.5998 18.2976C11.5718 18.3 11.5434 18.3012 11.5148 18.3012C11.4862 18.3012 11.4578 18.3 11.4298 18.2976C11.4017 18.3 11.3734 18.3012 11.3447 18.3012C11.3161 18.3012 11.2877 18.3 11.2597 18.2976C11.2317 18.3 11.2033 18.3012 11.1747 18.3012C11.146 18.3012 11.1177 18.3 11.0897 18.2976C11.0616 18.3 11.0333 18.3012 11.0046 18.3012C10.9758 18.3012 10.9473 18.3 10.9191 18.2976C10.8909 18.3 10.8624 18.3012 10.8336 18.3012C10.8049 18.3012 10.7766 18.3 10.7485 18.2976C10.7205 18.3 10.6921 18.3012 10.6635 18.3012C10.6349 18.3012 10.6065 18.3 10.5785 18.2976C10.5504 18.3 10.5221 18.3012 10.4934 18.3012C10.4648 18.3012 10.4364 18.3 10.4084 18.2976C10.3804 18.3 10.352 18.3012 10.3234 18.3012C10.2947 18.3012 10.2664 18.3 10.2384 18.2976C10.2103 18.3 10.182 18.3012 10.1533 18.3012C10.1247 18.3012 10.0963 18.3 10.0683 18.2976C10.0403 18.3 10.0119 18.3012 9.98327 18.3012C9.95445 18.3012 9.92593 18.3 9.89774 18.2976C9.86955 18.3 9.84103 18.3012 9.81221 18.3012C9.78357 18.3012 9.75521 18.3 9.72718 18.2976C9.69915 18.3 9.67079 18.3012 9.64215 18.3012C9.6135 18.3012 9.58515 18.3 9.55712 18.2976C9.52909 18.3 9.50073 18.3012 9.47209 18.3012C9.44345 18.3012 9.41509 18.3 9.38706 18.2976C9.35904 18.3 9.33068 18.3012 9.30203 18.3012C9.27339 18.3012 9.24503 18.3 9.217 18.2976C9.18897 18.3 9.16061 18.3012 9.13196 18.3012C9.10315 18.3012 9.07463 18.3 9.04644 18.2976C9.01825 18.3 8.98972 18.3012 8.96091 18.3012C8.93227 18.3012 8.90391 18.3 8.87589 18.2976C8.84786 18.3 8.8195 18.3012 8.79086 18.3012C8.76221 18.3012 8.73385 18.3 8.70582 18.2976C8.67779 18.3 8.64943 18.3012 8.62079 18.3012C8.58696 18.3012 8.55353 18.2995 8.52058 18.2962C8.4949 18.2982 8.46896 18.2992 8.44278 18.2992C8.40126 18.2992 8.36034 18.2967 8.32016 18.2917C8.30182 18.2927 8.28335 18.2932 8.26476 18.2932C8.21559 18.2932 8.16726 18.2896 8.12001 18.2827C8.10929 18.283 8.09853 18.2832 8.08773 18.2832C8.03082 18.2832 7.97502 18.2784 7.92072 18.2692L7.91701 18.2692L7.91172 18.2692C7.84697 18.2692 7.78367 18.263 7.72237 18.2511C7.65465 18.2502 7.58858 18.2424 7.52478 18.2285C7.45781 18.2259 7.39253 18.2166 7.3296 18.2014C7.26228 18.1973 7.19678 18.1864 7.13374 18.1695C7.06696 18.1638 7.00206 18.1514 6.93969 18.1331C6.87589 18.126 6.81391 18.1128 6.75433 18.0941C6.68772 18.0856 6.62316 18.0704 6.56134 18.0493C6.49467 18.0389 6.43019 18.0218 6.36859 17.9988C6.30648 17.9873 6.24638 17.97 6.18888 17.9475C6.12279 17.9342 6.05907 17.9142 5.99843 17.8884C5.9364 17.8739 5.8766 17.8536 5.81962 17.8281C5.75739 17.8123 5.69749 17.7907 5.64054 17.7638C5.57706 17.7463 5.51612 17.7227 5.45839 17.6936C5.39733 17.675 5.33876 17.6507 5.28329 17.6213C5.22166 17.6011 5.16268 17.575 5.107 17.5437C5.04617 17.5222 4.98806 17.4949 4.9333 17.4624C4.87303 17.4394 4.81556 17.4107 4.76156 17.3769C4.70431 17.3535 4.64973 17.3249 4.59838 17.2916C4.53842 17.2659 4.48148 17.2345 4.42824 17.198C4.36977 17.1711 4.31433 17.1386 4.26261 17.1013C4.20675 17.0739 4.15382 17.0413 4.10443 17.0043C4.04564 16.9741 3.99023 16.9382 3.93893 16.8973C3.88509 16.8676 3.83429 16.833 3.78711 16.7941C3.7324 16.7627 3.68095 16.7261 3.63338 16.6852C3.57936 16.6526 3.52868 16.615 3.48196 16.573C3.42766 16.5386 3.37691 16.4991 3.33036 16.4551C3.27806 16.4201 3.22924 16.3802 3.18454 16.3361C3.13424 16.3008 3.08734 16.261 3.04442 16.2172C2.99122 16.1785 2.94197 16.1347 2.89741 16.0864C2.84877 16.0488 2.80369 16.0068 2.76276 15.961C2.7138 15.9218 2.6686 15.878 2.6278 15.8304C2.5775 15.7883 2.5314 15.7413 2.49021 15.6902C2.44539 15.6504 2.40417 15.6067 2.36709 15.5595C2.31868 15.5153 2.27461 15.4665 2.2356 15.4137C2.19138 15.371 2.15108 15.3242 2.11529 15.274C2.06912 15.2278 2.02743 15.177 1.99095 15.1225C1.94973 15.0788 1.91239 15.0314 1.87948 14.9808C1.83612 14.9336 1.79722 14.8822 1.76345 14.8273C1.72103 14.7788 1.6832 14.7261 1.65066 14.6699C1.61165 14.6229 1.57687 14.5721 1.54688 14.5183C1.50682 14.4683 1.47145 14.4144 1.44143 14.3572C1.40292 14.3067 1.36909 14.2524 1.3406 14.195C1.30408 14.1446 1.27212 14.0907 1.24533 14.0339C1.20829 13.9808 1.17625 13.9239 1.1499 13.8639C1.11582 13.8122 1.08639 13.7571 1.06222 13.6993C1.02809 13.6453 0.998961 13.5879 0.975487 13.5276C0.942961 13.4734 0.915394 13.4159 0.893422 13.3557C0.861597 13.3002 0.834927 13.2413 0.814067 13.1797C0.784072 13.1243 0.759134 13.0657 0.739877 13.0046C0.710168 12.947 0.685876 12.8861 0.667679 12.8225C0.640201 12.7656 0.61793 12.7057 0.601488 12.6434C0.574677 12.585 0.553315 12.5234 0.538055 12.4595C0.512414 12.3999 0.492386 12.3372 0.478641 12.2722C0.455377 12.214 0.437392 12.1531 0.425282 12.0902C0.402868 12.031 0.385877 11.9692 0.374921 11.9052C0.352349 11.842 0.335928 11.7759 0.326381 11.7075C0.306987 11.6475 0.293084 11.585 0.285269 11.5206C0.266387 11.4584 0.253372 11.3937 0.24687 11.327C0.229349 11.264 0.217817 11.1984 0.212928 11.131C0.196943 11.0677 0.186967 11.002 0.183646 10.9345C0.169121 10.8707 0.160656 10.8046 0.158892 10.7369C0.14583 10.6728 0.138875 10.6064 0.138665 10.5384C0.128206 10.4803 0.122744 10.4204 0.122744 10.3592C0.122744 10.354 0.122784 10.3488 0.122863 10.3436C0.114278 10.2908 0.109815 10.2365 0.109815 10.1812C0.109815 10.1666 0.110129 10.152 0.110749 10.1375C0.104889 10.0936 0.101863 10.0487 0.101863 10.0032C0.101863 9.97861 0.102747 9.95421 0.104485 9.93005C0.100778 9.89495 0.098877 9.85931 0.098877 9.82322C0.098877 9.79288 0.10022 9.76287 0.10285 9.73322C0.10022 9.70357 0.098877 9.67355 0.098877 9.64322C0.098877 9.6034 0.101192 9.56413 0.105692 9.52552C0.104473 9.50525 0.103854 9.48481 0.103854 9.46422C0.103854 9.41861 0.106891 9.37371 0.112773 9.32972C0.112131 9.31497 0.111806 9.30013 0.111806 9.28522C0.111806 9.22995 0.116265 9.17573 0.12484 9.12291C0.124805 9.12046 0.124779 9.11801 0.124761 9.11556C0.124744 9.11311 0.124735 9.11067 0.124735 9.10822C0.124735 9.04508 0.130554 8.98331 0.141684 8.92341C0.142267 8.85543 0.149597 8.78906 0.163035 8.72495C0.165171 8.65719 0.174011 8.59113 0.188911 8.52742C0.192612 8.45976 0.203003 8.39389 0.219429 8.33047C0.224591 8.26551 0.235925 8.20231 0.252842 8.14145C0.259532 8.07284 0.273117 8.00627 0.292892 7.94244C0.301104 7.8777 0.315472 7.81489 0.335387 7.75463C0.345061 7.68887 0.361103 7.62519 0.382861 7.56426C0.394145 7.49839 0.411836 7.43473 0.435267 7.37394C0.447815 7.31054 0.466324 7.24931 0.490182 7.19084C0.504276 7.12659 0.524515 7.06467 0.550248 7.00571C0.565415 6.94366 0.586341 6.88389 0.612425 6.827C0.629498 6.76232 0.652856 6.70021 0.681803 6.64138C0.700278 6.57875 0.724689 6.51869 0.75438 6.46185C0.773415 6.40253 0.797811 6.34563 0.826994 6.29174C0.848676 6.22771 0.876634 6.1666 0.910133 6.10915C0.931633 6.05169 0.958244 5.99674 0.98941 5.94487C1.01355 5.88284 1.04368 5.82383 1.07908 5.76856C1.10391 5.70995 1.13415 5.65421 1.16917 5.60198C1.19486 5.54478 1.22576 5.49044 1.26124 5.43958C1.2888 5.3811 1.32183 5.32574 1.35967 5.27416C1.38813 5.21748 1.42179 5.16389 1.46003 5.11404C1.49049 5.05649 1.52638 5.00229 1.56702 4.95213C1.59734 4.89829 1.63249 4.84756 1.67187 4.80053C1.70442 4.74494 1.74216 4.6928 1.78443 4.64478C1.8177 4.59113 1.85589 4.54088 1.89837 4.49467C1.9328 4.44171 1.9721 4.39224 2.01562 4.34689C2.05186 4.29368 2.09308 4.24417 2.13861 4.19904C2.17449 4.14913 2.21484 4.10268 2.25906 4.06029C2.29837 4.00752 2.34275 3.95878 2.39147 3.91481C2.42869 3.8678 2.47004 3.82424 2.51497 3.78467C2.55638 3.73375 2.60268 3.68701 2.65315 3.64518C2.69418 3.59763 2.7396 3.55402 2.78877 3.51497C2.83075 3.46838 2.87704 3.42579 2.927 3.38784C2.97005 3.34199 3.01735 3.30024 3.06828 3.26323C3.1112 3.21945 3.15811 3.17963 3.2084 3.14437C3.25511 3.09829 3.30631 3.05681 3.3613 3.02066C3.40617 2.97896 3.45488 2.94136 3.50682 2.90846C3.55466 2.86546 3.60666 2.82704 3.66215 2.79389C3.70957 2.75349 3.76081 2.71748 3.81525 2.68648C3.86513 2.64562 3.91903 2.60953 3.97626 2.5789C4.0246 2.54141 4.07647 2.5083 4.13127 2.48014C4.18286 2.44145 4.23831 2.40767 4.29694 2.37949C4.34679 2.34413 4.40002 2.31326 4.45604 2.28748C4.50929 2.25096 4.56626 2.21951 4.62624 2.19381C4.67896 2.15968 4.73509 2.13042 4.79401 2.10667C4.84893 2.07273 4.90737 2.044 4.96867 2.02118C5.02297 1.98957 5.08051 1.96297 5.14068 1.94202C5.19571 1.9115 5.25392 1.88606 5.31469 1.86635C5.37122 1.83649 5.43095 1.81194 5.49325 1.79337C5.54949 1.76539 5.60873 1.74261 5.67037 1.72563C5.72888 1.69799 5.79051 1.67592 5.85458 1.66008C5.91161 1.63491 5.97144 1.61497 6.03347 1.60086C6.09318 1.57582 6.15583 1.55647 6.22076 1.54348C6.27957 1.52056 6.34109 1.5031 6.4047 1.49172C6.46692 1.46885 6.53205 1.45205 6.59938 1.44203C6.65878 1.42219 6.72066 1.40782 6.78444 1.39953C6.84644 1.38006 6.91104 1.36652 6.97758 1.35959C7.04025 1.34159 7.10544 1.32961 7.17249 1.32432C7.23328 1.30843 7.29634 1.29818 7.36106 1.29415C7.42622 1.27832 7.49389 1.26894 7.56335 1.26673C7.62712 1.25321 7.69314 1.24584 7.76077 1.24526C7.82033 1.23407 7.88175 1.22822 7.94453 1.22822C7.94754 1.22822 7.95054 1.22823 7.95354 1.22826C8.00784 1.21903 8.06364 1.21422 8.12056 1.21422C8.13324 1.21422 8.14586 1.21446 8.15842 1.21493C8.20389 1.20853 8.25035 1.20522 8.29757 1.20522C8.31828 1.20522 8.33884 1.20586 8.35923 1.20711C8.39772 1.20256 8.43688 1.20022 8.47659 1.20022C8.50486 1.20022 8.53284 1.20141 8.56051 1.20373C8.59181 1.20075 8.62353 1.19922 8.6556 1.19922C8.6934 1.19922 8.7307 1.20134 8.7674 1.20547C8.78961 1.20398 8.81202 1.20322 8.83461 1.20322C8.87795 1.20322 8.92065 1.20601 8.96253 1.21142C8.9788 1.21062 8.99517 1.21022 9.01163 1.21022C9.06469 1.21022 9.11677 1.21439 9.16758 1.22244C9.17459 1.22229 9.18161 1.22222 9.18866 1.22222C9.24752 1.22222 9.30518 1.22736 9.36124 1.23722L9.36369 1.23722C9.43235 1.23722 9.49938 1.24422 9.56413 1.25754C9.6319 1.25925 9.69799 1.26777 9.76175 1.28246C9.82704 1.28571 9.89067 1.29529 9.95205 1.3106C10.0204 1.31533 10.0868 1.32699 10.1506 1.34489C10.2155 1.35119 10.2785 1.36375 10.3392 1.38198C10.4054 1.38973 10.4697 1.40404 10.5314 1.42424C10.5965 1.43356 10.6595 1.44921 10.7199 1.47055C10.7861 1.48151 10.85 1.49903 10.9111 1.52243C10.9737 1.53461 11.0343 1.55269 11.0921 1.57609C11.1563 1.58981 11.2182 1.60976 11.2772 1.63528C11.3397 1.65022 11.3999 1.67109 11.4572 1.69727C11.521 1.71393 11.5823 1.73678 11.6404 1.76516C11.7036 1.78346 11.7642 1.80788 11.8215 1.83776C11.8799 1.85636 11.9359 1.88022 11.9891 1.9088C12.0537 1.93036 12.1155 1.95841 12.1735 1.99219C12.2306 2.01346 12.2853 2.03986 12.3369 2.07083C12.3978 2.09447 12.4559 2.12397 12.5104 2.15864C12.569 2.18319 12.6248 2.21321 12.6771 2.24808C12.7351 2.27383 12.7902 2.305 12.8417 2.34093C12.899 2.36791 12.9534 2.40023 13.0042 2.43726C13.0624 2.46622 13.1175 2.50076 13.1686 2.54018C13.224 2.56954 13.2762 2.60399 13.3248 2.64292C13.3798 2.67359 13.4317 2.70935 13.4797 2.74958C13.5346 2.78178 13.5862 2.81911 13.6338 2.86093C13.6882 2.89447 13.7392 2.93313 13.7861 2.97624C13.8378 3.00991 13.8862 3.04829 13.9307 3.09076C13.984 3.12677 14.0336 3.16783 14.0789 3.21326C14.1312 3.25057 14.1797 3.29282 14.2238 3.33935C14.2727 3.37623 14.3182 3.41755 14.3596 3.4627C14.4091 3.50135 14.4549 3.54459 14.4964 3.59181C14.5462 3.63238 14.592 3.67769 14.6332 3.72706C14.6808 3.76792 14.7246 3.81321 14.7638 3.8623C14.8105 3.90414 14.8532 3.95033 14.8914 4.00025C14.9373 4.04311 14.9792 4.09027 15.0164 4.14111C15.0623 4.18587 15.1039 4.23503 15.1406 4.28794C15.1845 4.33288 15.2241 4.38197 15.259 4.43456C15.3027 4.48135 15.342 4.53238 15.3762 4.58697C15.4161 4.63185 15.4521 4.68039 15.4835 4.73201C15.5264 4.78157 15.5645 4.83542 15.5971 4.89284C15.6358 4.94028 15.6702 4.99136 15.6998 5.04549C15.7404 5.09707 15.7761 5.15278 15.8062 5.21188C15.8421 5.26028 15.8737 5.31204 15.9005 5.36663C15.939 5.41987 15.9723 5.47706 15.9998 5.5375C16.0346 5.58878 16.0647 5.64348 16.0897 5.70101C16.1245 5.75456 16.1545 5.81168 16.1787 5.8717C16.2123 5.92598 16.2409 5.98373 16.2637 6.04429C16.296 6.09938 16.3232 6.15784 16.3446 6.21904C16.3749 6.27352 16.4003 6.33115 16.4201 6.3913C16.4506 6.44855 16.4756 6.50912 16.4946 6.57234C16.5225 6.62811 16.5453 6.68687 16.5624 6.748C16.5895 6.80494 16.6114 6.86486 16.6275 6.92714C16.655 6.98795 16.6766 7.052 16.6915 7.11858C16.7151 7.17538 16.7336 7.23484 16.7465 7.29638C16.7711 7.35808 16.7897 7.42282 16.8017 7.48989C16.8235 7.54944 16.8397 7.61164 16.8499 7.67589C16.8709 7.7372 16.8862 7.80121 16.895 7.86727C16.9146 7.92908 16.9284 7.99349 16.9357 8.05985C16.954 8.12255 16.9663 8.18779 16.972 8.25493C16.9882 8.31617 16.9988 8.37971 17.0032 8.44497C17.0193 8.51046 17.029 8.5785 17.0316 8.64837C17.045 8.71035 17.0526 8.77448 17.054 8.84016C17.0665 8.90356 17.0731 8.96912 17.0731 9.03622C17.0731 9.03924 17.0731 9.04226 17.073 9.04528C17.0822 9.09988 17.087 9.15599 17.087 9.21322L17.087 9.21772L17.087 9.22365C17.0869 9.22913 17.0868 9.23459 17.0867 9.24005C17.0941 9.28935 17.0979 9.33983 17.0979 9.39122C17.0979 9.4099 17.0974 9.42846 17.0964 9.44689C17.1014 9.48731 17.1039 9.52846 17.1039 9.57022C17.1039 9.59673 17.1029 9.623 17.1009 9.649C17.1042 9.68229 17.1059 9.71605 17.1059 9.75022C17.1059 10.3025 16.6607 10.7502 16.1114 10.7502C15.5622 10.7502 15.1169 10.3025 15.1169 9.75022C15.1169 9.7237 15.1179 9.69743 15.1199 9.67144C15.1166 9.63815 15.1149 9.60439 15.1149 9.57022C15.1149 9.55154 15.1154 9.53298 15.1164 9.51455C15.1115 9.47413 15.1089 9.43297 15.1089 9.39122C15.1089 9.38225 15.1091 9.37331 15.1093 9.36439C15.1019 9.31509 15.098 9.26461 15.098 9.21322L15.098 9.20706L15.098 9.20416C15.09 9.15627 15.0853 9.10722 15.0843 9.05728C15.0741 9.00585 15.0679 8.95301 15.0659 8.89907C15.0557 8.85202 15.0489 8.80373 15.0456 8.75447C15.0332 8.70421 15.0246 8.65245 15.0201 8.59951C15.0075 8.55184 14.9982 8.50277 14.9927 8.45259C14.9789 8.40514 14.9685 8.35624 14.9618 8.30616C14.9469 8.25905 14.9353 8.21041 14.9274 8.16055C14.911 8.11275 14.8981 8.06332 14.889 8.01255C14.8728 7.96811 14.8597 7.9222 14.8498 7.87506C14.8305 7.82674 14.8149 7.77656 14.8033 7.72485C14.7855 7.68209 14.7707 7.63783 14.7589 7.5923C14.7385 7.54705 14.7213 7.49999 14.7077 7.45144C14.6861 7.40611 14.6678 7.35889 14.6531 7.3101C14.6318 7.26743 14.6135 7.22302 14.5984 7.17714C14.5748 7.13278 14.5544 7.08643 14.5376 7.03839C14.5141 6.99611 14.4936 6.95193 14.4763 6.90615C14.4519 6.86452 14.4304 6.82095 14.4121 6.77574C14.3868 6.73485 14.3643 6.69198 14.345 6.64743C14.3178 6.60567 14.2936 6.56173 14.2728 6.51594C14.2469 6.47771 14.2235 6.43759 14.203 6.39581C14.1728 6.35404 14.1459 6.30984 14.1223 6.26356C14.0949 6.22657 14.0699 6.18762 14.0477 6.14695C14.0166 6.10747 13.9884 6.06559 13.9634 6.0216C13.9345 5.98616 13.908 5.94869 13.8841 5.90943C13.8505 5.87062 13.8199 5.82919 13.7925 5.78547C13.761 5.75011 13.7321 5.71249 13.7058 5.67288C13.6727 5.63742 13.6421 5.59953 13.6143 5.5595C13.5814 5.5257 13.5508 5.48956 13.5228 5.45134C13.488 5.41739 13.4556 5.38091 13.426 5.34219C13.3904 5.30899 13.3573 5.27321 13.3269 5.23514C13.2907 5.20274 13.2569 5.16772 13.2257 5.13038C13.1898 5.09957 13.1561 5.06623 13.1249 5.03063C13.0872 4.99995 13.0518 4.96655 13.019 4.93074C12.9796 4.89999 12.9425 4.86634 12.9082 4.83009C12.8704 4.80166 12.8348 4.7706 12.8014 4.73718C12.7628 4.70962 12.7263 4.67936 12.692 4.64668C12.6508 4.61878 12.6117 4.58784 12.5751 4.5542C12.5349 4.52804 12.4968 4.49905 12.4609 4.46751C12.4197 4.44213 12.3805 4.41381 12.3435 4.38285C12.3016 4.3583 12.2616 4.33076 12.2239 4.30052C12.1808 4.27647 12.1396 4.24928 12.1006 4.21926C12.0588 4.19706 12.0187 4.17195 11.9806 4.14418C11.9367 4.12236 11.8946 4.09737 11.8547 4.06951C11.8102 4.04858 11.7675 4.02443 11.7269 3.99736C11.6818 3.97734 11.6385 3.95405 11.5972 3.92779C11.5533 3.90939 11.5109 3.8879 11.4704 3.8636C11.4218 3.84476 11.3751 3.8222 11.3305 3.79625C11.2881 3.78046 11.2471 3.76184 11.2076 3.74063C11.1578 3.72404 11.1098 3.70361 11.0639 3.67968C11.018 3.66505 10.9735 3.64716 10.9307 3.62628C10.8842 3.61281 10.8391 3.59601 10.7957 3.57617C10.7467 3.56338 10.6992 3.54694 10.6535 3.52715C10.6053 3.51565 10.5585 3.50062 10.5134 3.48235C10.4631 3.47161 10.4143 3.45706 10.3672 3.439C10.3192 3.42967 10.2724 3.41688 10.2272 3.40088C10.1773 3.39262 10.1287 3.38063 10.0816 3.3652C10.0324 3.35815 9.98428 3.34748 9.93765 3.33346C9.88581 3.3274 9.83518 3.31732 9.78608 3.30355C9.73711 3.29879 9.68918 3.29047 9.64254 3.27883C9.59005 3.27521 9.53868 3.26748 9.48874 3.25598C9.43747 3.25342 9.38723 3.24697 9.33829 3.2369C9.28823 3.23564 9.23908 3.23065 9.19112 3.22222L9.18866 3.22222C9.1356 3.22222 9.08352 3.21804 9.03271 3.21C9.0302 3.21005 9.02768 3.21009 9.02515 3.21013C9.02065 3.21019 9.01615 3.21022 9.01163 3.21022C8.96829 3.21022 8.9256 3.20743 8.88371 3.20202C8.86744 3.20282 8.85107 3.20322 8.83461 3.20322C8.79681 3.20322 8.75951 3.2011 8.72281 3.19697Z" fill="url(#paint0_angular_3025_25637)"/>
<path d="M8.58301 5.58639C8.56294 5.5876 8.54271 5.58822 8.52234 5.58822C8.5131 5.58822 8.50389 5.58809 8.49471 5.58784C8.46387 5.59074 8.43261 5.59222 8.40102 5.59222L8.39577 5.5922L8.39073 5.59217C8.35927 5.59565 8.32737 5.59765 8.29509 5.59812C8.26445 5.60229 8.23336 5.60506 8.2019 5.60636C8.16846 5.61179 8.13446 5.61555 8.09999 5.61755C8.06969 5.623 8.03891 5.62707 8.00773 5.6297C7.9778 5.63588 7.94739 5.64072 7.91655 5.64414C7.88698 5.65107 7.85689 5.65668 7.82637 5.66089C7.79387 5.66941 7.76073 5.67633 7.72704 5.68154C7.69856 5.68953 7.66957 5.69627 7.64013 5.70171C7.60907 5.71137 7.57737 5.71954 7.54509 5.72614C7.51438 5.73632 7.48301 5.74504 7.45105 5.75221C7.42564 5.76116 7.39976 5.76911 7.37346 5.776C7.341 5.78875 7.3077 5.79984 7.27369 5.80915C7.24642 5.8202 7.21855 5.83006 7.19015 5.83869C7.16079 5.85153 7.13069 5.86298 7.09993 5.87297C7.07433 5.88476 7.04815 5.89548 7.02144 5.90508C6.9919 5.91977 6.96154 5.93303 6.93043 5.94477C6.9032 5.95888 6.87524 5.97175 6.84662 5.98333C6.82229 5.99663 6.79734 6.00894 6.77184 6.02021C6.74341 6.03691 6.71409 6.05224 6.68396 6.06609C6.65807 6.08187 6.63141 6.09649 6.60405 6.10988C6.57884 6.12605 6.55285 6.14111 6.52616 6.155C6.49884 6.17344 6.47056 6.19056 6.44142 6.20626C6.41822 6.22246 6.3943 6.23768 6.36972 6.25188C6.34506 6.27015 6.31953 6.2873 6.29321 6.30326C6.26914 6.32194 6.2442 6.33953 6.21846 6.35597C6.19277 6.37681 6.16603 6.39639 6.13833 6.41461C6.11868 6.43104 6.09839 6.44672 6.0775 6.4616C6.05247 6.48413 6.0263 6.5054 5.99908 6.52531C5.97593 6.54667 5.95178 6.56693 5.92669 6.58602C5.90678 6.60511 5.88609 6.62338 5.86466 6.64077C5.84263 6.66321 5.81956 6.6846 5.79551 6.70487C5.7737 6.72796 5.7508 6.75 5.7269 6.77091C5.707 6.79278 5.68615 6.81376 5.66442 6.83378C5.64376 6.85763 5.622 6.88048 5.59921 6.90225C5.5817 6.92326 5.56334 6.94353 5.5442 6.96301C5.52459 6.98807 5.50382 7.01217 5.48197 7.03521C5.46296 7.06046 5.44279 7.08477 5.42153 7.10807C5.40273 7.13404 5.38272 7.15906 5.36158 7.18305C5.34484 7.2071 5.32708 7.23037 5.30835 7.2528C5.292 7.27761 5.27458 7.30165 5.25616 7.32484C5.23948 7.35158 5.22157 7.37748 5.20253 7.40244C5.18718 7.42811 5.17073 7.45304 5.15323 7.47715C5.13838 7.50346 5.12237 7.52902 5.10529 7.55378C5.08966 7.58311 5.07262 7.61156 5.05426 7.63905C5.04047 7.66586 5.02551 7.69196 5.00944 7.71729C4.99726 7.74244 4.98407 7.76701 4.96991 7.79093C4.9569 7.82011 4.94254 7.84854 4.92691 7.87616C4.91446 7.9056 4.90065 7.93432 4.88555 7.96223C4.87366 7.99195 4.8604 8.02095 4.84583 8.04917C4.83484 8.07829 4.82252 8.10676 4.80897 8.13451C4.79911 8.16256 4.78804 8.19004 4.77583 8.21688C4.76673 8.2452 4.75641 8.27296 4.74494 8.30011C4.73506 8.33396 4.72346 8.36707 4.71022 8.39933C4.70216 8.42819 4.69284 8.45652 4.68232 8.48425C4.67518 8.51279 4.66681 8.54083 4.65728 8.56833C4.65005 8.60135 4.64119 8.63377 4.63079 8.66548C4.62478 8.69521 4.61746 8.72446 4.60889 8.75316C4.60325 8.7855 4.59607 8.81731 4.58741 8.8485C4.58266 8.87959 4.57648 8.91021 4.56894 8.94029C4.56465 8.97379 4.55871 9.00676 4.5512 9.03913C4.5478 9.07013 4.54299 9.10071 4.53683 9.1308C4.53423 9.16211 4.53018 9.19301 4.52477 9.22344C4.52296 9.25522 4.51967 9.2866 4.51497 9.31751C4.51387 9.35243 4.51099 9.38689 4.50641 9.42082C4.50592 9.4529 4.50393 9.48462 4.50051 9.5159C4.50055 9.51967 4.50057 9.52344 4.50057 9.52722C4.50057 9.55617 4.49935 9.58483 4.49695 9.61315C4.49737 9.62512 4.49758 9.63715 4.49758 9.64922C4.49758 9.67252 4.49679 9.69563 4.49523 9.71853C4.49613 9.73598 4.49659 9.75355 4.49659 9.77122C4.49659 9.78329 4.49638 9.79531 4.49595 9.80728C4.49835 9.83561 4.49957 9.86427 4.49957 9.89322C4.49957 9.8948 4.49957 9.89639 4.49956 9.89797C4.49956 9.89926 4.49955 9.90054 4.49954 9.90182C4.49951 9.90549 4.49946 9.90914 4.49939 9.9128C4.50228 9.94137 4.50397 9.97029 4.50442 9.99953C4.50901 10.0335 4.51189 10.068 4.51299 10.103C4.51808 10.1366 4.52152 10.1706 4.52321 10.2051C4.52802 10.2335 4.53163 10.2623 4.53401 10.2914C4.54062 10.3239 4.54568 10.3569 4.54908 10.3905C4.55571 10.4202 4.56103 10.4505 4.56496 10.4811C4.57314 10.5138 4.57973 10.5471 4.58463 10.581C4.59231 10.6096 4.59876 10.6387 4.60392 10.6683C4.61348 10.7003 4.62149 10.733 4.62786 10.7663C4.63697 10.7951 4.64482 10.8244 4.65135 10.8542C4.66086 10.8817 4.66922 10.9097 4.67636 10.9382C4.68872 10.9708 4.69944 11.0043 4.70841 11.0385C4.71858 11.0645 4.72769 11.091 4.73571 11.118C4.7491 11.1492 4.76097 11.1812 4.7712 11.2139C4.78265 11.2397 4.79306 11.266 4.80236 11.2928C4.81555 11.3201 4.82753 11.3482 4.83823 11.3769C4.85342 11.4065 4.86718 11.437 4.87942 11.4683C4.8937 11.4952 4.90679 11.5229 4.91862 11.5512C4.93288 11.5766 4.94608 11.6027 4.95814 11.6294C4.97378 11.6556 4.98827 11.6826 5.00152 11.7103C5.01898 11.7381 5.03512 11.7668 5.04985 11.7963C5.06481 11.8193 5.07886 11.8429 5.09193 11.8672C5.11225 11.8963 5.13105 11.9266 5.14824 11.958C5.16316 11.979 5.1773 12.0007 5.19059 12.023C5.21074 12.0494 5.22961 12.0768 5.2471 12.1052C5.26446 12.1273 5.28092 12.1501 5.29641 12.1736C5.31797 12.1995 5.33825 12.2264 5.35716 12.2543C5.3761 12.2765 5.3941 12.2994 5.41108 12.3232C5.43106 12.3453 5.45007 12.3684 5.46804 12.3922C5.4899 12.4153 5.51067 12.4394 5.53027 12.4644C5.55083 12.4853 5.57048 12.5072 5.58915 12.5298C5.61176 12.5517 5.63334 12.5747 5.65382 12.5987C5.67541 12.6188 5.69612 12.6399 5.71586 12.6618C5.73801 12.6814 5.75927 12.7021 5.77959 12.7236C5.80539 12.7453 5.83008 12.7684 5.85355 12.7926C5.87463 12.8099 5.89499 12.8281 5.91459 12.8471C5.93983 12.8665 5.96413 12.8872 5.98738 12.909C6.01081 12.9263 6.03346 12.9447 6.05526 12.9641C6.08135 12.9824 6.10653 13.002 6.13071 13.0227C6.15549 13.0394 6.17947 13.0573 6.2026 13.0761C6.22927 13.0932 6.25508 13.1115 6.27994 13.131C6.30461 13.1461 6.32857 13.1623 6.35177 13.1795C6.37979 13.1957 6.40695 13.2132 6.43317 13.232C6.4574 13.2454 6.48101 13.2599 6.50396 13.2752C6.53564 13.2915 6.56633 13.3094 6.59594 13.3289C6.62061 13.3414 6.64471 13.3548 6.66816 13.3692C6.69581 13.3821 6.72276 13.3962 6.74897 13.4115C6.77832 13.4243 6.80694 13.4385 6.83475 13.454C6.86185 13.4652 6.88836 13.4776 6.9142 13.491C6.94404 13.5024 6.9732 13.5152 7.0016 13.5294C7.0317 13.5402 7.06113 13.5524 7.08981 13.566C7.11683 13.5751 7.14334 13.5854 7.16926 13.5967C7.20032 13.6062 7.23074 13.6171 7.26044 13.6294C7.2918 13.6383 7.32254 13.6486 7.35257 13.6604C7.38156 13.668 7.41004 13.6769 7.43794 13.687C7.46994 13.6945 7.50134 13.7035 7.53206 13.7139C7.56163 13.7202 7.59071 13.7278 7.61924 13.7367C7.6491 13.7422 7.6785 13.7491 7.70737 13.7572C7.74031 13.7624 7.77272 13.7692 7.80451 13.7776C7.83781 13.7821 7.87059 13.7884 7.90275 13.7962C7.93363 13.7999 7.96407 13.805 7.99401 13.8115C8.02539 13.8144 8.05635 13.8187 8.08683 13.8245C8.11786 13.8266 8.14851 13.8301 8.1787 13.835C8.21066 13.8363 8.24223 13.8391 8.27335 13.8433C8.30807 13.8439 8.34235 13.8462 8.37612 13.8502L8.37815 13.8502C8.40974 13.8502 8.44099 13.8517 8.47183 13.8546C8.48101 13.8543 8.49023 13.8542 8.49947 13.8542C8.52264 13.8542 8.54563 13.855 8.56841 13.8566C8.58576 13.8557 8.60322 13.8552 8.6208 13.8552C8.64016 13.8552 8.65939 13.8558 8.67848 13.8569C8.69757 13.8558 8.7168 13.8552 8.73616 13.8552C8.7557 13.8552 8.77509 13.8558 8.79435 13.8569C8.8136 13.8558 8.833 13.8552 8.85253 13.8552C8.87189 13.8552 8.89112 13.8558 8.9102 13.8569C8.92929 13.8558 8.94852 13.8552 8.96788 13.8552C8.98724 13.8552 9.00647 13.8558 9.02556 13.8569C9.04465 13.8558 9.06388 13.8552 9.08325 13.8552C9.10278 13.8552 9.12218 13.8558 9.14143 13.8569C9.16068 13.8558 9.18008 13.8552 9.19961 13.8552C9.21897 13.8552 9.2382 13.8558 9.25728 13.8569C9.27637 13.8558 9.2956 13.8552 9.31496 13.8552C9.33449 13.8552 9.35389 13.8558 9.37315 13.8569C9.3924 13.8558 9.41179 13.8552 9.43132 13.8552C9.45069 13.8552 9.46992 13.8558 9.48901 13.8569C9.5081 13.8558 9.52733 13.8552 9.54669 13.8552C9.56605 13.8552 9.58528 13.8558 9.60437 13.8569C9.62345 13.8558 9.64268 13.8552 9.66204 13.8552C9.68157 13.8552 9.70097 13.8558 9.72023 13.8569C9.73948 13.8558 9.75887 13.8552 9.7784 13.8552C9.79777 13.8552 9.817 13.8558 9.83609 13.8569C9.85518 13.8558 9.87441 13.8552 9.89377 13.8552C9.9133 13.8552 9.9327 13.8558 9.95195 13.8569C9.9712 13.8558 9.99059 13.8552 10.0101 13.8552C10.0295 13.8552 10.0487 13.8558 10.0678 13.8569C10.0869 13.8558 10.1061 13.8552 10.1255 13.8552C10.1448 13.8552 10.1641 13.8558 10.1832 13.8569C10.2023 13.8558 10.2215 13.8552 10.2409 13.8552C10.2604 13.8552 10.2798 13.8558 10.299 13.8569C10.3183 13.8558 10.3377 13.8552 10.3572 13.8552C10.3766 13.8552 10.3958 13.8558 10.4149 13.8569C10.434 13.8558 10.4532 13.8552 10.4726 13.8552C10.4919 13.8552 10.5112 13.8558 10.5302 13.8569C10.5493 13.8558 10.5686 13.8552 10.5879 13.8552C10.6075 13.8552 10.6269 13.8558 10.6461 13.8569C10.6654 13.8558 10.6848 13.8552 10.7043 13.8552C10.7237 13.8552 10.7429 13.8558 10.762 13.8569C10.7811 13.8558 10.8003 13.8552 10.8196 13.8552C10.8392 13.8552 10.8586 13.8558 10.8778 13.8569C10.8971 13.8558 10.9165 13.8552 10.936 13.8552C10.9554 13.8552 10.9746 13.8558 10.9937 13.8569C11.0128 13.8558 11.032 13.8552 11.0514 13.8552C11.0707 13.8552 11.09 13.8558 11.1091 13.8569C11.1281 13.8558 11.1474 13.8552 11.1667 13.8552C11.1863 13.8552 11.2057 13.8558 11.2249 13.8569C11.2442 13.8558 11.2636 13.8552 11.2831 13.8552C11.3025 13.8552 11.3217 13.8558 11.3408 13.8569C11.3599 13.8558 11.3791 13.8552 11.3985 13.8552C11.418 13.8552 11.4374 13.8558 11.4566 13.8569C11.4759 13.8558 11.4953 13.8552 11.5148 13.8552C11.5342 13.8552 11.5534 13.8558 11.5725 13.8569C11.5916 13.8558 11.6108 13.8552 11.6302 13.8552C11.6495 13.8552 11.6688 13.8558 11.6879 13.8569C11.7069 13.8558 11.7262 13.8552 11.7455 13.8552C11.7651 13.8552 11.7845 13.8558 11.8037 13.8569C11.823 13.8558 11.8424 13.8552 11.8619 13.8552C11.8813 13.8552 11.9005 13.8558 11.9196 13.8569C11.9387 13.8558 11.9579 13.8552 11.9773 13.8552C11.9968 13.8552 12.0162 13.8558 12.0354 13.8569C12.0547 13.8558 12.0741 13.8552 12.0936 13.8552C12.113 13.8552 12.1322 13.8558 12.1513 13.8569C12.1704 13.8558 12.1896 13.8552 12.209 13.8552C12.2283 13.8552 12.2476 13.8558 12.2667 13.8569C12.2857 13.8558 12.305 13.8552 12.3243 13.8552C12.3439 13.8552 12.3633 13.8558 12.3825 13.8569C12.4018 13.8558 12.4212 13.8552 12.4407 13.8552C12.4601 13.8552 12.4793 13.8558 12.4984 13.8569C12.5175 13.8558 12.5367 13.8552 12.5561 13.8552C12.5754 13.8552 12.5947 13.8558 12.6137 13.8569C12.6328 13.8558 12.6521 13.8552 12.6714 13.8552C12.6909 13.8552 12.7103 13.8558 12.7296 13.8569C12.7489 13.8558 12.7682 13.8552 12.7878 13.8552C12.8071 13.8552 12.8264 13.8558 12.8455 13.8569C12.8646 13.8558 12.8838 13.8552 12.9031 13.8552C12.9227 13.8552 12.9421 13.8558 12.9613 13.8569C12.9806 13.8558 13 13.8552 13.0195 13.8552C13.0389 13.8552 13.0581 13.8558 13.0772 13.8569C13.0963 13.8558 13.1155 13.8552 13.1349 13.8552C13.1542 13.8552 13.1735 13.8558 13.1925 13.8569C13.2116 13.8558 13.2309 13.8552 13.2502 13.8552C13.2698 13.8552 13.2892 13.8558 13.3084 13.8569C13.3277 13.8558 13.347 13.8552 13.3666 13.8552C13.3859 13.8552 13.4052 13.8558 13.4243 13.8569C13.4433 13.8558 13.4626 13.8552 13.4819 13.8552C13.5015 13.8552 13.5209 13.8558 13.5401 13.8569C13.5594 13.8558 13.5788 13.8552 13.5983 13.8552C13.6177 13.8552 13.6369 13.8558 13.656 13.8569C13.6751 13.8558 13.6943 13.8552 13.7137 13.8552C14.2629 13.8552 14.7082 14.3029 14.7082 14.8552C14.7082 15.4075 14.2629 15.8552 13.7137 15.8552C13.6943 15.8552 13.6751 15.8547 13.656 15.8536C13.6369 15.8547 13.6177 15.8552 13.5983 15.8552C13.5788 15.8552 13.5594 15.8547 13.5401 15.8535C13.5209 15.8547 13.5015 15.8552 13.4819 15.8552C13.4626 15.8552 13.4433 15.8547 13.4243 15.8536C13.4052 15.8547 13.3859 15.8552 13.3666 15.8552C13.347 15.8552 13.3277 15.8547 13.3084 15.8535C13.2892 15.8547 13.2698 15.8552 13.2502 15.8552C13.2309 15.8552 13.2116 15.8547 13.1925 15.8536C13.1735 15.8547 13.1542 15.8552 13.1349 15.8552C13.1155 15.8552 13.0963 15.8547 13.0772 15.8536C13.0581 15.8547 13.0389 15.8552 13.0195 15.8552C13 15.8552 12.9806 15.8547 12.9613 15.8535C12.9421 15.8547 12.9227 15.8552 12.9031 15.8552C12.8838 15.8552 12.8646 15.8547 12.8455 15.8536C12.8264 15.8547 12.8071 15.8552 12.7878 15.8552C12.7682 15.8552 12.7489 15.8547 12.7296 15.8535C12.7103 15.8547 12.6909 15.8552 12.6714 15.8552C12.6521 15.8552 12.6328 15.8547 12.6137 15.8536C12.5947 15.8547 12.5754 15.8552 12.5561 15.8552C12.5367 15.8552 12.5175 15.8547 12.4984 15.8536C12.4793 15.8547 12.4601 15.8552 12.4407 15.8552C12.4212 15.8552 12.4018 15.8547 12.3825 15.8535C12.3633 15.8547 12.3439 15.8552 12.3243 15.8552C12.305 15.8552 12.2857 15.8547 12.2667 15.8536C12.2476 15.8547 12.2283 15.8552 12.209 15.8552C12.1896 15.8552 12.1704 15.8547 12.1513 15.8536C12.1322 15.8547 12.113 15.8552 12.0936 15.8552C12.0741 15.8552 12.0547 15.8547 12.0354 15.8535C12.0162 15.8547 11.9968 15.8552 11.9773 15.8552C11.9579 15.8552 11.9387 15.8547 11.9196 15.8536C11.9005 15.8547 11.8813 15.8552 11.8619 15.8552C11.8424 15.8552 11.823 15.8547 11.8037 15.8535C11.7845 15.8547 11.7651 15.8552 11.7455 15.8552C11.7262 15.8552 11.7069 15.8547 11.6879 15.8536C11.6688 15.8547 11.6495 15.8552 11.6302 15.8552C11.6108 15.8552 11.5916 15.8547 11.5725 15.8536C11.5534 15.8547 11.5342 15.8552 11.5148 15.8552C11.4953 15.8552 11.4759 15.8547 11.4566 15.8535C11.4374 15.8547 11.418 15.8552 11.3985 15.8552C11.3791 15.8552 11.3599 15.8547 11.3408 15.8536C11.3217 15.8547 11.3025 15.8552 11.2831 15.8552C11.2636 15.8552 11.2442 15.8547 11.2249 15.8535C11.2057 15.8547 11.1863 15.8552 11.1667 15.8552C11.1474 15.8552 11.1281 15.8547 11.1091 15.8536C11.09 15.8547 11.0707 15.8552 11.0514 15.8552C11.032 15.8552 11.0128 15.8547 10.9937 15.8536C10.9746 15.8547 10.9554 15.8552 10.936 15.8552C10.9165 15.8552 10.8971 15.8547 10.8778 15.8535C10.8586 15.8547 10.8392 15.8552 10.8196 15.8552C10.8003 15.8552 10.7811 15.8547 10.762 15.8536C10.7429 15.8547 10.7237 15.8552 10.7043 15.8552C10.6848 15.8552 10.6654 15.8547 10.6461 15.8535C10.6269 15.8547 10.6075 15.8552 10.5879 15.8552C10.5686 15.8552 10.5493 15.8547 10.5302 15.8536C10.5112 15.8547 10.4919 15.8552 10.4726 15.8552C10.4532 15.8552 10.434 15.8547 10.4149 15.8536C10.3958 15.8547 10.3766 15.8552 10.3572 15.8552C10.3377 15.8552 10.3183 15.8547 10.299 15.8535C10.2798 15.8547 10.2604 15.8552 10.2409 15.8552C10.2215 15.8552 10.2023 15.8547 10.1832 15.8536C10.1641 15.8547 10.1448 15.8552 10.1255 15.8552C10.1061 15.8552 10.0869 15.8547 10.0678 15.8536C10.0487 15.8547 10.0295 15.8552 10.0101 15.8552C9.99059 15.8552 9.9712 15.8547 9.95195 15.8535C9.9327 15.8547 9.9133 15.8552 9.89377 15.8552C9.87441 15.8552 9.85518 15.8547 9.83609 15.8536C9.817 15.8547 9.79777 15.8552 9.7784 15.8552C9.75887 15.8552 9.73948 15.8547 9.72023 15.8535C9.70097 15.8547 9.68157 15.8552 9.66204 15.8552C9.64268 15.8552 9.62345 15.8547 9.60437 15.8536C9.58528 15.8547 9.56605 15.8552 9.54669 15.8552C9.52733 15.8552 9.5081 15.8547 9.48901 15.8536C9.46992 15.8547 9.45069 15.8552 9.43132 15.8552C9.41179 15.8552 9.3924 15.8547 9.37315 15.8535C9.35389 15.8547 9.33449 15.8552 9.31496 15.8552C9.2956 15.8552 9.27637 15.8547 9.25728 15.8536C9.2382 15.8547 9.21897 15.8552 9.19961 15.8552C9.18008 15.8552 9.16068 15.8547 9.14143 15.8535C9.12218 15.8547 9.10278 15.8552 9.08325 15.8552C9.06388 15.8552 9.04465 15.8547 9.02556 15.8536C9.00647 15.8547 8.98724 15.8552 8.96788 15.8552C8.94852 15.8552 8.92929 15.8547 8.9102 15.8536C8.89112 15.8547 8.87189 15.8552 8.85253 15.8552C8.833 15.8552 8.8136 15.8547 8.79435 15.8535C8.77509 15.8547 8.7557 15.8552 8.73616 15.8552C8.7168 15.8552 8.69757 15.8547 8.67848 15.8536C8.65939 15.8547 8.64016 15.8552 8.6208 15.8552C8.59763 15.8552 8.57464 15.8544 8.55187 15.8529C8.53452 15.8538 8.51705 15.8542 8.49947 15.8542C8.46788 15.8542 8.43663 15.8527 8.40579 15.8498C8.39661 15.8501 8.38739 15.8502 8.37815 15.8502C8.33811 15.8502 8.29863 15.8478 8.25984 15.8432L8.2578 15.8432C8.21205 15.8432 8.16703 15.8401 8.12292 15.8341C8.07398 15.8333 8.02589 15.829 7.97891 15.8214C7.92963 15.8194 7.88127 15.8139 7.83408 15.8049C7.78576 15.8017 7.73839 15.7949 7.6922 15.785C7.64362 15.7805 7.59605 15.7725 7.54974 15.7612C7.50424 15.7558 7.45967 15.7473 7.41626 15.7359C7.37102 15.7296 7.32676 15.7203 7.28367 15.7082C7.23592 15.7007 7.18929 15.6898 7.14405 15.6757C7.0966 15.6669 7.05033 15.6548 7.00549 15.6395C6.96111 15.6301 6.91782 15.6176 6.87585 15.6024C6.82902 15.5915 6.78346 15.5773 6.73943 15.56C6.69563 15.5485 6.65301 15.5341 6.61178 15.517C6.5683 15.5047 6.52602 15.4896 6.48516 15.4717C6.4385 15.4575 6.39329 15.44 6.3498 15.4194C6.30724 15.405 6.26595 15.3879 6.22618 15.3681C6.18398 15.3529 6.1431 15.3349 6.10375 15.3144C6.05934 15.2974 6.01645 15.2774 5.97534 15.2545C5.93383 15.2373 5.89374 15.2174 5.85527 15.195C5.81297 15.1765 5.7722 15.1552 5.73319 15.1312C5.68913 15.1107 5.6468 15.087 5.60651 15.0605C5.57021 15.0422 5.53518 15.0217 5.50158 14.9992C5.45827 14.977 5.4168 14.9516 5.37745 14.9234C5.33934 14.9023 5.30275 14.8787 5.2679 14.8529C5.2273 14.8295 5.18851 14.8032 5.15177 14.7744C5.11381 14.7511 5.07753 14.7254 5.04314 14.6973C5.00418 14.6724 4.96706 14.6448 4.93203 14.6148C4.89575 14.5902 4.86116 14.5634 4.82848 14.5344C4.79039 14.5076 4.75426 14.4782 4.72034 14.4465C4.68507 14.4203 4.65158 14.3919 4.62008 14.3614C4.58177 14.3318 4.54566 14.2996 4.51204 14.2648C4.47956 14.2382 4.44879 14.2094 4.41992 14.1789C4.38463 14.1491 4.35142 14.117 4.32055 14.0826C4.28598 14.052 4.25354 14.0189 4.22348 13.9838C4.19127 13.9538 4.16104 13.9216 4.13301 13.8876C4.09997 13.8556 4.06912 13.8213 4.04072 13.785C4.00996 13.7537 3.98124 13.7204 3.95477 13.6852C3.92298 13.6517 3.89348 13.616 3.86653 13.5782C3.8353 13.5437 3.80644 13.5069 3.78022 13.4681C3.75304 13.4364 3.72781 13.4029 3.70471 13.3678C3.67406 13.3311 3.64599 13.2921 3.62077 13.2512C3.59435 13.2176 3.57003 13.1823 3.548 13.1454C3.51767 13.1057 3.49025 13.0636 3.46604 13.0195C3.4427 12.9865 3.4213 12.952 3.402 12.9163C3.37435 12.8766 3.3495 12.8348 3.32772 12.7911C3.30401 12.7547 3.28259 12.7166 3.26369 12.6771C3.23938 12.6384 3.21762 12.598 3.19867 12.556C3.17451 12.5155 3.15312 12.4732 3.13476 12.4292C3.11226 12.3892 3.09242 12.3474 3.0755 12.3041C3.05528 12.266 3.03745 12.2264 3.0222 12.1856C3.00117 12.1445 2.98287 12.1018 2.96757 12.0577C2.94666 12.0143 2.92878 11.9691 2.9142 11.9225C2.89665 11.8831 2.88156 11.8423 2.86914 11.8004C2.84973 11.7552 2.83353 11.7083 2.82085 11.66C2.80556 11.6209 2.79265 11.5806 2.7823 11.5393C2.76517 11.4941 2.75121 11.4473 2.74068 11.3992C2.7251 11.3542 2.71262 11.3078 2.7035 11.2601C2.69014 11.2179 2.67949 11.1745 2.67174 11.1302C2.65794 11.0839 2.64738 11.0363 2.64032 10.9875C2.62878 10.9445 2.62002 10.9004 2.61424 10.8553C2.60265 10.809 2.59427 10.7615 2.58934 10.713C2.5794 10.6684 2.57242 10.6227 2.56862 10.576C2.55856 10.5267 2.55212 10.476 2.54958 10.4243C2.54201 10.3796 2.5374 10.3339 2.53593 10.2874C2.52916 10.2428 2.52532 10.1973 2.52461 10.1509C2.51862 10.1065 2.51553 10.0612 2.51553 10.0152C2.51553 10.0087 2.51559 10.0021 2.51572 9.99564C2.51231 9.96196 2.51056 9.9278 2.51056 9.89322C2.51056 9.88115 2.51078 9.86912 2.5112 9.85715C2.5088 9.82883 2.50758 9.80017 2.50758 9.77122C2.50758 9.74792 2.50837 9.7248 2.50993 9.7019C2.50903 9.68445 2.50857 9.66689 2.50857 9.64922C2.50857 9.62027 2.5098 9.59161 2.51219 9.56328C2.51177 9.55131 2.51156 9.53929 2.51156 9.52722C2.51156 9.48981 2.5136 9.45288 2.51758 9.41653C2.51754 9.41277 2.51752 9.40899 2.51752 9.40522C2.51752 9.35923 2.52061 9.31396 2.52659 9.26962C2.52729 9.22322 2.53114 9.17759 2.53793 9.13293C2.53948 9.08363 2.54458 9.03524 2.55299 8.98799C2.55579 8.93884 2.56213 8.89064 2.57175 8.84364C2.57582 8.79478 2.58338 8.74691 2.59419 8.7003C2.5992 8.65458 2.60729 8.60979 2.61822 8.56614C2.62436 8.51826 2.63386 8.47144 2.64649 8.42594C2.65352 8.37994 2.66368 8.33498 2.67672 8.29128C2.68504 8.24359 2.69672 8.19706 2.71151 8.15195C2.72042 8.10788 2.73221 8.06486 2.74667 8.02311C2.7572 7.97508 2.77115 7.92835 2.78827 7.88319C2.79998 7.83643 2.81497 7.79098 2.83297 7.7471C2.84444 7.70605 2.85846 7.66606 2.87483 7.62733C2.88826 7.58127 2.9049 7.53659 2.92449 7.49355C2.93918 7.44782 2.95706 7.40352 2.97787 7.36093C2.99323 7.31723 3.01152 7.27493 3.03251 7.23426C3.04841 7.19214 3.06707 7.15138 3.08826 7.1122C3.10497 7.07043 3.12441 7.03004 3.14635 6.99128C3.16387 6.94985 3.18409 6.90985 3.20678 6.87151C3.22668 6.82689 3.24973 6.78401 3.27565 6.74315C3.2958 6.70153 3.31873 6.66153 3.3442 6.62338C3.36397 6.58495 3.38615 6.54798 3.41053 6.51266C3.43233 6.47175 3.45687 6.43254 3.48392 6.39528C3.50664 6.35503 3.53206 6.31652 3.55993 6.28C3.58275 6.2418 3.60804 6.20525 3.63558 6.17059C3.66005 6.13136 3.68716 6.09396 3.71665 6.05863C3.74241 6.01953 3.77083 5.98236 3.80165 5.94738C3.82683 5.91122 3.85432 5.87681 3.88392 5.84437C3.90993 5.80843 3.93826 5.77431 3.96869 5.74222C3.99516 5.70707 4.02388 5.67373 4.05464 5.64242C4.08443 5.60435 4.1169 5.56851 4.15178 5.53519C4.17998 5.50136 4.21036 5.46945 4.2427 5.43965C4.27296 5.40472 4.3056 5.37193 4.34035 5.34152C4.37012 5.3088 4.40202 5.27807 4.43583 5.24956C4.46612 5.21751 4.4985 5.18747 4.53275 5.15967C4.56641 5.12539 4.60252 5.09354 4.64078 5.06441C4.67271 5.03379 4.70667 5.00529 4.74243 4.97912C4.77324 4.9507 4.80584 4.92421 4.84004 4.89983C4.87734 4.86626 4.91718 4.83549 4.95922 4.80782C4.99181 4.78058 5.02616 4.7554 5.06208 4.73246C5.09726 4.70393 5.13441 4.67775 5.1733 4.65418C5.20894 4.62651 5.2465 4.60122 5.28574 4.57855C5.32384 4.55033 5.36401 4.52478 5.40598 4.50217C5.44113 4.47764 5.47792 4.45533 5.51616 4.43544C5.55407 4.40984 5.59382 4.3868 5.63518 4.36656C5.67378 4.3418 5.71418 4.31964 5.75616 4.30034C5.793 4.2779 5.8314 4.25779 5.87117 4.24022C5.91271 4.21581 5.95617 4.19435 6.00126 4.1761C6.04135 4.15419 6.08311 4.13496 6.12629 4.11866C6.16483 4.0987 6.20485 4.08119 6.24612 4.06635C6.28922 4.04491 6.33409 4.02652 6.38045 4.01146C6.42092 3.99283 6.46286 3.97686 6.50603 3.96375C6.54927 3.94484 6.59412 3.92893 6.6403 3.91628C6.67915 3.90054 6.71922 3.8872 6.76032 3.87644C6.80678 3.85818 6.85494 3.84334 6.9045 3.83222C6.94652 3.81742 6.98984 3.80537 7.03422 3.79629C7.07661 3.78224 7.12025 3.77098 7.16494 3.76272C7.21088 3.74843 7.25825 3.7374 7.30677 3.72989C7.34947 3.71791 7.39333 3.70873 7.43815 3.70255C7.48412 3.69049 7.53139 3.68165 7.5797 3.67629C7.62605 3.66543 7.67364 3.65783 7.72223 3.65374C7.76892 3.64408 7.81682 3.63771 7.86565 3.63489C7.90965 3.62697 7.95465 3.62197 8.00045 3.62007C8.0479 3.61236 8.09648 3.60803 8.14593 3.60732C8.19 3.60132 8.23498 3.59822 8.28069 3.59822C8.28412 3.59822 8.28755 3.59824 8.29098 3.59827C8.32711 3.59427 8.36382 3.59222 8.40102 3.59222C8.41026 3.59222 8.41947 3.59234 8.42865 3.5926C8.45949 3.5897 8.49075 3.58822 8.52234 3.58822C8.54271 3.58822 8.56294 3.58883 8.58301 3.59005C8.60307 3.58883 8.6233 3.58822 8.64367 3.58822C8.66976 3.58822 8.69563 3.58923 8.72121 3.59121C8.73606 3.59055 8.75099 3.59022 8.766 3.59022C8.80036 3.59022 8.83432 3.59197 8.86778 3.59539C8.87395 3.59527 8.88014 3.59522 8.88634 3.59522C8.9292 3.59522 8.97143 3.59794 9.01287 3.60324C9.0622 3.60354 9.11067 3.60745 9.15804 3.61473C9.20428 3.6162 9.24972 3.62084 9.29416 3.62845C9.34298 3.63087 9.39087 3.63683 9.43759 3.64608C9.4859 3.64975 9.53325 3.65688 9.57939 3.66724C9.6255 3.67189 9.67068 3.6797 9.71472 3.69046C9.76235 3.69623 9.80893 3.70539 9.85424 3.71769C9.90228 3.72472 9.9492 3.7352 9.99475 3.74887C10.0403 3.75678 10.0847 3.7678 10.1279 3.78171C10.1744 3.79083 10.2198 3.80321 10.2638 3.81862C10.3082 3.82845 10.3515 3.84126 10.3934 3.85684C10.4409 3.86832 10.4871 3.88322 10.5317 3.90128C10.5752 3.9132 10.6175 3.92801 10.6584 3.9455C10.7008 3.95799 10.742 3.97324 10.7818 3.99104C10.8284 4.00561 10.8736 4.02353 10.917 4.04453C10.9605 4.0596 11.0027 4.07762 11.0432 4.09835C11.0841 4.1136 11.1237 4.13148 11.1619 4.15179C11.2073 4.16954 11.2511 4.19054 11.293 4.21452C11.3342 4.23213 11.374 4.25247 11.4121 4.27529C11.4529 4.2937 11.4923 4.3148 11.53 4.33837C11.5717 4.35814 11.6118 4.38074 11.65 4.40591C11.6898 4.426 11.7281 4.44869 11.7646 4.47377C11.8076 4.49653 11.8487 4.52235 11.8877 4.55097C11.9242 4.57181 11.9593 4.59492 11.9928 4.62009C12.0346 4.64466 12.0745 4.67222 12.1122 4.70247C12.1477 4.7249 12.1818 4.74953 12.2141 4.77616C12.2548 4.80253 12.2934 4.8318 12.3297 4.86369C12.3643 4.88766 12.3972 4.91377 12.4284 4.94183C12.4679 4.96996 12.5052 5.00092 12.5402 5.03441C12.5751 5.06102 12.6083 5.0899 12.6394 5.12083C12.674 5.14821 12.7068 5.17785 12.7375 5.20953C12.7732 5.23888 12.8068 5.27068 12.8381 5.30467C12.8731 5.33485 12.9059 5.36743 12.9363 5.40215C12.9689 5.43179 12.9995 5.46356 13.028 5.49726C13.0599 5.52741 13.0899 5.55965 13.1176 5.59377C13.1506 5.62608 13.1814 5.66068 13.2097 5.69732C13.2419 5.73045 13.2718 5.76583 13.2992 5.8032C13.3308 5.83732 13.36 5.87365 13.3866 5.91195C13.4155 5.94482 13.4422 5.97959 13.4666 6.01608C13.4952 6.04987 13.5216 6.0856 13.5456 6.12305C13.5747 6.15874 13.6014 6.19648 13.6254 6.23604C13.6526 6.27111 13.6775 6.30804 13.6999 6.34663C13.7273 6.38352 13.7523 6.42238 13.7746 6.46296C13.8003 6.49926 13.8236 6.53735 13.8444 6.57702C13.8716 6.61705 13.8959 6.65916 13.9172 6.70307C13.9397 6.73858 13.9601 6.77561 13.9781 6.81398C14.0028 6.85398 14.0248 6.89586 14.0438 6.93936C14.0668 6.97898 14.0872 7.02032 14.1048 7.06317C14.1257 7.10111 14.1442 7.14056 14.1601 7.18132C14.1833 7.22502 14.2034 7.27066 14.22 7.31793C14.2391 7.35714 14.2558 7.3978 14.2698 7.4397C14.2887 7.48004 14.305 7.52186 14.3184 7.56494C14.3381 7.60906 14.3547 7.65487 14.3679 7.7021C14.3849 7.74356 14.3992 7.78642 14.4106 7.83047C14.4278 7.87474 14.4419 7.92054 14.4528 7.96762C14.4679 8.00982 14.4803 8.05334 14.4897 8.09795C14.504 8.14053 14.5156 8.1844 14.5242 8.22934C14.5386 8.27479 14.5498 8.32165 14.5577 8.36966C14.5709 8.41551 14.5809 8.46272 14.5875 8.51103C14.5994 8.55666 14.6081 8.60357 14.6134 8.6515C14.6237 8.69576 14.6311 8.74115 14.6353 8.78745C14.6448 8.83181 14.6513 8.87725 14.6547 8.92357C14.6644 8.97299 14.6704 9.0237 14.6725 9.07544C14.6797 9.12011 14.6839 9.16577 14.685 9.21221C14.6918 9.25923 14.6952 9.30731 14.6952 9.35622L14.6952 9.35831C14.6998 9.3973 14.7022 9.43698 14.7022 9.47722C14.7022 9.48373 14.7021 9.49022 14.702 9.4967C14.7054 9.53041 14.7072 9.5646 14.7072 9.59922C14.7072 9.61689 14.7067 9.63446 14.7058 9.6519C14.7074 9.6748 14.7082 9.69792 14.7082 9.72122C14.7082 10.2735 14.2629 10.7212 13.7137 10.7212C13.1644 10.7212 12.7192 10.2735 12.7192 9.72122C12.7192 9.70354 12.7196 9.68598 12.7205 9.66854C12.719 9.64563 12.7182 9.62252 12.7182 9.59922C12.7182 9.59448 12.7182 9.58976 12.7183 9.58504L12.7184 9.57974C12.7149 9.54603 12.7132 9.51183 12.7132 9.47722L12.7132 9.47513C12.7095 9.44392 12.7073 9.41226 12.7065 9.38023C12.7017 9.34666 12.6985 9.31256 12.6971 9.27799C12.6926 9.24966 12.6892 9.22094 12.6871 9.19186C12.6806 9.15879 12.6758 9.12514 12.6727 9.09099C12.6658 9.05885 12.6605 9.02615 12.6568 8.99295C12.6498 8.96293 12.6442 8.9324 12.6399 8.90141C12.6323 8.87204 12.626 8.84214 12.621 8.81178C12.6127 8.78274 12.6056 8.75316 12.5998 8.7231C12.5899 8.69186 12.5815 8.65997 12.5747 8.62748C12.5643 8.59657 12.5553 8.56499 12.5479 8.53281C12.5378 8.50475 12.529 8.47612 12.5215 8.44696C12.5097 8.41677 12.4994 8.38587 12.4906 8.35433C12.4798 8.32794 12.47 8.30098 12.4614 8.2735C12.4484 8.24429 12.4368 8.21435 12.4266 8.18374C12.4125 8.15378 12.3999 8.12301 12.3889 8.09151C12.377 8.06725 12.3661 8.04244 12.3562 8.01712C12.3408 7.98799 12.3267 7.95802 12.3141 7.92727C12.2994 7.90059 12.2859 7.87317 12.2736 7.84507C12.259 7.81988 12.2454 7.79398 12.233 7.76745C12.215 7.73838 12.1985 7.70832 12.1835 7.67737C12.1687 7.65402 12.1548 7.63002 12.1419 7.60541C12.1242 7.57929 12.1076 7.55229 12.0924 7.52447C12.0751 7.50004 12.0589 7.4748 12.0438 7.44881C12.025 7.42357 12.0073 7.39741 11.991 7.3704C11.9727 7.34688 11.9555 7.32252 11.9394 7.29738C11.9195 7.27297 11.9008 7.24761 11.8832 7.22135C11.8626 7.19704 11.8432 7.17172 11.8249 7.14549C11.8057 7.12357 11.7874 7.1008 11.7701 7.07724C11.7499 7.05542 11.7307 7.03269 11.7125 7.00912C11.6918 6.98787 11.6721 6.9657 11.6534 6.94267C11.6308 6.92055 11.6093 6.89736 11.5888 6.87318C11.566 6.85159 11.5442 6.82894 11.5234 6.80528C11.5015 6.78539 11.4805 6.76453 11.4605 6.74277C11.4381 6.72344 11.4166 6.70313 11.3961 6.6819C11.3717 6.66191 11.3484 6.64079 11.326 6.6186C11.3011 6.59889 11.2772 6.578 11.2542 6.55602C11.2324 6.53942 11.2113 6.52193 11.191 6.50361C11.1634 6.484 11.137 6.46301 11.1116 6.44075C11.0891 6.42514 11.0673 6.40864 11.0462 6.39127C11.0179 6.37288 10.9905 6.35308 10.9642 6.33196C10.941 6.31734 10.9185 6.30178 10.8966 6.28534C10.8673 6.26815 10.839 6.24949 10.8117 6.22947C10.7878 6.21582 10.7645 6.2012 10.7419 6.18567C10.714 6.17089 10.6869 6.15481 10.6606 6.13752C10.6336 6.12388 10.6072 6.10904 10.5817 6.09307C10.5529 6.07941 10.5249 6.06441 10.4977 6.04814C10.4687 6.03506 10.4404 6.02063 10.413 6.00492C10.3871 5.99388 10.3619 5.98177 10.3372 5.96864C10.3064 5.95659 10.2763 5.94305 10.247 5.92809C10.2182 5.91731 10.1899 5.90523 10.1624 5.8919C10.1353 5.88252 10.1087 5.872 10.0828 5.86039C10.0509 5.85045 10.0198 5.83893 9.98935 5.82594C9.95835 5.81679 9.92797 5.80617 9.8983 5.79415C9.87028 5.78648 9.84276 5.77761 9.81578 5.76759C9.78378 5.75986 9.75238 5.75058 9.72166 5.73982C9.69151 5.73314 9.66187 5.72509 9.63281 5.71573C9.60103 5.7095 9.5698 5.70175 9.53918 5.69256C9.50896 5.6873 9.4792 5.68068 9.44997 5.67275C9.41908 5.66823 9.38866 5.66228 9.35876 5.65497C9.32578 5.65098 9.29329 5.64535 9.26139 5.63819C9.22996 5.63503 9.19897 5.63039 9.16847 5.62435C9.1373 5.62199 9.10653 5.61818 9.07622 5.61299C9.04187 5.61128 9.00799 5.60783 8.97464 5.60271C8.94273 5.60169 8.91121 5.59917 8.88013 5.5952C8.84789 5.595 8.81601 5.59326 8.78456 5.59005C8.78325 5.59007 8.78194 5.59009 8.78063 5.59011C8.77576 5.59018 8.77089 5.59022 8.766 5.59022C8.73991 5.59022 8.71405 5.58921 8.68846 5.58722C8.67361 5.58788 8.65868 5.58822 8.64367 5.58822C8.6233 5.58822 8.60307 5.5876 8.58301 5.58639Z" fill="url(#paint1_angular_3025_25637)"/>
<path d="M8.55417 8.00922C8.56482 8.00922 8.57543 8.00905 8.586 8.00871C8.59657 8.00905 8.60718 8.00922 8.61782 8.00922C8.62341 8.00922 8.62899 8.00917 8.63455 8.00908C8.64532 8.00959 8.65613 8.00993 8.66699 8.0101C8.68289 8.01136 8.6989 8.01224 8.71501 8.01274C8.73037 8.0142 8.74582 8.0153 8.76137 8.01605C8.77178 8.01722 8.78224 8.01822 8.79275 8.01906C8.80331 8.02058 8.81392 8.02193 8.82459 8.02312C8.8393 8.02571 8.85413 8.02799 8.86905 8.02992C8.88439 8.03291 8.89985 8.03555 8.91542 8.03782C8.92463 8.03976 8.93388 8.04158 8.94317 8.04327C8.95693 8.04667 8.97079 8.04979 8.98477 8.05261C8.9995 8.05656 9.01437 8.06017 9.02937 8.06345C9.0393 8.06628 9.0493 8.06896 9.05936 8.07148C9.07264 8.07572 9.08604 8.07969 9.09956 8.08338C9.10121 8.08395 9.10287 8.08451 9.10453 8.08506C9.1058 8.08549 9.10707 8.08591 9.10833 8.08633C9.11354 8.08805 9.11877 8.08973 9.12401 8.09137C9.14299 8.09862 9.16223 8.1053 9.18174 8.11139L9.18774 8.11366C9.19355 8.11583 9.19939 8.11795 9.20525 8.12002C9.21936 8.12601 9.23365 8.13168 9.24809 8.13702C9.26016 8.14236 9.27237 8.14747 9.28469 8.15234C9.29036 8.15499 9.29607 8.15759 9.3018 8.16014C9.30348 8.16089 9.30517 8.16164 9.30687 8.16238C9.31823 8.16822 9.32972 8.17384 9.34133 8.17924C9.35475 8.18651 9.36836 8.19348 9.38215 8.20014C9.39325 8.20636 9.40448 8.21238 9.41583 8.21818C9.42904 8.22598 9.44245 8.23349 9.45605 8.24068C9.46432 8.24573 9.47268 8.25067 9.48112 8.25548C9.49003 8.2613 9.49904 8.26698 9.50814 8.27252C9.52209 8.28221 9.53631 8.29156 9.55077 8.30054C9.55973 8.30689 9.56881 8.31309 9.57799 8.31914C9.58533 8.32465 9.59274 8.33005 9.60023 8.33535C9.61241 8.34513 9.62484 8.35463 9.63748 8.36383C9.65028 8.37438 9.66335 8.38462 9.67667 8.39454C9.68265 8.39957 9.68869 8.40453 9.69479 8.40942C9.70387 8.41765 9.7131 8.42571 9.72248 8.4336C9.73125 8.44192 9.74018 8.45009 9.74925 8.4581C9.76065 8.46944 9.77232 8.4805 9.78425 8.49128C9.79265 8.49982 9.8012 8.50821 9.8099 8.51645C9.81814 8.52526 9.82655 8.53392 9.8351 8.54242C9.8385 8.54622 9.84192 8.54999 9.84537 8.55373C9.85033 8.55911 9.85534 8.56444 9.86042 8.56971C9.86803 8.57863 9.87578 8.58742 9.88369 8.59606C9.89182 8.60607 9.90013 8.61592 9.90863 8.62561C9.91568 8.6347 9.92288 8.64366 9.93023 8.65249C9.94009 8.66589 9.95028 8.67904 9.96078 8.69191C9.96724 8.70088 9.97384 8.70974 9.98058 8.71848C9.98564 8.72591 9.99079 8.73326 9.99604 8.74054C10.0068 8.75757 10.0181 8.77424 10.0299 8.79054C10.0341 8.79719 10.0383 8.80378 10.0427 8.81032C10.049 8.82109 10.0555 8.83173 10.0621 8.84224C10.0683 8.85344 10.0747 8.86451 10.0813 8.87544C10.0862 8.88471 10.0912 8.89391 10.0963 8.90301C10.104 8.91882 10.1121 8.9344 10.1206 8.94973C10.1241 8.95695 10.1276 8.96412 10.1312 8.97124C10.1385 8.98796 10.1462 9.00444 10.1543 9.02066C10.1554 9.02338 10.1566 9.02609 10.1578 9.0288L10.1609 9.03586C10.1679 9.05475 10.1755 9.07337 10.1837 9.09169C10.1859 9.09773 10.1883 9.10375 10.1906 9.10973C10.1925 9.11437 10.1943 9.11898 10.1962 9.12358C10.1996 9.13351 10.2032 9.14336 10.2069 9.15314C10.2114 9.16782 10.2162 9.18235 10.2214 9.19673C10.2253 9.20983 10.2293 9.22282 10.2337 9.23569C10.236 9.24434 10.2385 9.25293 10.241 9.26148C10.2445 9.27661 10.2484 9.29161 10.2526 9.30646C10.2556 9.3205 10.2589 9.33442 10.2625 9.34823C10.2645 9.35845 10.2667 9.36862 10.269 9.37873C10.2714 9.39325 10.2741 9.40766 10.2771 9.42196C10.2786 9.43236 10.2802 9.4427 10.282 9.45299C10.2837 9.46803 10.2857 9.48297 10.2881 9.4978C10.2896 9.51379 10.2915 9.52966 10.2937 9.54541C10.2946 9.55597 10.2956 9.56648 10.2967 9.57694C10.2975 9.59251 10.2986 9.60799 10.3 9.62337C10.3003 9.63429 10.3008 9.64518 10.3015 9.65602V9.65722C10.3015 9.67328 10.3019 9.68925 10.3026 9.70513C10.3026 9.71048 10.3025 9.71585 10.3025 9.72122C10.3025 10.2735 10.7478 10.7212 11.297 10.7212C11.8463 10.7212 12.2915 10.2735 12.2915 9.72122C12.2915 9.70515 12.2911 9.68918 12.2904 9.6733C12.2905 9.66795 12.2905 9.66259 12.2905 9.65722C12.2905 9.63579 12.2899 9.61451 12.2885 9.59341V9.59222C12.2885 9.56013 12.287 9.52839 12.2841 9.49707C12.2833 9.46993 12.2814 9.44306 12.2784 9.4165C12.2769 9.38459 12.2739 9.35308 12.2695 9.32202C12.2674 9.29559 12.2643 9.26945 12.2602 9.24363C12.2576 9.21657 12.254 9.18983 12.2494 9.16344C12.2458 9.13199 12.2408 9.10097 12.2344 9.07047C12.2306 9.04352 12.2256 9.01692 12.2196 8.99071C12.2145 8.9597 12.2081 8.92918 12.2002 8.8992C12.195 8.87239 12.1887 8.84597 12.1813 8.81997C12.1759 8.79459 12.1694 8.76957 12.1621 8.74495C12.1547 8.71328 12.1459 8.68218 12.1356 8.65175C12.1284 8.62528 12.1203 8.59925 12.1111 8.57371C12.1039 8.54917 12.0958 8.52502 12.0868 8.50131C12.0778 8.47189 12.0674 8.44305 12.0557 8.41486C12.0461 8.3869 12.0354 8.35951 12.0235 8.33274C12.0164 8.31373 12.0087 8.295 12.0005 8.27657C11.9882 8.24343 11.9741 8.21113 11.9584 8.17977C11.9495 8.15887 11.94 8.13833 11.9297 8.11819C11.9168 8.08824 11.9024 8.05905 11.8866 8.03071C11.8769 8.01022 11.8664 7.99011 11.8553 7.97043C11.8422 7.94359 11.8279 7.91742 11.8126 7.892C11.7997 7.86744 11.7859 7.84349 11.7711 7.8202C11.7577 7.79586 11.7432 7.77215 11.7279 7.74912C11.7116 7.72115 11.6939 7.69404 11.6751 7.66789C11.6643 7.65087 11.653 7.63419 11.6413 7.61789C11.6247 7.59172 11.607 7.56639 11.5881 7.54195C11.5718 7.51804 11.5545 7.49488 11.5363 7.47252C11.5226 7.45348 11.5083 7.43494 11.4933 7.41694C11.4762 7.39378 11.4582 7.37139 11.4393 7.34983C11.4226 7.32829 11.405 7.30745 11.3867 7.28738C11.3688 7.26536 11.35 7.24413 11.3304 7.22373C11.3125 7.20272 11.2937 7.18246 11.2741 7.16301C11.2555 7.1422 11.2361 7.12217 11.2158 7.10298C11.1967 7.08254 11.1767 7.06292 11.1559 7.04415C11.1393 7.02728 11.1221 7.01099 11.1044 6.99533C11.0846 6.97566 11.064 6.95681 11.0427 6.93884C11.0225 6.91971 11.0015 6.90141 10.9798 6.88401C10.9561 6.86247 10.9313 6.84207 10.9055 6.8229C10.8876 6.80783 10.8691 6.79339 10.8502 6.7796C10.8314 6.76407 10.8119 6.74922 10.792 6.73508C10.7678 6.71568 10.7427 6.69739 10.7168 6.68029C10.6934 6.6628 10.6694 6.64632 10.6445 6.6309C10.6257 6.61759 10.6064 6.60492 10.5867 6.59292C10.5627 6.5762 10.5378 6.56052 10.5123 6.54595C10.4869 6.5294 10.4608 6.51397 10.4339 6.49975C10.4127 6.4868 10.391 6.47462 10.3687 6.46325C10.3451 6.4493 10.3208 6.43629 10.296 6.4243C10.2743 6.41212 10.2521 6.40074 10.2294 6.3902C10.2053 6.37716 10.1807 6.3651 10.1555 6.35405C10.1268 6.33935 10.0974 6.326 10.0673 6.3141C10.0425 6.30253 10.0173 6.29195 9.99148 6.28241C9.96841 6.27221 9.94489 6.26286 9.92094 6.25441C9.89136 6.24187 9.86104 6.23072 9.83008 6.22105C9.81114 6.21381 9.79192 6.20715 9.77244 6.20106C9.74248 6.18962 9.71182 6.17959 9.68055 6.17105C9.65495 6.16232 9.62889 6.1546 9.6024 6.14795C9.57318 6.13862 9.54338 6.13061 9.51305 6.12399C9.48851 6.117 9.46358 6.11093 9.4383 6.10582C9.41246 6.0989 9.3862 6.093 9.35957 6.08816C9.32859 6.0805 9.29704 6.07429 9.26499 6.06962C9.23968 6.06427 9.21402 6.05988 9.18805 6.05651C9.16179 6.05139 9.13515 6.04731 9.1082 6.04432C9.0775 6.0389 9.04632 6.0349 9.01473 6.03238C8.98385 6.02793 8.95252 6.02491 8.92079 6.02338C8.89444 6.02044 8.86778 6.01853 8.84085 6.0177C8.81471 6.01521 8.78827 6.01375 8.76158 6.01334C8.73547 6.01127 8.70909 6.01022 8.68246 6.01022C8.67687 6.01022 8.67129 6.01026 8.66573 6.01036C8.64985 6.0096 8.63388 6.00922 8.61782 6.00922C8.60718 6.00922 8.59657 6.00939 8.586 6.00972C8.57543 6.00939 8.56482 6.00922 8.55417 6.00922C8.53287 6.00922 8.51172 6.00989 8.49074 6.01122L8.48953 6.01122C8.4629 6.01122 8.43651 6.01227 8.41041 6.01434C8.37816 6.01483 8.34628 6.01687 8.31484 6.02038C8.28878 6.02164 8.26298 6.0239 8.23748 6.02713C8.20463 6.02917 8.17221 6.03281 8.1403 6.03797C8.11483 6.04047 8.08965 6.04393 8.06479 6.04832C8.03784 6.05131 8.01121 6.05539 7.98496 6.0605C7.9529 6.06467 7.92132 6.07037 7.8903 6.07752C7.86467 6.08176 7.83936 6.08699 7.81443 6.09316C7.78258 6.09894 7.75127 6.10625 7.72055 6.115C7.69533 6.12051 7.67047 6.12698 7.64601 6.13437C7.61953 6.14058 7.59345 6.14786 7.56783 6.15615C7.53796 6.16381 7.50863 6.17283 7.47991 6.18314C7.45365 6.19074 7.42785 6.19939 7.40254 6.20906C7.37816 6.21667 7.35418 6.22521 7.33065 6.23461C7.30462 6.24318 7.27906 6.2528 7.25402 6.26341C7.22347 6.2742 7.1936 6.28644 7.16449 6.30006C7.14092 6.30937 7.11779 6.31955 7.09514 6.33057C7.06971 6.34106 7.04481 6.35257 7.02049 6.36506C6.99532 6.37608 6.9707 6.38813 6.94667 6.40114C6.92175 6.41273 6.89739 6.42533 6.87364 6.43888C6.84698 6.45203 6.82099 6.46634 6.79574 6.48175C6.77127 6.49471 6.7474 6.50866 6.72418 6.52355C6.70661 6.53337 6.68937 6.54371 6.67248 6.55454C6.64167 6.57176 6.61187 6.59057 6.58319 6.61087C6.56227 6.62386 6.54188 6.63761 6.52203 6.65208C6.49865 6.66705 6.47592 6.68298 6.45392 6.69981C6.42717 6.71783 6.40133 6.73712 6.3765 6.7576C6.3602 6.76946 6.34428 6.78181 6.32875 6.79462C6.30346 6.81302 6.27908 6.83258 6.25566 6.85324C6.23661 6.86813 6.21811 6.88371 6.2002 6.89993C6.17843 6.91738 6.15741 6.93573 6.13719 6.95493C6.11305 6.97523 6.08989 6.99667 6.06778 7.01915C6.05002 7.0352 6.03284 7.05188 6.01626 7.06917C5.99295 7.09074 5.97066 7.11341 5.94949 7.13711C5.93515 7.15132 5.92125 7.16597 5.90779 7.18103C5.88537 7.20331 5.86399 7.22667 5.84375 7.251C5.82472 7.27128 5.80652 7.29235 5.78922 7.31417C5.7734 7.33183 5.75819 7.35006 5.74364 7.36883C5.72472 7.39039 5.70671 7.41277 5.68967 7.43593C5.67193 7.45724 5.65506 7.47931 5.63912 7.50209C5.62192 7.52376 5.6056 7.54617 5.59021 7.56926C5.57072 7.59502 5.55245 7.62175 5.53548 7.64938C5.52225 7.66828 5.50966 7.68766 5.49773 7.70749C5.48376 7.72783 5.47051 7.74872 5.45803 7.77012C5.43851 7.79941 5.42049 7.82978 5.40407 7.86115C5.39364 7.87843 5.38372 7.89605 5.37432 7.914C5.35897 7.93942 5.34472 7.96558 5.33163 7.99242C5.31691 8.0185 5.30333 8.04531 5.29094 8.07278C5.27918 8.0951 5.26824 8.11792 5.25816 8.14119C5.24683 8.16351 5.23631 8.1863 5.22664 8.20955C5.21154 8.24042 5.19798 8.2722 5.18606 8.30477C5.17785 8.32353 5.17019 8.34259 5.16312 8.36193C5.15096 8.38972 5.14002 8.41818 5.13037 8.44723C5.11841 8.47704 5.10783 8.50756 5.09873 8.53871C5.09123 8.55953 5.0844 8.58068 5.07826 8.60212C5.06749 8.63247 5.05814 8.6635 5.05028 8.69512C5.04297 8.71826 5.03648 8.74176 5.03083 8.76559C5.02118 8.79748 5.01307 8.83004 5.00659 8.86319C5.00004 8.88822 4.99444 8.91363 4.98981 8.93938C4.98367 8.96446 4.97847 8.98991 4.97426 9.0157C4.96715 9.04684 4.9615 9.07853 4.95736 9.11069C4.95225 9.13716 4.94818 9.16401 4.9452 9.19118C4.94083 9.21619 4.93739 9.24152 4.93491 9.26713C4.92979 9.29916 4.92618 9.33171 4.92415 9.36468C4.92092 9.39039 4.91867 9.41641 4.91742 9.44269C4.91393 9.47424 4.91191 9.50624 4.91142 9.53861C4.90936 9.56487 4.90831 9.59142 4.90831 9.61822C4.90831 9.62103 4.90833 9.62384 4.90835 9.62665C4.90837 9.62945 4.90841 9.63225 4.90845 9.63505C4.9077 9.65101 4.90732 9.66707 4.90732 9.68322C4.90732 9.68738 4.90734 9.69154 4.9074 9.69569C4.90748 9.70238 4.90762 9.70906 4.90783 9.71572C4.90749 9.72651 4.90732 9.73734 4.90732 9.74822C4.90732 9.76428 4.9077 9.78026 4.90844 9.79613C4.90836 9.80148 4.90831 9.80685 4.90831 9.81222C4.90831 9.83901 4.90936 9.86556 4.91142 9.89182C4.91183 9.9186 4.91328 9.94513 4.91574 9.97136C4.91672 10.0036 4.91922 10.0354 4.92316 10.0668C4.92485 10.0943 4.92765 10.1216 4.93152 10.1485C4.93403 10.1796 4.93796 10.2102 4.94324 10.2404C4.94622 10.2675 4.95027 10.2942 4.95534 10.3205C4.9588 10.3475 4.96332 10.374 4.96886 10.4002C4.97345 10.4313 4.97946 10.462 4.98683 10.4921C4.99145 10.5178 4.99706 10.5432 5.0036 10.5682C5.00985 10.6002 5.01763 10.6317 5.02684 10.6625C5.033 10.689 5.04022 10.7152 5.04844 10.7409C5.05479 10.7659 5.06208 10.7906 5.07027 10.8149C5.07833 10.8447 5.08774 10.874 5.09841 10.9027C5.1054 10.9258 5.11319 10.9485 5.12176 10.9709C5.13095 11 5.14143 11.0286 5.15313 11.0565C5.16322 11.0854 5.17459 11.1137 5.18717 11.1413C5.19526 11.1624 5.20404 11.1832 5.21349 11.2036C5.22534 11.234 5.23863 11.2636 5.25327 11.2924C5.26424 11.3177 5.27622 11.3425 5.28916 11.3667C5.29964 11.3894 5.31095 11.4117 5.32305 11.4336C5.33501 11.4586 5.34797 11.4831 5.36189 11.5069C5.37319 11.5292 5.3853 11.5511 5.39818 11.5724C5.41455 11.6037 5.43252 11.634 5.45198 11.6632C5.46212 11.6806 5.47276 11.6976 5.4839 11.7143C5.50021 11.7423 5.51783 11.7694 5.53668 11.7955C5.55157 11.8191 5.56741 11.8419 5.58414 11.864C5.5978 11.8845 5.6122 11.9045 5.62729 11.9239C5.64237 11.9459 5.65831 11.9673 5.67506 11.988C5.69178 12.0113 5.70948 12.0339 5.7281 12.0557C5.74493 12.078 5.76266 12.0995 5.78125 12.1203C5.79859 12.1421 5.81682 12.1632 5.83589 12.1835C5.85373 12.205 5.87244 12.2257 5.89198 12.2455C5.91028 12.2665 5.92944 12.2867 5.9494 12.306C5.96292 12.3208 5.97688 12.3352 5.99126 12.3491C6.01535 12.3755 6.04084 12.4005 6.0676 12.4241C6.08737 12.4438 6.10797 12.4626 6.12933 12.4806C6.14381 12.4943 6.1587 12.5076 6.17398 12.5205C6.19984 12.545 6.227 12.5682 6.25536 12.5899C6.27378 12.6058 6.29279 12.6211 6.31235 12.6356C6.33022 12.6506 6.34862 12.6651 6.36753 12.6788C6.39237 12.6993 6.41822 12.7186 6.44499 12.7366C6.46439 12.7515 6.48434 12.7656 6.50481 12.779C6.52946 12.7973 6.55498 12.8145 6.5813 12.8305C6.60157 12.8446 6.62239 12.8579 6.64372 12.8705C6.66658 12.8859 6.69011 12.9004 6.71425 12.9139C6.73744 12.9288 6.76127 12.9427 6.78571 12.9556C6.80697 12.9686 6.82874 12.9808 6.851 12.9922C6.87874 13.0086 6.90733 13.0236 6.9367 13.0373C6.96074 13.0503 6.98537 13.0623 7.01055 13.0734C7.03487 13.0859 7.05977 13.0974 7.08521 13.1079C7.10786 13.1189 7.13098 13.1291 7.15455 13.1384C7.17922 13.1499 7.20444 13.1605 7.23015 13.17C7.25778 13.1822 7.28606 13.1932 7.31494 13.2029C7.34002 13.2131 7.3656 13.2223 7.39165 13.2304C7.41694 13.2401 7.44273 13.2487 7.46896 13.2563C7.49295 13.2649 7.51736 13.2726 7.54215 13.2794C7.57105 13.2892 7.60055 13.2978 7.63057 13.305C7.65752 13.3133 7.68496 13.3204 7.71282 13.3263C7.74251 13.3347 7.77275 13.3417 7.80349 13.3473C7.82843 13.3534 7.85373 13.3587 7.87937 13.3629C7.90543 13.3689 7.93188 13.3739 7.95869 13.3778C7.98901 13.3842 8.01985 13.3892 8.05112 13.3928C8.07736 13.3975 8.10395 13.4011 8.13085 13.4037C8.15658 13.4078 8.18265 13.411 8.209 13.4131C8.23987 13.4175 8.27119 13.4205 8.3029 13.4221C8.32925 13.425 8.3559 13.4269 8.38283 13.4277C8.41402 13.4307 8.44563 13.4322 8.4776 13.4322H8.47883C8.4998 13.4335 8.52094 13.4342 8.54224 13.4342C8.55289 13.4342 8.5635 13.434 8.57407 13.4337C8.58464 13.434 8.59524 13.4342 8.60589 13.4342C8.61604 13.4342 8.62615 13.4341 8.63622 13.4338C8.6463 13.4341 8.65641 13.4342 8.66655 13.4342C8.67687 13.4342 8.68715 13.4341 8.69738 13.4337C8.70762 13.4341 8.7179 13.4342 8.72821 13.4342C8.73405 13.4342 8.73987 13.4342 8.74568 13.4341C8.74998 13.434 8.75426 13.4339 8.75855 13.4338C8.76862 13.4341 8.77873 13.4342 8.78888 13.4342C8.79919 13.4342 8.80947 13.4341 8.81971 13.4337C8.82747 13.434 8.83526 13.4341 8.84307 13.4342C8.84555 13.4342 8.84804 13.4342 8.85054 13.4342C8.86068 13.4342 8.87079 13.4341 8.88087 13.4338C8.89094 13.4341 8.90105 13.4342 8.9112 13.4342C8.92151 13.4342 8.93179 13.4341 8.94203 13.4337C8.95227 13.4341 8.96254 13.4342 8.97286 13.4342C8.983 13.4342 8.99312 13.4341 9.00319 13.4338C9.01326 13.4341 9.02337 13.4342 9.03352 13.4342C9.04383 13.4342 9.05411 13.4341 9.06435 13.4337C9.06896 13.4339 9.07359 13.434 9.07822 13.4341C9.08386 13.4342 9.08951 13.4342 9.09518 13.4342C9.10533 13.4342 9.11544 13.4341 9.12551 13.4338C9.13559 13.4341 9.1457 13.4342 9.15584 13.4342C9.16616 13.4342 9.17643 13.4341 9.18667 13.4337C9.19691 13.4341 9.20719 13.4342 9.2175 13.4342C9.22222 13.4342 9.22693 13.4342 9.23164 13.4341C9.23705 13.434 9.24245 13.4339 9.24783 13.4338C9.25791 13.4341 9.26802 13.4342 9.27816 13.4342C9.28848 13.4342 9.29876 13.4341 9.30899 13.4337C9.31923 13.4341 9.32951 13.4342 9.33982 13.4342C9.34997 13.4342 9.36009 13.4341 9.37016 13.4338C9.38024 13.4341 9.39035 13.4342 9.4005 13.4342C9.41081 13.4342 9.42109 13.4341 9.43133 13.4337C9.44157 13.4341 9.45185 13.4342 9.46216 13.4342C9.47231 13.4342 9.48242 13.4341 9.49249 13.4338C9.50257 13.4341 9.51267 13.4342 9.52282 13.4342C9.53313 13.4342 9.54341 13.4341 9.55365 13.4337C9.55803 13.4339 9.56242 13.434 9.56682 13.4341C9.5727 13.4342 9.57858 13.4342 9.58448 13.4342C9.59463 13.4342 9.60474 13.4341 9.61481 13.4338C9.62489 13.4341 9.63499 13.4342 9.64514 13.4342C9.65023 13.4342 9.65531 13.4342 9.66039 13.4341C9.66559 13.434 9.67079 13.4339 9.67597 13.4337C9.68621 13.4341 9.69649 13.4342 9.7068 13.4342C9.71695 13.4342 9.72706 13.4341 9.73714 13.4338C9.74721 13.4341 9.75732 13.4342 9.76747 13.4342C9.77778 13.4342 9.78806 13.4341 9.7983 13.4337C9.80853 13.4341 9.81881 13.4342 9.82912 13.4342C9.83944 13.4342 9.84972 13.4341 9.85995 13.4337C9.87019 13.4341 9.88047 13.4342 9.89078 13.4342C9.89585 13.4342 9.90092 13.4342 9.90597 13.4341C9.91103 13.434 9.91608 13.4339 9.92112 13.4338C9.93119 13.4341 9.9413 13.4342 9.95145 13.4342C9.95689 13.4342 9.96233 13.4342 9.96776 13.4341C9.97261 13.434 9.97745 13.4339 9.98228 13.4337C9.99251 13.4341 10.0028 13.4342 10.0131 13.4342C10.0233 13.4342 10.0334 13.4341 10.0434 13.4338C10.0535 13.4341 10.0636 13.4342 10.0738 13.4342C10.0841 13.4342 10.0944 13.4341 10.1046 13.4337C10.1148 13.4341 10.1251 13.4342 10.1354 13.4342C10.1456 13.4342 10.1557 13.4341 10.1658 13.4338C10.1758 13.4341 10.186 13.4342 10.1961 13.4342C10.2064 13.4342 10.2167 13.4341 10.2269 13.4337C10.2372 13.4341 10.2474 13.4342 10.2578 13.4342C10.2679 13.4342 10.278 13.4341 10.2881 13.4338C10.2982 13.4341 10.3083 13.4342 10.3184 13.4342C10.3263 13.4342 10.3342 13.4341 10.342 13.4339L10.3493 13.4337C10.3595 13.4341 10.3698 13.4342 10.3801 13.4342C10.3902 13.4342 10.4003 13.4341 10.4104 13.4338C10.4205 13.4341 10.4306 13.4342 10.4407 13.4342C10.4511 13.4342 10.4613 13.4341 10.4716 13.4337C10.4818 13.4341 10.4921 13.4342 10.5024 13.4342C10.508 13.4342 10.5136 13.4342 10.5191 13.4341C10.5237 13.434 10.5282 13.4339 10.5327 13.4338C10.5428 13.4341 10.5529 13.4342 10.5631 13.4342C10.5688 13.4342 10.5745 13.4342 10.5801 13.4341C10.5847 13.434 10.5893 13.4339 10.5939 13.4337C10.6041 13.4341 10.6144 13.4342 10.6247 13.4342C10.6349 13.4342 10.645 13.4341 10.6551 13.4338C10.6651 13.4341 10.6752 13.4342 10.6854 13.4342C10.6957 13.4342 10.706 13.4341 10.7162 13.4337C10.7265 13.4341 10.7367 13.4342 10.7471 13.4342C10.7572 13.4342 10.7673 13.4341 10.7774 13.4338C10.7875 13.4341 10.7976 13.4342 10.8077 13.4342L10.8147 13.4342C10.8227 13.4341 10.8306 13.434 10.8385 13.4337C10.8488 13.4341 10.8591 13.4342 10.8694 13.4342C10.8795 13.4342 10.8896 13.4341 10.8997 13.4338C10.9098 13.4341 10.9199 13.4342 10.93 13.4342C10.9404 13.4342 10.9506 13.4341 10.9609 13.4337C10.9711 13.4341 10.9814 13.4342 10.9917 13.4342C11.0019 13.4342 11.012 13.4341 11.022 13.4338C11.0321 13.4341 11.0422 13.4342 11.0524 13.4342C11.0579 13.4342 11.0635 13.4342 11.069 13.4341C11.0738 13.434 11.0785 13.4339 11.0832 13.4337C11.0934 13.4341 11.1037 13.4342 11.114 13.4342C11.1242 13.4342 11.1343 13.4341 11.1444 13.4338C11.1544 13.4341 11.1645 13.4342 11.1747 13.4342C11.185 13.4342 11.1953 13.4341 11.2055 13.4337C11.2158 13.4341 11.226 13.4342 11.2364 13.4342C11.2465 13.4342 11.2566 13.4341 11.2667 13.4338C11.2768 13.4341 11.2869 13.4342 11.297 13.4342C11.8463 13.4342 12.2915 12.9865 12.2915 12.4342C12.2915 11.8819 11.8463 11.4342 11.297 11.4342C11.2869 11.4342 11.2768 11.4344 11.2667 11.4347C11.2566 11.4344 11.2465 11.4342 11.2364 11.4342L11.2312 11.4342C11.2258 11.4343 11.2204 11.4343 11.2151 11.4344C11.2119 11.4345 11.2087 11.4346 11.2055 11.4347C11.1953 11.4344 11.185 11.4342 11.1747 11.4342C11.1645 11.4342 11.1544 11.4344 11.1444 11.4347C11.1343 11.4344 11.1242 11.4342 11.114 11.4342C11.1037 11.4342 11.0934 11.4344 11.0832 11.4347C11.0779 11.4345 11.0726 11.4344 11.0673 11.4343C11.0623 11.4343 11.0574 11.4342 11.0524 11.4342C11.0422 11.4342 11.0321 11.4344 11.022 11.4347C11.0176 11.4345 11.0132 11.4344 11.0088 11.4344C11.0031 11.4343 10.9974 11.4342 10.9917 11.4342C10.9814 11.4342 10.9711 11.4344 10.9609 11.4347C10.9506 11.4344 10.9404 11.4342 10.93 11.4342C10.9199 11.4342 10.9098 11.4344 10.8997 11.4347C10.8896 11.4344 10.8795 11.4342 10.8694 11.4342C10.8615 11.4342 10.8536 11.4343 10.8457 11.4345C10.8433 11.4346 10.8409 11.4346 10.8385 11.4347C10.8347 11.4346 10.8309 11.4345 10.8271 11.4344C10.8207 11.4343 10.8142 11.4342 10.8077 11.4342C10.7976 11.4342 10.7875 11.4344 10.7774 11.4347C10.7733 11.4345 10.7691 11.4345 10.765 11.4344C10.759 11.4343 10.7531 11.4342 10.7471 11.4342C10.7367 11.4342 10.7265 11.4344 10.7162 11.4347C10.7086 11.4345 10.701 11.4343 10.6934 11.4342C10.6907 11.4342 10.6881 11.4342 10.6854 11.4342C10.6752 11.4342 10.6651 11.4344 10.6551 11.4347C10.645 11.4344 10.6349 11.4342 10.6247 11.4342C10.6144 11.4342 10.6041 11.4344 10.5939 11.4347C10.5837 11.4344 10.5734 11.4342 10.5631 11.4342C10.5529 11.4342 10.5428 11.4344 10.5327 11.4347C10.5227 11.4344 10.5126 11.4342 10.5024 11.4342C10.4921 11.4342 10.4818 11.4344 10.4716 11.4347C10.4613 11.4344 10.4511 11.4342 10.4407 11.4342C10.4306 11.4342 10.4205 11.4344 10.4104 11.4347C10.4003 11.4344 10.3902 11.4342 10.3801 11.4342C10.3698 11.4342 10.3595 11.4344 10.3493 11.4347C10.339 11.4344 10.3287 11.4342 10.3184 11.4342C10.3083 11.4342 10.2982 11.4344 10.2881 11.4347C10.278 11.4344 10.2679 11.4342 10.2578 11.4342C10.2474 11.4342 10.2372 11.4344 10.2269 11.4347C10.2167 11.4344 10.2064 11.4342 10.1961 11.4342C10.1904 11.4342 10.1846 11.4343 10.1789 11.4344C10.1745 11.4344 10.1701 11.4345 10.1658 11.4347C10.1557 11.4344 10.1456 11.4342 10.1354 11.4342C10.1251 11.4342 10.1148 11.4344 10.1046 11.4347C10.0944 11.4344 10.0841 11.4342 10.0738 11.4342C10.0636 11.4342 10.0535 11.4344 10.0434 11.4347C10.0334 11.4344 10.0233 11.4342 10.0131 11.4342C10.0059 11.4342 9.99865 11.4343 9.99145 11.4345C9.98839 11.4345 9.98533 11.4346 9.98228 11.4347C9.97707 11.4345 9.97185 11.4344 9.96663 11.4343C9.96157 11.4343 9.95652 11.4342 9.95145 11.4342C9.9413 11.4342 9.93119 11.4344 9.92111 11.4347C9.91104 11.4344 9.90093 11.4342 9.89078 11.4342C9.88047 11.4342 9.87019 11.4344 9.85995 11.4347C9.84972 11.4344 9.83944 11.4342 9.82912 11.4342C9.81881 11.4342 9.80853 11.4344 9.7983 11.4347C9.78806 11.4344 9.77778 11.4342 9.76747 11.4342C9.75732 11.4342 9.74721 11.4344 9.73713 11.4347C9.72706 11.4344 9.71695 11.4342 9.7068 11.4342C9.70166 11.4342 9.69652 11.4343 9.6914 11.4343C9.68625 11.4344 9.68111 11.4345 9.67597 11.4347C9.66573 11.4344 9.65546 11.4342 9.64514 11.4342C9.635 11.4342 9.62489 11.4344 9.61481 11.4347C9.60474 11.4344 9.59463 11.4342 9.58448 11.4342C9.57417 11.4342 9.56389 11.4344 9.55365 11.4347C9.54875 11.4345 9.54383 11.4344 9.53891 11.4343C9.53356 11.4343 9.52819 11.4342 9.52282 11.4342C9.51268 11.4342 9.50256 11.4344 9.49249 11.4347C9.48859 11.4346 9.48469 11.4345 9.48078 11.4344C9.47458 11.4343 9.46838 11.4342 9.46216 11.4342C9.45185 11.4342 9.44157 11.4344 9.43133 11.4347C9.42109 11.4344 9.41081 11.4342 9.4005 11.4342C9.39035 11.4342 9.38024 11.4344 9.37016 11.4347C9.36009 11.4344 9.34997 11.4342 9.33982 11.4342C9.32951 11.4342 9.31923 11.4344 9.30899 11.4347C9.29876 11.4344 9.28848 11.4342 9.27816 11.4342C9.26802 11.4342 9.25791 11.4344 9.24783 11.4347C9.23776 11.4344 9.22765 11.4342 9.2175 11.4342C9.20719 11.4342 9.19691 11.4344 9.18667 11.4347C9.18214 11.4345 9.1776 11.4344 9.17305 11.4344C9.16733 11.4343 9.16159 11.4342 9.15584 11.4342C9.15242 11.4342 9.14899 11.4342 9.14558 11.4343C9.13887 11.4343 9.13218 11.4345 9.12551 11.4347C9.12035 11.4345 9.11518 11.4344 9.11001 11.4343C9.10507 11.4343 9.10013 11.4342 9.09518 11.4342C9.08486 11.4342 9.07459 11.4344 9.06435 11.4347C9.05411 11.4344 9.04383 11.4342 9.03352 11.4342C9.02337 11.4342 9.01326 11.4344 9.00319 11.4347C8.99312 11.4344 8.983 11.4342 8.97286 11.4342C8.96254 11.4342 8.95227 11.4344 8.94203 11.4347C8.93179 11.4344 8.92151 11.4342 8.9112 11.4342C8.90689 11.4342 8.90259 11.4342 8.89829 11.4343C8.89247 11.4344 8.88666 11.4345 8.88087 11.4347C8.87079 11.4344 8.86068 11.4342 8.85054 11.4342C8.84022 11.4342 8.82994 11.4344 8.81971 11.4347C8.80947 11.4344 8.79919 11.4342 8.78888 11.4342C8.77873 11.4342 8.76862 11.4344 8.75854 11.4347C8.74847 11.4344 8.73836 11.4342 8.72821 11.4342C8.7179 11.4342 8.70762 11.4344 8.69738 11.4347C8.68715 11.4344 8.67687 11.4342 8.66655 11.4342C8.66204 11.4342 8.65752 11.4342 8.65302 11.4343C8.64741 11.4344 8.64181 11.4345 8.63622 11.4347C8.63111 11.4345 8.626 11.4344 8.62087 11.4343C8.61589 11.4343 8.61089 11.4342 8.60589 11.4342C8.59524 11.4342 8.58463 11.4344 8.57407 11.4347C8.57089 11.4346 8.56771 11.4345 8.56453 11.4345L8.56192 11.4344C8.55537 11.4343 8.54881 11.4342 8.54224 11.4342H8.541C8.53028 11.4335 8.51952 11.433 8.50871 11.4327C8.49335 11.4312 8.47789 11.4301 8.46233 11.4294C8.45191 11.4282 8.44144 11.4272 8.43093 11.4264C8.41532 11.4241 8.3996 11.4222 8.38377 11.4207C8.36901 11.4184 8.35415 11.4163 8.33918 11.4146C8.32894 11.4128 8.31865 11.4111 8.3083 11.4096C8.29408 11.4066 8.27974 11.4039 8.26531 11.4015C8.25028 11.3981 8.23513 11.3949 8.21985 11.3922C8.20969 11.3896 8.19947 11.3873 8.18919 11.3851C8.18401 11.3836 8.17882 11.3822 8.17361 11.3808C8.17045 11.38 8.16728 11.3792 8.16411 11.3784C8.16011 11.3774 8.15611 11.3764 8.15209 11.3754C8.14251 11.3725 8.13286 11.3697 8.12315 11.3671C8.10858 11.3621 8.09386 11.3574 8.079 11.3531C8.0661 11.3485 8.05308 11.3441 8.03995 11.34C8.02751 11.3353 8.01496 11.3308 8.00229 11.3265C7.99284 11.3227 7.98331 11.319 7.97372 11.3154C7.96159 11.3101 7.94933 11.3049 7.93694 11.3001C7.9231 11.2936 7.90909 11.2874 7.89491 11.2816C7.88312 11.2758 7.87121 11.2703 7.85917 11.2651C7.84777 11.2592 7.83625 11.2536 7.8246 11.2481C7.8215 11.2465 7.81839 11.2448 7.81527 11.2432C7.81149 11.2412 7.80769 11.2392 7.80389 11.2372C7.7907 11.2295 7.77733 11.222 7.76377 11.2148C7.75291 11.2082 7.74193 11.2018 7.73081 11.1955C7.7203 11.1888 7.70967 11.1823 7.6989 11.1759C7.6861 11.1673 7.6731 11.159 7.65989 11.1509C7.65231 11.1457 7.64465 11.1405 7.63692 11.1354C7.62459 11.1263 7.61204 11.1174 7.59928 11.1088C7.593 11.104 7.58667 11.0993 7.58027 11.0946C7.56744 11.084 7.55433 11.0738 7.54097 11.0638C7.52904 11.0538 7.51687 11.044 7.50448 11.0346C7.50113 11.0317 7.49776 11.0288 7.49437 11.0259C7.47982 11.0121 7.46486 10.9988 7.44951 10.9858C7.44073 10.9775 7.43181 10.9693 7.42273 10.9613L7.41723 10.9559L7.41355 10.9523C7.40008 10.9376 7.38618 10.9233 7.37187 10.9094C7.36366 10.9004 7.35528 10.8916 7.34675 10.8829C7.33875 10.8738 7.33059 10.8647 7.32227 10.8559C7.31446 10.8465 7.30649 10.8373 7.29834 10.8282C7.29071 10.8185 7.28289 10.8091 7.27492 10.7997C7.26821 10.7909 7.26136 10.7821 7.25437 10.7735C7.24663 10.7627 7.23868 10.752 7.23053 10.7415C7.22167 10.7286 7.21252 10.7159 7.20307 10.7034C7.19621 10.6931 7.18915 10.6829 7.18192 10.6729C7.17771 10.6662 7.17342 10.6596 7.16906 10.6531C7.15898 10.6358 7.1484 10.6189 7.13733 10.6023C7.13474 10.5978 7.13212 10.5934 7.12947 10.589C7.12231 10.5753 7.11484 10.5618 7.10708 10.5486C7.10134 10.5372 7.09539 10.526 7.08923 10.5149C7.08261 10.501 7.07567 10.4873 7.06843 10.4738C7.06304 10.4621 7.05743 10.4505 7.05161 10.439C7.04839 10.4316 7.04507 10.4242 7.04167 10.4168C7.03498 10.3997 7.02784 10.3828 7.02025 10.3662C7.0165 10.3564 7.0126 10.3466 7.00855 10.337C7.00522 10.3274 7.00175 10.318 6.99815 10.3086C6.99306 10.2924 6.98758 10.2765 6.98171 10.2607C6.97865 10.2506 6.97543 10.2405 6.97206 10.2306C6.96806 10.2158 6.96373 10.2011 6.95909 10.1866C6.95563 10.1729 6.95189 10.1594 6.94788 10.146C6.9458 10.137 6.94359 10.1281 6.94127 10.1192C6.93826 10.1038 6.9349 10.0885 6.93119 10.0734C6.92938 10.0633 6.92741 10.0532 6.92529 10.0432C6.92315 10.0287 6.92069 10.0142 6.91793 9.99989C6.91599 9.98481 6.91372 9.96984 6.91113 9.95499C6.90991 9.94392 6.90851 9.9329 6.90694 9.92194C6.90573 9.9071 6.90421 9.89234 6.90237 9.87768C6.9017 9.86677 6.90085 9.85589 6.89984 9.84507C6.89934 9.82882 6.89846 9.81266 6.89721 9.79661C6.89704 9.7858 6.89671 9.77503 6.8962 9.7643C6.89629 9.75895 6.89633 9.75359 6.89633 9.74822C6.89633 9.73734 6.89616 9.72651 6.89581 9.71572C6.89588 9.71359 6.89594 9.71145 6.896 9.70932C6.89605 9.70742 6.89609 9.70553 6.89613 9.70363C6.89626 9.69684 6.89633 9.69004 6.89633 9.68322L6.89631 9.67613C6.89628 9.67287 6.89625 9.66963 6.89619 9.66638C6.8967 9.65558 6.89704 9.64472 6.89721 9.63382C6.89801 9.62351 6.89867 9.61315 6.89916 9.60275C6.90095 9.58653 6.90236 9.57019 6.90336 9.55375C6.90455 9.54431 6.9056 9.53483 6.90653 9.5253C6.90912 9.50908 6.91133 9.49273 6.91314 9.47626C6.91571 9.46152 6.91796 9.44668 6.91988 9.43174C6.92168 9.42245 6.92334 9.41311 6.92487 9.40373C6.92832 9.38863 6.93142 9.37341 6.93418 9.35806C6.93788 9.34292 6.94125 9.32764 6.94426 9.31224C6.94584 9.30621 6.94736 9.30016 6.94882 9.29409C6.94917 9.29268 6.9495 9.29126 6.94984 9.28984C6.95469 9.27383 6.95915 9.25765 6.9632 9.24131C6.96593 9.2327 6.96854 9.22403 6.97103 9.21531C6.97729 9.19767 6.98307 9.1798 6.98836 9.16172C6.99116 9.15393 6.99388 9.14609 6.99649 9.13821C7.0003 9.12871 7.00397 9.11914 7.0075 9.10951C7.01566 9.09085 7.02327 9.0719 7.03031 9.05267C7.03275 9.0471 7.03514 9.04151 7.03748 9.03589C7.04418 9.02218 7.05058 9.00829 7.05667 8.99424C7.06361 8.98056 7.07026 8.96669 7.07659 8.95265C7.0814 8.94352 7.08607 8.93431 7.0906 8.92501C7.09574 8.91591 7.10074 8.90672 7.1056 8.89744C7.11609 8.88006 7.12607 8.86234 7.13552 8.84429C7.13811 8.83998 7.14068 8.83566 7.14321 8.83131C7.15182 8.8184 7.16014 8.80527 7.16816 8.79194C7.1778 8.7779 7.1871 8.7636 7.19604 8.74905C7.20041 8.74281 7.20471 8.73651 7.20894 8.73017C7.21635 8.72037 7.22359 8.71042 7.23065 8.70035C7.23817 8.69087 7.24552 8.68126 7.25269 8.67151C7.26005 8.66267 7.26725 8.6537 7.27431 8.6446C7.28528 8.6321 7.29595 8.61931 7.30631 8.60626C7.31448 8.59713 7.32249 8.58786 7.33033 8.57843C7.33591 8.57249 7.34141 8.56648 7.34684 8.56041C7.36088 8.54645 7.3745 8.53209 7.3877 8.51732C7.39369 8.51138 7.39961 8.50536 7.40545 8.49927C7.41704 8.48854 7.42838 8.47754 7.43945 8.46628C7.44556 8.46076 7.4516 8.45517 7.45757 8.44951C7.46688 8.44167 7.47604 8.43367 7.48506 8.42551C7.49731 8.41568 7.50932 8.40558 7.52109 8.3952C7.52796 8.38982 7.53476 8.38436 7.54149 8.37882C7.55777 8.36696 7.57369 8.35463 7.58921 8.34183C7.59561 8.33717 7.60196 8.33243 7.60824 8.32762C7.6185 8.32072 7.62861 8.31363 7.63859 8.30635C7.65156 8.29805 7.66433 8.28945 7.67689 8.28056C7.68095 8.27804 7.685 8.27548 7.68903 8.2729C7.70661 8.26307 7.72386 8.25273 7.74077 8.24188C7.75185 8.23569 7.76281 8.22929 7.77363 8.22268C7.77864 8.22003 7.78363 8.21733 7.78859 8.2146C7.79279 8.21228 7.79698 8.20993 7.80115 8.20755C7.81239 8.20201 7.82352 8.19625 7.83452 8.1903C7.84618 8.18487 7.85771 8.17923 7.86911 8.17338C7.88115 8.1681 7.89306 8.16259 7.90485 8.15686C7.91903 8.15101 7.93304 8.14485 7.94688 8.13837C7.95455 8.13535 7.96216 8.13223 7.96973 8.12902C7.98243 8.12454 7.99502 8.1198 8.00748 8.11482C8.02212 8.11 8.03662 8.10485 8.05095 8.09937C8.06406 8.09528 8.07706 8.09092 8.08993 8.0863C8.0998 8.08344 8.10961 8.08043 8.11935 8.07728C8.13286 8.07382 8.14625 8.07008 8.15953 8.06607C8.1746 8.06253 8.18954 8.05865 8.20433 8.05443C8.20745 8.05375 8.21055 8.05306 8.21365 8.05235C8.21938 8.05104 8.22509 8.04968 8.23079 8.04827C8.24606 8.0455 8.26122 8.04238 8.27624 8.03891C8.28551 8.03738 8.29473 8.03572 8.30391 8.03393C8.31884 8.03199 8.33367 8.02972 8.34839 8.02712C8.36478 8.02529 8.38105 8.02307 8.3972 8.02046C8.40661 8.01954 8.41598 8.01848 8.42532 8.0173C8.44175 8.01628 8.45806 8.01486 8.47426 8.01305C8.48455 8.01256 8.4948 8.01191 8.505 8.0111C8.52108 8.01085 8.53707 8.01022 8.55296 8.00922L8.55417 8.00922Z" fill="url(#paint2_angular_3025_25637)"/>
</g>
<g clip-path="url(#clip1_3025_25637)">
<path d="M12.8472 17.9371L12.8389 17.9283L12.8303 17.9198L8.33033 13.4198C8.27184 13.3613 8.25 13.2961 8.25 13.2376C8.25 13.179 8.27184 13.1139 8.33033 13.0554L12.8303 8.55543C12.8888 8.49694 12.9539 8.4751 13.0125 8.4751C13.0711 8.4751 13.1362 8.49694 13.1947 8.55543L17.6947 13.0554C17.8018 13.1625 17.8018 13.3127 17.6947 13.4198L13.1947 17.9198C13.0777 18.0367 12.9166 18.0113 12.8472 17.9371Z" fill="#E67E17" stroke="#E67E17" stroke-width="1.5"/>
<path d="M12.9095 15.449L12.9037 15.4326L12.9022 15.428C12.9038 15.4223 12.9059 15.4149 12.9089 15.4054C12.9099 15.402 12.911 15.3986 12.9122 15.395L12.9126 15.3946L12.9273 15.3798C12.9275 15.3796 12.9277 15.3795 12.9279 15.3793C12.9294 15.3781 12.9316 15.3765 12.9341 15.375C12.9355 15.374 12.9367 15.3733 12.9376 15.3728C12.9747 15.3605 12.9896 15.3559 13.003 15.3528C13.0128 15.3506 13.0185 15.35 13.025 15.35C13.0315 15.35 13.0372 15.3506 13.0469 15.3528C13.0603 15.3559 13.0753 15.3605 13.1124 15.3728C13.1133 15.3733 13.1145 15.374 13.1159 15.375C13.1184 15.3765 13.1206 15.3781 13.1221 15.3793C13.1223 15.3795 13.1225 15.3796 13.1226 15.3798L13.1374 15.3946L13.1378 15.395C13.139 15.3986 13.1401 15.402 13.1411 15.4054C13.1436 15.4133 13.1455 15.4197 13.147 15.425C13.1455 15.4303 13.1436 15.4367 13.1411 15.4446C13.1401 15.448 13.139 15.4514 13.1378 15.455L13.1374 15.4554L13.1226 15.4702C13.1225 15.4704 13.1223 15.4705 13.1221 15.4707C13.1206 15.4719 13.1184 15.4735 13.1159 15.475C13.1145 15.476 13.1133 15.4767 13.1124 15.4772C13.0753 15.4895 13.0603 15.4941 13.0469 15.4972C13.0372 15.4994 13.0315 15.5 13.025 15.5C13.0185 15.5 13.0128 15.4994 13.003 15.4972C12.9921 15.4947 12.9802 15.4911 12.9561 15.4833C12.9511 15.4797 12.9456 15.4756 12.9372 15.4694C12.9335 15.4666 12.9293 15.4635 12.9243 15.4598C12.9198 15.4565 12.9148 15.4529 12.9095 15.449ZM13.151 15.4415C13.151 15.4415 13.151 15.4415 13.151 15.4415L13.151 15.4415ZM13.151 15.4085C13.151 15.4085 13.151 15.4085 13.151 15.4085L13.151 15.4085ZM12.9418 11H13.0582L13 12.7567L12.9418 11Z" fill="white" stroke="white"/>
</g>
<defs>
<radialGradient id="paint0_angular_3025_25637" cx="0" cy="0" r="1" gradientUnits="userSpaceOnUse" gradientTransform="translate(8.60239 9.75022) rotate(22.5711) scale(9.63968 9.67673)">
<stop stop-color="#5050E6"/>
<stop offset="0.255208" stop-color="#1861F2"/>
<stop offset="0.551157" stop-color="#3091F2"/>
<stop offset="1" stop-color="#49D6F2"/>
</radialGradient>
<radialGradient id="paint1_angular_3025_25637" cx="0" cy="0" r="1" gradientUnits="userSpaceOnUse" gradientTransform="translate(8.60239 9.75022) rotate(22.5711) scale(9.63968 9.67673)">
<stop stop-color="#5050E6"/>
<stop offset="0.255208" stop-color="#1861F2"/>
<stop offset="0.551157" stop-color="#3091F2"/>
<stop offset="1" stop-color="#49D6F2"/>
</radialGradient>
<radialGradient id="paint2_angular_3025_25637" cx="0" cy="0" r="1" gradientUnits="userSpaceOnUse" gradientTransform="translate(8.60239 9.75022) rotate(22.5711) scale(9.63968 9.67673)">
<stop stop-color="#5050E6"/>
<stop offset="0.255208" stop-color="#1861F2"/>
<stop offset="0.551157" stop-color="#3091F2"/>
<stop offset="1" stop-color="#49D6F2"/>
</radialGradient>
<clipPath id="clip0_3025_25637">
<rect width="17.9011" height="18" fill="white" transform="translate(0.098877 0.75)"/>
</clipPath>
<clipPath id="clip1_3025_25637">
<rect width="12" height="12" fill="white" transform="translate(7 7.25)"/>
</clipPath>
</defs>
</svg>
