<svg width="24" height="24" viewBox="0 0 24 24" fill="none" xmlns="http://www.w3.org/2000/svg">
<path d="M12 12.5V7.5M12 3C16.971 3 21 7.029 21 12C21 16.971 16.971 21 12 21C7.029 21 3 16.971 3 12C3 7.029 7.029 3 12 3Z" stroke="black" stroke-opacity="0.6" stroke-width="1.8" stroke-linecap="round" stroke-linejoin="round"/>
<path d="M12.1002 16.5003C12.1002 16.5556 12.0554 16.6003 12.0002 16.6003C11.9449 16.6002 11.9002 16.5555 11.9002 16.5003C11.9001 16.445 11.9449 16.4002 12.0001 16.4002C12.0267 16.4001 12.0522 16.4107 12.0709 16.4295C12.0897 16.4483 12.1003 16.4738 12.1002 16.5003" stroke="black" stroke-opacity="0.6" stroke-width="1.5" stroke-linecap="round" stroke-linejoin="round"/>
</svg>
