<svg width="182" height="33" viewBox="0 0 182 33" fill="none" xmlns="http://www.w3.org/2000/svg">
<g clip-path="url(#clip0_3497_38362)">
<path d="M15.4161 4.37392C15.3764 4.37658 15.3364 4.37793 15.296 4.37793C15.2455 4.37793 15.1954 4.37581 15.146 4.37166C15.09 4.37699 15.0333 4.37972 14.976 4.37972C14.939 4.37972 14.9022 4.37859 14.8658 4.37634C14.797 4.38448 14.727 4.38866 14.656 4.38866C14.6333 4.38866 14.6108 4.38823 14.5883 4.38739C14.507 4.39883 14.424 4.40475 14.3396 4.40475C14.3342 4.40475 14.3288 4.40472 14.3235 4.40467C14.2313 4.42034 14.1368 4.42888 14.0405 4.42971C13.9522 4.44628 13.8617 4.4563 13.7694 4.45925C13.6857 4.47698 13.5999 4.4888 13.5123 4.49424C13.4221 4.51615 13.3293 4.53115 13.2343 4.53864C13.1489 4.56096 13.061 4.57706 12.9712 4.58642C12.8871 4.61056 12.8006 4.62864 12.712 4.64016C12.6252 4.66741 12.5356 4.68815 12.4437 4.70182C12.3636 4.7286 12.2809 4.74979 12.1961 4.76495C12.1118 4.79595 12.0245 4.82071 11.9347 4.83867C11.8546 4.8699 11.7717 4.89546 11.6864 4.91485C11.6034 4.94966 11.5172 4.97832 11.4284 5.00026C11.3502 5.0348 11.269 5.06383 11.1853 5.08687C11.1054 5.12459 11.0224 5.15651 10.9366 5.1821C10.8593 5.22053 10.7789 5.25348 10.6958 5.28044C10.6178 5.32163 10.5364 5.35716 10.4521 5.38649C10.3754 5.42906 10.2952 5.4661 10.2121 5.49706C10.1391 5.53952 10.0629 5.57692 9.98386 5.60878C9.90949 5.65475 9.8315 5.69536 9.75043 5.73009C9.67971 5.77587 9.60556 5.81675 9.52845 5.85224C9.45407 5.90325 9.37565 5.94872 9.29376 5.98808C9.22522 6.0367 9.15311 6.08056 9.0779 6.11919C9.00598 6.17314 8.92986 6.22174 8.85013 6.26442C8.78371 6.31593 8.71357 6.36282 8.64018 6.40461C8.57241 6.46012 8.50049 6.5107 8.42497 6.55582C8.36122 6.61013 8.29362 6.66 8.22263 6.70496C8.15603 6.76482 8.08492 6.81972 8.00987 6.86906C7.94998 6.92472 7.88627 6.97629 7.81918 7.02332C7.75546 7.08618 7.68706 7.14426 7.61454 7.19697C7.55369 7.25903 7.48837 7.31664 7.41909 7.36927C7.35949 7.43275 7.29532 7.49183 7.2271 7.546C7.16895 7.61053 7.10618 7.67077 7.03932 7.72618C6.98583 7.78817 6.92817 7.84642 6.86678 7.90048C6.80866 7.97195 6.74515 8.03882 6.67687 8.10044C6.626 8.16469 6.57082 8.22533 6.51177 8.28193C6.45824 8.35379 6.39946 8.42146 6.33599 8.48437C6.28647 8.55326 6.23219 8.61846 6.17363 8.67948C6.12457 8.75151 6.07041 8.81975 6.01166 8.88367C5.96423 8.9566 5.91165 9.02583 5.85444 9.09084C5.8096 9.16313 5.75977 9.23196 5.70544 9.29685C5.65969 9.37498 5.6082 9.4493 5.55155 9.51923C5.50998 9.59303 5.46335 9.66356 5.41213 9.73034C5.37117 9.80771 5.32472 9.8817 5.27331 9.95178C5.23465 10.0288 5.19062 10.1026 5.1417 10.1727C5.10336 10.2541 5.05908 10.3321 5.00943 10.4061C4.97328 10.4866 4.93138 10.5639 4.88425 10.6375C4.85152 10.7147 4.81354 10.7892 4.77075 10.8604C4.73673 10.9478 4.69605 11.0319 4.64936 11.112C4.62039 11.1894 4.58623 11.2643 4.54731 11.3361C4.51757 11.424 4.48123 11.5087 4.43887 11.5898C4.41205 11.6734 4.37928 11.7543 4.34105 11.8319C4.31684 11.914 4.28691 11.9937 4.25175 12.0704C4.22829 12.1592 4.19818 12.2454 4.16201 12.3283C4.141 12.4143 4.1138 12.4978 4.08093 12.5783C4.0614 12.6673 4.03527 12.7539 4.00309 12.8374C3.9859 12.9242 3.96245 13.0088 3.93323 13.0906C3.91806 13.1792 3.8964 13.2656 3.86877 13.3492C3.85524 13.4411 3.83475 13.5308 3.80784 13.6177C3.79684 13.7044 3.77967 13.7891 3.75678 13.8715C3.74761 13.9656 3.73118 14.0575 3.70807 14.1467C3.70084 14.2376 3.68686 14.3266 3.66661 14.4132C3.66156 14.5055 3.64955 14.5959 3.6311 14.6839C3.62817 14.7768 3.6182 14.8678 3.60171 14.9566C3.60091 15.05 3.59299 15.1416 3.57848 15.231C3.5786 15.2398 3.57867 15.2485 3.57867 15.2573C3.57867 15.3388 3.57324 15.4191 3.56272 15.4977C3.56387 15.5241 3.56445 15.5506 3.56445 15.5772C3.56445 15.6484 3.56031 15.7186 3.55227 15.7876C3.55445 15.8239 3.55555 15.8604 3.55555 15.8972C3.55555 15.9515 3.55315 16.0051 3.54845 16.0581C3.55315 16.1111 3.55555 16.1648 3.55555 16.219C3.55555 16.263 3.55397 16.3066 3.55087 16.3498C3.55749 16.4125 3.56089 16.4762 3.56089 16.5408C3.56089 16.567 3.56033 16.593 3.55922 16.619C3.5697 16.6975 3.57511 16.7776 3.57511 16.859C3.57511 16.8683 3.57504 16.8776 3.5749 16.8868C3.58995 16.9795 3.59791 17.0746 3.59821 17.1715C3.61418 17.2602 3.62363 17.3513 3.62605 17.4441C3.64398 17.5321 3.65547 17.6225 3.66001 17.7148C3.67992 17.8022 3.69346 17.892 3.70012 17.9837C3.7218 18.0696 3.73729 18.158 3.7461 18.2483C3.76984 18.3337 3.78743 18.4217 3.79836 18.5118C3.82506 18.5997 3.8452 18.6905 3.8582 18.7836C3.88408 18.8637 3.90448 18.9463 3.91898 19.0308C3.94928 19.1157 3.97338 19.2035 3.99074 19.2937C4.02283 19.3784 4.0487 19.4662 4.06779 19.5565C4.09976 19.6364 4.12615 19.7192 4.14648 19.8044C4.18087 19.8844 4.20961 19.9674 4.2322 20.053C4.26928 20.1339 4.30054 20.218 4.32542 20.3049C4.36254 20.3818 4.39435 20.4617 4.42036 20.5442C4.46075 20.6226 4.49554 20.7044 4.5242 20.789C4.56538 20.8651 4.60123 20.9445 4.63124 21.0267C4.6751 21.1033 4.71349 21.1834 4.74587 21.2665C4.79017 21.3403 4.82933 21.4175 4.86283 21.4977C4.91043 21.5729 4.95258 21.652 4.98874 21.7343C5.03525 21.8048 5.07692 21.8789 5.11325 21.956C5.1638 22.0285 5.20914 22.1049 5.24872 22.1847C5.29916 22.2542 5.34473 22.3275 5.38493 22.4042C5.43661 22.4719 5.48358 22.5435 5.52533 22.6184C5.58141 22.6884 5.63236 22.7627 5.67759 22.8408C5.73113 22.9054 5.78023 22.9739 5.8244 23.0457C5.88017 23.1095 5.9315 23.1773 5.97789 23.2486C6.04006 23.3163 6.09711 23.3888 6.14839 23.4655C6.20473 23.5252 6.25701 23.5888 6.30479 23.6558C6.36775 23.7188 6.42603 23.7866 6.47908 23.8584C6.53811 23.9154 6.59324 23.9765 6.64402 24.0411C6.71194 24.103 6.77507 24.1701 6.83281 24.2418C6.89397 24.296 6.95139 24.3545 7.00462 24.4166C7.07133 24.4724 7.13391 24.533 7.19183 24.5979C7.26187 24.654 7.32761 24.7153 7.38845 24.7812C7.45328 24.8313 7.51457 24.8858 7.57188 24.9443C7.6444 24.997 7.71281 25.0551 7.77653 25.1179C7.84768 25.1678 7.91503 25.2228 7.97806 25.2824C8.04847 25.3295 8.11534 25.3816 8.17819 25.4381C8.25178 25.4847 8.32173 25.5366 8.38752 25.5932C8.46201 25.6382 8.53295 25.6885 8.59982 25.7436C8.67801 25.7885 8.75247 25.8392 8.82264 25.8951C8.89493 25.9351 8.96416 25.9799 9.02988 26.0292C9.10935 26.07 9.18536 26.1167 9.25734 26.1686C9.33439 26.2064 9.40831 26.2497 9.47861 26.2979C9.55576 26.3334 9.62995 26.3743 9.7007 26.4201C9.78477 26.4561 9.86551 26.4985 9.94234 26.5465C10.0227 26.5794 10.1 26.618 10.174 26.6618C10.2555 26.6929 10.334 26.7298 10.4093 26.7721C10.4915 26.8012 10.5709 26.8362 10.647 26.8766C10.7317 26.9043 10.8137 26.9383 10.8922 26.978C10.9748 27.0031 11.0549 27.0341 11.1319 27.0705C11.2189 27.0944 11.3032 27.1248 11.3843 27.1611C11.4732 27.1836 11.5594 27.2128 11.6424 27.2482C11.7251 27.2675 11.8055 27.2926 11.8833 27.323C11.9751 27.3416 12.0644 27.3672 12.1505 27.3995C12.2359 27.4152 12.3191 27.4371 12.3997 27.4646C12.4867 27.4782 12.5715 27.4982 12.6538 27.5239C12.7473 27.5359 12.8385 27.5552 12.9269 27.5812C13.0161 27.5912 13.1033 27.6077 13.188 27.6304C13.2785 27.6382 13.367 27.6528 13.453 27.6737C13.545 27.6793 13.6351 27.6919 13.7228 27.711C13.8144 27.7146 13.9043 27.7251 13.9918 27.742C14.0847 27.7434 14.1759 27.7518 14.2648 27.767C14.2674 27.7669 14.2701 27.7669 14.2727 27.7669C14.2754 27.7669 14.2782 27.7669 14.2809 27.7669C14.3688 27.7669 14.4552 27.7733 14.5396 27.7857C14.5588 27.7851 14.578 27.7848 14.5973 27.7848C14.6715 27.7848 14.7447 27.7893 14.8165 27.7982C14.8493 27.7964 14.8823 27.7955 14.9156 27.7955C14.976 27.7955 15.0358 27.7985 15.0947 27.8045C15.1406 27.8009 15.187 27.7991 15.2338 27.7991C15.285 27.7991 15.3357 27.8012 15.3858 27.8055C15.4359 27.8012 15.4866 27.7991 15.5378 27.7991C15.589 27.7991 15.6397 27.8012 15.6898 27.8055C15.7399 27.8012 15.7906 27.7991 15.8418 27.7991C15.8933 27.7991 15.9443 27.8013 15.9947 27.8056C16.0451 27.8013 16.096 27.7991 16.1475 27.7991C16.1987 27.7991 16.2494 27.8012 16.2996 27.8055C16.3497 27.8012 16.4004 27.7991 16.4516 27.7991C16.5028 27.7991 16.5535 27.8012 16.6036 27.8055C16.6537 27.8012 16.7044 27.7991 16.7556 27.7991C16.8068 27.7991 16.8575 27.8012 16.9076 27.8055C16.9577 27.8012 17.0083 27.7991 17.0595 27.7991C17.1107 27.7991 17.1614 27.8012 17.2116 27.8055C17.2617 27.8012 17.3124 27.7991 17.3636 27.7991C17.4151 27.7991 17.4661 27.8013 17.5164 27.8056C17.5668 27.8013 17.6178 27.7991 17.6693 27.7991C17.7205 27.7991 17.7712 27.8012 17.8213 27.8055C17.8714 27.8012 17.9221 27.7991 17.9733 27.7991C18.0245 27.7991 18.0752 27.8012 18.1253 27.8055C18.1754 27.8012 18.2261 27.7991 18.2773 27.7991C18.3285 27.7991 18.3792 27.8012 18.4293 27.8055C18.4794 27.8012 18.5301 27.7991 18.5813 27.7991C18.6325 27.7991 18.6832 27.8012 18.7333 27.8055C18.7834 27.8012 18.8341 27.7991 18.8853 27.7991C18.9365 27.7991 18.9872 27.8012 19.0373 27.8055C19.0874 27.8012 19.1381 27.7991 19.1893 27.7991C19.2408 27.7991 19.2918 27.8013 19.3422 27.8056C19.3926 27.8013 19.4436 27.7991 19.4951 27.7991C19.5463 27.7991 19.597 27.8012 19.6471 27.8055C19.6972 27.8012 19.7479 27.7991 19.7991 27.7991C19.8503 27.7991 19.901 27.8012 19.9511 27.8055C20.0012 27.8012 20.0519 27.7991 20.1031 27.7991C20.1543 27.7991 20.205 27.8012 20.2551 27.8055C20.3052 27.8012 20.3559 27.7991 20.4071 27.7991C20.4583 27.7991 20.509 27.8012 20.5591 27.8055C20.6092 27.8012 20.6599 27.7991 20.7111 27.7991C20.7626 27.7991 20.8136 27.8013 20.864 27.8056C20.9144 27.8013 20.9654 27.7991 21.0169 27.7991C21.0681 27.7991 21.1188 27.8012 21.1689 27.8055C21.219 27.8012 21.2697 27.7991 21.3209 27.7991C21.3721 27.7991 21.4228 27.8012 21.4729 27.8055C21.523 27.8012 21.5737 27.7991 21.6249 27.7991C21.6761 27.7991 21.7268 27.8012 21.7769 27.8055C21.827 27.8012 21.8777 27.7991 21.9289 27.7991C21.9801 27.7991 22.0308 27.8012 22.0809 27.8055C22.131 27.8012 22.1817 27.7991 22.2329 27.7991C22.2841 27.7991 22.3348 27.8012 22.3849 27.8055C22.435 27.8012 22.4857 27.7991 22.5369 27.7991C22.5884 27.7991 22.6394 27.8013 22.6898 27.8056C22.7402 27.8013 22.7912 27.7991 22.8427 27.7991C22.8939 27.7991 22.9446 27.8012 22.9947 27.8055C23.0448 27.8012 23.0955 27.7991 23.1467 27.7991C23.1979 27.7991 23.2486 27.8012 23.2987 27.8055C23.3488 27.8012 23.3995 27.7991 23.4507 27.7991C23.5019 27.7991 23.5526 27.8012 23.6027 27.8055C23.6528 27.8012 23.7035 27.7991 23.7547 27.7991C23.8059 27.7991 23.8566 27.8012 23.9067 27.8055C23.9568 27.8012 24.0075 27.7991 24.0587 27.7991C24.1102 27.7991 24.1612 27.8013 24.2116 27.8056C24.2619 27.8013 24.3129 27.7991 24.3644 27.7991C24.4156 27.7991 24.4663 27.8012 24.5164 27.8055C24.5665 27.8012 24.6172 27.7991 24.6684 27.7991C24.7196 27.7991 24.7703 27.8012 24.8204 27.8055C24.8705 27.8012 24.9212 27.7991 24.9724 27.7991C25.0236 27.7991 25.0743 27.8012 25.1244 27.8055C25.1745 27.8012 25.2252 27.7991 25.2764 27.7991C25.3276 27.7991 25.3783 27.8012 25.4284 27.8055C25.4785 27.8012 25.5292 27.7991 25.5804 27.7991C25.6319 27.7991 25.6829 27.8013 25.7333 27.8056C25.7837 27.8013 25.8347 27.7991 25.8862 27.7991C25.9374 27.7991 25.9881 27.8012 26.0382 27.8055C26.0883 27.8012 26.139 27.7991 26.1902 27.7991C26.2414 27.7991 26.2921 27.8012 26.3422 27.8055C26.3923 27.8012 26.443 27.7991 26.4942 27.7991C26.5454 27.7991 26.5961 27.8012 26.6462 27.8055C26.6963 27.8012 26.747 27.7991 26.7982 27.7991C26.8494 27.7991 26.9001 27.8012 26.9502 27.8055C27.0003 27.8012 27.051 27.7991 27.1022 27.7991C27.1534 27.7991 27.2041 27.8012 27.2542 27.8055C27.3043 27.8012 27.355 27.7991 27.4062 27.7991C27.4577 27.7991 27.5087 27.8013 27.5591 27.8056C27.6095 27.8013 27.6605 27.7991 27.712 27.7991C27.7632 27.7991 27.8139 27.8012 27.864 27.8055C27.9141 27.8012 27.9648 27.7991 28.016 27.7991C28.0672 27.7991 28.1179 27.8012 28.168 27.8055C28.2181 27.8012 28.2688 27.7991 28.32 27.7991C28.3712 27.7991 28.4219 27.8012 28.472 27.8055C28.5221 27.8012 28.5728 27.7991 28.624 27.7991C29.6058 27.7991 30.4018 28.5994 30.4018 29.5867C30.4018 30.5739 29.6058 31.3743 28.624 31.3743C28.5728 31.3743 28.5221 31.3721 28.472 31.3678C28.4219 31.3721 28.3712 31.3743 28.32 31.3743C28.2688 31.3743 28.2181 31.3721 28.168 31.3678C28.1179 31.3721 28.0672 31.3743 28.016 31.3743C27.9648 31.3743 27.9141 31.3721 27.864 31.3678C27.8139 31.3721 27.7632 31.3743 27.712 31.3743C27.6605 31.3743 27.6095 31.3721 27.5591 31.3677C27.5087 31.3721 27.4577 31.3743 27.4062 31.3743C27.355 31.3743 27.3043 31.3721 27.2542 31.3678C27.2041 31.3721 27.1534 31.3743 27.1022 31.3743C27.051 31.3743 27.0003 31.3721 26.9502 31.3678C26.9001 31.3721 26.8494 31.3743 26.7982 31.3743C26.747 31.3743 26.6963 31.3721 26.6462 31.3678C26.5961 31.3721 26.5454 31.3743 26.4942 31.3743C26.443 31.3743 26.3923 31.3721 26.3422 31.3678C26.2921 31.3721 26.2414 31.3743 26.1902 31.3743C26.139 31.3743 26.0883 31.3721 26.0382 31.3678C25.9881 31.3721 25.9374 31.3743 25.8862 31.3743C25.8347 31.3743 25.7837 31.3721 25.7333 31.3677C25.6829 31.3721 25.6319 31.3743 25.5804 31.3743C25.5292 31.3743 25.4785 31.3721 25.4284 31.3678C25.3783 31.3721 25.3276 31.3743 25.2764 31.3743C25.2252 31.3743 25.1745 31.3721 25.1244 31.3678C25.0743 31.3721 25.0236 31.3743 24.9724 31.3743C24.9212 31.3743 24.8705 31.3721 24.8204 31.3678C24.7703 31.3721 24.7196 31.3743 24.6684 31.3743C24.6172 31.3743 24.5665 31.3721 24.5164 31.3678C24.4663 31.3721 24.4156 31.3743 24.3644 31.3743C24.3129 31.3743 24.2619 31.3721 24.2116 31.3677C24.1612 31.3721 24.1102 31.3743 24.0587 31.3743C24.0075 31.3743 23.9568 31.3721 23.9067 31.3678C23.8566 31.3721 23.8059 31.3743 23.7547 31.3743C23.7035 31.3743 23.6528 31.3721 23.6027 31.3678C23.5526 31.3721 23.5019 31.3743 23.4507 31.3743C23.3995 31.3743 23.3488 31.3721 23.2987 31.3678C23.2486 31.3721 23.1979 31.3743 23.1467 31.3743C23.0955 31.3743 23.0448 31.3721 22.9947 31.3678C22.9446 31.3721 22.8939 31.3743 22.8427 31.3743C22.7912 31.3743 22.7402 31.3721 22.6898 31.3677C22.6394 31.3721 22.5884 31.3743 22.5369 31.3743C22.4857 31.3743 22.435 31.3721 22.3849 31.3678C22.3348 31.3721 22.2841 31.3743 22.2329 31.3743C22.1817 31.3743 22.131 31.3721 22.0809 31.3678C22.0308 31.3721 21.9801 31.3743 21.9289 31.3743C21.8777 31.3743 21.827 31.3721 21.7769 31.3678C21.7268 31.3721 21.6761 31.3743 21.6249 31.3743C21.5737 31.3743 21.523 31.3721 21.4729 31.3678C21.4228 31.3721 21.3721 31.3743 21.3209 31.3743C21.2697 31.3743 21.219 31.3721 21.1689 31.3678C21.1188 31.3721 21.0681 31.3743 21.0169 31.3743C20.9654 31.3743 20.9144 31.3721 20.864 31.3677C20.8136 31.3721 20.7626 31.3743 20.7111 31.3743C20.6599 31.3743 20.6092 31.3721 20.5591 31.3678C20.509 31.3721 20.4583 31.3743 20.4071 31.3743C20.3559 31.3743 20.3052 31.3721 20.2551 31.3678C20.205 31.3721 20.1543 31.3743 20.1031 31.3743C20.0519 31.3743 20.0012 31.3721 19.9511 31.3678C19.901 31.3721 19.8503 31.3743 19.7991 31.3743C19.7479 31.3743 19.6972 31.3721 19.6471 31.3678C19.597 31.3721 19.5463 31.3743 19.4951 31.3743C19.4436 31.3743 19.3926 31.3721 19.3422 31.3677C19.2918 31.3721 19.2408 31.3743 19.1893 31.3743C19.1381 31.3743 19.0874 31.3721 19.0373 31.3678C18.9872 31.3721 18.9365 31.3743 18.8853 31.3743C18.8341 31.3743 18.7834 31.3721 18.7333 31.3678C18.6832 31.3721 18.6325 31.3743 18.5813 31.3743C18.5301 31.3743 18.4794 31.3721 18.4293 31.3678C18.3792 31.3721 18.3285 31.3743 18.2773 31.3743C18.2261 31.3743 18.1754 31.3721 18.1253 31.3678C18.0752 31.3721 18.0245 31.3743 17.9733 31.3743C17.9221 31.3743 17.8714 31.3721 17.8213 31.3678C17.7712 31.3721 17.7205 31.3743 17.6693 31.3743C17.6178 31.3743 17.5668 31.3721 17.5164 31.3677C17.4661 31.3721 17.4151 31.3743 17.3636 31.3743C17.3124 31.3743 17.2617 31.3721 17.2116 31.3678C17.1614 31.3721 17.1107 31.3743 17.0595 31.3743C17.0083 31.3743 16.9577 31.3721 16.9076 31.3678C16.8575 31.3721 16.8068 31.3743 16.7556 31.3743C16.7044 31.3743 16.6537 31.3721 16.6036 31.3678C16.5535 31.3721 16.5028 31.3743 16.4516 31.3743C16.4004 31.3743 16.3497 31.3721 16.2996 31.3678C16.2494 31.3721 16.1987 31.3743 16.1475 31.3743C16.096 31.3743 16.0451 31.3721 15.9947 31.3677C15.9443 31.3721 15.8933 31.3743 15.8418 31.3743C15.7906 31.3743 15.7399 31.3721 15.6898 31.3678C15.6397 31.3721 15.589 31.3743 15.5378 31.3743C15.4866 31.3743 15.4359 31.3721 15.3858 31.3678C15.3357 31.3721 15.285 31.3743 15.2338 31.3743C15.1733 31.3743 15.1135 31.3712 15.0546 31.3653C15.0087 31.3689 14.9624 31.3707 14.9156 31.3707C14.8413 31.3707 14.7682 31.3661 14.6964 31.3572C14.6636 31.359 14.6306 31.36 14.5973 31.36C14.5094 31.36 14.423 31.3535 14.3386 31.3412C14.3194 31.3418 14.3002 31.3421 14.2809 31.3421C14.1791 31.3421 14.0794 31.3335 13.9823 31.317L13.9757 31.317L13.9662 31.3171C13.8505 31.3171 13.7373 31.3059 13.6278 31.2847C13.5067 31.283 13.3886 31.2691 13.2745 31.2442C13.1548 31.2396 13.0381 31.2231 12.9256 31.1958C12.8053 31.1885 12.6882 31.1691 12.5755 31.1389C12.4561 31.1286 12.3401 31.1065 12.2286 31.0737C12.1146 31.061 12.0038 31.0374 11.8973 31.0041C11.7782 30.9888 11.6628 30.9617 11.5523 30.9239C11.4331 30.9053 11.3178 30.8748 11.2077 30.8336C11.0967 30.8131 10.9893 30.7822 10.8865 30.742C10.7683 30.7181 10.6544 30.6825 10.546 30.6363C10.4352 30.6104 10.3282 30.5741 10.2264 30.5285C10.1152 30.5003 10.0081 30.4617 9.90627 30.4136C9.7928 30.3823 9.68386 30.3401 9.58066 30.288C9.47152 30.2548 9.36681 30.2114 9.26765 30.1588C9.15749 30.1227 9.05206 30.0761 8.95252 30.0201C8.84379 29.9817 8.7399 29.9328 8.64201 29.8748C8.53428 29.8337 8.43155 29.7823 8.335 29.7219C8.23268 29.6801 8.1351 29.6289 8.04332 29.5695C7.93612 29.5236 7.83433 29.4674 7.73917 29.4021C7.63464 29.354 7.53555 29.296 7.44309 29.2293C7.34323 29.1803 7.24862 29.1221 7.16033 29.0559C7.05523 29.0019 6.95618 28.9377 6.86447 28.8646C6.76823 28.8115 6.67742 28.7496 6.59308 28.6801C6.49529 28.6239 6.40331 28.5587 6.31829 28.4855C6.22172 28.4272 6.13111 28.3599 6.0476 28.2849C5.95054 28.2234 5.85981 28.1527 5.7766 28.0741C5.6831 28.0115 5.59583 27.9402 5.51593 27.8614C5.42602 27.7983 5.34217 27.7272 5.26545 27.6489C5.17035 27.5798 5.08231 27.5014 5.00265 27.4151C4.91571 27.3479 4.83512 27.2728 4.76195 27.1908C4.67444 27.1208 4.59364 27.0426 4.5207 26.9574C4.43079 26.8822 4.34837 26.7982 4.27474 26.7068C4.19463 26.6357 4.12094 26.5575 4.05466 26.4731C3.96812 26.3942 3.88933 26.3069 3.8196 26.2125C3.74056 26.1362 3.66852 26.0526 3.60454 25.9628C3.522 25.8802 3.44749 25.7895 3.38227 25.6919C3.30858 25.6139 3.24183 25.5291 3.18301 25.4386C3.10549 25.3543 3.03595 25.2624 2.9756 25.1643C2.89976 25.0775 2.83214 24.9834 2.77397 24.883C2.70424 24.7988 2.64205 24.7081 2.58845 24.6119C2.51684 24.5226 2.45361 24.4262 2.39994 24.3239C2.33111 24.2336 2.27064 24.1366 2.21971 24.0339C2.15442 23.9439 2.09729 23.8476 2.0494 23.7459C1.98319 23.651 1.92592 23.5494 1.87882 23.4422C1.81789 23.3497 1.76528 23.2512 1.72207 23.1478C1.66106 23.0514 1.60899 22.9487 1.56703 22.8409C1.50888 22.7441 1.45961 22.6414 1.42033 22.5337C1.36344 22.4345 1.31576 22.3292 1.27847 22.219C1.22485 22.12 1.18028 22.0153 1.14585 21.9061C1.09274 21.803 1.04932 21.6941 1.01679 21.5806C0.967672 21.4789 0.92786 21.3718 0.898468 21.2604C0.850541 21.1559 0.812353 21.0459 0.785075 20.9317C0.739239 20.825 0.703437 20.713 0.678866 20.5967C0.637279 20.4928 0.60513 20.384 0.583482 20.2714C0.543414 20.1657 0.51304 20.0551 0.493456 19.9408C0.453107 19.8279 0.423752 19.7096 0.406686 19.5874C0.372017 19.4801 0.347165 19.3684 0.333194 19.2533C0.299442 19.1421 0.276175 19.0263 0.264553 18.9071C0.233232 18.7945 0.212617 18.6773 0.203877 18.5568C0.175302 18.4436 0.157469 18.3261 0.151533 18.2055C0.125568 18.0915 0.110436 17.9734 0.107283 17.8523C0.0839335 17.7376 0.0715006 17.619 0.0711242 17.4975C0.0524278 17.3935 0.0426649 17.2865 0.0426649 17.1771C0.0426649 17.1678 0.0427361 17.1585 0.0428772 17.1493C0.0275316 17.0548 0.0195529 16.9578 0.0195529 16.859C0.0195529 16.8328 0.0201138 16.8067 0.0212233 16.7808C0.0107476 16.7023 0.00533854 16.6221 0.00533854 16.5408C0.00533854 16.4968 0.00691867 16.4532 0.0100254 16.41C0.0033983 16.3472 0 16.2835 0 16.219C0 16.1648 0.00240139 16.1111 0.00710246 16.0581C0.00240139 16.0051 0 15.9515 0 15.8972C0 15.826 0.0041375 15.7558 0.0121833 15.6868C0.0100037 15.6506 0.00889757 15.614 0.00889757 15.5772C0.00889757 15.4957 0.0143263 15.4155 0.0248406 15.3368C0.0236925 15.3104 0.023112 15.2839 0.023112 15.2573C0.023112 15.1585 0.0310825 15.0616 0.0464118 14.9671C0.0463494 14.9627 0.0463019 14.9584 0.0462707 14.954C0.0462395 14.9496 0.0462239 14.9452 0.0462239 14.9409C0.0462239 14.828 0.0566264 14.7176 0.0765218 14.6105C0.0775641 14.489 0.0906677 14.3703 0.114688 14.2557C0.118507 14.1346 0.13431 14.0165 0.160946 13.9026C0.167561 13.7817 0.186135 13.6639 0.215499 13.5505C0.224727 13.4344 0.244988 13.3215 0.275228 13.2127C0.287187 13.09 0.311472 12.971 0.346821 12.8569C0.3615 12.7412 0.387185 12.6289 0.422785 12.5212C0.440079 12.4036 0.468755 12.2898 0.507649 12.1809C0.52782 12.0631 0.559446 11.9493 0.601331 11.8407C0.623762 11.7273 0.656848 11.6179 0.699496 11.5134C0.724691 11.3985 0.76087 11.2878 0.80687 11.1824C0.833983 11.0715 0.871391 10.9647 0.918018 10.863C0.948538 10.7473 0.990293 10.6363 1.04204 10.5311C1.07506 10.4192 1.1187 10.3118 1.17178 10.2102C1.2058 10.1042 1.24941 10.0025 1.30158 9.90612C1.34034 9.79166 1.39032 9.68242 1.4502 9.57973C1.48863 9.477 1.53621 9.37878 1.59192 9.28605C1.63508 9.17518 1.68893 9.06969 1.75221 8.97089C1.7966 8.86612 1.85065 8.76648 1.91325 8.67311C1.95918 8.57086 2.01441 8.47372 2.07785 8.3828C2.1271 8.27826 2.18615 8.1793 2.25379 8.0871C2.30466 7.98578 2.36484 7.88999 2.4332 7.80086C2.48765 7.69799 2.55181 7.60111 2.62445 7.51144C2.67865 7.41519 2.74148 7.32451 2.81188 7.24044C2.87006 7.14107 2.93754 7.04786 3.01309 6.96201C3.07257 6.86611 3.14084 6.77629 3.21676 6.69369C3.27833 6.59902 3.34857 6.51058 3.42637 6.42952C3.49115 6.33439 3.56484 6.24589 3.64623 6.16521C3.71037 6.07599 3.78249 5.99296 3.86155 5.91718C3.93182 5.82285 4.01115 5.73573 4.09823 5.65713C4.16478 5.57309 4.2387 5.49521 4.31901 5.42449C4.39302 5.33346 4.47579 5.24991 4.56602 5.17513C4.63936 5.09013 4.72055 5.01217 4.80845 4.94237C4.88349 4.85909 4.96624 4.78296 5.05556 4.7151C5.1325 4.63316 5.21707 4.55853 5.30811 4.49235C5.38483 4.4141 5.46868 4.34292 5.55859 4.27988C5.64208 4.19751 5.73361 4.12337 5.8319 4.05874C5.91212 3.98419 5.99918 3.91698 6.09204 3.85818C6.17756 3.7813 6.27052 3.71262 6.3697 3.65337C6.45448 3.58115 6.54608 3.51677 6.64338 3.46136C6.73256 3.38832 6.82891 3.32381 6.93121 3.26906C7.01762 3.20204 7.11034 3.14284 7.20831 3.09251C7.30054 3.02334 7.39966 2.96295 7.50445 2.91258C7.59356 2.84938 7.68872 2.7942 7.78887 2.74811C7.88406 2.68282 7.98589 2.6266 8.09312 2.58066C8.18736 2.51965 8.2877 2.46735 8.39302 2.42489C8.49119 2.36422 8.59567 2.31287 8.70524 2.27206C8.8023 2.21556 8.90517 2.16802 9.01273 2.13057C9.1111 2.07601 9.21516 2.03054 9.32378 1.99529C9.42483 1.94192 9.53162 1.89804 9.64297 1.86483C9.74351 1.81482 9.84942 1.77409 9.9596 1.74376C10.0642 1.69434 10.1744 1.65488 10.2889 1.62657C10.3908 1.58158 10.4978 1.54594 10.6087 1.52071C10.7154 1.47595 10.8274 1.44136 10.9435 1.41813C11.0486 1.37716 11.1586 1.34595 11.2723 1.3256C11.3835 1.28472 11.4999 1.25469 11.6203 1.23679C11.7265 1.20131 11.8371 1.17563 11.9511 1.1608C12.0619 1.126 12.1774 1.10181 12.2964 1.08941C12.4084 1.05723 12.5249 1.03582 12.6448 1.02636C12.7535 0.997959 12.8662 0.979633 12.9819 0.972436C13.0984 0.944138 13.2193 0.927374 13.3435 0.923414C13.4575 0.899253 13.5755 0.886075 13.6964 0.885031C13.8029 0.865033 13.9127 0.854576 14.0249 0.854576C14.0303 0.854576 14.0356 0.854601 14.041 0.854649C14.1381 0.838142 14.2378 0.829547 14.3396 0.829547C14.3622 0.829547 14.3848 0.829974 14.4072 0.830819C14.4885 0.819376 14.5716 0.81346 14.656 0.81346C14.693 0.81346 14.7298 0.814598 14.7662 0.81684C14.835 0.808707 14.905 0.804524 14.976 0.804524C15.0265 0.804524 15.0766 0.806644 15.126 0.810799C15.182 0.805463 15.2387 0.802734 15.296 0.802734C15.3636 0.802734 15.4303 0.806524 15.4959 0.813903C15.5356 0.81124 15.5756 0.809886 15.616 0.809886C15.6935 0.809886 15.7698 0.81487 15.8447 0.824537C15.8737 0.823115 15.903 0.822395 15.9324 0.822395C16.0273 0.822395 16.1204 0.829863 16.2112 0.844245C16.2237 0.843983 16.2363 0.843851 16.2489 0.843851C16.3541 0.843851 16.4572 0.853043 16.5574 0.87067L16.5618 0.870664C16.6845 0.870664 16.8043 0.88317 16.9201 0.906985C17.0412 0.910039 17.1594 0.925281 17.2733 0.951538C17.3901 0.957346 17.5038 0.974472 17.6135 1.00185C17.7357 1.01029 17.8544 1.03113 17.9685 1.06314C18.0845 1.07439 18.1972 1.09685 18.3055 1.12943C18.424 1.1433 18.5389 1.16888 18.6491 1.20499C18.7655 1.22164 18.8782 1.24961 18.9862 1.28777C19.1044 1.30736 19.2188 1.33868 19.328 1.38051C19.4399 1.40228 19.5481 1.43461 19.6515 1.47642C19.7663 1.50096 19.8769 1.53662 19.9823 1.58224C20.0941 1.60894 20.2017 1.64625 20.3042 1.69305C20.4182 1.72282 20.5277 1.76368 20.6316 1.81441C20.7446 1.84712 20.8529 1.89079 20.9554 1.94419C21.0597 1.97744 21.1599 2.0201 21.2549 2.07119C21.3705 2.10972 21.4809 2.15986 21.5846 2.22024C21.6867 2.25828 21.7844 2.30547 21.8767 2.36083C21.9856 2.40308 22.0894 2.45581 22.1868 2.5178C22.2916 2.56168 22.3914 2.61535 22.4849 2.67768C22.5885 2.72372 22.6869 2.77942 22.7791 2.84366C22.8816 2.89188 22.9788 2.94966 23.0695 3.01585C23.1737 3.06763 23.2721 3.12937 23.3634 3.19983C23.4624 3.25231 23.5558 3.31391 23.6426 3.3835C23.741 3.43832 23.8337 3.50225 23.9195 3.57417C24.0177 3.63171 24.11 3.69845 24.195 3.77321C24.2924 3.83317 24.3835 3.90227 24.4672 3.97933C24.5597 4.03953 24.6462 4.10813 24.7258 4.18405C24.821 4.24843 24.9097 4.32183 24.9907 4.40303C25.0841 4.46972 25.1708 4.54526 25.2497 4.62843C25.3372 4.69436 25.4185 4.76822 25.4925 4.84894C25.581 4.91802 25.6629 4.99533 25.737 5.07972C25.826 5.15225 25.9079 5.23325 25.9815 5.32151C26.0667 5.39454 26.1449 5.4755 26.215 5.56326C26.2985 5.63804 26.3749 5.72062 26.4431 5.80986C26.5252 5.88647 26.6 5.97078 26.6665 6.06165C26.7486 6.14166 26.8231 6.22956 26.8886 6.32413C26.967 6.40447 27.0379 6.49221 27.1002 6.58623C27.1784 6.66988 27.2486 6.76109 27.3098 6.85867C27.3811 6.93891 27.4453 7.02567 27.5015 7.11794C27.5782 7.20654 27.6463 7.30281 27.7047 7.40545C27.7738 7.49025 27.8353 7.58157 27.8881 7.67834C27.9608 7.77054 28.0247 7.87011 28.0783 7.97577C28.1425 8.06228 28.1991 8.15482 28.2471 8.2524C28.3157 8.34757 28.3753 8.44981 28.4245 8.55784C28.4866 8.64951 28.5405 8.7473 28.5851 8.85013C28.6475 8.94586 28.7009 9.04796 28.7443 9.15527C28.8044 9.25229 28.8554 9.35552 28.8963 9.46378C28.954 9.56225 29.0026 9.66677 29.0409 9.77617C29.095 9.87356 29.1404 9.97657 29.1758 10.0841C29.2303 10.1864 29.2751 10.2947 29.309 10.4077C29.3588 10.5074 29.3996 10.6125 29.4302 10.7217C29.4787 10.8235 29.5178 10.9306 29.5466 11.042C29.5957 11.1507 29.6343 11.2652 29.6611 11.3842C29.7032 11.4857 29.7362 11.592 29.7592 11.702C29.8032 11.8123 29.8366 11.9281 29.858 12.0479C29.8969 12.1544 29.9259 12.2656 29.9441 12.3804C29.9817 12.49 30.009 12.6045 30.0248 12.7225C30.0598 12.833 30.0845 12.9482 30.0975 13.0668C30.1302 13.1789 30.1521 13.2955 30.1623 13.4155C30.1914 13.525 30.2103 13.6386 30.2181 13.7552C30.247 13.8723 30.2643 13.9939 30.269 14.1188C30.2929 14.2296 30.3065 14.3443 30.3089 14.4617C30.3313 14.575 30.3431 14.6922 30.3431 14.8122C30.3431 14.8176 30.3431 14.823 30.343 14.8283C30.3594 14.926 30.368 15.0263 30.368 15.1286L30.368 15.1366L30.3679 15.1472C30.3678 15.157 30.3676 15.1668 30.3674 15.1765C30.3806 15.2647 30.3875 15.3549 30.3875 15.4468C30.3875 15.4801 30.3866 15.5133 30.3848 15.5463C30.3937 15.6185 30.3982 15.6921 30.3982 15.7667C30.3982 15.8141 30.3964 15.8611 30.3928 15.9076C30.3987 15.9671 30.4018 16.0274 30.4018 16.0885C30.4018 17.0758 29.6058 17.8761 28.624 17.8761C27.6422 17.8761 26.8462 17.0758 26.8462 16.0885C26.8462 16.0411 26.8481 15.9941 26.8517 15.9477C26.8457 15.8882 26.8427 15.8278 26.8427 15.7667C26.8427 15.7333 26.8436 15.7002 26.8454 15.6672C26.8365 15.595 26.832 15.5214 26.832 15.4468C26.832 15.4307 26.8322 15.4147 26.8326 15.3988C26.8193 15.3107 26.8124 15.2204 26.8124 15.1286L26.8125 15.1176L26.8125 15.1124C26.7981 15.0268 26.7898 14.9391 26.7879 14.8498C26.7698 14.7579 26.7586 14.6634 26.755 14.567C26.7369 14.4829 26.7246 14.3966 26.7187 14.3085C26.6966 14.2186 26.6812 14.1261 26.6732 14.0315C26.6506 13.9463 26.6341 13.8586 26.6242 13.7689C26.5995 13.684 26.5809 13.5966 26.5689 13.5071C26.5422 13.4229 26.5216 13.3359 26.5075 13.2468C26.4782 13.1614 26.4551 13.073 26.4389 12.9822C26.4099 12.9028 26.3864 12.8207 26.3687 12.7365C26.3343 12.6501 26.3064 12.5604 26.2856 12.468C26.2539 12.3915 26.2273 12.3124 26.2063 12.231C26.1697 12.1501 26.139 12.066 26.1147 11.9792C26.0761 11.8982 26.0434 11.8138 26.0172 11.7265C25.9791 11.6503 25.9463 11.5709 25.9193 11.4889C25.8771 11.4096 25.8407 11.3267 25.8106 11.2408C25.7686 11.1653 25.7319 11.0863 25.701 11.0044C25.6574 10.93 25.619 10.8521 25.5863 10.7713C25.5411 10.6982 25.501 10.6216 25.4664 10.542C25.4178 10.4673 25.3746 10.3888 25.3373 10.3069C25.291 10.2386 25.2492 10.1668 25.2125 10.0922C25.1586 10.0175 25.1104 9.93849 25.0683 9.85574C25.0193 9.78963 24.9747 9.72 24.935 9.64729C24.8793 9.57673 24.8289 9.50185 24.7842 9.42323C24.7326 9.35987 24.6852 9.29289 24.6425 9.22271C24.5824 9.15334 24.5276 9.07927 24.4787 9.00112C24.4225 8.93791 24.3707 8.87066 24.3238 8.79985C24.2645 8.73646 24.2099 8.66873 24.1602 8.59718C24.1013 8.53675 24.0466 8.47214 23.9966 8.40382C23.9343 8.34314 23.8765 8.27793 23.8235 8.2087C23.76 8.14936 23.7007 8.0854 23.6464 8.01735C23.5817 7.95942 23.5213 7.89682 23.4656 7.83007C23.4014 7.77499 23.3411 7.7154 23.2853 7.65177C23.2179 7.59692 23.1547 7.53722 23.096 7.4732C23.0255 7.41824 22.9593 7.35808 22.8979 7.29328C22.8304 7.24246 22.7667 7.18694 22.7071 7.12719C22.6381 7.07793 22.5727 7.02384 22.5115 6.96541C22.4377 6.91553 22.3679 6.86024 22.3025 6.8001C22.2307 6.75334 22.1625 6.70152 22.0983 6.64512C22.0246 6.59975 21.9545 6.54914 21.8885 6.4938C21.8136 6.44991 21.7422 6.40068 21.6747 6.34662C21.5976 6.30362 21.5239 6.25502 21.4543 6.20136C21.3795 6.16168 21.3078 6.11678 21.2398 6.06716C21.1613 6.02814 21.0861 5.98347 21.0147 5.93367C20.9352 5.89625 20.8588 5.85308 20.7862 5.80469C20.7056 5.7689 20.6282 5.72727 20.5545 5.68033C20.4759 5.64743 20.4002 5.60903 20.3278 5.56559C20.2409 5.53191 20.1573 5.49157 20.0776 5.44519C20.0018 5.41696 19.9285 5.38368 19.858 5.34577C19.769 5.31611 19.6832 5.27958 19.601 5.2368C19.519 5.21065 19.4395 5.17867 19.363 5.14134C19.2799 5.11726 19.1992 5.08724 19.1216 5.05177C19.034 5.02891 18.9492 4.99953 18.8674 4.96415C18.7813 4.94358 18.6977 4.91671 18.6169 4.88406C18.5271 4.86486 18.4398 4.83884 18.3556 4.80657C18.2698 4.7899 18.1863 4.76702 18.1054 4.73843C18.0162 4.72366 17.9293 4.70222 17.8451 4.67463C17.7571 4.66204 17.6712 4.64297 17.5878 4.61791C17.4951 4.60706 17.4046 4.58905 17.3168 4.56443C17.2293 4.55594 17.1436 4.54105 17.0602 4.52026C16.9664 4.51377 16.8746 4.49996 16.7853 4.47939C16.6937 4.47483 16.6039 4.46329 16.5164 4.44529C16.4269 4.44304 16.339 4.43413 16.2533 4.41905L16.2489 4.41905C16.154 4.41905 16.0609 4.41158 15.9701 4.3972C15.9656 4.39729 15.9611 4.39737 15.9566 4.39743C15.9486 4.39754 15.9405 4.39759 15.9324 4.39759C15.855 4.39759 15.7786 4.39261 15.7038 4.38294C15.6747 4.38437 15.6454 4.38509 15.616 4.38509C15.5484 4.38509 15.4817 4.3813 15.4161 4.37392Z" fill="url(#paint0_angular_3497_38362)"/>
<path d="M15.1662 8.64524C15.1304 8.64741 15.0942 8.64851 15.0578 8.64851C15.0413 8.64851 15.0248 8.64828 15.0084 8.64783C14.9533 8.65301 14.8974 8.65566 14.8409 8.65566L14.8315 8.65563L14.8225 8.65556C14.7663 8.66179 14.7092 8.66538 14.6516 8.6662C14.5968 8.67366 14.5412 8.67862 14.485 8.68094C14.4252 8.69065 14.3644 8.69737 14.3028 8.70093C14.2486 8.71068 14.1936 8.71796 14.1379 8.72265C14.0844 8.73372 14.03 8.74236 13.9749 8.74848C13.922 8.76087 13.8682 8.77088 13.8137 8.77841C13.7556 8.79365 13.6963 8.80601 13.6361 8.81533C13.5852 8.82961 13.5334 8.84166 13.4807 8.85139C13.4252 8.86866 13.3685 8.88326 13.3109 8.89506C13.2559 8.91326 13.1999 8.92884 13.1427 8.94166C13.0973 8.95767 13.0511 8.97187 13.004 8.98418C12.946 9.00698 12.8865 9.0268 12.8257 9.04345C12.7769 9.0632 12.7271 9.08083 12.6764 9.09624C12.6239 9.1192 12.5701 9.13968 12.5151 9.15754C12.4693 9.1786 12.4225 9.19777 12.3748 9.21494C12.322 9.2412 12.2677 9.2649 12.2121 9.28588C12.1634 9.3111 12.1134 9.33412 12.0623 9.35481C12.0188 9.37859 11.9742 9.4006 11.9286 9.42074C11.8778 9.45059 11.8254 9.47799 11.7715 9.50276C11.7252 9.53096 11.6776 9.55709 11.6286 9.58103C11.5836 9.60994 11.5371 9.63687 11.4894 9.66168C11.4406 9.69465 11.39 9.72526 11.3379 9.75333C11.2965 9.78227 11.2537 9.80949 11.2098 9.83488C11.1657 9.86753 11.12 9.89818 11.073 9.92671C11.03 9.9601 10.9854 9.99156 10.9394 10.0209C10.8934 10.0582 10.8456 10.0932 10.7961 10.1258C10.761 10.1551 10.7247 10.1832 10.6874 10.2098C10.6426 10.25 10.5959 10.2881 10.5472 10.3237C10.5058 10.3618 10.4626 10.3981 10.4178 10.4322C10.3822 10.4663 10.3452 10.499 10.3069 10.53C10.2675 10.5702 10.2263 10.6084 10.1833 10.6446C10.1443 10.6859 10.1034 10.7253 10.0606 10.7627C10.0251 10.8018 9.98781 10.8393 9.94896 10.8751C9.91203 10.9177 9.87313 10.9585 9.83239 10.9975C9.80109 11.035 9.76828 11.0713 9.73405 11.1061C9.69901 11.1509 9.66187 11.194 9.62281 11.2352C9.58883 11.2803 9.55277 11.3237 9.51477 11.3654C9.48117 11.4118 9.4454 11.4565 9.40761 11.4994C9.37769 11.5424 9.34593 11.584 9.31245 11.6241C9.28323 11.6685 9.25209 11.7114 9.21915 11.7529C9.18933 11.8007 9.15733 11.847 9.12328 11.8916C9.09586 11.9375 9.06644 11.9821 9.03516 12.0252C9.00861 12.0722 8.98 12.1179 8.94946 12.1621C8.92152 12.2146 8.89106 12.2654 8.85824 12.3146C8.83359 12.3625 8.80684 12.4092 8.77812 12.4544C8.75635 12.4994 8.73277 12.5433 8.70746 12.5861C8.6842 12.6382 8.65853 12.6891 8.63059 12.7384C8.60833 12.7911 8.58364 12.8424 8.55666 12.8923C8.53541 12.9454 8.51169 12.9973 8.48566 13.0477C8.466 13.0998 8.44399 13.1507 8.41977 13.2003C8.40214 13.2504 8.38235 13.2995 8.36052 13.3475C8.34426 13.3981 8.32581 13.4478 8.3053 13.4963C8.28765 13.5568 8.2669 13.616 8.24324 13.6736C8.22883 13.7252 8.21216 13.7759 8.19337 13.8255C8.1806 13.8765 8.16564 13.9266 8.14861 13.9757C8.13568 14.0348 8.11984 14.0927 8.10125 14.1494C8.09051 14.2026 8.07743 14.2548 8.06211 14.3062C8.05202 14.364 8.03918 14.4208 8.02371 14.4766C8.01521 14.5322 8.00416 14.5869 7.99068 14.6407C7.98301 14.7006 7.97239 14.7595 7.95898 14.8174C7.9529 14.8728 7.94429 14.9274 7.93329 14.9812C7.92863 15.0372 7.9214 15.0924 7.91173 15.1468C7.90848 15.2036 7.9026 15.2597 7.89421 15.315C7.89224 15.3774 7.88709 15.439 7.87891 15.4997C7.87804 15.557 7.87448 15.6137 7.86835 15.6696C7.86843 15.6764 7.86847 15.6831 7.86847 15.6899C7.86847 15.7416 7.86628 15.7929 7.86199 15.8435C7.86275 15.8649 7.86313 15.8864 7.86313 15.9079C7.86313 15.9496 7.86171 15.9909 7.85892 16.0319C7.86053 16.063 7.86135 16.0944 7.86135 16.126C7.86135 16.1476 7.86097 16.1691 7.86021 16.1905C7.8645 16.2411 7.86669 16.2924 7.86669 16.3441C7.86669 16.347 7.86668 16.3498 7.86667 16.3526C7.86666 16.3549 7.86664 16.3572 7.86662 16.3595C7.86657 16.3661 7.86648 16.3726 7.86635 16.3791C7.87152 16.4302 7.87455 16.4819 7.87535 16.5342C7.88355 16.5949 7.88871 16.6566 7.89067 16.7192C7.89977 16.7791 7.90591 16.84 7.90894 16.9017C7.91753 16.9524 7.92399 17.0039 7.92824 17.0559C7.94007 17.114 7.9491 17.1731 7.95518 17.233C7.96704 17.2862 7.97654 17.3403 7.98357 17.3951C7.9982 17.4535 8.00997 17.513 8.01873 17.5735C8.03246 17.6247 8.04399 17.6768 8.05322 17.7296C8.07031 17.7869 8.08463 17.8454 8.09601 17.9049C8.11229 17.9563 8.12632 18.0087 8.13799 18.062C8.155 18.1111 8.16994 18.1612 8.1827 18.2121C8.20481 18.2705 8.22397 18.3303 8.24 18.3913C8.25817 18.4378 8.27447 18.4853 8.28879 18.5336C8.31274 18.5893 8.33395 18.6465 8.35224 18.705C8.37272 18.751 8.39132 18.798 8.40795 18.846C8.43152 18.8949 8.45293 18.945 8.47207 18.9963C8.49923 19.0493 8.52383 19.1039 8.5457 19.1598C8.57122 19.2079 8.59462 19.2573 8.61576 19.3079C8.64127 19.3534 8.66486 19.4 8.68641 19.4478C8.71438 19.4946 8.74027 19.5429 8.76396 19.5924C8.79518 19.642 8.82403 19.6933 8.85036 19.7461C8.87711 19.7872 8.90221 19.8294 8.92559 19.8728C8.9619 19.9249 8.99552 19.9791 9.02623 20.0351C9.05292 20.0728 9.07818 20.1115 9.10195 20.1513C9.13797 20.1985 9.17169 20.2476 9.20296 20.2983C9.234 20.3378 9.26342 20.3786 9.29112 20.4206C9.32965 20.4667 9.36591 20.5149 9.39971 20.5648C9.43357 20.6044 9.46573 20.6455 9.49609 20.6879C9.53181 20.7275 9.56579 20.7687 9.59791 20.8113C9.63698 20.8525 9.67412 20.8956 9.70917 20.9404C9.74591 20.9778 9.78103 21.0168 9.81441 21.0574C9.85483 21.0965 9.89341 21.1375 9.93001 21.1804C9.96861 21.2163 10.0056 21.254 10.0409 21.2933C10.0805 21.3284 10.1185 21.3652 10.1549 21.4036C10.201 21.4425 10.2451 21.4837 10.287 21.527C10.3247 21.558 10.3611 21.5905 10.3962 21.6245C10.4413 21.6592 10.4847 21.6962 10.5263 21.735C10.5682 21.7661 10.6087 21.799 10.6476 21.8336C10.6943 21.8663 10.7393 21.9013 10.7825 21.9384C10.8268 21.9683 10.8697 22.0002 10.911 22.0339C10.9587 22.0644 11.0048 22.0972 11.0493 22.132C11.0934 22.1591 11.1362 22.188 11.1777 22.2187C11.2278 22.2476 11.2763 22.279 11.3232 22.3125C11.3665 22.3365 11.4087 22.3623 11.4497 22.3898C11.5064 22.4189 11.5612 22.4509 11.6141 22.4858C11.6583 22.508 11.7013 22.5321 11.7432 22.5578C11.7927 22.5808 11.8409 22.6061 11.8877 22.6334C11.9402 22.6563 11.9913 22.6816 12.041 22.7093C12.0895 22.7294 12.1369 22.7515 12.1831 22.7756C12.2364 22.796 12.2885 22.8189 12.3393 22.8441C12.3931 22.8635 12.4457 22.8854 12.497 22.9096C12.5453 22.9259 12.5927 22.9443 12.639 22.9646C12.6945 22.9814 12.7489 23.0009 12.802 23.0229C12.8581 23.0388 12.913 23.0573 12.9667 23.0784C13.0185 23.092 13.0694 23.1078 13.1193 23.1259C13.1765 23.1392 13.2326 23.1553 13.2876 23.174C13.3404 23.1853 13.3924 23.1989 13.4434 23.2148C13.4968 23.2246 13.5493 23.2369 13.6009 23.2514C13.6598 23.2607 13.7178 23.2728 13.7746 23.2878C13.8341 23.296 13.8927 23.3071 13.9502 23.3211C14.0054 23.3277 14.0598 23.3368 14.1133 23.3484C14.1694 23.3536 14.2248 23.3614 14.2793 23.3717C14.3347 23.3754 14.3895 23.3817 14.4435 23.3905C14.5006 23.3928 14.5571 23.3978 14.6127 23.4054C14.6747 23.4063 14.736 23.4105 14.7964 23.4177L14.8 23.4177C14.8565 23.4177 14.9124 23.4203 14.9675 23.4255C14.9839 23.425 15.0004 23.4248 15.0169 23.4248C15.0583 23.4248 15.0994 23.4262 15.1401 23.429C15.1712 23.4274 15.2024 23.4266 15.2338 23.4266C15.2684 23.4266 15.3028 23.4276 15.3369 23.4296C15.371 23.4276 15.4054 23.4266 15.44 23.4266C15.4749 23.4266 15.5096 23.4276 15.544 23.4296C15.5784 23.4276 15.6131 23.4266 15.648 23.4266C15.6826 23.4266 15.717 23.4276 15.7511 23.4296C15.7852 23.4276 15.8196 23.4266 15.8542 23.4266C15.8888 23.4266 15.9232 23.4276 15.9573 23.4296C15.9915 23.4276 16.0258 23.4266 16.0605 23.4266C16.0954 23.4266 16.1301 23.4276 16.1645 23.4296C16.1989 23.4276 16.2336 23.4266 16.2685 23.4266C16.3031 23.4266 16.3374 23.4276 16.3716 23.4296C16.4057 23.4276 16.4401 23.4266 16.4747 23.4266C16.5096 23.4266 16.5443 23.4276 16.5787 23.4296C16.6131 23.4276 16.6478 23.4266 16.6827 23.4266C16.7173 23.4266 16.7517 23.4276 16.7858 23.4296C16.8199 23.4276 16.8543 23.4266 16.8889 23.4266C16.9235 23.4266 16.9579 23.4276 16.992 23.4296C17.0261 23.4276 17.0605 23.4266 17.0951 23.4266C17.13 23.4266 17.1647 23.4276 17.1991 23.4296C17.2335 23.4276 17.2682 23.4266 17.3031 23.4266C17.3377 23.4266 17.3721 23.4276 17.4062 23.4296C17.4404 23.4276 17.4747 23.4266 17.5093 23.4266C17.5443 23.4266 17.5789 23.4276 17.6133 23.4296C17.6478 23.4276 17.6824 23.4266 17.7173 23.4266C17.7519 23.4266 17.7863 23.4276 17.8204 23.4296C17.8546 23.4276 17.889 23.4266 17.9236 23.4266C17.9582 23.4266 17.9926 23.4276 18.0267 23.4296C18.0608 23.4276 18.0952 23.4266 18.1298 23.4266C18.1647 23.4266 18.1994 23.4276 18.2338 23.4296C18.2682 23.4276 18.3029 23.4266 18.3378 23.4266C18.3724 23.4266 18.4068 23.4276 18.4409 23.4296C18.475 23.4276 18.5094 23.4266 18.544 23.4266C18.5786 23.4266 18.613 23.4276 18.6471 23.4296C18.6812 23.4276 18.7156 23.4266 18.7502 23.4266C18.7851 23.4266 18.8198 23.4276 18.8542 23.4296C18.8887 23.4276 18.9233 23.4266 18.9582 23.4266C18.9929 23.4266 19.0272 23.4276 19.0613 23.4296C19.0955 23.4276 19.1298 23.4266 19.1644 23.4266C19.1994 23.4266 19.234 23.4276 19.2685 23.4296C19.3029 23.4276 19.3375 23.4266 19.3725 23.4266C19.4071 23.4266 19.4415 23.4276 19.4756 23.4296C19.5097 23.4276 19.5441 23.4266 19.5787 23.4266C19.6133 23.4266 19.6477 23.4276 19.6818 23.4296C19.7159 23.4276 19.7503 23.4266 19.7849 23.4266C19.8198 23.4266 19.8545 23.4276 19.8889 23.4296C19.9233 23.4276 19.958 23.4266 19.9929 23.4266C20.0275 23.4266 20.0619 23.4276 20.096 23.4296C20.1301 23.4276 20.1645 23.4266 20.1991 23.4266C20.234 23.4266 20.2687 23.4276 20.3031 23.4296C20.3375 23.4276 20.3722 23.4266 20.4071 23.4266C20.4417 23.4266 20.4761 23.4276 20.5102 23.4296C20.5444 23.4276 20.5787 23.4266 20.6133 23.4266C20.648 23.4266 20.6823 23.4276 20.7165 23.4296C20.7506 23.4276 20.785 23.4266 20.8196 23.4266C20.8545 23.4266 20.8892 23.4276 20.9236 23.4296C20.958 23.4276 20.9927 23.4266 21.0276 23.4266C21.0622 23.4266 21.0966 23.4276 21.1307 23.4296C21.1648 23.4276 21.1992 23.4266 21.2338 23.4266C21.2687 23.4266 21.3034 23.4276 21.3378 23.4296C21.3722 23.4276 21.4069 23.4266 21.4418 23.4266C21.4764 23.4266 21.5108 23.4276 21.5449 23.4296C21.579 23.4276 21.6134 23.4266 21.648 23.4266C21.6826 23.4266 21.717 23.4276 21.7511 23.4296C21.7852 23.4276 21.8196 23.4266 21.8542 23.4266C21.8891 23.4266 21.9238 23.4276 21.9582 23.4296C21.9926 23.4276 22.0273 23.4266 22.0622 23.4266C22.0968 23.4266 22.1312 23.4276 22.1653 23.4296C22.1995 23.4276 22.2338 23.4266 22.2685 23.4266C22.3031 23.4266 22.3374 23.4276 22.3716 23.4296C22.4057 23.4276 22.4401 23.4266 22.4747 23.4266C22.5096 23.4266 22.5443 23.4276 22.5787 23.4296C22.6131 23.4276 22.6478 23.4266 22.6827 23.4266C22.7173 23.4266 22.7517 23.4276 22.7858 23.4296C22.8199 23.4276 22.8543 23.4266 22.8889 23.4266C22.9238 23.4266 22.9585 23.4276 22.9929 23.4296C23.0273 23.4276 23.062 23.4266 23.0969 23.4266C23.1315 23.4266 23.1659 23.4276 23.2 23.4296C23.2341 23.4276 23.2685 23.4266 23.3031 23.4266C23.3377 23.4266 23.3721 23.4276 23.4062 23.4296C23.4404 23.4276 23.4747 23.4266 23.5093 23.4266C23.5443 23.4266 23.5789 23.4276 23.6133 23.4296C23.6478 23.4276 23.6824 23.4266 23.7173 23.4266C23.7519 23.4266 23.7863 23.4276 23.8204 23.4296C23.8546 23.4276 23.8889 23.4266 23.9236 23.4266C23.9585 23.4266 23.9932 23.4276 24.0276 23.4296C24.062 23.4276 24.0967 23.4266 24.1316 23.4266C24.1662 23.4266 24.2006 23.4276 24.2347 23.4296C24.2688 23.4276 24.3032 23.4266 24.3378 23.4266C25.3196 23.4266 26.1156 24.2269 26.1156 25.2142C26.1156 26.2015 25.3196 27.0018 24.3378 27.0018C24.3032 27.0018 24.2688 27.0008 24.2347 26.9988C24.2006 27.0008 24.1662 27.0018 24.1316 27.0018C24.0967 27.0018 24.062 27.0008 24.0276 26.9988C23.9932 27.0008 23.9585 27.0018 23.9236 27.0018C23.8889 27.0018 23.8546 27.0008 23.8204 26.9988C23.7863 27.0008 23.7519 27.0018 23.7173 27.0018C23.6824 27.0018 23.6478 27.0008 23.6133 26.9988C23.5789 27.0008 23.5443 27.0018 23.5093 27.0018C23.4747 27.0018 23.4404 27.0008 23.4062 26.9988C23.3721 27.0008 23.3377 27.0018 23.3031 27.0018C23.2685 27.0018 23.2341 27.0008 23.2 26.9988C23.1659 27.0008 23.1315 27.0018 23.0969 27.0018C23.062 27.0018 23.0273 27.0008 22.9929 26.9988C22.9585 27.0008 22.9238 27.0018 22.8889 27.0018C22.8543 27.0018 22.8199 27.0008 22.7858 26.9988C22.7517 27.0008 22.7173 27.0018 22.6827 27.0018C22.6478 27.0018 22.6131 27.0008 22.5787 26.9988C22.5443 27.0008 22.5096 27.0018 22.4747 27.0018C22.4401 27.0018 22.4057 27.0008 22.3716 26.9988C22.3374 27.0008 22.3031 27.0018 22.2685 27.0018C22.2338 27.0018 22.1995 27.0008 22.1653 26.9988C22.1312 27.0008 22.0968 27.0018 22.0622 27.0018C22.0273 27.0018 21.9926 27.0008 21.9582 26.9988C21.9238 27.0008 21.8891 27.0018 21.8542 27.0018C21.8196 27.0018 21.7852 27.0008 21.7511 26.9988C21.717 27.0008 21.6826 27.0018 21.648 27.0018C21.6134 27.0018 21.579 27.0008 21.5449 26.9988C21.5108 27.0008 21.4764 27.0018 21.4418 27.0018C21.4069 27.0018 21.3722 27.0008 21.3378 26.9988C21.3034 27.0008 21.2687 27.0018 21.2338 27.0018C21.1992 27.0018 21.1648 27.0008 21.1307 26.9988C21.0966 27.0008 21.0622 27.0018 21.0276 27.0018C20.9927 27.0018 20.958 27.0008 20.9236 26.9988C20.8892 27.0008 20.8545 27.0018 20.8196 27.0018C20.785 27.0018 20.7506 27.0008 20.7165 26.9988C20.6823 27.0008 20.648 27.0018 20.6133 27.0018C20.5787 27.0018 20.5444 27.0008 20.5102 26.9988C20.4761 27.0008 20.4417 27.0018 20.4071 27.0018C20.3722 27.0018 20.3375 27.0008 20.3031 26.9988C20.2687 27.0008 20.234 27.0018 20.1991 27.0018C20.1645 27.0018 20.1301 27.0008 20.096 26.9988C20.0619 27.0008 20.0275 27.0018 19.9929 27.0018C19.958 27.0018 19.9233 27.0008 19.8889 26.9988C19.8545 27.0008 19.8198 27.0018 19.7849 27.0018C19.7503 27.0018 19.7159 27.0008 19.6818 26.9988C19.6477 27.0008 19.6133 27.0018 19.5787 27.0018C19.5441 27.0018 19.5097 27.0008 19.4756 26.9988C19.4415 27.0008 19.4071 27.0018 19.3725 27.0018C19.3375 27.0018 19.3029 27.0008 19.2685 26.9988C19.234 27.0008 19.1994 27.0018 19.1644 27.0018C19.1298 27.0018 19.0955 27.0008 19.0613 26.9988C19.0272 27.0008 18.9929 27.0018 18.9582 27.0018C18.9233 27.0018 18.8887 27.0008 18.8542 26.9988C18.8198 27.0008 18.7851 27.0018 18.7502 27.0018C18.7156 27.0018 18.6812 27.0008 18.6471 26.9988C18.613 27.0008 18.5786 27.0018 18.544 27.0018C18.5094 27.0018 18.475 27.0008 18.4409 26.9988C18.4068 27.0008 18.3724 27.0018 18.3378 27.0018C18.3029 27.0018 18.2682 27.0008 18.2338 26.9988C18.1994 27.0008 18.1647 27.0018 18.1298 27.0018C18.0952 27.0018 18.0608 27.0008 18.0267 26.9988C17.9926 27.0008 17.9582 27.0018 17.9236 27.0018C17.889 27.0018 17.8546 27.0008 17.8204 26.9988C17.7863 27.0008 17.7519 27.0018 17.7173 27.0018C17.6824 27.0018 17.6478 27.0008 17.6133 26.9988C17.5789 27.0008 17.5443 27.0018 17.5093 27.0018C17.4747 27.0018 17.4404 27.0008 17.4062 26.9988C17.3721 27.0008 17.3377 27.0018 17.3031 27.0018C17.2682 27.0018 17.2335 27.0008 17.1991 26.9988C17.1647 27.0008 17.13 27.0018 17.0951 27.0018C17.0605 27.0018 17.0261 27.0008 16.992 26.9988C16.9579 27.0008 16.9235 27.0018 16.8889 27.0018C16.8543 27.0018 16.8199 27.0008 16.7858 26.9988C16.7517 27.0008 16.7173 27.0018 16.6827 27.0018C16.6478 27.0018 16.6131 27.0008 16.5787 26.9988C16.5443 27.0008 16.5096 27.0018 16.4747 27.0018C16.4401 27.0018 16.4057 27.0008 16.3716 26.9988C16.3374 27.0008 16.3031 27.0018 16.2685 27.0018C16.2336 27.0018 16.1989 27.0008 16.1645 26.9988C16.1301 27.0008 16.0954 27.0018 16.0605 27.0018C16.0258 27.0018 15.9915 27.0008 15.9573 26.9988C15.9232 27.0008 15.8888 27.0018 15.8542 27.0018C15.8196 27.0018 15.7852 27.0008 15.7511 26.9988C15.717 27.0008 15.6826 27.0018 15.648 27.0018C15.6131 27.0018 15.5784 27.0008 15.544 26.9988C15.5096 27.0008 15.4749 27.0018 15.44 27.0018C15.4054 27.0018 15.371 27.0008 15.3369 26.9988C15.3028 27.0008 15.2684 27.0018 15.2338 27.0018C15.1924 27.0018 15.1513 27.0004 15.1106 26.9976C15.0795 26.9992 15.0483 27 15.0169 27C14.9604 27 14.9046 26.9974 14.8494 26.9922C14.833 26.9926 14.8165 26.9929 14.8 26.9929C14.7285 26.9929 14.6579 26.9886 14.5885 26.9803L14.5849 26.9803C14.5031 26.9803 14.4226 26.9748 14.3438 26.964C14.2563 26.9627 14.1703 26.955 14.0863 26.9414C13.9982 26.9378 13.9118 26.9279 13.8275 26.9119C13.7411 26.9061 13.6564 26.894 13.5738 26.8762C13.487 26.8682 13.4019 26.8539 13.3192 26.8337C13.2378 26.8241 13.1582 26.8088 13.0806 26.7885C12.9997 26.7773 12.9206 26.7607 12.8435 26.739C12.7582 26.7256 12.6748 26.7061 12.5939 26.6809C12.5091 26.6652 12.4264 26.6435 12.3463 26.6162C12.2669 26.5993 12.1895 26.5771 12.1145 26.5499C12.0308 26.5304 11.9494 26.505 11.8707 26.4741C11.7924 26.4536 11.7162 26.4278 11.6425 26.3972C11.5647 26.3753 11.4892 26.3481 11.4161 26.3162C11.3327 26.2909 11.2519 26.2596 11.1742 26.2228C11.0981 26.1971 11.0243 26.1663 10.9532 26.131C10.8777 26.1038 10.8046 26.0717 10.7343 26.035C10.6549 26.0047 10.5782 25.9688 10.5048 25.9279C10.4306 25.8972 10.3589 25.8616 10.2901 25.8215C10.2145 25.7885 10.1416 25.7504 10.0719 25.7076C9.99313 25.6709 9.91747 25.6286 9.84545 25.5812C9.78055 25.5484 9.71793 25.5118 9.65787 25.4716C9.58045 25.4318 9.50632 25.3865 9.43598 25.3362C9.36785 25.2984 9.30245 25.2562 9.24015 25.2101C9.16758 25.1682 9.09823 25.1212 9.03256 25.0698C8.9647 25.0281 8.89983 24.982 8.83836 24.9319C8.76871 24.8873 8.70236 24.838 8.63975 24.7843C8.57489 24.7405 8.51305 24.6925 8.45463 24.6407C8.38656 24.5928 8.32197 24.5403 8.26132 24.4835C8.19827 24.4368 8.1384 24.3859 8.08211 24.3314C8.01363 24.2786 7.94907 24.2209 7.88897 24.1589C7.83091 24.1111 7.7759 24.0598 7.72429 24.0052C7.66121 23.952 7.60185 23.8945 7.54667 23.8331C7.48486 23.7783 7.42687 23.7193 7.37315 23.6564C7.31557 23.6028 7.26153 23.5453 7.21142 23.4845C7.15235 23.4273 7.09721 23.366 7.04644 23.3011C6.99145 23.2451 6.94011 23.1855 6.8928 23.1227C6.83597 23.0628 6.78324 22.9989 6.73506 22.9315C6.67922 22.8697 6.62764 22.8039 6.58076 22.7346C6.53217 22.6778 6.48707 22.6179 6.4458 22.5553C6.391 22.4897 6.34082 22.42 6.29573 22.3469C6.2485 22.2868 6.20503 22.2237 6.16565 22.1578C6.11144 22.0868 6.06242 22.0115 6.01914 21.9326C5.97742 21.8737 5.93916 21.8121 5.90467 21.7481C5.85524 21.6772 5.81081 21.6024 5.77188 21.5244C5.72949 21.4593 5.69121 21.3912 5.65742 21.3206C5.61395 21.2515 5.57507 21.1792 5.54119 21.1041C5.498 21.0318 5.45976 20.9561 5.42695 20.8775C5.38672 20.8059 5.35126 20.7312 5.32101 20.6538C5.28487 20.5857 5.253 20.5149 5.22574 20.4419C5.18813 20.3685 5.15543 20.2922 5.12807 20.2133C5.0907 20.1357 5.05873 20.055 5.03267 19.9717C5.0013 19.9012 4.97433 19.8284 4.95211 19.7534C4.91742 19.6727 4.88847 19.5888 4.8658 19.5024C4.83847 19.4325 4.81539 19.3605 4.79688 19.2866C4.76626 19.2058 4.7413 19.1222 4.72249 19.0363C4.69463 18.9558 4.67232 18.8728 4.65603 18.7876C4.63215 18.7122 4.6131 18.6346 4.59926 18.5553C4.57458 18.4726 4.5557 18.3874 4.54308 18.3002C4.52245 18.2234 4.50679 18.1445 4.49647 18.0639C4.47575 17.9813 4.46076 17.8963 4.45195 17.8095C4.43418 17.7298 4.4217 17.6481 4.41491 17.5647C4.39693 17.4765 4.38541 17.3859 4.38088 17.2935C4.36735 17.2136 4.35909 17.1319 4.35648 17.0488C4.34437 16.9691 4.33751 16.8876 4.33624 16.8048C4.32554 16.7255 4.32001 16.6445 4.32001 16.5622C4.32001 16.5505 4.32012 16.5389 4.32034 16.5272C4.31425 16.467 4.31113 16.4059 4.31113 16.3441C4.31113 16.3225 4.31151 16.3011 4.31227 16.2797C4.30798 16.229 4.30579 16.1778 4.30579 16.126C4.30579 16.0844 4.30721 16.0431 4.31 16.0021C4.30839 15.9709 4.30757 15.9395 4.30757 15.9079C4.30757 15.8562 4.30976 15.805 4.31405 15.7543C4.31329 15.7329 4.31291 15.7114 4.31291 15.6899C4.31291 15.623 4.31656 15.557 4.32368 15.492C4.3236 15.4853 4.32357 15.4785 4.32357 15.4718C4.32357 15.3896 4.32909 15.3087 4.33977 15.2294C4.34103 15.1464 4.34791 15.0649 4.36004 14.985C4.36282 14.8969 4.37195 14.8104 4.38697 14.7259C4.39198 14.6381 4.40331 14.5519 4.4205 14.4679C4.42778 14.3806 4.4413 14.295 4.46062 14.2117C4.46958 14.1299 4.48403 14.0499 4.50358 13.9718C4.51455 13.8863 4.53154 13.8026 4.55411 13.7212C4.56669 13.639 4.58484 13.5586 4.60816 13.4805C4.62303 13.3952 4.6439 13.3121 4.67034 13.2314C4.68626 13.1527 4.70734 13.0758 4.7332 13.0011C4.75201 12.9153 4.77696 12.8317 4.80756 12.751C4.82849 12.6674 4.85528 12.5862 4.88746 12.5077C4.90797 12.4343 4.93303 12.3629 4.9623 12.2936C4.98631 12.2113 5.01606 12.1314 5.05107 12.0545C5.07733 11.9727 5.1093 11.8935 5.14648 11.8174C5.17394 11.7393 5.20663 11.6637 5.24415 11.591C5.27259 11.5157 5.30594 11.4428 5.34382 11.3728C5.37369 11.2981 5.40844 11.2259 5.44767 11.1566C5.47898 11.0826 5.51512 11.0111 5.55569 10.9425C5.59125 10.8628 5.63246 10.7861 5.6788 10.7131C5.71481 10.6387 5.75581 10.5672 5.80135 10.499C5.83669 10.4303 5.87633 10.3642 5.91992 10.301C5.95888 10.2279 6.00276 10.1578 6.0511 10.0912C6.09172 10.0193 6.13716 9.95042 6.18698 9.88514C6.22778 9.81685 6.27298 9.75152 6.3222 9.68956C6.36595 9.61943 6.41441 9.55256 6.46713 9.48942C6.51318 9.41953 6.56398 9.35308 6.61907 9.29055C6.66408 9.2259 6.71323 9.16439 6.76615 9.1064C6.81264 9.04217 6.86328 8.98117 6.91768 8.92381C6.96499 8.86097 7.01634 8.80137 7.07133 8.7454C7.12457 8.67735 7.18262 8.61328 7.24497 8.55371C7.29537 8.49325 7.34968 8.43619 7.4075 8.38293C7.4616 8.32049 7.51993 8.26187 7.58206 8.20752C7.63527 8.14902 7.69229 8.09409 7.75274 8.04313C7.80688 7.98583 7.86476 7.93213 7.92599 7.88243C7.98616 7.82115 8.0507 7.76422 8.11911 7.71216C8.17619 7.65742 8.2369 7.60646 8.30082 7.55968C8.3559 7.50888 8.41417 7.46152 8.47531 7.41795C8.54198 7.35794 8.61319 7.30292 8.68835 7.25347C8.74661 7.20478 8.80802 7.15976 8.87221 7.11876C8.9351 7.06775 9.00152 7.02096 9.07104 6.97882C9.13475 6.92936 9.20189 6.88416 9.27204 6.84363C9.34015 6.79318 9.41195 6.74751 9.48698 6.70709C9.54981 6.66324 9.61558 6.62335 9.68394 6.5878C9.7517 6.54205 9.82276 6.50085 9.8967 6.46467C9.96569 6.42041 10.0379 6.3808 10.113 6.3463C10.1788 6.30618 10.2475 6.27024 10.3185 6.23884C10.3928 6.1952 10.4705 6.15682 10.5511 6.12421C10.6228 6.08503 10.6974 6.05066 10.7746 6.02153C10.8435 5.98585 10.915 5.95455 10.9888 5.92802C11.0659 5.8897 11.1461 5.85682 11.2289 5.8299C11.3013 5.7966 11.3762 5.76804 11.4534 5.74461C11.5307 5.71081 11.6109 5.68236 11.6934 5.65975C11.7629 5.63162 11.8345 5.60777 11.908 5.58853C11.9911 5.5559 12.0771 5.52937 12.1657 5.50949C12.2409 5.48303 12.3183 5.46149 12.3976 5.44526C12.4734 5.42014 12.5514 5.40001 12.6313 5.38525C12.7134 5.3597 12.7981 5.33998 12.8848 5.32657C12.9612 5.30515 13.0396 5.28874 13.1197 5.27768C13.2019 5.25612 13.2864 5.24033 13.3727 5.23075C13.4556 5.21134 13.5406 5.19775 13.6275 5.19044C13.711 5.17317 13.7966 5.16179 13.8839 5.15674C13.9625 5.14259 14.043 5.13364 14.1248 5.13025C14.2097 5.11647 14.2965 5.10872 14.3849 5.10746C14.4637 5.09673 14.5441 5.09118 14.6258 5.09118C14.6319 5.09118 14.6381 5.09122 14.6442 5.09128C14.7088 5.08413 14.7744 5.08046 14.8409 5.08046C14.8574 5.08046 14.8739 5.08069 14.8903 5.08114C14.9454 5.07596 15.0013 5.07331 15.0578 5.07331C15.0942 5.07331 15.1304 5.07441 15.1662 5.07658C15.2021 5.07441 15.2383 5.07331 15.2747 5.07331C15.3213 5.07331 15.3675 5.07511 15.4133 5.07866C15.4398 5.07748 15.4665 5.07688 15.4934 5.07688C15.5548 5.07688 15.6155 5.08001 15.6753 5.08613C15.6863 5.08592 15.6974 5.08582 15.7085 5.08582C15.7851 5.08582 15.8606 5.0907 15.9347 5.10015C16.0228 5.1007 16.1095 5.10769 16.1942 5.1207C16.2768 5.12333 16.358 5.13163 16.4375 5.14523C16.5248 5.14956 16.6104 5.16021 16.6939 5.17675C16.7802 5.1833 16.8649 5.19605 16.9474 5.21457C17.0298 5.22288 17.1106 5.23684 17.1893 5.25608C17.2744 5.2664 17.3577 5.28277 17.4387 5.30475C17.5246 5.31732 17.6084 5.33605 17.6899 5.3605C17.7712 5.37464 17.8507 5.39434 17.9278 5.41919C18.011 5.4355 18.0921 5.45763 18.1708 5.48517C18.2501 5.50275 18.3275 5.52565 18.4025 5.55351C18.4874 5.57402 18.57 5.60066 18.6497 5.63294C18.7275 5.65424 18.8031 5.68072 18.8763 5.71199C18.952 5.73431 19.0256 5.76157 19.0968 5.7934C19.1802 5.81943 19.2609 5.85147 19.3385 5.88902C19.4163 5.91596 19.4916 5.94816 19.5641 5.98522C19.6372 6.01249 19.708 6.04445 19.7762 6.08075C19.8574 6.11247 19.9357 6.15002 20.0106 6.19288C20.0842 6.22437 20.1553 6.26072 20.2235 6.30152C20.2965 6.33443 20.3669 6.37215 20.4343 6.41427C20.5088 6.44962 20.5804 6.49001 20.6488 6.53502C20.7199 6.57092 20.7884 6.61149 20.8537 6.65632C20.9305 6.697 21.004 6.74317 21.0737 6.79432C21.139 6.83158 21.2017 6.87289 21.2615 6.91789C21.3363 6.96181 21.4076 7.01107 21.475 7.06515C21.5385 7.10524 21.5994 7.14926 21.6572 7.19688C21.7299 7.24402 21.799 7.29634 21.8639 7.35334C21.9256 7.39619 21.9845 7.44286 22.0403 7.49302C22.1108 7.54332 22.1776 7.59866 22.24 7.65853C22.3025 7.7061 22.3618 7.75772 22.4174 7.81301C22.4793 7.86195 22.5379 7.91494 22.5927 7.97157C22.6566 8.02404 22.7167 8.08087 22.7727 8.14163C22.8351 8.19559 22.8938 8.25383 22.9482 8.3159C23.0065 8.36887 23.0612 8.42567 23.1121 8.48591C23.1692 8.5398 23.2227 8.59743 23.2722 8.65843C23.3312 8.7162 23.3863 8.77805 23.4368 8.84353C23.4944 8.90277 23.5479 8.96601 23.5969 9.0328C23.6534 9.09379 23.7056 9.15875 23.7532 9.22722C23.8047 9.28596 23.8525 9.34813 23.8961 9.41336C23.9473 9.47376 23.9945 9.53763 24.0374 9.60458C24.0894 9.66837 24.1371 9.73584 24.18 9.80655C24.2286 9.86924 24.2731 9.93527 24.3131 10.0042C24.3622 10.0702 24.4069 10.1397 24.4467 10.2122C24.4926 10.2771 24.5343 10.3452 24.5715 10.4161C24.62 10.4876 24.6636 10.5629 24.7016 10.6414C24.7419 10.7049 24.7783 10.7711 24.8105 10.8397C24.8547 10.9112 24.894 10.986 24.928 11.0638C24.9691 11.1346 25.0056 11.2085 25.0369 11.2851C25.0743 11.353 25.1074 11.4235 25.1359 11.4963C25.1773 11.5745 25.2132 11.656 25.2429 11.7405C25.2771 11.8106 25.3069 11.8833 25.3319 11.9582C25.3657 12.0303 25.3948 12.1051 25.4189 12.1821C25.454 12.261 25.4836 12.3429 25.5072 12.4273C25.5376 12.5014 25.5632 12.578 25.5836 12.6568C25.6144 12.7359 25.6397 12.8178 25.6591 12.9019C25.6861 12.9774 25.7081 13.0552 25.7249 13.1349C25.7506 13.211 25.7713 13.2894 25.7867 13.3698C25.8124 13.451 25.8325 13.5348 25.8466 13.6206C25.8702 13.7026 25.8881 13.787 25.8999 13.8733C25.921 13.9549 25.9366 14.0387 25.9462 14.1244C25.9646 14.2035 25.9778 14.2847 25.9854 14.3675C26.0023 14.4467 26.014 14.528 26.02 14.6108C26.0373 14.6991 26.048 14.7898 26.0518 14.8823C26.0646 14.9621 26.0722 15.0437 26.0742 15.1268C26.0862 15.2108 26.0925 15.2968 26.0925 15.3842L26.0925 15.3879C26.1007 15.4576 26.1049 15.5286 26.1049 15.6005C26.1049 15.6121 26.1048 15.6237 26.1046 15.6353C26.1107 15.6956 26.1138 15.7567 26.1138 15.8186C26.1138 15.8502 26.113 15.8816 26.1114 15.9127C26.1142 15.9537 26.1156 15.995 26.1156 16.0367C26.1156 17.0239 25.3196 17.8243 24.3378 17.8243C23.356 17.8243 22.56 17.0239 22.56 16.0367C22.56 16.0051 22.5608 15.9737 22.5624 15.9425C22.5597 15.9015 22.5582 15.8602 22.5582 15.8186C22.5582 15.8101 22.5583 15.8017 22.5584 15.7932L22.5586 15.7837C22.5525 15.7235 22.5493 15.6624 22.5493 15.6005L22.5493 15.5968C22.5428 15.541 22.5388 15.4844 22.5374 15.4271C22.5288 15.3671 22.5232 15.3061 22.5206 15.2444C22.5125 15.1937 22.5065 15.1424 22.5027 15.0904C22.4911 15.0313 22.4825 14.9711 22.4769 14.9101C22.4646 14.8526 22.4551 14.7941 22.4485 14.7348C22.436 14.6811 22.4259 14.6266 22.4184 14.5712C22.4048 14.5187 22.3935 14.4652 22.3846 14.4109C22.3696 14.359 22.357 14.3062 22.3467 14.2524C22.329 14.1966 22.314 14.1396 22.3017 14.0815C22.2831 14.0262 22.2671 13.9698 22.2538 13.9123C22.2359 13.8621 22.2201 13.8109 22.2066 13.7588C22.1856 13.7048 22.1672 13.6496 22.1515 13.5932C22.1321 13.546 22.1147 13.4978 22.0993 13.4487C22.0761 13.3965 22.0553 13.343 22.037 13.2883C22.0119 13.2347 21.9894 13.1797 21.9696 13.1234C21.9484 13.08 21.9289 13.0357 21.9112 12.9904C21.8836 12.9383 21.8585 12.8848 21.836 12.8298C21.8097 12.7821 21.7855 12.7331 21.7636 12.6829C21.7374 12.6378 21.7132 12.5915 21.6909 12.5441C21.6588 12.4921 21.6292 12.4384 21.6024 12.3831C21.576 12.3413 21.5512 12.2984 21.5281 12.2544C21.4964 12.2078 21.4669 12.1595 21.4396 12.1098C21.4087 12.0661 21.3797 12.021 21.3527 11.9745C21.3191 11.9294 21.2876 11.8826 21.2583 11.8343C21.2257 11.7923 21.1949 11.7487 21.1661 11.7038C21.1306 11.6602 21.0971 11.6148 21.0657 11.5679C21.0289 11.5244 20.9941 11.4792 20.9615 11.4323C20.9271 11.3931 20.8944 11.3524 20.8635 11.3103C20.8274 11.2713 20.7931 11.2307 20.7605 11.1885C20.7236 11.1505 20.6883 11.1109 20.6549 11.0697C20.6145 11.0302 20.576 10.9887 20.5395 10.9455C20.4986 10.9069 20.4596 10.8664 20.4225 10.8241C20.3834 10.7886 20.3458 10.7513 20.31 10.7124C20.27 10.6778 20.2316 10.6415 20.1949 10.6036C20.1514 10.5678 20.1096 10.5301 20.0697 10.4904C20.0251 10.4552 19.9823 10.4178 19.9413 10.3786C19.9023 10.3489 19.8646 10.3176 19.8282 10.2849C19.779 10.2498 19.7317 10.2123 19.6863 10.1725C19.6462 10.1446 19.6072 10.1151 19.5695 10.084C19.5188 10.0512 19.4698 10.0158 19.4229 9.97803C19.3814 9.95189 19.3411 9.92408 19.3021 9.89469C19.2497 9.86395 19.1991 9.8306 19.1503 9.79481C19.1076 9.77041 19.0659 9.74428 19.0255 9.71651C18.9756 9.69009 18.9271 9.66136 18.8801 9.63045C18.8318 9.60606 18.7847 9.57954 18.7391 9.55098C18.6876 9.52657 18.6375 9.49975 18.5889 9.47067C18.5371 9.44729 18.4866 9.42149 18.4375 9.3934C18.3913 9.37366 18.3461 9.35201 18.302 9.32856C18.2469 9.30702 18.1932 9.2828 18.1409 9.25605C18.0892 9.2368 18.0387 9.21519 17.9895 9.19138C17.9411 9.17461 17.8936 9.1558 17.8472 9.13505C17.7903 9.11727 17.7346 9.09668 17.6802 9.07345C17.6248 9.05711 17.5705 9.03812 17.5174 9.01664C17.4674 9.00292 17.4182 8.98706 17.3699 8.96915C17.3127 8.95534 17.2566 8.93874 17.2017 8.91951C17.1478 8.90757 17.0948 8.89318 17.0429 8.87644C16.9861 8.86531 16.9302 8.85146 16.8755 8.83503C16.8215 8.82564 16.7683 8.81379 16.716 8.79961C16.6608 8.79153 16.6064 8.7809 16.553 8.76784C16.494 8.76069 16.4359 8.75065 16.3789 8.73784C16.3227 8.73218 16.2673 8.72389 16.2128 8.7131C16.1571 8.70887 16.1021 8.70206 16.0479 8.69279C15.9865 8.68974 15.9259 8.68356 15.8663 8.67441C15.8093 8.6726 15.7529 8.66808 15.6974 8.66099C15.6397 8.66063 15.5827 8.65752 15.5265 8.65177C15.5242 8.65182 15.5218 8.65186 15.5195 8.65189C15.5108 8.65202 15.5021 8.65208 15.4934 8.65208C15.4467 8.65208 15.4005 8.65027 15.3547 8.64673C15.3282 8.64791 15.3015 8.64851 15.2747 8.64851C15.2383 8.64851 15.2021 8.64741 15.1662 8.64524Z" fill="url(#paint1_angular_3497_38362)"/>
<path d="M15.1147 12.9763C15.1337 12.9763 15.1527 12.976 15.1716 12.9754C15.1905 12.976 15.2094 12.9763 15.2285 12.9763C15.2385 12.9763 15.2484 12.9762 15.2584 12.976C15.2776 12.977 15.297 12.9776 15.3164 12.9779C15.3448 12.9801 15.3734 12.9817 15.4022 12.9826C15.4297 12.9852 15.4573 12.9872 15.4851 12.9885C15.5037 12.9906 15.5224 12.9924 15.5412 12.9939C15.56 12.9966 15.579 12.999 15.5981 13.0011C15.6244 13.0058 15.6509 13.0098 15.6776 13.0133C15.705 13.0186 15.7326 13.0234 15.7605 13.0274C15.7769 13.0309 15.7934 13.0341 15.8101 13.0372C15.8346 13.0432 15.8594 13.0488 15.8844 13.0539C15.9108 13.0609 15.9373 13.0674 15.9641 13.0732C15.9819 13.0783 15.9998 13.0831 16.0178 13.0876C16.0415 13.0952 16.0655 13.1023 16.0896 13.1089C16.0926 13.1099 16.0955 13.1109 16.0985 13.1119C16.1008 13.1126 16.103 13.1134 16.1053 13.1141C16.1146 13.1172 16.124 13.1202 16.1333 13.1231C16.1672 13.1361 16.2017 13.148 16.2365 13.1589L16.2473 13.163C16.2576 13.1669 16.2681 13.1707 16.2785 13.1744C16.3038 13.1851 16.3293 13.1952 16.3551 13.2047C16.3767 13.2143 16.3985 13.2234 16.4206 13.2321C16.4307 13.2369 16.4409 13.2415 16.4511 13.2461C16.4542 13.2474 16.4572 13.2488 16.4602 13.2501C16.4805 13.2605 16.501 13.2706 16.5218 13.2802C16.5458 13.2932 16.5701 13.3057 16.5948 13.3176C16.6146 13.3287 16.6347 13.3395 16.655 13.3498C16.6786 13.3638 16.7026 13.3772 16.7269 13.3901C16.7417 13.3991 16.7566 13.4079 16.7717 13.4165C16.7876 13.4269 16.8037 13.4371 16.82 13.447C16.8449 13.4643 16.8703 13.481 16.8962 13.4971C16.9122 13.5084 16.9285 13.5195 16.9449 13.5303C16.958 13.5401 16.9712 13.5498 16.9846 13.5593C17.0064 13.5768 17.0286 13.5937 17.0512 13.6102C17.0741 13.6291 17.0974 13.6474 17.1213 13.6651C17.1319 13.6741 17.1427 13.6829 17.1536 13.6917C17.1699 13.7064 17.1864 13.7208 17.2031 13.7349C17.2188 13.7498 17.2348 13.7644 17.251 13.7787C17.2714 13.799 17.2922 13.8188 17.3136 13.838C17.3286 13.8533 17.3439 13.8683 17.3594 13.883C17.3742 13.8988 17.3892 13.9142 17.4045 13.9294C17.4105 13.9362 17.4167 13.943 17.4228 13.9497C17.4317 13.9593 17.4407 13.9688 17.4497 13.9782C17.4633 13.9942 17.4772 14.0099 17.4913 14.0253C17.5059 14.0432 17.5207 14.0608 17.5359 14.0781C17.5485 14.0944 17.5614 14.1104 17.5745 14.1262C17.5922 14.1502 17.6104 14.1737 17.6291 14.1967C17.6407 14.2127 17.6525 14.2285 17.6645 14.2442C17.6736 14.2574 17.6828 14.2706 17.6922 14.2836C17.7114 14.314 17.7316 14.3438 17.7526 14.373C17.7601 14.3849 17.7678 14.3967 17.7756 14.4083C17.7868 14.4276 17.7984 14.4466 17.8103 14.4654C17.8214 14.4854 17.8328 14.5052 17.8446 14.5247C17.8533 14.5413 17.8622 14.5578 17.8714 14.574C17.8852 14.6023 17.8997 14.6301 17.9149 14.6575C17.9211 14.6704 17.9274 14.6833 17.9338 14.696C17.9468 14.7259 17.9605 14.7553 17.975 14.7843C17.9771 14.7892 17.9792 14.7941 17.9813 14.7989L17.9868 14.8115C17.9994 14.8453 18.0131 14.8786 18.0276 14.9113C18.0316 14.9221 18.0358 14.9329 18.04 14.9436C18.0433 14.9518 18.0466 14.9601 18.05 14.9683C18.0561 14.9861 18.0624 15.0037 18.069 15.0212C18.0771 15.0474 18.0858 15.0734 18.0951 15.0991C18.1019 15.1225 18.1092 15.1457 18.117 15.1687C18.1212 15.1842 18.1255 15.1996 18.1301 15.2148C18.1364 15.2419 18.1433 15.2687 18.1507 15.2952C18.1562 15.3203 18.1621 15.3452 18.1686 15.3699C18.1721 15.3882 18.176 15.4064 18.1801 15.4244C18.1844 15.4504 18.1892 15.4761 18.1945 15.5017C18.1972 15.5203 18.2001 15.5388 18.2034 15.5572C18.2064 15.5841 18.21 15.6108 18.2142 15.6373C18.2169 15.6659 18.2203 15.6942 18.2243 15.7224C18.2258 15.7413 18.2276 15.76 18.2297 15.7788C18.231 15.8066 18.2329 15.8343 18.2355 15.8617C18.2361 15.8813 18.237 15.9007 18.2382 15.9201V15.9223C18.2382 15.951 18.2389 15.9795 18.2402 16.0079C18.2401 16.0175 18.24 16.0271 18.24 16.0367C18.24 17.0239 19.036 17.8243 20.0178 17.8243C20.9996 17.8243 21.7956 17.0239 21.7956 16.0367C21.7956 16.0079 21.7949 15.9794 21.7936 15.951C21.7937 15.9414 21.7938 15.9319 21.7938 15.9223C21.7938 15.8839 21.7926 15.8459 21.7902 15.8082V15.8061C21.7902 15.7487 21.7875 15.692 21.7823 15.636C21.7808 15.5875 21.7774 15.5394 21.7722 15.4919C21.7694 15.4349 21.7641 15.3786 21.7561 15.3231C21.7524 15.2758 21.7469 15.2291 21.7395 15.1829C21.735 15.1346 21.7285 15.0867 21.7202 15.0396C21.7139 14.9833 21.7049 14.9279 21.6935 14.8734C21.6866 14.8252 21.6777 14.7776 21.667 14.7308C21.658 14.6754 21.6464 14.6208 21.6324 14.5672C21.623 14.5193 21.6117 14.4721 21.5986 14.4256C21.5888 14.3802 21.5773 14.3355 21.5641 14.2915C21.551 14.2349 21.5352 14.1793 21.5168 14.1249C21.5041 14.0776 21.4894 14.031 21.473 13.9854C21.4601 13.9415 21.4457 13.8983 21.4297 13.8559C21.4134 13.8034 21.3948 13.7518 21.374 13.7014C21.3569 13.6514 21.3377 13.6025 21.3164 13.5546C21.3038 13.5206 21.2901 13.4872 21.2754 13.4542C21.2533 13.395 21.2281 13.3372 21.2001 13.2812C21.1842 13.2438 21.1671 13.2071 21.1489 13.1711C21.1257 13.1175 21.0999 13.0654 21.0718 13.0147C21.0543 12.9781 21.0356 12.9421 21.0158 12.9069C20.9923 12.859 20.9669 12.8122 20.9394 12.7667C20.9164 12.7229 20.8917 12.68 20.8653 12.6384C20.8412 12.5949 20.8154 12.5525 20.788 12.5113C20.7588 12.4613 20.7273 12.4129 20.6936 12.3661C20.6744 12.3357 20.6542 12.3059 20.6332 12.2767C20.6036 12.23 20.5719 12.1847 20.5382 12.141C20.5091 12.0983 20.4782 12.0568 20.4456 12.0169C20.4211 11.9828 20.3954 11.9497 20.3686 11.9175C20.3382 11.8761 20.306 11.8361 20.2721 11.7976C20.2423 11.7591 20.2109 11.7218 20.178 11.6859C20.1461 11.6466 20.1125 11.6086 20.0774 11.5721C20.0454 11.5346 20.0119 11.4984 19.9769 11.4636C19.9436 11.4264 19.9088 11.3906 19.8726 11.3563C19.8384 11.3198 19.8027 11.2847 19.7656 11.2511C19.7359 11.221 19.7052 11.1919 19.6735 11.1639C19.6381 11.1287 19.6013 11.095 19.5631 11.0629C19.5271 11.0287 19.4896 10.996 19.4508 10.9649C19.4083 10.9264 19.364 10.8899 19.3179 10.8556C19.2859 10.8287 19.2529 10.8029 19.2191 10.7782C19.1854 10.7505 19.1507 10.7239 19.115 10.6986C19.0718 10.664 19.0269 10.6313 18.9805 10.6007C18.9389 10.5694 18.8958 10.54 18.8514 10.5124C18.8178 10.4886 18.7833 10.466 18.7481 10.4445C18.705 10.4146 18.6607 10.3866 18.615 10.3605C18.5697 10.331 18.523 10.3034 18.4749 10.278C18.437 10.2548 18.3981 10.233 18.3584 10.2127C18.3161 10.1878 18.2727 10.1645 18.2283 10.1431C18.1895 10.1213 18.1498 10.101 18.1093 10.0821C18.0663 10.0588 18.0222 10.0373 17.9772 10.0175C17.926 9.99123 17.8734 9.96738 17.8195 9.94609C17.7753 9.92541 17.7301 9.9065 17.684 9.88945C17.6428 9.87122 17.6007 9.85451 17.5579 9.8394C17.505 9.81697 17.4508 9.79704 17.3955 9.77975C17.3616 9.76682 17.3273 9.7549 17.2925 9.74403C17.2389 9.72357 17.1841 9.70564 17.1282 9.69038C17.0824 9.67477 17.0358 9.66097 16.9885 9.64909C16.9363 9.63241 16.883 9.61809 16.8288 9.60625C16.7849 9.59375 16.7403 9.5829 16.6952 9.57378C16.649 9.5614 16.602 9.55086 16.5544 9.54221C16.499 9.52851 16.4426 9.51741 16.3853 9.50906C16.3401 9.49949 16.2942 9.49166 16.2478 9.48563C16.2009 9.47648 16.1532 9.46919 16.1051 9.46383C16.0502 9.45415 15.9945 9.44699 15.938 9.44249C15.8828 9.43454 15.8268 9.42913 15.7701 9.4264C15.723 9.42114 15.6753 9.41773 15.6271 9.41624C15.5804 9.4118 15.5332 9.40918 15.4854 9.40845C15.4388 9.40476 15.3916 9.40287 15.344 9.40287C15.334 9.40287 15.324 9.40296 15.3141 9.40312C15.2857 9.40177 15.2572 9.40108 15.2285 9.40108C15.2094 9.40108 15.1905 9.40139 15.1716 9.40198C15.1527 9.40139 15.1337 9.40108 15.1147 9.40108C15.0766 9.40108 15.0388 9.40229 15.0013 9.40466L14.9991 9.40466C14.9515 9.40466 14.9044 9.40654 14.8577 9.41023C14.8 9.41112 14.7431 9.41476 14.6869 9.42104C14.6403 9.42329 14.5941 9.42733 14.5486 9.43311C14.4898 9.43675 14.4319 9.44326 14.3748 9.45249C14.3293 9.45695 14.2843 9.46313 14.2399 9.47098C14.1917 9.47633 14.1441 9.48362 14.0972 9.49277C14.0399 9.50021 13.9834 9.5104 13.9279 9.52319C13.8821 9.53077 13.8369 9.54011 13.7923 9.55114C13.7354 9.56148 13.6794 9.57454 13.6245 9.59018C13.5794 9.60003 13.535 9.61159 13.4912 9.6248C13.4439 9.63591 13.3973 9.64892 13.3515 9.66375C13.2981 9.67744 13.2457 9.69356 13.1943 9.71198C13.1474 9.72557 13.1013 9.74105 13.056 9.75833C13.0124 9.77194 12.9696 9.78719 12.9275 9.80401C12.881 9.81932 12.8353 9.83651 12.7905 9.85549C12.7359 9.87477 12.6825 9.89666 12.6305 9.921C12.5884 9.93763 12.547 9.95584 12.5065 9.97554C12.4611 9.99428 12.4166 10.0149 12.3731 10.0372C12.3281 10.0569 12.2841 10.0784 12.2411 10.1017C12.1966 10.1224 12.153 10.1449 12.1106 10.1692C12.0629 10.1927 12.0165 10.2182 11.9713 10.2458C11.9276 10.2689 11.8849 10.2939 11.8434 10.3205C11.812 10.3381 11.7812 10.3565 11.751 10.3759C11.6959 10.4067 11.6426 10.4403 11.5913 10.4766C11.554 10.4998 11.5175 10.5244 11.482 10.5503C11.4402 10.577 11.3996 10.6055 11.3603 10.6356C11.3124 10.6678 11.2663 10.7023 11.2219 10.7389C11.1927 10.7601 11.1643 10.7822 11.1365 10.8051C11.0913 10.838 11.0477 10.8729 11.0059 10.9099C10.9718 10.9365 10.9387 10.9643 10.9067 10.9933C10.8678 11.0245 10.8302 11.0573 10.7941 11.0916C10.7509 11.1279 10.7095 11.1663 10.67 11.2064C10.6383 11.2351 10.6075 11.265 10.5779 11.2958C10.5362 11.3344 10.4964 11.3749 10.4585 11.4173C10.4329 11.4427 10.4081 11.4689 10.384 11.4958C10.3439 11.5357 10.3057 11.5774 10.2695 11.6209C10.2355 11.6571 10.203 11.6948 10.172 11.7338C10.1438 11.7654 10.1166 11.798 10.0906 11.8315C10.0568 11.8701 10.0246 11.9101 9.9941 11.9515C9.9624 11.9896 9.93224 12.029 9.90373 12.0697C9.87299 12.1085 9.84382 12.1485 9.81631 12.1898C9.78147 12.2359 9.74881 12.2837 9.71847 12.333C9.69482 12.3668 9.67231 12.4015 9.65099 12.4369C9.62601 12.4733 9.60233 12.5106 9.58002 12.5489C9.54513 12.6012 9.51291 12.6555 9.48356 12.7116C9.46492 12.7425 9.44718 12.774 9.43038 12.8061C9.40295 12.8515 9.37747 12.8983 9.35406 12.9463C9.32775 12.9929 9.30347 13.0408 9.28133 13.0899C9.26032 13.1298 9.24076 13.1706 9.22273 13.2122C9.20248 13.2521 9.18368 13.2928 9.16639 13.3344C9.1394 13.3896 9.11516 13.4464 9.09385 13.5046C9.07917 13.5381 9.06549 13.5722 9.05283 13.6068C9.0311 13.6565 9.01154 13.7073 8.9943 13.7593C8.97291 13.8126 8.95401 13.8671 8.93773 13.9228C8.92432 13.96 8.91211 13.9978 8.90114 14.0362C8.88189 14.0904 8.86518 14.1459 8.85113 14.2024C8.83807 14.2438 8.82646 14.2858 8.81636 14.3284C8.79911 14.3854 8.78461 14.4436 8.77302 14.5029C8.76132 14.5476 8.7513 14.593 8.74304 14.639C8.73206 14.6839 8.72277 14.7294 8.71523 14.7755C8.70253 14.8311 8.69242 14.8878 8.68502 14.9453C8.67589 14.9926 8.66862 15.0406 8.66329 15.0892C8.65548 15.1339 8.64933 15.1791 8.6449 15.2249C8.63574 15.2822 8.62928 15.3404 8.62566 15.3993C8.61989 15.4453 8.61585 15.4918 8.61362 15.5388C8.6074 15.5952 8.60378 15.6524 8.6029 15.7102C8.59922 15.7572 8.59735 15.8046 8.59735 15.8525C8.59735 15.8576 8.59737 15.8626 8.59741 15.8676C8.59746 15.8726 8.59752 15.8776 8.5976 15.8826C8.59625 15.9112 8.59557 15.9399 8.59557 15.9687C8.59557 15.9762 8.59562 15.9836 8.59571 15.991C8.59585 16.003 8.59612 16.0149 8.59649 16.0268C8.59588 16.0461 8.59557 16.0655 8.59557 16.0849C8.59557 16.1136 8.59624 16.1422 8.59758 16.1706C8.59743 16.1801 8.59735 16.1897 8.59735 16.1993C8.59735 16.2472 8.59922 16.2947 8.6029 16.3416C8.60363 16.3895 8.60623 16.4369 8.61063 16.4838C8.61238 16.5414 8.61684 16.5983 8.62388 16.6543C8.62691 16.7036 8.63191 16.7523 8.63883 16.8005C8.64333 16.856 8.65035 16.9108 8.65979 16.9648C8.66511 17.0132 8.67234 17.0609 8.68142 17.108C8.6876 17.1561 8.69568 17.2036 8.70558 17.2505C8.71378 17.3061 8.72453 17.3608 8.7377 17.4146C8.74597 17.4606 8.75598 17.5061 8.76768 17.5508C8.77886 17.608 8.79276 17.6642 8.80922 17.7193C8.82024 17.7667 8.83314 17.8135 8.84784 17.8594C8.85919 17.9042 8.87222 17.9483 8.88687 17.9917C8.90128 18.045 8.91809 18.0974 8.93717 18.1487C8.94966 18.19 8.96359 18.2306 8.9789 18.2705C8.99533 18.3226 9.01406 18.3737 9.03499 18.4235C9.05302 18.4752 9.07334 18.5258 9.09583 18.5751C9.11029 18.6129 9.12599 18.6501 9.14288 18.6866C9.16407 18.7408 9.18783 18.7938 9.21399 18.8453C9.23361 18.8906 9.25502 18.9348 9.27815 18.978C9.29689 19.0188 9.31711 19.0587 9.33874 19.0976C9.36011 19.1424 9.38328 19.1861 9.40815 19.2287C9.42836 19.2687 9.45 19.3077 9.47304 19.3459C9.5023 19.4018 9.53442 19.4559 9.56921 19.5081C9.58733 19.5392 9.60636 19.5697 9.62626 19.5995C9.65542 19.6495 9.68692 19.698 9.72062 19.7447C9.74724 19.7868 9.77554 19.8276 9.80546 19.8671C9.82987 19.9038 9.85561 19.9395 9.88259 19.9742C9.90955 20.0135 9.93805 20.0517 9.96798 20.0887C9.99788 20.1305 10.0295 20.1709 10.0628 20.2098C10.0929 20.2496 10.1246 20.2881 10.1578 20.3252C10.1888 20.3643 10.2214 20.402 10.2555 20.4383C10.2874 20.4766 10.3208 20.5136 10.3557 20.5491C10.3885 20.5866 10.4227 20.6227 10.4584 20.6573C10.4826 20.6837 10.5075 20.7094 10.5332 20.7343C10.5763 20.7814 10.6218 20.8261 10.6697 20.8683C10.705 20.9035 10.7419 20.9372 10.78 20.9693C10.8059 20.9939 10.8325 21.0177 10.8599 21.0407C10.9061 21.0845 10.9546 21.1259 11.0053 21.1647C11.0383 21.1931 11.0722 21.2204 11.1072 21.2464C11.1391 21.2733 11.172 21.2991 11.2058 21.3237C11.2503 21.3603 11.2965 21.3948 11.3443 21.427C11.379 21.4535 11.4147 21.4788 11.4512 21.5027C11.4953 21.5355 11.5409 21.5662 11.588 21.5948C11.6242 21.62 11.6614 21.6439 11.6996 21.6663C11.7404 21.6939 11.7825 21.7198 11.8256 21.7439C11.8671 21.7705 11.9097 21.7954 11.9534 21.8185C11.9914 21.8417 12.0303 21.8635 12.0701 21.8838C12.1197 21.9131 12.1708 21.94 12.2233 21.9645C12.2663 21.9877 12.3103 22.0093 12.3553 22.029C12.3988 22.0513 12.4433 22.0719 12.4888 22.0906C12.5293 22.1103 12.5706 22.1285 12.6127 22.1452C12.6568 22.1658 12.7019 22.1847 12.7479 22.2017C12.7973 22.2235 12.8478 22.2432 12.8994 22.2605C12.9443 22.2787 12.99 22.2951 13.0366 22.3097C13.0818 22.3269 13.1279 22.3424 13.1748 22.356C13.2176 22.3714 13.2613 22.3851 13.3056 22.3972C13.3573 22.4149 13.41 22.4302 13.4637 22.443C13.5118 22.4578 13.5609 22.4705 13.6107 22.4812C13.6638 22.4961 13.7178 22.5086 13.7728 22.5186C13.8173 22.5296 13.8626 22.539 13.9084 22.5465C13.955 22.5573 14.0023 22.5662 14.0502 22.5732C14.1044 22.5847 14.1595 22.5936 14.2154 22.6C14.2623 22.6084 14.3099 22.6149 14.358 22.6195C14.404 22.6268 14.4505 22.6324 14.4977 22.6362C14.5528 22.6441 14.6088 22.6495 14.6655 22.6523C14.7126 22.6575 14.7603 22.6609 14.8084 22.6624C14.8642 22.6677 14.9207 22.6704 14.9778 22.6704H14.98C15.0175 22.6728 15.0553 22.674 15.0934 22.674C15.1124 22.674 15.1314 22.6737 15.1503 22.6731C15.1691 22.6737 15.1881 22.674 15.2071 22.674C15.2253 22.674 15.2434 22.6737 15.2614 22.6732C15.2794 22.6737 15.2974 22.674 15.3156 22.674C15.334 22.674 15.3524 22.6737 15.3707 22.6732C15.389 22.6737 15.4074 22.674 15.4258 22.674C15.4362 22.674 15.4466 22.6739 15.457 22.6737C15.4647 22.6736 15.4724 22.6734 15.48 22.6732C15.498 22.6737 15.5161 22.674 15.5342 22.674C15.5527 22.674 15.571 22.6737 15.5894 22.6732C15.6032 22.6736 15.6172 22.6739 15.6311 22.674C15.6356 22.674 15.64 22.674 15.6445 22.674C15.6626 22.674 15.6807 22.6737 15.6987 22.6732C15.7167 22.6737 15.7348 22.674 15.7529 22.674C15.7713 22.674 15.7897 22.6737 15.808 22.6732C15.8263 22.6737 15.8447 22.674 15.8631 22.674C15.8813 22.674 15.8993 22.6737 15.9173 22.6732C15.9354 22.6737 15.9534 22.674 15.9716 22.674C15.99 22.674 16.0084 22.6737 16.0267 22.6732C16.0349 22.6734 16.0432 22.6736 16.0515 22.6738C16.0616 22.6739 16.0717 22.674 16.0818 22.674C16.0999 22.674 16.118 22.6737 16.136 22.6732C16.154 22.6737 16.1721 22.674 16.1902 22.674C16.2087 22.674 16.227 22.6737 16.2453 22.6732C16.2636 22.6737 16.282 22.674 16.3005 22.674C16.3089 22.674 16.3173 22.674 16.3257 22.6738C16.3354 22.6737 16.345 22.6735 16.3547 22.6732C16.3727 22.6737 16.3908 22.674 16.4089 22.674C16.4273 22.674 16.4457 22.6737 16.464 22.6732C16.4823 22.6737 16.5007 22.674 16.5191 22.674C16.5373 22.674 16.5553 22.6737 16.5733 22.6732C16.5914 22.6737 16.6094 22.674 16.6276 22.674C16.646 22.674 16.6644 22.6737 16.6827 22.6732C16.701 22.6737 16.7194 22.674 16.7378 22.674C16.7559 22.674 16.774 22.6737 16.792 22.6732C16.81 22.6737 16.8281 22.674 16.8462 22.674C16.8647 22.674 16.8831 22.6737 16.9014 22.6732C16.9092 22.6734 16.917 22.6736 16.9249 22.6737C16.9354 22.6739 16.9459 22.674 16.9565 22.674C16.9746 22.674 16.9927 22.6737 17.0107 22.6732C17.0287 22.6737 17.0468 22.674 17.0649 22.674C17.074 22.674 17.0831 22.6739 17.0922 22.6738C17.1015 22.6737 17.1107 22.6735 17.12 22.6732C17.1383 22.6737 17.1567 22.674 17.1751 22.674C17.1933 22.674 17.2113 22.6737 17.2294 22.6732C17.2474 22.6737 17.2654 22.674 17.2836 22.674C17.302 22.674 17.3204 22.6737 17.3387 22.6732C17.357 22.6737 17.3754 22.674 17.3938 22.674C17.4122 22.674 17.4306 22.6737 17.4489 22.6732C17.4672 22.6737 17.4856 22.674 17.504 22.674C17.5131 22.674 17.5221 22.6739 17.5312 22.6738C17.5402 22.6737 17.5492 22.6735 17.5582 22.6732C17.5762 22.6737 17.5943 22.674 17.6125 22.674C17.6222 22.674 17.6319 22.6739 17.6416 22.6738C17.6503 22.6736 17.6589 22.6734 17.6676 22.6732C17.6859 22.6737 17.7042 22.674 17.7227 22.674C17.7408 22.674 17.7589 22.6737 17.7769 22.6732C17.7949 22.6737 17.813 22.674 17.8311 22.674C17.8496 22.674 17.8679 22.6737 17.8862 22.6732C17.9045 22.6737 17.9229 22.674 17.9413 22.674C17.9595 22.674 17.9776 22.6737 17.9956 22.6732C18.0136 22.6737 18.0317 22.674 18.0498 22.674C18.0682 22.674 18.0866 22.6737 18.1049 22.6732C18.1232 22.6737 18.1416 22.674 18.16 22.674C18.1782 22.674 18.1962 22.6737 18.2142 22.6732C18.2323 22.6737 18.2503 22.674 18.2685 22.674C18.2826 22.674 18.2966 22.6738 18.3107 22.6735L18.3236 22.6732C18.3419 22.6737 18.3602 22.674 18.3787 22.674C18.3968 22.674 18.4149 22.6737 18.4329 22.6732C18.4509 22.6737 18.469 22.674 18.4871 22.674C18.5056 22.674 18.5239 22.6737 18.5422 22.6732C18.5605 22.6737 18.5789 22.674 18.5973 22.674C18.6073 22.674 18.6173 22.6739 18.6273 22.6738C18.6354 22.6736 18.6435 22.6734 18.6516 22.6732C18.6696 22.6737 18.6877 22.674 18.7058 22.674C18.716 22.674 18.7261 22.6739 18.7363 22.6738C18.7445 22.6736 18.7527 22.6734 18.7609 22.6732C18.7792 22.6737 18.7976 22.674 18.816 22.674C18.8342 22.674 18.8522 22.6737 18.8702 22.6732C18.8882 22.6737 18.9063 22.674 18.9245 22.674C18.9429 22.674 18.9613 22.6737 18.9796 22.6732C18.9979 22.6737 19.0162 22.674 19.0347 22.674C19.0528 22.674 19.0709 22.6737 19.0889 22.6732C19.1069 22.6737 19.125 22.674 19.1431 22.674L19.1556 22.674C19.1699 22.6739 19.1841 22.6736 19.1982 22.6732C19.2165 22.6737 19.2349 22.674 19.2533 22.674C19.2715 22.674 19.2896 22.6737 19.3076 22.6732C19.3256 22.6737 19.3436 22.674 19.3618 22.674C19.3802 22.674 19.3986 22.6737 19.4169 22.6732C19.4352 22.6737 19.4536 22.674 19.472 22.674C19.4902 22.674 19.5082 22.6737 19.5262 22.6732C19.5443 22.6737 19.5623 22.674 19.5805 22.674C19.5904 22.674 19.6003 22.6739 19.6102 22.6738C19.6187 22.6736 19.6271 22.6734 19.6356 22.6732C19.6539 22.6737 19.6722 22.674 19.6907 22.674C19.7088 22.674 19.7269 22.6737 19.7449 22.6732C19.7629 22.6737 19.781 22.674 19.7991 22.674C19.8176 22.674 19.8359 22.6737 19.8542 22.6732C19.8725 22.6737 19.8909 22.674 19.9093 22.674C19.9275 22.674 19.9456 22.6737 19.9636 22.6732C19.9816 22.6737 19.9997 22.674 20.0178 22.674C20.9996 22.674 21.7956 21.8737 21.7956 20.8864C21.7956 19.8992 20.9996 19.0988 20.0178 19.0988C19.9997 19.0988 19.9816 19.0991 19.9636 19.0996C19.9456 19.0991 19.9275 19.0988 19.9093 19.0988L19.9001 19.0988C19.8905 19.0989 19.8809 19.099 19.8713 19.0992C19.8656 19.0993 19.8599 19.0995 19.8542 19.0997C19.8359 19.0991 19.8176 19.0988 19.7991 19.0988C19.781 19.0988 19.7629 19.0991 19.7449 19.0996C19.7269 19.0991 19.7088 19.0988 19.6907 19.0988C19.6722 19.0988 19.6539 19.0991 19.6356 19.0997C19.6261 19.0994 19.6166 19.0992 19.6071 19.099C19.5983 19.0989 19.5894 19.0988 19.5805 19.0988C19.5623 19.0988 19.5443 19.0991 19.5262 19.0996C19.5184 19.0994 19.5105 19.0992 19.5026 19.0991C19.4924 19.0989 19.4822 19.0988 19.472 19.0988C19.4536 19.0988 19.4352 19.0991 19.4169 19.0997C19.3986 19.0991 19.3802 19.0988 19.3618 19.0988C19.3436 19.0988 19.3256 19.0991 19.3076 19.0996C19.2896 19.0991 19.2715 19.0988 19.2533 19.0988C19.2392 19.0988 19.2251 19.099 19.211 19.0993C19.2067 19.0994 19.2025 19.0995 19.1982 19.0997C19.1914 19.0994 19.1846 19.0993 19.1778 19.0991C19.1663 19.0989 19.1547 19.0988 19.1431 19.0988C19.125 19.0988 19.1069 19.0991 19.0889 19.0996C19.0815 19.0994 19.0742 19.0992 19.0668 19.0991C19.0561 19.0989 19.0454 19.0988 19.0347 19.0988C19.0162 19.0988 18.9979 19.0991 18.9796 19.0997C18.966 19.0992 18.9524 19.099 18.9387 19.0989C18.934 19.0988 18.9292 19.0988 18.9245 19.0988C18.9063 19.0988 18.8882 19.0991 18.8702 19.0996C18.8522 19.0991 18.8341 19.0988 18.816 19.0988C18.7976 19.0988 18.7792 19.0991 18.7609 19.0997C18.7426 19.0991 18.7242 19.0988 18.7058 19.0988C18.6877 19.0988 18.6696 19.0991 18.6516 19.0996C18.6336 19.0991 18.6155 19.0988 18.5973 19.0988C18.5789 19.0988 18.5605 19.0991 18.5422 19.0997C18.5239 19.0991 18.5056 19.0988 18.4871 19.0988C18.469 19.0988 18.4509 19.0991 18.4329 19.0996C18.4149 19.0991 18.3968 19.0988 18.3787 19.0988C18.3602 19.0988 18.3419 19.0991 18.3236 19.0997C18.3053 19.0991 18.2869 19.0988 18.2685 19.0988C18.2503 19.0988 18.2323 19.0991 18.2142 19.0996C18.1962 19.0991 18.1782 19.0988 18.16 19.0988C18.1416 19.0988 18.1232 19.0991 18.1049 19.0997C18.0866 19.0991 18.0682 19.0988 18.0498 19.0988C18.0395 19.0988 18.0293 19.0989 18.0191 19.0991C18.0112 19.0992 18.0034 19.0994 17.9956 19.0996C17.9776 19.0991 17.9595 19.0988 17.9413 19.0988C17.9229 19.0988 17.9045 19.0991 17.8862 19.0997C17.8679 19.0991 17.8496 19.0988 17.8311 19.0988C17.813 19.0988 17.7949 19.0991 17.7769 19.0996C17.7589 19.0991 17.7408 19.0988 17.7227 19.0988C17.7097 19.0988 17.6968 19.099 17.684 19.0992C17.6785 19.0993 17.673 19.0995 17.6676 19.0997C17.6583 19.0994 17.6489 19.0992 17.6396 19.099C17.6306 19.0989 17.6215 19.0988 17.6125 19.0988C17.5943 19.0988 17.5762 19.0991 17.5582 19.0996C17.5402 19.0991 17.5221 19.0988 17.504 19.0988C17.4856 19.0988 17.4672 19.0991 17.4489 19.0997C17.4306 19.0991 17.4122 19.0988 17.3938 19.0988C17.3754 19.0988 17.357 19.0991 17.3387 19.0997C17.3204 19.0991 17.302 19.0988 17.2836 19.0988C17.2654 19.0988 17.2474 19.0991 17.2293 19.0996C17.2113 19.0991 17.1933 19.0988 17.1751 19.0988C17.1659 19.0988 17.1568 19.0989 17.1476 19.099C17.1384 19.0992 17.1292 19.0994 17.12 19.0997C17.1017 19.0991 17.0833 19.0988 17.0649 19.0988C17.0468 19.0988 17.0287 19.0991 17.0107 19.0996C16.9927 19.0991 16.9746 19.0988 16.9565 19.0988C16.938 19.0988 16.9197 19.0991 16.9014 19.0997C16.8926 19.0994 16.8838 19.0992 16.875 19.099C16.8654 19.0989 16.8558 19.0988 16.8462 19.0988C16.8281 19.0988 16.81 19.0991 16.792 19.0996C16.7851 19.0994 16.7781 19.0993 16.7711 19.0991C16.76 19.0989 16.7489 19.0988 16.7378 19.0988C16.7194 19.0988 16.701 19.0991 16.6827 19.0997C16.6644 19.0991 16.646 19.0988 16.6276 19.0988C16.6094 19.0988 16.5914 19.0991 16.5733 19.0996C16.5553 19.0991 16.5373 19.0988 16.5191 19.0988C16.5007 19.0988 16.4823 19.0991 16.464 19.0997C16.4457 19.0991 16.4273 19.0988 16.4089 19.0988C16.3908 19.0988 16.3727 19.0991 16.3547 19.0996C16.3367 19.0991 16.3186 19.0988 16.3005 19.0988C16.282 19.0988 16.2636 19.0991 16.2453 19.0997C16.2372 19.0994 16.2291 19.0992 16.221 19.0991C16.2108 19.0989 16.2005 19.0988 16.1902 19.0988C16.1841 19.0988 16.178 19.0988 16.1719 19.0989C16.1599 19.099 16.1479 19.0993 16.136 19.0996C16.1268 19.0994 16.1176 19.0991 16.1083 19.099C16.0995 19.0989 16.0906 19.0988 16.0818 19.0988C16.0634 19.0988 16.045 19.0991 16.0267 19.0997C16.0084 19.0991 15.99 19.0988 15.9716 19.0988C15.9534 19.0988 15.9354 19.0991 15.9173 19.0996C15.8993 19.0991 15.8813 19.0988 15.8631 19.0988C15.8447 19.0988 15.8263 19.0991 15.808 19.0997C15.7897 19.0991 15.7713 19.0988 15.7529 19.0988C15.7452 19.0988 15.7375 19.0989 15.7298 19.099C15.7194 19.0991 15.709 19.0993 15.6987 19.0996C15.6807 19.0991 15.6626 19.0988 15.6445 19.0988C15.626 19.0988 15.6077 19.0991 15.5894 19.0997C15.571 19.0991 15.5527 19.0988 15.5342 19.0988C15.5161 19.0988 15.498 19.0991 15.48 19.0996C15.462 19.0991 15.4439 19.0988 15.4258 19.0988C15.4074 19.0988 15.389 19.0991 15.3707 19.0997C15.3524 19.0991 15.334 19.0988 15.3156 19.0988C15.3075 19.0988 15.2994 19.0989 15.2914 19.099C15.2814 19.0991 15.2713 19.0993 15.2614 19.0996C15.2522 19.0994 15.2431 19.0991 15.2339 19.099C15.225 19.0989 15.2161 19.0988 15.2071 19.0988C15.1881 19.0988 15.1691 19.0991 15.1502 19.0997C15.1446 19.0995 15.1389 19.0994 15.1332 19.0993L15.1285 19.0992C15.1168 19.0989 15.1051 19.0988 15.0934 19.0988H15.0911C15.072 19.0976 15.0527 19.0967 15.0334 19.0961C15.006 19.0935 14.9783 19.0915 14.9505 19.0902C14.9319 19.0881 14.9132 19.0863 14.8944 19.0848C14.8665 19.0808 14.8384 19.0774 14.8101 19.0747C14.7837 19.0705 14.7571 19.0668 14.7304 19.0638C14.7121 19.0605 14.6937 19.0575 14.6752 19.0548C14.6497 19.0495 14.6241 19.0446 14.5983 19.0404C14.5714 19.0342 14.5444 19.0286 14.517 19.0236C14.4989 19.0191 14.4806 19.0149 14.4622 19.011C14.453 19.0084 14.4437 19.0059 14.4344 19.0034C14.4287 19.0019 14.4231 19.0005 14.4174 18.999C14.4103 18.9972 14.4031 18.9954 14.3959 18.9937C14.3788 18.9885 14.3615 18.9835 14.3442 18.9788C14.3181 18.9699 14.2918 18.9616 14.2653 18.9539C14.2422 18.9456 14.2189 18.9378 14.1955 18.9305C14.1732 18.922 14.1508 18.9139 14.1281 18.9063C14.1112 18.8995 14.0942 18.8929 14.0771 18.8865C14.0554 18.8769 14.0335 18.8677 14.0113 18.859C13.9866 18.8474 13.9615 18.8364 13.9362 18.826C13.9151 18.8157 13.8938 18.8059 13.8723 18.7964C13.8519 18.786 13.8313 18.7759 13.8105 18.7662C13.805 18.7632 13.7994 18.7602 13.7938 18.7573C13.7871 18.7537 13.7803 18.7502 13.7735 18.7467C13.7499 18.7328 13.726 18.7194 13.7018 18.7066C13.6824 18.6947 13.6627 18.6833 13.6428 18.6722C13.6241 18.6601 13.605 18.6484 13.5858 18.6371C13.5629 18.6217 13.5397 18.6068 13.5161 18.5924C13.5025 18.583 13.4888 18.5737 13.475 18.5647C13.453 18.5483 13.4305 18.5325 13.4077 18.5171C13.3965 18.5085 13.3852 18.5001 13.3737 18.4917C13.3508 18.4728 13.3274 18.4545 13.3035 18.4367C13.2822 18.4188 13.2604 18.4013 13.2383 18.3844C13.2323 18.3792 13.2262 18.3741 13.2202 18.369C13.1942 18.3443 13.1674 18.3204 13.14 18.2973C13.1243 18.2824 13.1083 18.2678 13.0921 18.2535L13.0823 18.2438L13.0757 18.2374C13.0516 18.2111 13.0268 18.1855 13.0012 18.1607C12.9865 18.1446 12.9715 18.1288 12.9563 18.1133C12.942 18.0969 12.9274 18.0808 12.9125 18.065C12.8986 18.0482 12.8843 18.0317 12.8698 18.0155C12.8561 17.9982 12.8421 17.9813 12.8279 17.9646C12.8159 17.9487 12.8037 17.9331 12.7912 17.9176C12.7773 17.8983 12.7631 17.8793 12.7485 17.8606C12.7327 17.8375 12.7163 17.8147 12.6995 17.7924C12.6872 17.774 12.6746 17.7558 12.6616 17.7379C12.6541 17.726 12.6465 17.7142 12.6387 17.7025C12.6206 17.6716 12.6017 17.6413 12.5819 17.6116C12.5773 17.6037 12.5726 17.5958 12.5679 17.5879C12.5551 17.5635 12.5417 17.5394 12.5279 17.5156C12.5176 17.4953 12.507 17.4752 12.496 17.4554C12.4841 17.4306 12.4717 17.4061 12.4588 17.3819C12.4491 17.361 12.4391 17.3403 12.4287 17.3198C12.4229 17.3065 12.417 17.2933 12.4109 17.2801C12.399 17.2495 12.3862 17.2193 12.3727 17.1896C12.3659 17.172 12.359 17.1546 12.3517 17.1374C12.3458 17.1203 12.3396 17.1034 12.3331 17.0866C12.324 17.0578 12.3142 17.0293 12.3038 17.0011C12.2983 16.983 12.2925 16.965 12.2865 16.9472C12.2794 16.9207 12.2716 16.8945 12.2633 16.8685C12.2571 16.8441 12.2504 16.8199 12.2433 16.7959C12.2396 16.7799 12.2356 16.7639 12.2315 16.7481C12.2261 16.7205 12.2201 16.6932 12.2134 16.6662C12.2102 16.6481 12.2067 16.6301 12.2029 16.6122C12.1991 16.5862 12.1947 16.5604 12.1897 16.5348C12.1863 16.5079 12.1822 16.4811 12.1776 16.4545C12.1754 16.4348 12.1729 16.4151 12.1701 16.3955C12.1679 16.3689 12.1652 16.3426 12.1619 16.3164C12.1607 16.2968 12.1592 16.2774 12.1574 16.2581C12.1565 16.229 12.1549 16.2001 12.1527 16.1714C12.1524 16.1521 12.1518 16.1328 12.1509 16.1137C12.151 16.1041 12.1511 16.0945 12.1511 16.0849C12.1511 16.0655 12.1508 16.0461 12.1502 16.0268C12.1503 16.023 12.1504 16.0192 12.1505 16.0154C12.1506 16.012 12.1507 16.0086 12.1508 16.0052C12.151 15.9931 12.1511 15.9809 12.1511 15.9687L12.1511 15.9561C12.151 15.9502 12.151 15.9444 12.1509 15.9386C12.1518 15.9193 12.1524 15.8999 12.1527 15.8804C12.1541 15.862 12.1553 15.8435 12.1562 15.8249C12.1594 15.7959 12.1619 15.7667 12.1637 15.7373C12.1658 15.7204 12.1677 15.7035 12.1694 15.6864C12.174 15.6574 12.1779 15.6282 12.1812 15.5988C12.1858 15.5724 12.1898 15.5459 12.1932 15.5192C12.1964 15.5026 12.1994 15.4859 12.2022 15.4691C12.2083 15.4421 12.2139 15.4149 12.2188 15.3875C12.2254 15.3604 12.2314 15.3331 12.2368 15.3056C12.2396 15.2948 12.2423 15.284 12.245 15.2731C12.2456 15.2706 12.2462 15.2681 12.2468 15.2655C12.2554 15.2369 12.2634 15.208 12.2707 15.1788C12.2755 15.1634 12.2802 15.1479 12.2847 15.1323C12.2958 15.1008 12.3062 15.0688 12.3156 15.0365C12.3206 15.0226 12.3255 15.0086 12.3302 14.9945C12.337 14.9775 12.3435 14.9604 12.3499 14.9432C12.3644 14.9098 12.378 14.8759 12.3906 14.8416C12.395 14.8316 12.3993 14.8216 12.4034 14.8116C12.4154 14.7871 12.4269 14.7622 12.4377 14.7371C12.4502 14.7126 12.462 14.6879 12.4734 14.6628C12.4819 14.6464 12.4903 14.63 12.4984 14.6134C12.5076 14.5971 12.5165 14.5807 12.5252 14.5641C12.544 14.533 12.5618 14.5013 12.5787 14.4691C12.5833 14.4614 12.5879 14.4536 12.5925 14.4459C12.6078 14.4228 12.6227 14.3993 12.637 14.3755C12.6543 14.3504 12.6709 14.3248 12.6869 14.2988C12.6947 14.2877 12.7024 14.2764 12.7099 14.2651C12.7232 14.2475 12.7361 14.2298 12.7488 14.2117C12.7622 14.1948 12.7753 14.1776 12.7882 14.1602C12.8013 14.1444 12.8142 14.1284 12.8268 14.1121C12.8464 14.0897 12.8655 14.0669 12.884 14.0436C12.8986 14.0272 12.9129 14.0107 12.9269 13.9938C12.9369 13.9832 12.9467 13.9725 12.9565 13.9616C12.9815 13.9367 13.0059 13.911 13.0295 13.8846C13.0402 13.8739 13.0508 13.8632 13.0612 13.8523C13.0819 13.8331 13.1022 13.8135 13.122 13.7933C13.1329 13.7835 13.1437 13.7735 13.1544 13.7633C13.171 13.7493 13.1874 13.735 13.2035 13.7204C13.2254 13.7029 13.2469 13.6848 13.2679 13.6663C13.2802 13.6567 13.2924 13.6469 13.3044 13.637C13.3335 13.6158 13.362 13.5937 13.3897 13.5709C13.4012 13.5625 13.4125 13.5541 13.4237 13.5455C13.4421 13.5331 13.4602 13.5204 13.478 13.5074C13.5012 13.4926 13.524 13.4772 13.5464 13.4613C13.5537 13.4568 13.561 13.4523 13.5682 13.4476C13.5996 13.4301 13.6304 13.4116 13.6606 13.3922C13.6805 13.3811 13.7 13.3697 13.7194 13.3579C13.7283 13.3531 13.7373 13.3483 13.7461 13.3434C13.7536 13.3393 13.7611 13.3351 13.7686 13.3308C13.7887 13.3209 13.8086 13.3106 13.8282 13.3C13.8491 13.2903 13.8697 13.2802 13.8901 13.2697C13.9116 13.2603 13.9329 13.2505 13.954 13.2402C13.9793 13.2298 14.0044 13.2187 14.0291 13.2072C14.0428 13.2018 14.0564 13.1962 14.0699 13.1904C14.0926 13.1824 14.1151 13.174 14.1374 13.1651C14.1636 13.1564 14.1895 13.1472 14.2151 13.1374C14.2386 13.1301 14.2618 13.1223 14.2848 13.1141C14.3025 13.109 14.32 13.1036 14.3374 13.098C14.3615 13.0918 14.3855 13.0851 14.4092 13.0779C14.4362 13.0716 14.4629 13.0647 14.4893 13.0571C14.4949 13.0559 14.5004 13.0547 14.506 13.0534C14.5162 13.0511 14.5264 13.0486 14.5366 13.0461C14.5639 13.0411 14.591 13.0356 14.6179 13.0294C14.6344 13.0266 14.6509 13.0237 14.6673 13.0205C14.694 13.017 14.7205 13.0129 14.7468 13.0083C14.7761 13.005 14.8052 13.0011 14.8341 12.9964C14.8509 12.9947 14.8677 12.9929 14.8843 12.9907C14.9137 12.9889 14.9429 12.9864 14.9718 12.9831C14.9902 12.9823 15.0085 12.9811 15.0268 12.9796C15.0555 12.9792 15.0841 12.9781 15.1125 12.9763L15.1147 12.9763Z" fill="url(#paint2_angular_3497_38362)"/>
<path d="M46.7921 20.754C43.8321 20.754 41.8641 19.306 41.8641 16.4905C41.8641 13.6751 43.8321 12.2271 46.7921 12.2271C48.6161 12.2271 50.0401 12.8385 50.8721 14.2221L52.6641 13.3211C51.6241 11.7123 49.5761 10.5217 46.8241 10.5217C42.5521 10.5217 39.9121 12.7902 39.9121 16.4905C39.9121 20.1909 42.5521 22.4593 46.7441 22.4593C49.5761 22.4593 51.6241 21.2849 52.6801 19.6438L50.9041 18.759C50.0561 20.1587 48.6161 20.754 46.7921 20.754Z" fill="black"/>
<path d="M62.5971 22.4593C66.9011 22.4593 69.5571 20.2069 69.5571 16.4905C69.5571 12.7741 66.9011 10.5217 62.5971 10.5217C58.2931 10.5217 55.6371 12.7741 55.6371 16.4905C55.6371 20.2069 58.2931 22.4593 62.5971 22.4593ZM62.5971 20.754C59.5411 20.754 57.5891 19.2256 57.5891 16.4905C57.5891 13.7555 59.5571 12.2271 62.5971 12.2271C65.6371 12.2271 67.5891 13.7555 67.5891 16.4905C67.5891 19.2256 65.6371 20.754 62.5971 20.754Z" fill="black"/>
<path d="M86.2511 10.8596L81.0511 17.311L75.8511 10.8596H73.7711V22.1215H75.6271V13.482L80.9551 19.9817H81.0671L86.3951 13.482V22.1215H88.3151V10.8596H86.2511Z" fill="black"/>
<path d="M100.861 10.8596H93.293V22.1215H95.213V18.2281H100.861C103.581 18.2281 105.389 16.9088 105.389 14.5438C105.389 12.1949 103.581 10.8596 100.861 10.8596ZM100.701 16.571H95.213V12.5489H100.701C102.349 12.5489 103.421 13.112 103.421 14.5599C103.421 15.9918 102.349 16.571 100.701 16.571Z" fill="black"/>
<path d="M115.46 22.4593C119.764 22.4593 122.42 20.2069 122.42 16.4905C122.42 12.7741 119.764 10.5217 115.46 10.5217C111.156 10.5217 108.5 12.7741 108.5 16.4905C108.5 20.2069 111.156 22.4593 115.46 22.4593ZM115.46 20.754C112.404 20.754 110.452 19.2256 110.452 16.4905C110.452 13.7555 112.42 12.2271 115.46 12.2271C118.5 12.2271 120.452 13.7555 120.452 16.4905C120.452 19.2256 118.5 20.754 115.46 20.754Z" fill="black"/>
<path d="M132.234 15.4609C129.786 15.2678 127.914 15.0587 127.914 13.8681C127.914 12.6132 130.026 12.1788 131.802 12.1949C133.658 12.211 135.242 12.6937 136.394 13.7072L137.61 12.388C136.266 11.2457 134.202 10.5217 131.77 10.5217C128.554 10.5217 125.978 11.7605 125.978 13.9968C125.978 16.2975 128.89 16.9893 131.978 17.2467C134.794 17.488 136.202 17.7937 136.202 18.952C136.202 20.1265 134.826 20.7861 132.33 20.7861C130.074 20.7861 128.282 20.1748 126.762 18.8073L125.562 20.1748C127.306 21.6871 129.626 22.4593 132.25 22.4593C136.058 22.4593 138.154 20.9309 138.154 18.7912C138.154 16.4423 135.722 15.7344 132.234 15.4609Z" fill="black"/>
<path d="M144.028 20.4322V17.2467H151.676V15.5574H144.028V12.5489H153.116V10.8596H142.124V22.1215H153.276V20.4322H144.028Z" fill="black"/>
<path d="M173.806 22.1215H175.902L169.854 10.8596H167.742L161.678 22.1215H163.758L165.182 19.4025H172.366L173.806 22.1215ZM166.046 17.7615L168.782 12.5489L171.518 17.7615H166.046Z" fill="black"/>
<path d="M181.266 22.1215V10.8596H179.346V22.1215H181.266Z" fill="black"/>
</g>
<defs>
<radialGradient id="paint0_angular_3497_38362" cx="0" cy="0" r="1" gradientUnits="userSpaceOnUse" gradientTransform="translate(15.2009 16.0885) rotate(22.5711) scale(17.2319 17.2981)">
<stop stop-color="#5050E6"/>
<stop offset="0.255208" stop-color="#1861F2"/>
<stop offset="0.551157" stop-color="#3091F2"/>
<stop offset="1" stop-color="#49D6F2"/>
</radialGradient>
<radialGradient id="paint1_angular_3497_38362" cx="0" cy="0" r="1" gradientUnits="userSpaceOnUse" gradientTransform="translate(15.2009 16.0885) rotate(22.5711) scale(17.2319 17.2981)">
<stop stop-color="#5050E6"/>
<stop offset="0.255208" stop-color="#1861F2"/>
<stop offset="0.551157" stop-color="#3091F2"/>
<stop offset="1" stop-color="#49D6F2"/>
</radialGradient>
<radialGradient id="paint2_angular_3497_38362" cx="0" cy="0" r="1" gradientUnits="userSpaceOnUse" gradientTransform="translate(15.2009 16.0885) rotate(22.5711) scale(17.2319 17.2981)">
<stop stop-color="#5050E6"/>
<stop offset="0.255208" stop-color="#1861F2"/>
<stop offset="0.551157" stop-color="#3091F2"/>
<stop offset="1" stop-color="#49D6F2"/>
</radialGradient>
<clipPath id="clip0_3497_38362">
<rect width="182" height="32.1768" fill="white"/>
</clipPath>
</defs>
</svg>
