<svg width="25" height="24" viewBox="0 0 25 24" fill="none" xmlns="http://www.w3.org/2000/svg">
<path fill-rule="evenodd" clip-rule="evenodd" d="M14.6777 9.87868C15.8493 11.0503 15.8493 12.9498 14.6777 14.1213C13.5061 15.2929 11.6066 15.2929 10.4351 14.1213C9.26349 12.9498 9.26349 11.0503 10.4351 9.87868C11.6066 8.70711 13.5061 8.70711 14.6777 9.87868Z" stroke="black" stroke-opacity="0.6" stroke-width="1.5" stroke-linecap="round" stroke-linejoin="round"/>
<path fill-rule="evenodd" clip-rule="evenodd" d="M16.7364 18.725C17.2394 19.228 18.0564 19.228 18.5594 18.725L19.2814 18.003C19.7844 17.5 19.7844 16.683 19.2814 16.18C18.8994 15.798 18.7874 15.225 18.9974 14.727C19.0194 14.674 19.0414 14.621 19.0624 14.567C19.2454 14.101 19.6994 13.801 20.1994 13.801H20.2664C20.9784 13.801 21.5554 13.224 21.5554 12.512V11.491C21.5554 10.779 20.9784 10.202 20.2664 10.202H20.1994C19.6994 10.202 19.2454 9.901 19.0624 9.436C19.0414 9.382 19.0194 9.329 18.9974 9.276C18.7874 8.778 18.8994 8.205 19.2814 7.823C19.7844 7.32 19.7844 6.503 19.2814 6L18.5594 5.278C18.0564 4.775 17.2394 4.775 16.7364 5.278C16.3544 5.66 15.7814 5.772 15.2834 5.562C15.2304 5.54 15.1774 5.518 15.1234 5.497C14.6574 5.311 14.3564 4.856 14.3564 4.356V4.289C14.3564 3.577 13.7794 3 13.0674 3H12.0464C11.3334 3 10.7564 3.577 10.7564 4.289V4.356C10.7564 4.856 10.4554 5.31 9.9904 5.493C9.9364 5.515 9.8834 5.536 9.8304 5.559C9.3324 5.769 8.7594 5.657 8.3774 5.275C7.8744 4.772 7.0574 4.772 6.5544 5.275L5.8314 5.997C5.3284 6.5 5.3284 7.317 5.8314 7.82C6.2134 8.202 6.3254 8.775 6.1154 9.273C6.0924 9.327 6.0714 9.38 6.0504 9.434C5.8674 9.899 5.4124 10.2 4.9124 10.2H4.8454C4.1334 10.2 3.5564 10.777 3.5564 11.489V12.51C3.5564 13.223 4.1334 13.8 4.8454 13.8H4.9124C5.4124 13.8 5.8664 14.101 6.0494 14.566C6.0704 14.62 6.0924 14.673 6.1144 14.726C6.3244 15.224 6.2124 15.797 5.8304 16.179C5.3274 16.682 5.3274 17.499 5.8304 18.002L6.5524 18.724C7.0554 19.227 7.8724 19.227 8.3754 18.724C8.7574 18.342 9.3304 18.23 9.8284 18.44C9.8814 18.462 9.9344 18.484 9.9884 18.505C10.4544 18.688 10.7544 19.142 10.7544 19.642V19.709C10.7544 20.421 11.3314 20.998 12.0434 20.998H13.0644C13.7764 20.998 14.3534 20.421 14.3534 19.709V19.642C14.3534 19.142 14.6544 18.688 15.1194 18.505C15.1734 18.484 15.2264 18.462 15.2794 18.44C15.7804 18.231 16.3534 18.343 16.7364 18.725Z" stroke="black" stroke-opacity="0.6" stroke-width="1.5" stroke-linecap="round" stroke-linejoin="round"/>
</svg>
