<svg xmlns="http://www.w3.org/2000/svg" width="32" height="32" fill="none"><g clip-path="url(#linkedIn_svg__a)"><rect width="26.4" height="26.4" y="5.6" fill="#C6CBDE" rx="5"/><rect width="26.4" height="26.4" x="4.8" y=".8" fill="#fff" stroke="#4D536E" rx="5"/><g clip-path="url(#linkedIn_svg__b)"><path fill="#069" d="M9 6.32c0-.708.596-1.284 1.33-1.284h15.34c.734 0 1.33.576 1.33 1.284v15.36c0 .71-.596 1.284-1.33 1.284H10.33c-.734 0-1.33-.575-1.33-1.284V6.32Z"/><path fill="#fff" d="M14.47 20.04v-8.072h-2.694v8.071h2.694Zm-1.346-9.174c.939 0 1.524-.62 1.524-1.394-.018-.792-.585-1.395-1.506-1.395-.922 0-1.524.603-1.524 1.395 0 .774.584 1.394 1.488 1.394h.018Zm2.837 9.173h2.693v-4.507c0-.24.018-.482.089-.654.195-.482.638-.982 1.382-.982.974 0 1.364.74 1.364 1.826v4.317h2.694v-4.628c0-2.479-1.329-3.632-3.101-3.632-1.453 0-2.091.809-2.445 1.36h.017v-1.17h-2.693c.035.756 0 8.07 0 8.07Z"/></g></g><defs><clipPath id="linkedIn_svg__a"><path fill="#fff" d="M0 0h32v32H0z"/></clipPath><clipPath id="linkedIn_svg__b"><path fill="#fff" d="M9 5h18v18H9z"/></clipPath></defs></svg>