<svg width="200" height="42" viewBox="0 0 200 42" fill="none" xmlns="http://www.w3.org/2000/svg">
<path d="M68.6484 4.67383H42.4414V9.53191H52.9848V36.3495H58.105V9.53191H68.6484V4.67383Z" fill="#12438C"/>
<path d="M69.587 15.6416L69.1156 12.8977H64.5693V36.3492H69.6939V20.8291C70.5205 19.7497 71.6105 18.9007 72.8594 18.3635C74.3 17.722 75.861 17.396 77.4378 17.4074H78.3559V12.46H77.4378C74.3075 12.46 71.6749 13.5288 69.587 15.6416Z" fill="#12438C"/>
<path d="M86.3197 3.88574H80.8936V9.31192H86.3197V3.88574Z" fill="#12438C"/>
<path d="M86.167 12.8979H81.0469V36.3494H86.167V12.8979Z" fill="#12438C"/>
<path d="M145.546 12.46C142.732 12.46 140.161 13.5522 137.89 15.7075L137.407 12.8977H132.857V36.3492H137.982V21.1073C140.063 18.564 142.284 17.2771 144.582 17.2771C147.477 17.2771 148.828 18.7925 148.828 22.0458V36.3521H153.953V21.6051C153.953 19.0267 153.2 16.8422 151.716 15.1086C150.202 13.3516 148.129 12.46 145.546 12.46Z" fill="#12438C"/>
<path d="M164.504 7.30176L155.228 16.3796V17.4513H159.384V30.4443C159.384 34.5937 161.79 36.7885 166.341 36.7885C167.803 36.7949 169.246 36.443 170.541 35.7636L170.847 35.604V31.4472H169.852L169.74 31.497C167.793 32.3623 166.114 32.2437 165.168 31.8455C164.728 31.6537 164.504 31.0651 164.504 30.0885V17.4499H170.847V12.8978H164.504V7.30176Z" fill="#12438C"/>
<path d="M179.274 3.88574H173.848V9.31192H179.274V3.88574Z" fill="#12438C"/>
<path d="M179.119 12.8979H173.999V36.3494H179.119V12.8979Z" fill="#12438C"/>
<path d="M198.54 25.3301C197.61 24.2422 196.367 23.4672 194.981 23.1104L191.107 22.0943C190.004 21.8184 188.93 21.4359 187.901 20.9522C186.948 20.4895 186.837 19.9273 186.837 19.5481C186.837 18.9258 187.186 18.409 187.901 17.9683C188.695 17.4792 189.985 17.2362 191.736 17.2362C193.518 17.2362 195.372 17.6344 197.249 18.4177L197.354 18.4617H198.344V13.8598L197.972 13.7222C195.639 12.8686 193.171 12.4411 190.686 12.4601C188.02 12.4601 185.871 13.1556 184.297 14.526C182.701 15.917 181.893 17.7472 181.893 19.9434C181.893 21.5745 182.401 22.942 183.404 24.0079C184.369 25.0396 185.606 25.7767 186.973 26.1339L190.828 27.1676C191.913 27.4459 192.97 27.8187 193.989 28.2818C195.014 28.7664 195.014 29.2569 195.014 29.418C195.014 30.5146 194.575 31.9729 190.727 31.9729C188.091 31.9936 185.499 31.2951 183.231 29.9524L183.096 29.8733H182.152V34.585L182.445 34.7475C184.91 36.1004 187.675 36.7871 190.66 36.7871C193.683 36.7871 196.014 36.1238 197.585 34.8178C199.187 33.4854 200 31.8265 200 29.8865C200.004 27.9846 199.511 26.4501 198.54 25.3301Z" fill="#12438C"/>
<path d="M119.798 12.46C118.388 12.4629 116.991 12.726 115.676 13.236C114.341 13.7489 113.125 14.532 112.107 15.5362C111.025 16.6306 110.178 17.9345 109.617 19.3679C108.994 20.8965 108.678 22.7018 108.678 24.7355C108.661 26.3691 108.908 27.9947 109.41 29.5496C109.872 30.9987 110.661 32.3223 111.715 33.4184C112.77 34.5145 114.062 35.3539 115.492 35.8719C117.045 36.4751 118.897 36.7811 120.998 36.7811C121.812 36.7815 122.626 36.7365 123.435 36.6464C124.231 36.5571 124.982 36.4458 125.665 36.3141C126.284 36.1994 126.898 36.0528 127.502 35.8748C127.909 35.7558 128.307 35.609 128.694 35.4356L127.987 31.2041C127.153 31.5122 126.297 31.7526 125.425 31.923C124.196 32.1723 122.945 32.293 121.691 32.2832C119.369 32.2832 117.571 31.7576 116.344 30.7195C115.117 29.6814 114.41 28.1938 114.256 26.3007L114.247 26.1967H130.19C130.217 25.9273 130.237 25.6198 130.252 25.2831C130.267 24.8965 130.274 24.57 130.274 24.2831C130.274 20.3679 129.343 17.3839 127.507 15.4161C125.671 13.4483 123.078 12.46 119.798 12.46ZM124.878 22.4163H114.288L114.303 22.3079C114.396 21.6136 114.568 20.9323 114.815 20.2771C115.057 19.6273 115.414 19.0269 115.871 18.5055C116.366 17.9439 116.978 17.498 117.665 17.1995C118.351 16.9009 119.095 16.7569 119.843 16.7778C120.595 16.7615 121.342 16.9115 122.029 17.217C122.627 17.4955 123.158 17.9001 123.586 18.403C124.02 18.9257 124.348 19.5286 124.55 20.1776C124.771 20.8731 124.881 21.5988 124.878 22.3284V22.4163Z" fill="#12438C"/>
<path d="M102.262 12.2988C94.7507 12.2988 88.875 17.6489 88.875 24.4806V24.57C88.875 31.3271 94.7316 36.6185 102.219 36.6185C104.963 36.6185 107.287 36.0724 109.321 34.9465L109.263 34.8952C109.176 34.8147 109.086 34.7342 109.004 34.6463C108.08 33.6495 107.334 32.5016 106.798 31.2524C105.484 31.9627 104.012 32.3289 102.518 32.3168C97.9279 32.3168 94.4652 28.9493 94.4652 24.4806V24.3913C94.4652 20.0472 97.8723 16.6445 102.225 16.6445C103.842 16.6237 105.434 17.0449 106.829 17.8626C107.452 16.4116 108.335 15.0863 109.433 13.9519C107.402 12.8362 105.054 12.2988 102.262 12.2988Z" fill="#12438C"/>
<path d="M5.10114 33.3314L0 28.2302L7.66927 20.561L0.0571023 12.9488L5.15824 7.84766L17.8715 20.561L5.10114 33.3314Z" fill="#12438C"/>
<path d="M12.9346 41.1665L7.83496 36.0653L20.6054 23.2949L33.3187 36.0082L28.2175 41.1079L20.6054 33.4972L12.9346 41.1665Z" fill="#12438C"/>
<path d="M20.561 17.8715L7.84766 5.15824L12.9488 0.0585664L20.561 7.67074L28.2302 0L33.3314 5.10114L20.561 17.8715Z" fill="#12438C"/>
</svg>
