<svg width="89" height="158" fill="none" xmlns="http://www.w3.org/2000/svg"><path fill-rule="evenodd" clip-rule="evenodd" d="M88.733 19.478a7.66 7.66 0 0 0 .028-.652C88.76 8.741 68.906.566 44.413.566S.065 8.74.065 18.825c0 .218.01.436.028.652H.065L1.16 31.87h12.216c7.999 3.227 18.954 5.217 31.037 5.217 12.083 0 23.038-1.99 31.036-5.217h12.217l1.095-12.392h-.028Z" fill="#86BAFA"/><path fill-rule="evenodd" clip-rule="evenodd" d="M88.733 19.478a7.66 7.66 0 0 0 .028-.652C88.76 8.741 68.906.566 44.413.566S.065 8.74.065 18.825c0 .218.01.436.028.652H.065L1.16 31.87h12.216c7.999 3.227 18.954 5.217 31.037 5.217 12.083 0 23.038-1.99 31.036-5.217h12.217l1.095-12.392h-.028Z" fill="url(#a)" fill-opacity=".5"/><ellipse cx="44.413" cy="31.218" rx="43.253" ry="17.609" transform="rotate(180 44.413 31.218)" fill="#70AEF9"/><path d="M1.486 31.218c0-2.315 1.151-4.552 3.3-6.62 2.148-2.068 5.275-3.946 9.165-5.53 7.78-3.167 18.55-5.133 30.462-5.133 11.912 0 22.682 1.966 30.461 5.133 3.89 1.584 7.018 3.462 9.167 5.53 2.148 2.068 3.299 4.305 3.299 6.62 0 2.314-1.151 4.551-3.3 6.619-2.148 2.068-5.275 3.946-9.166 5.53-7.779 3.167-18.549 5.133-30.461 5.133-11.912 0-22.682-1.966-30.461-5.133-3.891-1.584-7.018-3.462-9.167-5.53-2.148-2.068-3.299-4.305-3.299-6.62Z" stroke="url(#b)" stroke-opacity=".5" stroke-width=".652"/><path fill-rule="evenodd" clip-rule="evenodd" d="M12.11 34.85c0-17.017 64.606-17.017 64.606 0 0 17.515-9.825 32.298-23.27 36.953-1.73.599-3.01 2.158-3.01 3.989v.57c0 1.83 1.28 3.39 3.01 3.989 13.445 4.655 23.27 19.437 23.27 36.953 0 17.017-64.605 17.017-64.605 0 0-17.516 9.825-32.299 23.27-36.954 1.73-.599 3.01-2.157 3.01-3.988v-.57c0-1.83-1.28-3.39-3.01-3.989-13.445-4.655-23.27-19.437-23.27-36.953Z" fill="#9DC5F8"/><path fill-rule="evenodd" clip-rule="evenodd" d="M17.038 38.35c0-14.727 54.75-14.727 54.75 0 0 16.02-9.298 29.398-21.687 32.583-1.953.502-3.498 2.153-3.498 4.17v2.232c0 2.016 1.545 3.667 3.496 4.17 12.695 3.27 22.237 17.272 22.237 34.05 0 15.377-55.846 15.377-55.846 0 0-16.778 9.542-30.78 22.236-34.05 1.952-.503 3.497-2.154 3.497-4.17v-2.233c0-2.016-1.546-3.667-3.498-4.17-12.39-3.184-21.687-16.562-21.687-32.582Z" fill="#E5EDFF"/><mask id="c" style="mask-type:alpha" maskUnits="userSpaceOnUse" x="16" y="27" width="57" height="101"><path fill-rule="evenodd" clip-rule="evenodd" d="M17.038 38.35c0-14.727 54.75-14.727 54.75 0 0 16.02-9.297 29.398-21.686 32.583-1.953.502-3.498 2.153-3.498 4.169v2.233c0 2.016 1.545 3.667 3.496 4.17 12.695 3.27 22.236 17.272 22.236 34.049 0 15.378-55.845 15.378-55.845 0 0-16.777 9.542-30.779 22.236-34.05 1.952-.502 3.497-2.154 3.497-4.169v-2.233c0-2.016-1.546-3.667-3.498-4.17-12.39-3.184-21.688-16.562-21.688-32.582Z" fill="#E5EDFF"/></mask><g mask="url(#c)"><path fill-rule="evenodd" clip-rule="evenodd" d="M46.684 74.945c.416-1.109 1.527-1.791 2.71-1.715 10.226.657 18.114-1.816 19.445-6.784 1.82-6.795-9.316-15.684-24.876-19.853-15.56-4.17-29.65-2.04-31.47 4.755-1.82 6.795 9.317 15.684 24.876 19.853.708.19 1.413.366 2.114.53.835.195 1.534.77 1.864 1.562l1.27 3.049a1.919 1.919 0 0 0 3.568-.064l.5-1.333Z" fill="#D2D755"/><ellipse cx="42.045" cy="51.765" rx="25.227" ry="5.87" transform="rotate(15 42.045 51.765)" fill="#D2D755"/><ellipse cx="42.045" cy="51.765" rx="25.227" ry="5.87" transform="rotate(15 42.045 51.765)" fill="#fff" fill-opacity=".2"/><path fill-rule="evenodd" clip-rule="evenodd" d="M38.921 133.392c-2.258-1.306-3.767-4.358-6.219-5.25-9.695-3.529-20.948-10.463-19.121-20.851 1.597-9.08 14.415-8.95 32.488-5.771 18.073 3.178 29.268 6.213 27.57 15.865-2.064 11.742-14.634 14.182-24.524 13.925-2.606-.067-5.141 2.192-7.72 2.56a3.83 3.83 0 0 1-1.213-.02 3.825 3.825 0 0 1-1.26-.458Z" fill="#D2D755"/><ellipse cx="45.613" cy="104.993" rx="27.3" ry="5.6" transform="rotate(9.974 45.613 104.993)" fill="#D2D755"/><ellipse cx="45.613" cy="104.993" rx="27.3" ry="5.6" transform="rotate(9.974 45.613 104.993)" fill="#fff" fill-opacity=".2"/></g><g filter="url(#d)"><path fill-rule="evenodd" clip-rule="evenodd" d="M83.286 32.522c0-.72-.98-1.304-2.19-1.304s-2.19.584-2.19 1.304v93.913h4.38V32.522Zm-77.746 0v93.913h4.38V32.522c0-.72-.98-1.304-2.19-1.304s-2.19.584-2.19 1.304Z" fill="#595F75"/></g><path fill-rule="evenodd" clip-rule="evenodd" d="M87.636 126.435h.03l1.094 12.391H76.652c-7.92 3.603-19.43 5.87-32.24 5.87-12.81 0-24.32-2.267-32.24-5.87H.066l1.095-12.391h.029c.843-9.423 19.872-16.956 43.223-16.956 23.352 0 42.381 7.533 43.224 16.956Z" fill="#86BAFA"/><path fill-rule="evenodd" clip-rule="evenodd" d="M87.636 126.435h.03l1.094 12.391H76.652c-7.92 3.603-19.43 5.87-32.24 5.87-12.81 0-24.32-2.267-32.24-5.87H.066l1.095-12.391h.029c.843-9.423 19.872-16.956 43.223-16.956 23.352 0 42.381 7.533 43.224 16.956Z" fill="url(#e)" fill-opacity=".5"/><ellipse cx="44.413" cy="138.826" rx="44.348" ry="18.261" fill="#70AEF9"/><defs><radialGradient id="a" cx="0" cy="0" r="1" gradientUnits="userSpaceOnUse" gradientTransform="matrix(107.03672 -17.28255 12.343 76.44444 30.725 28.935)"><stop offset=".345" stop-color="#fff" stop-opacity="0"/><stop offset=".916" stop-color="#fff"/></radialGradient><radialGradient id="b" cx="0" cy="0" r="1" gradientUnits="userSpaceOnUse" gradientTransform="rotate(118.489 24.998 17.245) scale(36.7304 46.4018)"><stop stop-color="#fff"/><stop offset="1" stop-color="#fff" stop-opacity="0"/></radialGradient><linearGradient id="e" x1="193.881" y1="59.913" x2="171.513" y2="173.745" gradientUnits="userSpaceOnUse"><stop offset=".117" stop-color="#fff"/><stop offset="1" stop-color="#fff" stop-opacity="0"/></linearGradient><filter id="d" x="5.54" y="31.218" width="79.05" height="95.87" filterUnits="userSpaceOnUse" color-interpolation-filters="sRGB"><feFlood flood-opacity="0" result="BackgroundImageFix"/><feBlend in="SourceGraphic" in2="BackgroundImageFix" result="shape"/><feColorMatrix in="SourceAlpha" values="0 0 0 0 0 0 0 0 0 0 0 0 0 0 0 0 0 0 127 0" result="hardAlpha"/><feOffset dx="1.304" dy=".652"/><feGaussianBlur stdDeviation="1.304"/><feComposite in2="hardAlpha" operator="arithmetic" k2="-1" k3="1"/><feColorMatrix values="0 0 0 0 0 0 0 0 0 0 0 0 0 0 0 0 0 0 0.3 0"/><feBlend in2="shape" result="effect1_innerShadow_213_368"/></filter></defs></svg>