<svg width="18" height="18" fill="none" xmlns="http://www.w3.org/2000/svg">
  <path d="M10.86 1H5.14C3.96 1 3 1.97 3 3.18v11.64c0 1.2.96 2.18 2.14 2.18h5.72c1.18 0 2.14-.97 2.14-2.18V3.18C13 1.98 12.04 1 10.86 1Zm0 11.8c0 .31-.26.56-.59.56H5.73a.57.57 0 0 1-.59-.56V3.74c0-.3.26-.56.59-.56h4.54c.33 0 .59.25.59.56v9.06ZM9.43 15.4c0 .08-.08.16-.17.16H6.74a.16.16 0 0 1-.17-.16v-.41c0-.09.08-.16.17-.16h2.52c.1 0 .17.07.17.16v.4Z" fill="#1B2331"/>
  <path d="M7 9.75C7 10.99 8.1 12 9.47 12h6.33c1.22 0 2.2-.9 2.2-2 0-.97-.76-1.78-1.76-1.96.07-.17.11-.35.11-.54 0-.83-.74-1.5-1.65-1.5-.34 0-.65.1-.92.25A2.8 2.8 0 0 0 11.4 5C9.88 5 8.65 6.12 8.65 7.5v.13A2.28 2.28 0 0 0 7 9.75Z" fill="url(#a)"/>
  <defs>
    <linearGradient id="a" x1="1.5" y1="8.47" x2="7.77" y2="18.4" gradientUnits="userSpaceOnUse">
      <stop stop-color="#7093FF"/>
      <stop offset="1" stop-color="#3D5AFE"/>
    </linearGradient>
  </defs>
</svg>