<?xml version="1.0" encoding="utf-8"?>
<!-- Generator: Adobe Illustrator 27.1.0, SVG Export Plug-In . SVG Version: 6.00 Build 0)  -->
<svg version="1.1" id="Livello_1" xmlns="http://www.w3.org/2000/svg" xmlns:xlink="http://www.w3.org/1999/xlink" x="0px" y="0px"
	 viewBox="0 0 2225.3 1921.9" style="enable-background:new 0 0 2225.3 1921.9;" xml:space="preserve">
<style type="text/css">
	.st0{fill:#EEEEEE;}
	.st1{fill:#DB4437;}
	.st2{fill:#0F9D58;}
	.st3{fill:#FFCD40;}
	.st4{fill:#F1F1F1;}
	.st5{fill:#4285F4;}
	.st6{opacity:5.000000e-02;fill:#212121;enable-background:new    ;}
	.st7{opacity:2.000000e-02;fill:#212121;enable-background:new    ;}
	.st8{opacity:5.000000e-02;fill:#FFFFFF;enable-background:new    ;}
	.st9{opacity:0.1;fill:#231F20;enable-background:new    ;}
</style>
<g>
	<path class="st0" d="M1287.3,576.7H938c-38.6,0-69.9-31.3-69.9-69.9c0-38.5,31.3-69.8,69.9-69.8h349.4c38.6,0,69.9,31.3,69.9,69.8
		C1357.2,545.4,1325.9,576.7,1287.3,576.7z M344,297.1V1520c0,57.6,47.2,104.8,104.8,104.8h1327.7c57.6,0,104.8-47.2,104.8-104.8
		V297.1H344z"/>
	<path class="st1" d="M1112.7,856.1c-234.3,0-440.3,121.4-558.4,304.7v463.9h323.7l234.7-406.6h591.4
		C1594.2,1003.3,1370.6,856.1,1112.7,856.1z"/>
	<path class="st2" d="M554.1,1161.1c-66.6,103.5-105.3,226.7-105.3,358.9c0,35.6,2.8,70.7,8.3,104.8h367.4L554.1,1161.1z"/>
	<path class="st3" d="M1776.5,1520c0-108.7-26.1-211.3-72.4-301.8h-591.4l234.7,406.6h420.8
		C1773.7,1590.7,1776.5,1555.6,1776.5,1520z"/>
	<path class="st4" d="M1112.7,1218.2c-166.7,0-301.8,135.1-301.8,301.8c0,36.9,6.6,72.2,18.7,104.8h65.5
		c-15.3-31.7-23.9-67.3-23.9-104.8c0-133.4,108.1-241.4,241.4-241.4c133.3,0,241.4,108,241.4,241.4c0,37.6-8.6,73.1-23.9,104.8h65.5
		c12.1-32.7,18.7-68,18.7-104.8C1414.4,1353.3,1279.3,1218.2,1112.7,1218.2z"/>
	<path class="st5" d="M1112.7,1278.6c-133.3,0-241.4,108-241.4,241.4c0,37.6,8.6,73.1,23.9,104.8h435.1
		c15.3-31.7,23.9-67.3,23.9-104.8C1354.1,1386.6,1246,1278.6,1112.7,1278.6z"/>
	<path class="st6" d="M344,297.1V961h1537.3V297.1H344z M1287.3,576.7H938c-38.6,0-69.9-31.3-69.9-69.9c0-38.5,31.3-69.8,69.9-69.8
		h349.4c38.6,0,69.9,31.3,69.9,69.8C1357.2,545.4,1325.9,576.7,1287.3,576.7z"/>
	<rect x="344" y="952.2" class="st7" width="1537.3" height="8.8"/>
	<rect x="344" y="961" class="st8" width="1537.3" height="8.8"/>
	<path class="st7" d="M344,297.1v8.8h1537.3v-8.8H344z M1287.3,576.7H938c-37.1,0-67.4-29-69.6-65.5c-0.2,1.5-0.3,2.9-0.3,4.4
		c0,38.6,31.3,69.8,69.9,69.8h349.4c38.6,0,69.9-31.2,69.9-69.8c0-1.5-0.1-2.9-0.3-4.4C1354.8,547.6,1324.5,576.7,1287.3,576.7z"/>
	<path class="st9" d="M1776.5,1616H448.8c-57.6,0-104.8-47.1-104.8-104.8v8.8c0,57.6,47.2,104.8,104.8,104.8h1327.7
		c57.6,0,104.8-47.2,104.8-104.8v-8.8C1881.3,1568.9,1834.1,1616,1776.5,1616z M938,436.9h349.4c37.1,0,67.4,29,69.6,65.5
		c0.1-1.5,0.3-2.9,0.3-4.4c0-38.6-31.3-69.9-69.9-69.9H938c-38.6,0-69.9,31.3-69.9,69.9c0,1.5,0.1,2.9,0.3,4.4
		C870.5,465.9,900.8,436.9,938,436.9z"/>
</g>
</svg>
