<svg width="278" height="246" fill="none" xmlns="http://www.w3.org/2000/svg"><path d="M131.292 9.597V0" stroke="#000" stroke-width=".31"/><g filter="url(#a)"><path d="M58.777 59.886c-1.64-7.9-8.498-14.36-16.627-15.125-6.453-.607-12 2.553-14.706 7.687-6.71.087-11.846 5.33-11.736 12.277.116 7.443 6.218 14.056 13.61 14.752l29.03 2.731c6.162.58 11.085-3.986 10.988-10.192-.094-5.936-4.747-11.179-10.56-12.13Z" fill="#5B5D7B"/></g><path d="M71.865 51.989c-2.14-10.31-11.088-18.74-21.694-19.738-8.42-.792-15.658 3.332-19.189 10.031-8.755.114-15.455 6.954-15.313 16.02.153 9.713 8.114 18.343 17.758 19.25l37.877 3.565c8.041.757 16.367-5.302 16.24-13.4-.122-7.747-8.096-14.487-15.68-15.728Z" fill="#768ABA"/><path d="M71.865 51.989c-2.14-10.31-11.088-18.74-21.694-19.738-8.42-.792-15.658 3.332-19.189 10.031-8.755.114-15.455 6.954-15.313 16.02.153 9.713 8.114 18.343 17.758 19.25l37.877 3.565c8.041.757 16.367-5.302 16.24-13.4-.122-7.747-8.096-14.487-15.68-15.728Z" fill="url(#b)" fill-opacity=".8"/><path d="m75.237 48.474.123.593.59.097c7.185 1.176 12.932 7.654 13.047 14.986.12 7.671-5.965 13.312-13.578 12.596l-37.876-3.564c-9.216-.867-16.828-9.115-16.974-18.4-.136-8.668 6.27-15.205 14.635-15.313l.411-.006.185-.35c3.409-6.466 10.391-10.441 18.511-9.677 10.228.962 18.861 9.092 20.926 19.038Z" fill="#C9D9FE"/><path d="m75.237 48.474.123.593.59.097c7.185 1.176 12.932 7.654 13.047 14.986.12 7.671-5.965 13.312-13.578 12.596l-37.876-3.564c-9.216-.867-16.828-9.115-16.974-18.4-.136-8.668 6.27-15.205 14.635-15.313l.411-.006.185-.35c3.409-6.466 10.391-10.441 18.511-9.677 10.228.962 18.861 9.092 20.926 19.038Z" fill="url(#c)" fill-opacity=".6"/><path d="m75.237 48.474.123.593.59.097c7.185 1.176 12.932 7.654 13.047 14.986.12 7.671-5.965 13.312-13.578 12.596l-37.876-3.564c-9.216-.867-16.828-9.115-16.974-18.4-.136-8.668 6.27-15.205 14.635-15.313l.411-.006.185-.35c3.409-6.466 10.391-10.441 18.511-9.677 10.228.962 18.861 9.092 20.926 19.038Z" stroke="url(#d)" stroke-width="1.55"/><g filter="url(#e)"><path d="M70.229 210.608c-4.277-1.275-3.335-7.588 1.132-7.588h149.732c2.306 0 4.598.343 6.8 1.018l24.016 7.358c3.336 1.022 2.68 5.928-.811 6.061l-136.215 5.178a23.193 23.193 0 0 1-7.518-.951l-37.136-11.076Z" fill="#595F75" fill-opacity=".7"/></g><g filter="url(#f)"><path d="m204.172 177.196.761-93.319a8.44 8.44 0 0 0-7.285-8.43L64.016 56.648c-5.07-.713-9.656 3.156-9.792 8.26l-2.858 106.838c-.124 4.632 3.495 8.484 8.141 8.665l135.729 5.279c4.84.189 8.897-3.668 8.936-8.494Z" fill="#7693CF"/></g><g filter="url(#g)"><path d="m204.947 177.196.761-93.319a8.44 8.44 0 0 0-7.285-8.43L64.791 56.648c-5.07-.713-9.656 3.156-9.792 8.26L52.14 171.746c-.124 4.632 3.495 8.484 8.141 8.665l135.729 5.279c4.84.189 8.897-3.668 8.936-8.494Z" fill="#8BADF3"/><path d="m204.947 177.196.761-93.319a8.44 8.44 0 0 0-7.285-8.43L64.791 56.648c-5.07-.713-9.656 3.156-9.792 8.26L52.14 171.746c-.124 4.632 3.495 8.484 8.141 8.665l135.729 5.279c4.84.189 8.897-3.668 8.936-8.494Z" fill="url(#h)"/></g><g filter="url(#i)"><path d="m200.762 175.803 1.645-92.135a5.371 5.371 0 0 0-4.683-5.424l-131.356-17.3c-3.23-.426-6.127 2.06-6.185 5.31l-1.855 102.934a5.374 5.374 0 0 0 5.125 5.464l131.566 6.501c3.08.153 5.688-2.278 5.743-5.35Z" fill="#F7F5F5"/><path d="m200.762 175.803 1.645-92.135a5.371 5.371 0 0 0-4.683-5.424l-131.356-17.3c-3.23-.426-6.127 2.06-6.185 5.31l-1.855 102.934a5.374 5.374 0 0 0 5.125 5.464l131.566 6.501c3.08.153 5.688-2.278 5.743-5.35Z" fill="url(#j)"/><path d="m200.762 175.803 1.645-92.135a5.371 5.371 0 0 0-4.683-5.424l-131.356-17.3c-3.23-.426-6.127 2.06-6.185 5.31l-1.855 102.934a5.374 5.374 0 0 0 5.125 5.464l131.566 6.501c3.08.153 5.688-2.278 5.743-5.35Z" fill="url(#k)"/></g><path d="m269.935 214.114-55.018-26.279a23.247 23.247 0 0 0-8.911-2.244l-143.966-6.88a3.868 3.868 0 0 0-2.593 6.888l39.392 31.363a23.243 23.243 0 0 0 14.48 5.061h154.946a3.875 3.875 0 0 0 3.875-3.875v-.538a3.874 3.874 0 0 0-2.205-3.496Z" fill="#516389"/><g filter="url(#l)"><path d="m269.935 213.563-55.018-26.279a23.247 23.247 0 0 0-8.911-2.244L62.04 178.161a3.866 3.866 0 0 0-2.593 6.888l39.392 31.362a23.243 23.243 0 0 0 14.48 5.061h154.946a3.875 3.875 0 0 0 3.875-3.875v-.538a3.874 3.874 0 0 0-2.205-3.496Z" fill="#86BAFA"/><path d="m269.935 213.563-55.018-26.279a23.247 23.247 0 0 0-8.911-2.244L62.04 178.161a3.866 3.866 0 0 0-2.593 6.888l39.392 31.362a23.243 23.243 0 0 0 14.48 5.061h154.946a3.875 3.875 0 0 0 3.875-3.875v-.538a3.874 3.874 0 0 0-2.205-3.496Z" fill="url(#m)"/></g><path d="m264.28 210.654-44.63-21.934c-4.362-2.143-6.543-3.215-8.881-3.812s-4.766-.702-9.622-.912l-134.538-5.807c-3.993-.172-5.989-.258-6.379.805-.39 1.064 1.188 2.289 4.343 4.74l30.191 23.451c6.265 4.867 9.398 7.3 13.081 8.557 3.684 1.256 7.65 1.244 15.584 1.22l139.494-.426c5.233-.016 7.85-.024 8.127-1.222.276-1.197-2.073-2.351-6.77-4.66Z" fill="#86BAFA"/><path d="m264.28 210.654-44.63-21.934c-4.362-2.143-6.543-3.215-8.881-3.812s-4.766-.702-9.622-.912l-134.538-5.807c-3.993-.172-5.989-.258-6.379.805-.39 1.064 1.188 2.289 4.343 4.74l30.191 23.451c6.265 4.867 9.398 7.3 13.081 8.557 3.684 1.256 7.65 1.244 15.584 1.22l139.494-.426c5.233-.016 7.85-.024 8.127-1.222.276-1.197-2.073-2.351-6.77-4.66Z" fill="url(#n)"/><path d="M203.196 186.977a.38.38 0 0 0-.148-.037l-10.044-.44c-.421-.019-.568.552-.19.735l3.898 1.885a.378.378 0 0 0 .155.039l9.946.348c.421.014.563-.557.183-.737l-3.8-1.793ZM193.209 189.031c.418.014.563-.549.19-.734l-3.874-1.917a.394.394 0 0 0-.155-.039l-11.489-.504c-.416-.018-.567.543-.197.732l3.967 2.021c.05.025.106.04.162.042l11.396.399ZM178.001 188.498c.415.015.563-.543.194-.731l-4.039-2.058a.395.395 0 0 0-.159-.042l-11.938-.523c-.41-.018-.567.528-.208.726l3.916 2.158a.387.387 0 0 0 .173.048l12.061.422ZM197.454 190.304a.37.37 0 0 0-.159-.04l-11.438-.361c-.414-.013-.561.544-.192.732l3.816 1.944a.385.385 0 0 0 .166.042l11.441.306c.416.011.558-.55.186-.734l-3.82-1.889ZM182.073 189.784a.383.383 0 0 1 .163.042l3.855 1.964c.367.187.223.742-.191.731l-12.498-.334a.389.389 0 0 1-.176-.047l-3.661-2.018c-.356-.196-.204-.738.204-.726l12.304.388ZM205.32 194.195a.388.388 0 0 0-.163-.04l-11.488-.27c-.412-.01-.556.545-.189.732l5.53 2.817a.382.382 0 0 0 .167.042l11.649.268c.415.01.556-.55.185-.733l-5.691-2.816ZM189.948 193.798a.381.381 0 0 1 .166.042l5.533 2.819c.367.187.224.741-.189.731l-49.351-1.137a.375.375 0 0 1-.19-.055l-4.711-2.821c-.341-.204-.186-.728.212-.719l48.53 1.14ZM169.608 192.086c.404.011.556-.524.206-.723l-3.578-2.033a.386.386 0 0 0-.179-.051l-13.413-.422c-.404-.013-.559.52-.21.722l3.634 2.099a.387.387 0 0 0 .183.051l13.357.357ZM162.326 187.949c.405.015.561-.523.209-.723l-3.849-2.187a.393.393 0 0 0-.174-.05l-13.591-.595c-.406-.018-.566.519-.215.721l4.003 2.313a.393.393 0 0 0 .18.051l13.437.47ZM144.498 187.325c.406.015.561-.525.208-.723l-4.191-2.36a.401.401 0 0 0-.173-.049l-14.078-.617c-.403-.017-.565.513-.22.719l3.544 2.123c.448.268.959.419 1.483.437l13.427.47ZM148.383 188.723a.392.392 0 0 1 .178.049l3.771 2.123c.352.198.2.735-.204.724l-14.402-.385a.38.38 0 0 1-.188-.054l-3.654-2.189c-.342-.205-.184-.731.216-.718l14.283.45ZM133.535 191.122c.4.011.555-.516.211-.72l-3.145-1.858a3.098 3.098 0 0 0-1.478-.428l-14.418-.455c-.392-.012-.556.496-.229.711l2.82 1.853a3.102 3.102 0 0 0 1.618.507l14.621.39ZM121.371 192.903c-.325-.214-.164-.719.226-.71l14.999.352c.53.012 1.048.16 1.503.429l4.174 2.466c.343.203.189.729-.21.72l-15.419-.355a3.093 3.093 0 0 1-1.629-.508l-3.644-2.394ZM121.247 195.68c.387.009.55-.489.231-.706l-3.477-2.369a3.091 3.091 0 0 0-1.67-.536l-16.53-.388c-.378-.009-.546.472-.243.697l3.104 2.306a3.097 3.097 0 0 0 1.774.609l16.811.387ZM113.781 190.595c.388.01.552-.49.233-.707l-2.717-1.851a3.095 3.095 0 0 0-1.645-.535l-16.159-.509c-.38-.012-.55.472-.246.698l2.505 1.861c.51.379 1.126.591 1.763.608l16.266.435ZM107.292 185.308c.32.219.153.72-.236.707l-15.895-.557a3.099 3.099 0 0 1-1.738-.607l-3.118-2.317c-.306-.227-.13-.714.251-.697l15.835.694c.575.025 1.132.21 1.607.533l3.294 2.244ZM106.99 183.452c-.328-.215-.16-.727.234-.71l13.868.608a3.094 3.094 0 0 1 1.44.427l3.693 2.181c.345.204.187.734-.215.72l-14.037-.491a3.1 3.1 0 0 1-1.592-.506l-3.391-2.229ZM211.152 190.732a.405.405 0 0 0-.154-.037l-9.975-.314c-.419-.013-.562.553-.186.735l3.873 1.874a.4.4 0 0 0 .159.038l9.97.266c.419.012.558-.557.18-.736l-3.867-1.826ZM219.169 194.517a.401.401 0 0 0-.156-.037l-10.005-.235c-.417-.009-.557.554-.182.735l5.823 2.818c.05.024.105.037.16.038l10.147.234c.419.01.557-.558.179-.737l-5.966-2.816Z" fill="#6D85B7"/><g filter="url(#o)" fill="#F2F8FF"><path d="M203.198 186.639a.385.385 0 0 0-.149-.037l-10.043-.44c-.421-.019-.568.552-.19.735l3.897 1.885a.386.386 0 0 0 .156.039l9.945.348c.421.014.564-.557.183-.737l-3.799-1.793ZM193.211 188.693c.417.014.563-.549.189-.734l-3.874-1.917a.39.39 0 0 0-.154-.039l-11.489-.504c-.417-.018-.568.543-.197.732l3.967 2.021c.05.025.105.04.162.042l11.396.399ZM178.003 188.16c.415.015.562-.543.193-.731l-4.038-2.058a.4.4 0 0 0-.159-.042l-11.939-.523c-.409-.018-.566.528-.208.726l3.916 2.158a.391.391 0 0 0 .174.048l12.061.422ZM197.456 189.966a.371.371 0 0 0-.16-.04l-11.438-.361c-.414-.013-.56.544-.192.732l3.817 1.944a.381.381 0 0 0 .166.042l11.44.306c.416.011.558-.55.187-.734l-3.82-1.889ZM182.074 189.446a.39.39 0 0 1 .164.042l3.854 1.964c.368.187.223.742-.19.731l-12.498-.334a.382.382 0 0 1-.177-.048l-3.66-2.017c-.356-.196-.204-.739.203-.726l12.304.388ZM205.321 193.857a.38.38 0 0 0-.163-.04l-11.487-.27c-.413-.01-.556.545-.189.732l5.529 2.817a.39.39 0 0 0 .167.042l11.65.268c.415.01.556-.55.185-.733l-5.692-2.816ZM189.949 193.46a.39.39 0 0 1 .167.042l5.533 2.819c.366.187.223.741-.189.731l-49.352-1.137a.377.377 0 0 1-.19-.055l-4.71-2.821c-.341-.204-.186-.728.212-.719l48.529 1.14ZM169.61 191.748c.403.011.556-.524.205-.723l-3.577-2.033a.39.39 0 0 0-.179-.051l-13.414-.422c-.403-.013-.558.52-.21.722l3.634 2.099a.393.393 0 0 0 .183.051l13.358.357ZM162.328 187.611c.405.015.56-.523.209-.723l-3.849-2.187a.394.394 0 0 0-.175-.05l-13.591-.595c-.405-.018-.565.519-.214.721l4.003 2.313a.393.393 0 0 0 .18.051l13.437.47ZM144.499 186.987c.407.015.561-.525.208-.723l-4.19-2.36a.405.405 0 0 0-.173-.049l-14.079-.617c-.402-.017-.564.513-.22.719l3.544 2.123c.449.268.959.419 1.483.437l13.427.47ZM148.385 188.385a.4.4 0 0 1 .178.049l3.771 2.123c.352.198.2.735-.205.724l-14.401-.385a.38.38 0 0 1-.189-.054l-3.653-2.189c-.342-.205-.185-.731.215-.718l14.284.45ZM133.537 190.784c.4.011.555-.516.211-.72l-3.145-1.858a3.098 3.098 0 0 0-1.478-.428l-14.419-.455c-.391-.012-.555.496-.229.711l2.82 1.853a3.102 3.102 0 0 0 1.618.507l14.622.39ZM121.373 192.565c-.325-.214-.164-.719.225-.71l15 .352c.53.012 1.047.16 1.503.429l4.173 2.466c.343.203.19.729-.21.72l-15.418-.355a3.096 3.096 0 0 1-1.63-.508l-3.643-2.394ZM121.249 195.342c.386.009.549-.489.231-.706l-3.477-2.369a3.094 3.094 0 0 0-1.671-.536l-16.529-.388c-.378-.009-.547.472-.244.697l3.104 2.306a3.103 3.103 0 0 0 1.775.609l16.811.387ZM113.783 190.257c.387.01.551-.49.232-.707l-2.716-1.851a3.1 3.1 0 0 0-1.646-.535l-16.158-.509c-.38-.012-.551.472-.247.698l2.506 1.861c.51.379 1.125.591 1.763.608l16.266.435ZM107.293 184.97c.321.219.153.72-.235.707l-15.896-.557a3.1 3.1 0 0 1-1.737-.607l-3.119-2.317c-.306-.227-.13-.714.252-.697l15.834.694a3.1 3.1 0 0 1 1.608.533l3.293 2.244ZM106.992 183.114c-.329-.215-.16-.727.233-.71l13.869.608a3.097 3.097 0 0 1 1.44.427l3.692 2.181c.345.204.187.734-.214.72l-14.037-.491a3.096 3.096 0 0 1-1.592-.506l-3.391-2.229ZM211.153 190.394a.405.405 0 0 0-.153-.037l-9.976-.314c-.418-.013-.561.553-.185.735l3.873 1.874a.39.39 0 0 0 .158.038l9.97.266c.42.012.559-.557.18-.736l-3.867-1.826ZM219.171 194.179a.401.401 0 0 0-.156-.037l-10.006-.235c-.417-.009-.556.554-.182.735l5.824 2.818c.05.024.104.037.16.038l10.147.234c.419.01.556-.558.178-.737l-5.965-2.816Z"/></g><path d="M208.916 199.941a11.622 11.622 0 0 0-4.95-1.225l-64.567-1.407c-.393-.008-.551.505-.22.714l19.208 12.156a11.612 11.612 0 0 0 6.219 1.798l66.63-.041c.409-.001.543-.551.178-.733l-22.498-11.262Z" fill="#6D85B7"/><g filter="url(#p)"><path d="M208.916 199.531a11.636 11.636 0 0 0-4.95-1.225l-64.567-1.406c-.393-.009-.551.504-.22.714l19.208 12.156a11.611 11.611 0 0 0 6.219 1.797l66.63-.041c.409 0 .543-.55.178-.732l-22.498-11.263Z" fill="#F2F8FF"/></g><path fill-rule="evenodd" clip-rule="evenodd" d="M124.803 34.085h-2.325c-3.852 0-6.974 3.47-6.974 7.75 0 4.28 3.122 7.749 6.974 7.749h2.325v-.441c2.709-1.064 4.65-3.934 4.65-7.309 0-3.374-1.941-6.244-4.65-7.308v-.44Z" fill="#70AEF9"/><path fill-rule="evenodd" clip-rule="evenodd" d="M124.803 34.085h-2.325c-3.852 0-6.974 3.47-6.974 7.75 0 4.28 3.122 7.749 6.974 7.749h2.325v-.441c2.709-1.064 4.65-3.934 4.65-7.309 0-3.374-1.941-6.244-4.65-7.308v-.44Z" fill="url(#q)" fill-opacity=".5"/><ellipse cx="124.803" cy="41.834" rx="6.974" ry="7.749" fill="#86BAFA"/><ellipse cx="124.803" cy="41.834" rx="6.974" ry="7.749" fill="url(#r)" fill-opacity=".5"/><g filter="url(#s)"><ellipse cx="124.803" cy="41.834" rx="5.425" ry="6.199" fill="#212121"/><ellipse cx="124.803" cy="41.834" rx="5.425" ry="6.199" fill="url(#t)" fill-opacity=".7"/></g><path d="M129.708 83.293c0-2.712 1.162-4.262 1.162-4.262l.519-23.248h-.935c-5.217 12.94-5.746 25.136-2.939 37.034a2.242 2.242 0 0 0 2.193 1.713V83.293Z" fill="#70AEF9"/><path d="M129.708 83.293c0-2.712 1.162-4.262 1.162-4.262l.519-23.248h-.935c-5.217 12.94-5.746 25.136-2.939 37.034a2.242 2.242 0 0 0 2.193 1.713V83.293Z" fill="url(#u)" fill-opacity=".5"/><path d="M129.708 83.293c0-2.712 1.162-4.262 1.162-4.262l.519-23.248h-.935c-5.217 12.94-5.746 25.136-2.939 37.034a2.242 2.242 0 0 0 2.193 1.713V83.293Z" fill="url(#v)" fill-opacity=".6"/><path d="M129.708 69.732h3.1v24.023a.775.775 0 0 1-.775.775h-2.325V69.732Z" fill="#70AEF9"/><path d="M129.708 69.732h3.1v24.023a.775.775 0 0 1-.775.775h-2.325V69.732Z" fill="url(#w)" fill-opacity=".6"/><g filter="url(#x)" fill-rule="evenodd" clip-rule="evenodd"><path d="M138.166 79.031h-13.174l-2.48 34.099c-6.745.118-12.177 5.623-12.177 12.397 0 1.359.218 2.666.622 3.889a14.27 14.27 0 0 0-.622-.014c-7.276 0-13.174 5.898-13.174 13.174 0 7.275 5.898 13.174 13.174 13.174h43.396c7.276 0 13.174-5.899 13.174-13.174 0-7.276-5.898-13.174-13.174-13.174-.307 0-.612.01-.914.031.589-1.444.914-3.025.914-4.681 0-6.848-5.551-12.399-12.399-12.399l-.137.001-3.029-33.323Z" fill="url(#y)" fill-opacity=".4"/><path d="M138.166 79.031h-13.174l-2.48 34.099c-6.745.118-12.177 5.623-12.177 12.397 0 1.359.218 2.666.622 3.889a14.27 14.27 0 0 0-.622-.014c-7.276 0-13.174 5.898-13.174 13.174 0 7.275 5.898 13.174 13.174 13.174h43.396c7.276 0 13.174-5.899 13.174-13.174 0-7.276-5.898-13.174-13.174-13.174-.307 0-.612.01-.914.031.589-1.444.914-3.025.914-4.681 0-6.848-5.551-12.399-12.399-12.399l-.137.001-3.029-33.323Z" fill="url(#z)"/></g><path d="M147.919 94.53h-2.142c-1.049 0-1.835-1.034-1.7-2.075.284-2.175.316-5.745-1.583-9.162-2.226-4.007-6.266-8.361-5.082-12.79l3.934-14.72h2.311c13.498 13.561 12.348 26.306 4.262 38.747Z" fill="#70AEF9"/><path d="M149.015 94.53h-.913c-1.049 0-1.836-1.034-1.7-2.075.284-2.175.315-5.745-1.583-9.162-2.156-3.88-5.994-8.181-4.917-12.488l3.755-15.022c13.621 13.62 14.265 25.832 6.653 38.035-.278.445-.77.712-1.295.712Z" fill="#70AEF9"/><path d="M149.015 94.53h-.913c-1.049 0-1.836-1.034-1.7-2.075.284-2.175.315-5.745-1.583-9.162-2.156-3.88-5.994-8.181-4.917-12.488l3.755-15.022c13.621 13.62 14.265 25.832 6.653 38.035-.278.445-.77.712-1.295.712Z" fill="url(#A)" fill-opacity=".5"/><g filter="url(#B)" fill-rule="evenodd" clip-rule="evenodd"><path d="M145.464 36.41v14.724h-.025c-.462 10.935-7.078 27.899-7.078 27.899H124.8s-7.217-16.963-7.721-27.9h-.027V36.41c0-14.724 14.24-27.123 14.24-27.123s14.172 12.399 14.172 27.123Z" fill="#FF6C0E"/><path d="M145.464 36.41v14.724h-.025c-.462 10.935-7.078 27.899-7.078 27.899H124.8s-7.217-16.963-7.721-27.9h-.027V36.41c0-14.724 14.24-27.123 14.24-27.123s14.172 12.399 14.172 27.123Z" fill="url(#C)" fill-opacity=".2"/></g><mask id="E" style="mask-type:alpha" maskUnits="userSpaceOnUse" x="117" y="9" width="29" height="71"><path fill-rule="evenodd" clip-rule="evenodd" d="M145.464 36.41v14.724h-.025c-.462 10.935-7.078 27.899-7.078 27.899H124.8s-7.217-16.963-7.721-27.9h-.027V36.41c0-14.724 14.24-27.123 14.24-27.123s14.172 12.399 14.172 27.123Z" fill="#FF6C0E"/><path fill-rule="evenodd" clip-rule="evenodd" d="M145.464 36.41v14.724h-.025c-.462 10.935-7.078 27.899-7.078 27.899H124.8s-7.217-16.963-7.721-27.9h-.027V36.41c0-14.724 14.24-27.123 14.24-27.123s14.172 12.399 14.172 27.123Z" fill="url(#D)" fill-opacity=".2"/></mask><g mask="url(#E)"><g filter="url(#F)"><path fill-rule="evenodd" clip-rule="evenodd" d="M115.759 71.282a.775.775 0 1 0 0 1.55h30.998a.775.775 0 1 0 0-1.55h-30.998Zm0 3.874a.775.775 0 1 0 0 1.55h30.998a.775.775 0 1 0 0-1.55h-30.998Z" fill="#B52555"/></g><g filter="url(#G)"><path d="M113.434 44.934h35.647" stroke="#B52555" stroke-width="1.55" stroke-linecap="round" stroke-linejoin="round"/></g><g filter="url(#H)"><path d="M113.434 39.51h35.647" stroke="#B52555" stroke-width="1.55" stroke-linecap="round" stroke-linejoin="round"/></g><g filter="url(#I)"><path d="M113.434 13.93h35.647" stroke="#B52555" stroke-width=".929" stroke-linecap="round" stroke-linejoin="round"/></g></g><path d="M116.804 94.53h2.613s-1.851-5.812 1.163-11.237c2.227-4.008 6.394-8.113 5.711-12.647l-2.238-14.863h-2.311c-13.112 13.173-14.229 25.576-6.872 37.678a2.256 2.256 0 0 0 1.934 1.069Z" fill="#D9D9D9"/><path d="M116.804 94.53h2.613s-1.851-5.812 1.163-11.237c2.227-4.008 6.394-8.113 5.711-12.647l-2.238-14.863h-2.311c-13.112 13.173-14.229 25.576-6.872 37.678a2.256 2.256 0 0 0 1.934 1.069Z" fill="#70AEF9"/><path d="M116.804 94.53h2.613s-1.851-5.812 1.163-11.237c2.227-4.008 6.394-8.113 5.711-12.647l-2.238-14.863h-2.311c-13.112 13.173-14.229 25.576-6.872 37.678a2.256 2.256 0 0 0 1.934 1.069Z" fill="url(#J)" fill-opacity=".5"/><g filter="url(#K)"><path d="M132.808 12.774c5.997 7.088 12.165 15.23 12.011 24.798" stroke="#fff" stroke-width="1.55" stroke-linecap="round" stroke-linejoin="round"/></g><g filter="url(#L)"><ellipse cx="139.395" cy="42.222" rx="5.812" ry="6.587" fill="#5B6176"/></g><path fill-rule="evenodd" clip-rule="evenodd" d="M142.107 34.085h-2.325c-3.852 0-6.974 3.47-6.974 7.75 0 4.28 3.122 7.749 6.974 7.749h2.325v-.441c2.709-1.064 4.649-3.934 4.649-7.309 0-3.374-1.94-6.244-4.649-7.308v-.44Z" fill="#70AEF9"/><path fill-rule="evenodd" clip-rule="evenodd" d="M142.107 34.085h-2.325c-3.852 0-6.974 3.47-6.974 7.75 0 4.28 3.122 7.749 6.974 7.749h2.325v-.441c2.709-1.064 4.649-3.934 4.649-7.309 0-3.374-1.94-6.244-4.649-7.308v-.44Z" fill="url(#M)" fill-opacity=".5"/><ellipse cx="142.107" cy="41.834" rx="6.974" ry="7.749" fill="#86BAFA"/><ellipse cx="142.107" cy="41.834" rx="6.974" ry="7.749" fill="url(#N)" fill-opacity=".5"/><g filter="url(#O)"><ellipse cx="142.107" cy="41.834" rx="5.425" ry="6.199" fill="#212121"/><ellipse cx="142.107" cy="41.834" rx="5.425" ry="6.199" fill="url(#P)" fill-opacity=".7"/></g><path d="M118.709 94.53h.913c1.049 0 1.836-1.034 1.7-2.075-.284-2.175-.315-5.745 1.583-9.162 2.156-3.88 5.994-8.181 4.917-12.488l-3.755-15.022c-13.621 13.62-14.265 25.832-6.653 38.035.278.445.77.712 1.295.712Z" fill="#86BAFA"/><path d="M118.709 94.53h.913c1.049 0 1.836-1.034 1.7-2.075-.284-2.175-.315-5.745 1.583-9.162 2.156-3.88 5.994-8.181 4.917-12.488l-3.755-15.022c-13.621 13.62-14.265 25.832-6.653 38.035.278.445.77.712 1.295.712Z" fill="url(#Q)" fill-opacity=".5"/><path fill-rule="evenodd" clip-rule="evenodd" d="M168.939 150.486c.19 1.239.259 2.49.208 3.736a13.948 13.948 0 0 1 12.876 20.892v.012L70.82 169.702l.005-.004h-.078a13.95 13.95 0 0 1 18.996-13.003 19.362 19.362 0 0 1 16.65-9.47 19.37 19.37 0 0 1 11.013 3.434 13.947 13.947 0 0 1 14.415-4.476 19.4 19.4 0 0 1 5.361-7.468 19.362 19.362 0 0 1 15.355-4.468 19.37 19.37 0 0 1 16.402 16.239Z" fill="url(#R)"/><path fill-rule="evenodd" clip-rule="evenodd" d="M177.968 149.81c.2 1.305.273 2.622.219 3.934a14.682 14.682 0 0 1 14.903 10.442c.648 2.158.791 4.436.417 6.658a14.679 14.679 0 0 1-2.57 6.157l-.005-.004.003.024-116.38-6.57v-1.224l.023-.005a14.681 14.681 0 0 1 4.28-9.566 14.695 14.695 0 0 1 15.704-3.307 20.395 20.395 0 0 1 17.535-9.973 20.387 20.387 0 0 1 11.598 3.616 14.692 14.692 0 0 1 15.181-4.714 20.395 20.395 0 0 1 13.224-11.964 20.405 20.405 0 0 1 25.868 16.496Z" fill="url(#S)"/><g filter="url(#T)"><path d="M69.914 85.233c-1.509-5.65-6.738-10.06-12.656-10.304-4.699-.194-8.588 2.302-10.34 6.116-4.856.318-8.363 4.302-8.002 9.321.387 5.376 5.075 9.926 10.457 10.148l21.136.872c4.488.185 7.868-3.303 7.545-7.785-.308-4.288-3.891-7.902-8.14-8.368Z" fill="#5B5D7B"/></g><path d="M79.087 78.997c-1.969-7.371-8.792-13.126-16.514-13.444-6.13-.253-11.206 3.003-13.491 7.98-6.337.414-10.912 5.614-10.441 12.162.505 7.015 6.622 12.952 13.644 13.242l27.579 1.138c5.855.241 11.633-4.454 11.212-10.303-.403-5.596-6.446-10.166-11.989-10.775Z" fill="#768ABA"/><path d="M79.087 78.997c-1.969-7.371-8.792-13.126-16.514-13.444-6.13-.253-11.206 3.003-13.491 7.98-6.337.414-10.912 5.614-10.441 12.162.505 7.015 6.622 12.952 13.644 13.242l27.579 1.138c5.855.241 11.633-4.454 11.212-10.303-.403-5.596-6.446-10.166-11.989-10.775Z" fill="url(#U)" fill-opacity=".8"/><path d="m81.188 76.348.156.585.594.066c5.143.565 9.472 4.936 9.845 10.117.39 5.423-3.699 9.641-9.126 9.418L55.08 95.395c-6.594-.272-12.34-5.847-12.814-12.435-.442-6.15 3.855-11.033 9.803-11.422l.41-.027.166-.36c2.175-4.737 7.004-7.832 12.834-7.592 7.344.303 13.835 5.776 15.709 12.789Z" fill="#C9D9FE"/><path d="m81.188 76.348.156.585.594.066c5.143.565 9.472 4.936 9.845 10.117.39 5.423-3.699 9.641-9.126 9.418L55.08 95.395c-6.594-.272-12.34-5.847-12.814-12.435-.442-6.15 3.855-11.033 9.803-11.422l.41-.027.166-.36c2.175-4.737 7.004-7.832 12.834-7.592 7.344.303 13.835 5.776 15.709 12.789Z" fill="url(#V)" fill-opacity=".6"/><path d="m81.188 76.348.156.585.594.066c5.143.565 9.472 4.936 9.845 10.117.39 5.423-3.699 9.641-9.126 9.418L55.08 95.395c-6.594-.272-12.34-5.847-12.814-12.435-.442-6.15 3.855-11.033 9.803-11.422l.41-.027.166-.36c2.175-4.737 7.004-7.832 12.834-7.592 7.344.303 13.835 5.776 15.709 12.789Z" stroke="url(#W)" stroke-width="1.55"/><defs><linearGradient id="r" x1="127.903" y1="53.458" x2="120.153" y2="32.535" gradientUnits="userSpaceOnUse"><stop stop-color="#fff"/><stop offset="1" stop-color="#fff" stop-opacity="0"/></linearGradient><linearGradient id="k" x1="199.175" y1="85.351" x2="50.301" y2="158.995" gradientUnits="userSpaceOnUse"><stop stop-color="#595F75"/><stop offset=".193" stop-color="#737B98"/><stop offset=".794" stop-color="#5B5D7B"/></linearGradient><linearGradient id="U" x1="43.475" y1="67.218" x2="54.186" y2="104.16" gradientUnits="userSpaceOnUse"><stop stop-color="#fff"/><stop offset="1" stop-color="#fff" stop-opacity="0"/></linearGradient><linearGradient id="S" x1="167.594" y1="132.501" x2="165.354" y2="175.784" gradientUnits="userSpaceOnUse"><stop offset=".537" stop-color="#fff"/><stop offset=".98" stop-color="#fff" stop-opacity="0"/></linearGradient><linearGradient id="R" x1="125.767" y1="135.837" x2="125.291" y2="170.084" gradientUnits="userSpaceOnUse"><stop offset=".216" stop-color="#D2D0D0"/><stop offset="1" stop-color="#D2D0D0" stop-opacity="0"/></linearGradient><linearGradient id="j" x1="199.954" y1="81.452" x2="27.216" y2="242.139" gradientUnits="userSpaceOnUse"><stop stop-color="#737B98" stop-opacity="0"/><stop offset=".168" stop-color="#737B98"/><stop offset=".535" stop-color="#737B98" stop-opacity="0"/></linearGradient><linearGradient id="Q" x1="111.856" y1="84.256" x2="131.746" y2="73.542" gradientUnits="userSpaceOnUse"><stop stop-color="#fff"/><stop offset="1" stop-color="#fff" stop-opacity="0"/></linearGradient><linearGradient id="N" x1="145.207" y1="53.458" x2="137.457" y2="32.535" gradientUnits="userSpaceOnUse"><stop stop-color="#fff"/><stop offset="1" stop-color="#fff" stop-opacity="0"/></linearGradient><linearGradient id="q" x1="118.991" y1="30.598" x2="116.333" y2="49.259" gradientUnits="userSpaceOnUse"><stop stop-color="#fff" stop-opacity="0"/><stop offset=".422" stop-color="#fff"/><stop offset="1" stop-color="#fff" stop-opacity="0"/></linearGradient><linearGradient id="b" x1="23.752" y1="33.167" x2="35.854" y2="84.846" gradientUnits="userSpaceOnUse"><stop stop-color="#fff"/><stop offset="1" stop-color="#fff" stop-opacity="0"/></linearGradient><linearGradient id="M" x1="136.295" y1="30.598" x2="133.637" y2="49.259" gradientUnits="userSpaceOnUse"><stop stop-color="#fff" stop-opacity="0"/><stop offset=".422" stop-color="#fff"/><stop offset="1" stop-color="#fff" stop-opacity="0"/></linearGradient><linearGradient id="u" x1="126.706" y1="47.065" x2="105.535" y2="81.737" gradientUnits="userSpaceOnUse"><stop stop-color="#fff" stop-opacity="0"/><stop offset=".422" stop-color="#fff"/><stop offset="1" stop-color="#fff" stop-opacity="0"/></linearGradient><linearGradient id="v" x1="128.933" y1="64.308" x2="128.158" y2="85.618" gradientUnits="userSpaceOnUse"><stop/><stop offset="1" stop-opacity="0"/></linearGradient><linearGradient id="w" x1="131.258" y1="72.832" x2="131.258" y2="94.53" gradientUnits="userSpaceOnUse"><stop/><stop offset="1" stop-opacity="0"/></linearGradient><linearGradient id="y" x1="151.618" y1="82.131" x2="151.618" y2="152.203" gradientUnits="userSpaceOnUse"><stop stop-color="#fff"/><stop offset=".98" stop-color="#fff" stop-opacity="0"/></linearGradient><linearGradient id="J" x1="112.49" y1="47.065" x2="101.397" y2="91.921" gradientUnits="userSpaceOnUse"><stop stop-color="#fff" stop-opacity="0"/><stop offset=".422" stop-color="#fff"/><stop offset="1" stop-color="#fff" stop-opacity="0"/></linearGradient><linearGradient id="A" x1="154.688" y1="59.658" x2="165.798" y2="84.776" gradientUnits="userSpaceOnUse"><stop stop-color="#fff"/><stop offset="1" stop-color="#fff" stop-opacity="0"/></linearGradient><linearGradient id="C" x1="120.28" y1="32.923" x2="143.898" y2="31.305" gradientUnits="userSpaceOnUse"><stop/><stop offset=".581" stop-opacity="0"/></linearGradient><linearGradient id="D" x1="120.28" y1="32.923" x2="143.898" y2="31.305" gradientUnits="userSpaceOnUse"><stop/><stop offset=".581" stop-opacity="0"/></linearGradient><filter id="a" x=".207" y="29.188" width="84.629" height="68.569" filterUnits="userSpaceOnUse" color-interpolation-filters="sRGB"><feFlood flood-opacity="0" result="BackgroundImageFix"/><feBlend in="SourceGraphic" in2="BackgroundImageFix" result="shape"/><feGaussianBlur stdDeviation="7.749" result="effect1_foregroundBlur_20_2175"/></filter><filter id="f" x="51.363" y="55.788" width="155.12" height="129.909" filterUnits="userSpaceOnUse" color-interpolation-filters="sRGB"><feFlood flood-opacity="0" result="BackgroundImageFix"/><feBlend in="SourceGraphic" in2="BackgroundImageFix" result="shape"/><feColorMatrix in="SourceAlpha" values="0 0 0 0 0 0 0 0 0 0 0 0 0 0 0 0 0 0 127 0" result="hardAlpha"/><feOffset dx="1.55" dy="-.775"/><feGaussianBlur stdDeviation=".775"/><feComposite in2="hardAlpha" operator="arithmetic" k2="-1" k3="1"/><feColorMatrix values="0 0 0 0 0 0 0 0 0 0 0 0 0 0 0 0 0 0 0.25 0"/><feBlend in2="shape" result="effect1_innerShadow_20_2175"/></filter><filter id="g" x="52.138" y="55.788" width="155.12" height="129.909" filterUnits="userSpaceOnUse" color-interpolation-filters="sRGB"><feFlood flood-opacity="0" result="BackgroundImageFix"/><feBlend in="SourceGraphic" in2="BackgroundImageFix" result="shape"/><feColorMatrix in="SourceAlpha" values="0 0 0 0 0 0 0 0 0 0 0 0 0 0 0 0 0 0 127 0" result="hardAlpha"/><feOffset dx="1.55" dy="-.775"/><feGaussianBlur stdDeviation=".775"/><feComposite in2="hardAlpha" operator="arithmetic" k2="-1" k3="1"/><feColorMatrix values="0 0 0 0 0 0 0 0 0 0 0 0 0 0 0 0 0 0 0.25 0"/><feBlend in2="shape" result="effect1_innerShadow_20_2175"/></filter><filter id="i" x="58.327" y="60.896" width="144.08" height="121.039" filterUnits="userSpaceOnUse" color-interpolation-filters="sRGB"><feFlood flood-opacity="0" result="BackgroundImageFix"/><feBlend in="SourceGraphic" in2="BackgroundImageFix" result="shape"/><feColorMatrix in="SourceAlpha" values="0 0 0 0 0 0 0 0 0 0 0 0 0 0 0 0 0 0 127 0" result="hardAlpha"/><feOffset dy=".775"/><feGaussianBlur stdDeviation=".775"/><feComposite in2="hardAlpha" operator="arithmetic" k2="-1" k3="1"/><feColorMatrix values="0 0 0 0 0 0 0 0 0 0 0 0 0 0 0 0 0 0 0.25 0"/><feBlend in2="shape" result="effect1_innerShadow_20_2175"/></filter><filter id="l" x="57.988" y="175.831" width="214.152" height="45.641" filterUnits="userSpaceOnUse" color-interpolation-filters="sRGB"><feFlood flood-opacity="0" result="BackgroundImageFix"/><feBlend in="SourceGraphic" in2="BackgroundImageFix" result="shape"/><feColorMatrix in="SourceAlpha" values="0 0 0 0 0 0 0 0 0 0 0 0 0 0 0 0 0 0 127 0" result="hardAlpha"/><feOffset dy="-2.325"/><feGaussianBlur stdDeviation="1.937"/><feComposite in2="hardAlpha" operator="arithmetic" k2="-1" k3="1"/><feColorMatrix values="0 0 0 0 0 0 0 0 0 0 0 0 0 0 0 0 0 0 0.5 0"/><feBlend in2="shape" result="effect1_innerShadow_20_2175"/></filter><filter id="e" x="48.872" y="184.422" width="223.82" height="56.828" filterUnits="userSpaceOnUse" color-interpolation-filters="sRGB"><feFlood flood-opacity="0" result="BackgroundImageFix"/><feBlend in="SourceGraphic" in2="BackgroundImageFix" result="shape"/><feGaussianBlur stdDeviation="9.299" result="effect1_foregroundBlur_20_2175"/></filter><filter id="o" x="86.15" y="181.111" width="139.207" height="16.621" filterUnits="userSpaceOnUse" color-interpolation-filters="sRGB"><feFlood flood-opacity="0" result="BackgroundImageFix"/><feBlend in="SourceGraphic" in2="BackgroundImageFix" result="shape"/><feColorMatrix in="SourceAlpha" values="0 0 0 0 0 0 0 0 0 0 0 0 0 0 0 0 0 0 127 0" result="hardAlpha"/><feOffset dy="-.387"/><feGaussianBlur stdDeviation=".194"/><feComposite in2="hardAlpha" operator="arithmetic" k2="-1" k3="1"/><feColorMatrix values="0 0 0 0 0 0 0 0 0 0 0 0 0 0 0 0 0 0 0.25 0"/><feBlend in2="shape" result="effect1_innerShadow_20_2175"/></filter><filter id="p" x="138.999" y="196.512" width="92.628" height="15.055" filterUnits="userSpaceOnUse" color-interpolation-filters="sRGB"><feFlood flood-opacity="0" result="BackgroundImageFix"/><feBlend in="SourceGraphic" in2="BackgroundImageFix" result="shape"/><feColorMatrix in="SourceAlpha" values="0 0 0 0 0 0 0 0 0 0 0 0 0 0 0 0 0 0 127 0" result="hardAlpha"/><feOffset dy="-.387"/><feGaussianBlur stdDeviation=".194"/><feComposite in2="hardAlpha" operator="arithmetic" k2="-1" k3="1"/><feColorMatrix values="0 0 0 0 0 0 0 0 0 0 0 0 0 0 0 0 0 0 0.25 0"/><feBlend in2="shape" result="effect1_innerShadow_20_2175"/></filter><filter id="s" x="119.379" y="35.635" width="10.849" height="12.399" filterUnits="userSpaceOnUse" color-interpolation-filters="sRGB"><feFlood flood-opacity="0" result="BackgroundImageFix"/><feBlend in="SourceGraphic" in2="BackgroundImageFix" result="shape"/><feColorMatrix in="SourceAlpha" values="0 0 0 0 0 0 0 0 0 0 0 0 0 0 0 0 0 0 127 0" result="hardAlpha"/><feOffset dx="-1.55"/><feComposite in2="hardAlpha" operator="arithmetic" k2="-1" k3="1"/><feColorMatrix values="0 0 0 0 0.34902 0 0 0 0 0.372549 0 0 0 0 0.458824 0 0 0 0.99 0"/><feBlend in2="shape" result="effect1_innerShadow_20_2175"/></filter><filter id="x" x="89.411" y="79.031" width="77.493" height="76.718" filterUnits="userSpaceOnUse" color-interpolation-filters="sRGB"><feFlood flood-opacity="0" result="BackgroundImageFix"/><feBlend in="SourceGraphic" in2="BackgroundImageFix" result="shape"/><feColorMatrix in="SourceAlpha" values="0 0 0 0 0 0 0 0 0 0 0 0 0 0 0 0 0 0 127 0" result="hardAlpha"/><feOffset dx="-7.749"/><feGaussianBlur stdDeviation="3.875"/><feComposite in2="hardAlpha" operator="arithmetic" k2="-1" k3="1"/><feColorMatrix values="0 0 0 0 1 0 0 0 0 1 0 0 0 0 1 0 0 0 0.25 0"/><feBlend in2="shape" result="effect1_innerShadow_20_2175"/></filter><filter id="B" x="117.052" y="7.737" width="31.512" height="71.296" filterUnits="userSpaceOnUse" color-interpolation-filters="sRGB"><feFlood flood-opacity="0" result="BackgroundImageFix"/><feBlend in="SourceGraphic" in2="BackgroundImageFix" result="shape"/><feColorMatrix in="SourceAlpha" values="0 0 0 0 0 0 0 0 0 0 0 0 0 0 0 0 0 0 127 0" result="hardAlpha"/><feOffset dx="3.1" dy="-1.55"/><feGaussianBlur stdDeviation="1.55"/><feComposite in2="hardAlpha" operator="arithmetic" k2="-1" k3="1"/><feColorMatrix values="0 0 0 0 0 0 0 0 0 0 0 0 0 0 0 0 0 0 0.25 0"/><feBlend in2="shape" result="effect1_innerShadow_20_2175"/></filter><filter id="F" x="114.984" y="71.282" width="32.547" height="6.199" filterUnits="userSpaceOnUse" color-interpolation-filters="sRGB"><feFlood flood-opacity="0" result="BackgroundImageFix"/><feBlend in="SourceGraphic" in2="BackgroundImageFix" result="shape"/><feColorMatrix in="SourceAlpha" values="0 0 0 0 0 0 0 0 0 0 0 0 0 0 0 0 0 0 127 0" result="hardAlpha"/><feOffset dy=".775"/><feGaussianBlur stdDeviation=".387"/><feComposite in2="hardAlpha" operator="arithmetic" k2="-1" k3="1"/><feColorMatrix values="0 0 0 0 0 0 0 0 0 0 0 0 0 0 0 0 0 0 0.25 0"/><feBlend in2="shape" result="effect1_innerShadow_20_2175"/></filter><filter id="G" x="112.659" y="44.159" width="37.197" height="2.325" filterUnits="userSpaceOnUse" color-interpolation-filters="sRGB"><feFlood flood-opacity="0" result="BackgroundImageFix"/><feBlend in="SourceGraphic" in2="BackgroundImageFix" result="shape"/><feColorMatrix in="SourceAlpha" values="0 0 0 0 0 0 0 0 0 0 0 0 0 0 0 0 0 0 127 0" result="hardAlpha"/><feOffset dy=".775"/><feGaussianBlur stdDeviation=".387"/><feComposite in2="hardAlpha" operator="arithmetic" k2="-1" k3="1"/><feColorMatrix values="0 0 0 0 0 0 0 0 0 0 0 0 0 0 0 0 0 0 0.25 0"/><feBlend in2="shape" result="effect1_innerShadow_20_2175"/></filter><filter id="H" x="112.659" y="38.735" width="37.197" height="2.325" filterUnits="userSpaceOnUse" color-interpolation-filters="sRGB"><feFlood flood-opacity="0" result="BackgroundImageFix"/><feBlend in="SourceGraphic" in2="BackgroundImageFix" result="shape"/><feColorMatrix in="SourceAlpha" values="0 0 0 0 0 0 0 0 0 0 0 0 0 0 0 0 0 0 127 0" result="hardAlpha"/><feOffset dy=".775"/><feGaussianBlur stdDeviation=".387"/><feComposite in2="hardAlpha" operator="arithmetic" k2="-1" k3="1"/><feColorMatrix values="0 0 0 0 0 0 0 0 0 0 0 0 0 0 0 0 0 0 0.25 0"/><feBlend in2="shape" result="effect1_innerShadow_20_2175"/></filter><filter id="I" x="112.97" y="13.466" width="36.576" height="1.704" filterUnits="userSpaceOnUse" color-interpolation-filters="sRGB"><feFlood flood-opacity="0" result="BackgroundImageFix"/><feBlend in="SourceGraphic" in2="BackgroundImageFix" result="shape"/><feColorMatrix in="SourceAlpha" values="0 0 0 0 0 0 0 0 0 0 0 0 0 0 0 0 0 0 127 0" result="hardAlpha"/><feOffset dy=".775"/><feGaussianBlur stdDeviation=".387"/><feComposite in2="hardAlpha" operator="arithmetic" k2="-1" k3="1"/><feColorMatrix values="0 0 0 0 0 0 0 0 0 0 0 0 0 0 0 0 0 0 0.25 0"/><feBlend in2="shape" result="effect1_innerShadow_20_2175"/></filter><filter id="K" x="128.933" y="8.9" width="19.764" height="32.547" filterUnits="userSpaceOnUse" color-interpolation-filters="sRGB"><feFlood flood-opacity="0" result="BackgroundImageFix"/><feBlend in="SourceGraphic" in2="BackgroundImageFix" result="shape"/><feGaussianBlur stdDeviation="1.55" result="effect1_foregroundBlur_20_2175"/></filter><filter id="L" x="130.483" y="32.535" width="17.823" height="19.373" filterUnits="userSpaceOnUse" color-interpolation-filters="sRGB"><feFlood flood-opacity="0" result="BackgroundImageFix"/><feBlend in="SourceGraphic" in2="BackgroundImageFix" result="shape"/><feGaussianBlur stdDeviation="1.55" result="effect1_foregroundBlur_20_2175"/></filter><filter id="O" x="136.682" y="35.635" width="10.849" height="12.399" filterUnits="userSpaceOnUse" color-interpolation-filters="sRGB"><feFlood flood-opacity="0" result="BackgroundImageFix"/><feBlend in="SourceGraphic" in2="BackgroundImageFix" result="shape"/><feColorMatrix in="SourceAlpha" values="0 0 0 0 0 0 0 0 0 0 0 0 0 0 0 0 0 0 127 0" result="hardAlpha"/><feOffset dx="-1.55"/><feComposite in2="hardAlpha" operator="arithmetic" k2="-1" k3="1"/><feColorMatrix values="0 0 0 0 0.34902 0 0 0 0 0.372549 0 0 0 0 0.458824 0 0 0 0.99 0"/><feBlend in2="shape" result="effect1_innerShadow_20_2175"/></filter><filter id="T" x="23.392" y="59.42" width="70.182" height="57.472" filterUnits="userSpaceOnUse" color-interpolation-filters="sRGB"><feFlood flood-opacity="0" result="BackgroundImageFix"/><feBlend in="SourceGraphic" in2="BackgroundImageFix" result="shape"/><feGaussianBlur stdDeviation="7.749" result="effect1_foregroundBlur_20_2175"/></filter><radialGradient id="z" cx="0" cy="0" r="1" gradientUnits="userSpaceOnUse" gradientTransform="matrix(0 63.7713 -4.51174 0 131.911 78.94)"><stop stop-color="#fff"/><stop offset="1" stop-color="#fff" stop-opacity="0"/></radialGradient><radialGradient id="t" cx="0" cy="0" r="1" gradientUnits="userSpaceOnUse" gradientTransform="rotate(-45 112.994 -122.024) scale(10.9592 9.58931)"><stop stop-color="#fff"/><stop offset="1" stop-color="#fff" stop-opacity="0"/></radialGradient><radialGradient id="n" cx="0" cy="0" r="1" gradientUnits="userSpaceOnUse" gradientTransform="rotate(149.338 88.463 104.133) scale(125.96 111.091)"><stop stop-color="#fff"/><stop offset="1" stop-color="#fff" stop-opacity="0"/></radialGradient><radialGradient id="P" cx="0" cy="0" r="1" gradientUnits="userSpaceOnUse" gradientTransform="rotate(-45 121.646 -142.91) scale(10.9592 9.58931)"><stop stop-color="#fff"/><stop offset="1" stop-color="#fff" stop-opacity="0"/></radialGradient><radialGradient id="m" cx="0" cy="0" r="1" gradientUnits="userSpaceOnUse" gradientTransform="matrix(-105.21116 72.361 -63.81888 -92.7911 232.068 134.423)"><stop stop-color="#C9D9FE"/><stop offset="1" stop-color="#B6C9F6" stop-opacity="0"/></radialGradient><radialGradient id="h" cx="0" cy="0" r="1" gradientUnits="userSpaceOnUse" gradientTransform="rotate(144.516 70.78 78.816) scale(120.287 105.012)"><stop stop-color="#B6C9F6"/><stop offset="1" stop-color="#B6C9F6" stop-opacity="0"/></radialGradient><radialGradient id="d" cx="0" cy="0" r="1" gradientUnits="userSpaceOnUse" gradientTransform="rotate(103.907 30.641 39.301) scale(51.7529 81.3633)"><stop stop-color="#fff"/><stop offset="1" stop-color="#fff" stop-opacity="0"/></radialGradient><radialGradient id="c" cx="0" cy="0" r="1" gradientUnits="userSpaceOnUse" gradientTransform="matrix(-19.78322 34.8191 -50.52635 -28.70763 76.502 29.908)"><stop stop-color="#fff"/><stop offset="1" stop-color="#fff" stop-opacity="0"/></radialGradient><radialGradient id="V" cx="0" cy="0" r="1" gradientUnits="userSpaceOnUse" gradientTransform="matrix(-12.91518 25.9231 -37.76985 -18.81736 81.555 62.844)"><stop stop-color="#fff"/><stop offset="1" stop-color="#fff" stop-opacity="0"/></radialGradient><radialGradient id="W" cx="0" cy="0" r="1" gradientUnits="userSpaceOnUse" gradientTransform="rotate(100.727 17.661 60.978) scale(37.4441 59.0564)"><stop stop-color="#fff"/><stop offset="1" stop-color="#fff" stop-opacity="0"/></radialGradient></defs></svg>