<svg width="40" height="40" viewBox="0 0 40 40" fill="none" xmlns="http://www.w3.org/2000/svg">
<path fill-rule="evenodd" clip-rule="evenodd" d="M6 5C3.79086 5 2 6.79086 2 9V12H4.99994L4.99994 17H2V22H4.99994L4.99994 27H2V31C2 33.2091 3.79086 35 6 35H8.99994V32H7C5.89543 32 5 31.1046 5 30V10C5 8.89543 5.89543 8 7 8H8.99994V5H6ZM12.9999 32V35H16.9999V32H12.9999ZM20.9999 32V35H24.9999V32H20.9999ZM32 32H33.9999V30.0158C33.9915 31.1131 33.0993 32 32 32ZM34 22H36.9999V31.0223L37 31V17H34V22ZM34 12H37V9C37 6.79086 35.2091 5 33 5H28.9999V8H32C33.1046 8 34 8.89543 34 10V12ZM12.9999 5H16.9999V8H12.9999V5ZM20.9999 8V5H24.9999V8H20.9999Z" fill="#6C7280"/>
<path fill-rule="evenodd" clip-rule="evenodd" d="M31 20C26.5817 20 23 23.5817 23 28C23 32.4183 26.5817 36 31 36C35.4183 36 39 32.4183 39 28C39 23.5817 35.4183 20 31 20ZM31 26C29.8954 26 29 26.8954 29 28C29 29.1046 29.8954 30 31 30C32.1046 30 33 29.1046 33 28C33 26.8954 32.1046 26 31 26Z" fill="#6C7280"/>
</svg>
