<svg width="30" height="30" viewBox="0 0 30 30" fill="none" xmlns="http://www.w3.org/2000/svg">
<path fill-rule="evenodd" clip-rule="evenodd" d="M4 4C2.89543 4 2 4.89543 2 6V24C2 25.1046 2.89543 26 4 26H26C27.1046 26 28 25.1046 28 24V6C28 4.89543 27.1046 4 26 4H4ZM18.5271 11.6874C18.5272 13.721 16.8831 15.3748 14.8625 15.3748C12.842 15.3748 11.198 13.7204 11.198 11.6874C11.198 9.6545 12.842 8 14.8625 8C16.8831 8 18.5271 9.65392 18.5271 11.6874ZM13.6269 15.7298H16.3727C18.9243 15.7298 21 17.8172 21 20.3825V20.6587C21 22 18.8558 22 16.3727 22H13.6269C11.0421 22 9 22 9 20.6587V20.3825C9 17.8167 11.0754 15.7298 13.6269 15.7298Z" fill="#484E59"/>
</svg>
