<svg width="16" height="16" viewBox="0 0 16 16" fill="none" xmlns="http://www.w3.org/2000/svg">
<g clip-path="url(#clip0_1612_5297)">
<path fill-rule="evenodd" clip-rule="evenodd" d="M11.2825 4.2553C11.1793 4.50452 10.9359 4.66693 10.6662 4.66673L8.66666 4.66523L8.66666 11.3359L10.6672 11.3374C10.9368 11.3376 11.1797 11.5002 11.2827 11.7493C11.3858 11.9984 11.3286 12.2851 11.1379 12.4756L8.47323 15.1383C8.34284 15.2686 8.17194 15.3336 8.00111 15.3334L8 15.3334C7.80033 15.3334 7.62116 15.2456 7.49898 15.1065L4.8621 12.4716C4.67127 12.281 4.61417 11.994 4.71746 11.7448C4.82075 11.4956 5.06405 11.3332 5.33383 11.3334L7.33333 11.3349L7.33333 4.66423L5.33283 4.66272C5.06324 4.66252 4.8203 4.49997 4.71727 4.25083C4.61424 4.0017 4.6714 3.71504 4.8621 3.52448L7.52677 0.86181C7.65718 0.731498 7.82813 0.66647 7.999 0.666726L8 0.666725C8.19967 0.666725 8.37883 0.754504 8.50102 0.893577L11.1379 3.52848C11.3287 3.71917 11.3858 4.00607 11.2825 4.2553Z" fill="#8A8F99"/>
</g>
<defs>
<clipPath id="clip0_1612_5297">
<rect width="16" height="16" fill="white" transform="translate(16 6.10352e-05) rotate(90)"/>
</clipPath>
</defs>
</svg>
