<svg width="26" height="26" xmlns="http://www.w3.org/2000/svg">
  <g stroke="#fff">
    <path d="M11.154 7.188a3.856 3.856 0 0 1 2.789-1.196c1.455 0 2.716.808 3.395 2.013a4.688 4.688 0 0 1 1.916-.408c2.62 0 4.745 2.142 4.745 4.785 0 2.644-2.126 4.786-4.745 4.786a4.79 4.79 0 0 1-.938-.093 3.473 3.473 0 0 1-3.023 1.778 3.453 3.453 0 0 1-1.52-.349 3.951 3.951 0 0 1-7.348-.178 3.646 3.646 0 0 1-.755.079c-2.03 0-3.67-1.665-3.67-3.71 0-1.375.739-2.571 1.835-3.218A4.271 4.271 0 0 1 7.76 5.511c1.382 0 3.395 1.681 3.395 1.681" fill="#00a1e0" fill-rule="evenodd" stroke-linecap="square" stroke-miterlimit="3.6" stroke-width="4" style="paint-order:stroke fill markers"/>
    <path d="M22.154 2.693a1.5 1.5 0 0 0-2.121.018l-17.594 17.9a1.5 1.5 0 0 0 .017 2.121 1.5 1.5 0 0 0 2.122-.018l17.596-17.9a1.5 1.5 0 0 0-.02-2.12z" color="#000" fill="#191919" stroke-linecap="round" stroke-width=".75"/>
  </g>
</svg>